<?xml version="1.0" standalone="no"?>
<!DOCTYPE svg PUBLIC "-//W3C//DTD SVG 20010904//EN"
 "http://www.w3.org/TR/2001/REC-SVG-20010904/DTD/svg10.dtd">
<svg version="1.0" xmlns="http://www.w3.org/2000/svg"
 width="1126.000000pt" height="1126.000000pt" viewBox="0 0 1126.000000 1126.000000"
 preserveAspectRatio="xMidYMid meet">

<g transform="translate(0.000000,1126.000000) scale(0.100000,-0.100000)"
fill="#000000" stroke="none">
<path d="M8825 10897 c-67 -23 -107 -47 -169 -106 -66 -63 -106 -136 -106
-194 0 -130 83 -240 220 -290 41 -15 84 -27 95 -27 20 0 146 43 217 74 43 18
156 146 188 210 25 53 26 137 1 191 -42 94 -148 146 -306 151 -64 3 -114 -1
-140 -9z m-11 -119 c-27 -18 -59 -48 -71 -67 -33 -49 -55 -134 -55 -209 l0
-64 -26 26 c-36 36 -43 135 -14 193 25 49 90 109 146 134 64 29 73 22 20 -13z"/>
<path d="M7754 10675 c-149 -32 -292 -136 -386 -279 -44 -68 -84 -190 -123
-376 -15 -69 -34 -138 -44 -155 -16 -28 -22 -30 -92 -36 -206 -17 -256 -82
-224 -287 9 -56 14 -106 10 -112 -3 -5 -36 -18 -73 -29 -78 -24 -133 -66 -165
-124 -17 -33 -22 -59 -22 -122 0 -99 24 -174 71 -220 37 -37 41 -45 21 -45 -7
0 -31 -13 -53 -29 -21 -16 -48 -30 -59 -32 -14 -3 -21 -13 -23 -35 -3 -27 5
-38 49 -78 28 -25 56 -46 61 -46 7 0 8 -66 4 -192 -10 -293 -11 -303 -30 -306
-33 -7 -44 -123 -20 -217 5 -20 -3 -23 -83 -43 -179 -45 -342 -148 -493 -310
-150 -160 -215 -276 -314 -556 -45 -124 -59 -181 -68 -261 l-12 -103 -57 -25
-57 -25 -6 22 c-3 11 -6 38 -6 59 0 29 -12 55 -54 115 -58 81 -95 116 -163
151 -28 14 -62 47 -101 99 -97 127 -151 154 -352 177 -245 29 -328 18 -506
-66 -76 -36 -113 -70 -239 -223 -171 -207 -185 -228 -391 -595 -91 -162 -150
-232 -281 -330 -86 -65 -113 -81 -133 -77 -62 13 -273 28 -307 21 -28 -5 -58
-27 -127 -94 -50 -48 -144 -126 -208 -174 -72 -54 -147 -121 -195 -175 -43
-48 -128 -138 -190 -200 -143 -144 -144 -148 -50 -313 l37 -67 -71 -68 c-72
-70 -331 -402 -443 -569 -34 -50 -81 -137 -106 -194 -44 -101 -47 -105 -163
-214 -75 -71 -156 -161 -222 -248 -58 -74 -146 -180 -197 -235 -129 -138 -194
-214 -276 -322 -107 -142 -228 -271 -320 -343 -81 -63 -106 -93 -123 -152 -7
-23 -4 -33 15 -52 19 -19 37 -23 112 -29 49 -4 148 -11 219 -17 159 -14 870
-6 935 10 25 6 121 17 213 26 153 14 178 19 270 55 56 21 154 53 217 71 63 17
133 41 155 53 38 20 53 21 376 22 l335 0 -20 -36 c-19 -36 -19 -39 -3 -64 10
-14 24 -26 31 -26 8 0 38 19 68 43 l53 44 75 -9 c91 -11 160 -23 180 -32 22
-9 53 16 55 45 1 22 8 25 65 32 46 6 65 5 71 -4 6 -10 11 -10 24 1 20 17 401
17 810 0 753 -32 988 -28 1584 20 122 10 157 24 125 51 -12 10 -59 13 -200 14
l-184 0 0 38 c0 20 4 37 10 37 21 0 40 105 40 224 l0 120 -69 67 c-48 48 -80
71 -109 78 l-41 11 -93 -94 -93 -94 0 -206 0 -206 -61 0 -60 0 3 143 c2 78 8
231 13 339 13 260 13 274 -6 292 -20 21 -41 20 -48 -1 -14 -45 -38 -349 -43
-550 l-6 -223 -40 0 c-36 0 -39 2 -33 22 7 22 26 293 41 569 6 111 5 127 -10
139 -26 22 -42 -9 -49 -93 -4 -40 -13 -148 -21 -242 -8 -93 -17 -221 -21 -282
l-7 -113 -36 0 -36 0 -5 223 c-8 336 -6 794 3 803 4 4 31 -3 60 -15 238 -105
555 -215 677 -236 47 -9 126 -16 175 -18 79 -2 94 1 120 20 17 12 118 58 225
101 155 62 206 79 251 80 31 1 67 6 81 11 21 8 29 5 54 -22 17 -17 94 -62 184
-106 l155 -76 115 -2 c63 -1 167 -4 231 -7 95 -5 130 -2 190 13 41 11 100 25
132 31 33 6 78 20 100 31 23 10 57 19 75 19 17 0 32 4 32 9 0 6 16 7 36 4 20
-3 39 -2 43 4 9 14 180 65 192 57 6 -3 8 -13 5 -20 -5 -12 1 -14 27 -10 17 3
73 10 124 16 51 6 143 23 205 39 118 30 220 46 373 57 50 3 102 12 117 20 36
18 45 18 51 -5 4 -18 54 -38 65 -26 4 3 7 83 9 178 1 95 2 175 2 180 1 4 11 7
24 7 12 0 80 14 151 30 72 17 135 30 142 30 9 0 11 -25 7 -98 -5 -85 8 -230
23 -253 10 -16 48 9 56 37 5 16 11 92 14 169 6 145 -1 190 -32 202 -8 3 -73
-4 -142 -15 -224 -38 -252 -40 -261 -24 -12 21 -50 6 -61 -24 -8 -19 -17 -24
-43 -24 -19 0 -58 -4 -88 -10 -30 -5 -142 -23 -249 -40 -107 -17 -231 -39
-275 -49 l-81 -18 -49 44 c-54 47 -75 52 -102 24 -25 -26 -167 -55 -192 -39
-26 16 -50 3 -57 -32 -4 -16 -12 -30 -18 -30 -53 -1 -421 -43 -509 -59 -150
-26 -196 -31 -202 -21 -7 11 -195 85 -295 117 -45 14 -121 28 -190 33 -63 6
-175 19 -248 31 -129 20 -135 21 -179 4 -25 -10 -85 -44 -133 -76 -58 -39 -96
-59 -116 -59 -17 0 -70 14 -120 30 -171 59 -470 148 -572 170 -85 19 -102 26
-97 39 4 9 9 31 12 49 4 24 12 34 29 37 13 3 35 7 48 10 19 4 26 -2 39 -35 23
-59 60 -50 73 18 7 35 5 34 154 52 136 16 135 16 135 -28 0 -21 8 -50 18 -65
14 -21 21 -25 40 -18 31 11 48 49 41 92 l-5 37 48 6 c26 3 80 8 118 11 39 3
91 8 117 11 l48 6 -6 -31 c-7 -32 10 -117 27 -138 16 -18 58 5 67 36 4 14 7
49 6 77 l0 51 75 7 c40 3 135 6 209 6 134 0 135 0 117 -20 -23 -26 -30 -97
-15 -159 14 -60 20 -65 53 -50 20 9 26 21 31 63 6 47 -1 106 -18 146 -5 13 18
15 181 12 184 -2 466 -16 571 -29 l53 -6 -21 -22 c-24 -26 -26 -74 -4 -121 22
-47 38 -58 63 -44 25 13 28 74 6 135 -19 53 -20 51 23 47 20 -2 102 -6 182
-10 138 -7 145 -8 142 -27 -12 -69 -13 -96 -2 -133 12 -45 35 -55 64 -27 17
17 31 113 22 149 -6 25 -6 25 46 19 150 -16 151 -16 155 -47 10 -72 46 -103
88 -72 14 10 17 21 12 50 l-6 38 42 -7 c128 -20 236 -61 292 -111 49 -43 69
-54 93 -47 42 10 17 73 -47 118 -45 30 -49 42 -25 60 25 18 37 354 30 832 -5
379 -6 404 -26 440 -12 22 -20 56 -20 85 0 26 -4 58 -9 71 -8 21 -5 28 18 45
21 15 32 37 44 84 16 62 16 63 -8 114 -53 108 -185 201 -370 260 l-70 22 -3
68 c-2 53 0 70 13 76 21 12 19 22 -12 59 -28 32 -28 34 -25 155 3 107 -1 144
-33 301 -52 264 -92 338 -324 591 -176 194 -322 290 -528 351 l-73 22 0 104 0
104 -31 17 c-28 14 -30 19 -25 52 3 20 6 46 7 56 0 31 -51 75 -138 118 l-83
40 -1 61 c0 34 -4 100 -9 147 -4 47 -7 86 -6 87 1 1 19 -2 39 -8 l37 -10 0
-57 c0 -56 22 -200 35 -234 17 -45 25 -7 25 122 0 77 4 140 9 140 9 0 16 -54
27 -197 13 -173 44 -149 44 34 0 67 4 133 10 147 5 14 28 37 50 51 84 53 76
91 -32 144 -61 31 -62 34 -13 45 69 17 171 104 189 163 15 48 30 53 152 53
120 0 153 9 201 53 41 37 47 79 23 153 -23 69 -22 112 7 167 18 35 78 63 228
106 165 48 198 65 266 139 129 142 166 308 113 517 -26 102 -71 181 -147 263
-83 87 -149 132 -235 161 -50 17 -85 21 -189 20 -70 0 -156 -7 -189 -14z
m-169 -217 c-121 -122 -175 -184 -214 -248 -35 -58 -50 -75 -46 -55 41 195
144 343 289 417 44 23 105 46 122 47 6 1 -62 -72 -151 -161z m805 -113 c35
-71 70 -200 70 -261 0 -59 -27 -181 -51 -231 -23 -48 -78 -127 -85 -121 -2 3
5 22 15 44 59 122 80 264 52 359 -6 22 -18 84 -26 138 -8 54 -22 114 -30 134
-8 19 -15 38 -15 42 1 14 42 -48 70 -104z m-1255 -611 c-22 -9 -51 -18 -65
-21 -31 -7 -70 -32 -70 -45 0 -5 10 -3 23 3 21 11 21 11 6 -7 -30 -34 -50 -84
-57 -140 -4 -30 -11 -55 -17 -55 -12 0 -30 161 -21 196 13 53 79 83 181 84
l60 0 -40 -15z m-255 -392 c0 -4 -16 -16 -35 -26 -49 -27 -79 -92 -83 -183 -5
-84 9 -132 50 -179 36 -41 29 -44 -18 -7 -44 33 -69 82 -83 159 -14 76 -2 127
40 170 43 44 129 88 129 66z m980 -104 c0 -9 -12 -30 -26 -47 -20 -24 -34 -31
-62 -31 l-37 0 32 16 c18 9 41 34 54 59 23 43 38 44 39 3z m-790 -408 c106 -9
224 -36 260 -59 12 -8 12 -13 -4 -30 -18 -20 -18 -20 -58 9 -102 74 -368 79
-487 9 -32 -19 -35 -19 -59 -3 l-25 17 49 19 c51 20 154 45 189 47 11 0 72 -4
135 -9z m-27 -168 c-4 -44 0 -94 11 -146 9 -43 16 -81 16 -85 0 -3 -24 -6 -54
-7 -48 0 -54 2 -54 20 -1 12 -3 48 -6 81 -4 55 -9 180 -7 198 1 4 23 7 50 7
l50 0 -6 -68z m-133 -184 c10 -34 18 -64 16 -65 -2 -2 -19 -5 -37 -7 -19 -1
-49 -11 -67 -20 -19 -10 -35 -16 -37 -14 -2 2 -5 72 -7 155 -2 112 0 155 10
164 10 10 12 -4 12 -71 1 -97 25 -183 54 -188 16 -3 17 8 16 135 -2 171 0 183
11 66 5 -51 18 -120 29 -155z m38 -259 c-7 -5 -21 -9 -30 -9 -15 0 -18 9 -18
54 0 49 2 55 23 58 19 3 23 -3 30 -46 7 -37 6 -51 -5 -57z m123 101 c61 -12
69 -20 69 -76 l0 -41 -52 4 c-78 7 -78 6 -78 68 0 30 2 55 4 55 2 0 27 -5 57
-10z m-245 -54 c9 -38 1 -61 -24 -64 -22 -3 -23 -1 -16 35 4 21 9 41 11 46 9
15 23 6 29 -17z m403 -2 c25 -15 48 -28 49 -30 2 -1 7 -19 12 -39 9 -41 16
-40 -82 -14 -37 10 -38 10 -38 59 0 28 3 50 7 50 3 0 27 -12 52 -26z m-85
-159 c87 -8 162 -17 165 -21 7 -6 30 -137 26 -143 -2 -1 -32 7 -67 19 -103 37
-410 39 -535 4 -22 -6 -23 -4 -23 59 l0 66 43 6 c44 7 175 21 212 24 11 0 92
-6 179 -14z m-58 -221 c18 -5 25 -28 57 -197 52 -272 65 -363 72 -517 6 -138
21 -301 31 -332 5 -16 -2 -18 -48 -18 -29 0 -97 3 -151 7 l-99 6 4 71 c2 39
-2 264 -9 500 -8 237 -12 440 -9 452 5 17 15 24 39 27 54 7 91 7 113 1z m176
-22 c16 -16 147 -554 158 -649 17 -148 41 -406 38 -409 -2 -1 -38 0 -81 3
l-77 6 0 91 c0 122 -27 457 -46 581 -15 92 -65 331 -80 378 -6 18 -3 19 36 14
23 -3 47 -10 52 -15z m-432 3 c0 -3 -11 -23 -24 -44 -40 -64 -132 -272 -165
-375 -42 -131 -63 -259 -64 -391 -1 -93 2 -120 22 -173 13 -34 22 -64 20 -66
-2 -2 -64 -7 -136 -10 -93 -5 -133 -4 -133 4 0 29 43 275 60 342 45 174 124
358 216 500 60 94 204 244 204 213z m540 -45 c0 -11 21 -48 46 -82 62 -85 174
-314 218 -446 20 -59 53 -186 75 -282 22 -97 45 -187 52 -202 13 -29 34 -42
51 -32 27 17 -25 343 -83 514 -33 99 -105 256 -164 358 -34 58 -35 62 -13 48
64 -42 268 -314 341 -453 66 -128 125 -270 156 -373 30 -98 50 -140 67 -140
25 0 25 24 3 126 -35 164 -143 407 -249 563 -61 90 -213 274 -261 314 -50 43
-46 46 19 13 69 -35 140 -93 281 -230 268 -262 306 -335 360 -691 16 -102 16
-122 5 -136 -8 -8 -14 -32 -14 -52 0 -20 -2 -37 -5 -37 -3 0 -25 10 -48 21
-66 34 -237 96 -323 118 -68 16 -175 35 -325 57 l-36 5 -7 157 c-13 298 -37
441 -120 719 -51 171 -50 163 -36 163 6 0 10 -9 10 -20z m-758 -35 c-35 -40
-92 -134 -152 -255 -109 -218 -192 -536 -176 -681 4 -43 2 -59 -7 -60 -6 0
-58 -6 -114 -12 -121 -15 -111 -31 -88 146 23 171 58 297 114 404 64 121 191
301 268 379 85 87 224 158 155 79z m-262 -82 c-6 -10 -51 -74 -100 -143 -115
-160 -171 -273 -210 -424 -25 -100 -50 -276 -50 -363 0 -15 -6 -23 -17 -23
-10 0 -64 -11 -120 -23 -57 -13 -103 -21 -103 -18 0 19 45 191 71 271 98 305
156 408 318 571 54 53 203 169 218 169 2 0 -1 -8 -7 -17z m530 -493 c6 -168
14 -324 17 -347 l5 -43 -100 0 c-81 0 -101 3 -106 16 -3 8 -11 56 -18 105 -23
175 18 393 119 636 l58 138 7 -100 c4 -55 12 -237 18 -405z m-1985 -56 c149
-18 191 -34 254 -98 l43 -44 -21 -21 c-25 -25 -41 -62 -41 -94 -1 -14 -15 -32
-40 -49 -33 -23 -43 -26 -72 -17 -18 5 -48 9 -65 9 -39 0 -39 0 -13 42 39 65
16 168 -44 196 -39 17 -118 25 -147 14 -38 -15 -89 -108 -89 -161 0 -46 21
-95 45 -104 25 -10 17 -22 -22 -36 -64 -23 -78 -38 -103 -108 -13 -38 -24 -69
-26 -71 -5 -8 -172 116 -217 160 -27 27 -60 73 -74 104 l-25 55 44 56 c23 31
63 69 87 84 56 36 169 79 246 95 64 13 79 13 280 -12z m-25 -174 c22 -22 23
-25 14 -57 -7 -26 -59 -45 -96 -36 -41 10 -59 34 -52 67 9 45 11 46 65 46 36
0 54 -5 69 -20z m510 -156 c38 -29 72 -65 90 -97 17 -29 30 -55 30 -59 0 -3
-23 -22 -51 -43 -31 -22 -49 -42 -47 -52 5 -29 26 -25 68 13 22 20 43 35 46
32 7 -8 24 -118 24 -160 0 -33 -5 -41 -37 -63 -21 -13 -58 -42 -83 -64 -34
-31 -42 -43 -33 -52 9 -9 24 -6 62 13 57 28 56 23 -5 -58 -70 -94 -98 -111
-257 -153 -111 -30 -123 -31 -253 -26 -181 7 -227 31 -315 166 -52 78 -57 119
-23 177 19 31 32 74 40 130 7 45 20 102 29 126 15 40 20 44 67 54 76 18 241
26 275 14 32 -10 56 2 156 81 34 27 118 66 144 67 7 0 40 -21 73 -46z m-1170
-93 c89 -131 186 -211 253 -211 59 0 108 -36 77 -55 -6 -4 -20 -25 -31 -48
-12 -23 -23 -44 -25 -46 -1 -2 -19 7 -39 19 -53 33 -143 145 -209 262 -33 57
-67 114 -78 127 -17 22 -23 41 -14 41 3 0 32 -40 66 -89z m-90 -97 c85 -186
188 -308 304 -360 50 -23 69 -38 86 -67 38 -66 136 -162 200 -196 37 -20 82
-35 115 -38 l55 -6 0 -71 c0 -94 -20 -183 -63 -281 -34 -79 -51 -127 -82 -238
l-16 -57 -42 81 c-52 102 -136 190 -238 249 -41 23 -105 62 -144 86 -96 58
-157 75 -305 81 -114 4 -132 2 -209 -21 -60 -18 -107 -26 -160 -26 l-76 1 -34
47 c-19 26 -46 59 -60 74 -13 15 -23 29 -20 31 2 2 27 19 54 39 68 49 203 190
252 263 22 33 80 128 128 210 81 138 189 295 204 295 4 0 26 -43 51 -96z
m2710 80 c-91 -7 -208 -19 -262 -26 -93 -14 -138 -10 -138 12 0 5 24 11 53 11
28 1 102 5 162 9 61 3 164 7 230 7 l120 1 -165 -14z m-424 -41 c-3 -3 -20 -7
-38 -9 -39 -3 -256 -40 -278 -47 -40 -14 -71 -17 -65 -7 3 5 1 10 -4 10 -6 0
-11 9 -11 19 0 16 9 21 43 26 110 16 185 20 199 11 10 -6 33 -4 69 6 36 10 60
12 72 6 10 -5 16 -12 13 -15z m-425 -52 l17 -29 -56 -11 c-74 -15 -72 -15 -72
19 0 54 84 70 111 21z m1045 13 c-14 -37 -16 -64 -8 -149 9 -92 4 -108 -28
-102 -8 2 -14 11 -12 22 1 11 2 71 2 133 l1 112 25 0 c20 0 25 -4 20 -16z
m167 -73 c-5 -70 -2 -98 10 -130 l17 -41 -33 0 -32 0 -1 130 c-1 129 -1 130
22 130 22 0 23 -1 17 -89z m113 73 c-3 -9 -6 -23 -7 -32 0 -14 -2 -13 -9 3
-13 31 -11 45 6 45 11 0 14 -5 10 -16z m-421 -124 l0 -130 -54 0 -53 0 6 31
c3 17 6 76 6 130 l0 99 48 0 47 0 0 -130z m519 105 c-9 -14 -18 -25 -19 -25
-1 0 -5 11 -7 25 -4 21 -1 25 19 25 23 0 23 -1 7 -25z m143 9 c15 -3 20 -9 16
-19 -3 -9 -8 -59 -12 -113 -6 -97 -6 -97 -33 -100 l-28 -3 0 78 c-1 43 -7 96
-15 118 -8 22 -15 43 -15 46 0 5 44 2 87 -7z m-1737 -23 c0 -11 3 -26 6 -35 4
-11 0 -16 -13 -16 -10 0 -23 -4 -28 -9 -6 -5 -39 -21 -75 -36 -36 -15 -70 -29
-76 -31 -12 -5 -34 37 -34 65 0 15 20 25 93 49 110 37 127 38 127 13z m786
-105 c-1 -143 4 -136 -98 -136 -57 0 -58 1 -58 28 1 23 2 24 11 10 5 -10 18
-18 28 -18 15 0 19 11 24 65 3 35 4 86 0 114 l-6 50 39 4 c22 2 44 4 50 5 8 1
11 -37 10 -122z m1112 89 c2 -2 -6 -13 -17 -24 -12 -12 -21 -27 -22 -33 -1
-21 -18 25 -18 51 -1 20 2 22 26 16 16 -4 29 -8 31 -10z m-1476 -83 c-3 -47 1
-80 12 -106 9 -21 16 -40 16 -42 0 -2 -22 -4 -50 -4 -58 0 -56 -3 -40 115 14
96 18 105 44 105 21 0 21 -3 18 -68z m1536 60 c7 -5 10 -16 6 -26 -6 -15 -7
-15 -20 1 -22 30 -15 43 14 25z m-1692 -38 c-3 -9 -6 -23 -7 -32 -1 -10 -4 -7
-8 8 -9 28 -5 40 11 40 5 0 7 -7 4 -16z m1820 -12 c8 -5 6 -16 -6 -35 -14 -23
-19 -25 -24 -12 -16 43 0 68 30 47z m-1918 -92 l0 -90 -54 0 -54 0 0 80 0 79
33 10 c74 21 74 21 75 -79z m2057 51 c39 -10 70 -24 69 -30 -1 -6 -2 -30 -2
-52 l-2 -42 -57 7 c-31 4 -58 8 -60 10 -2 1 -7 23 -12 47 -5 24 -12 52 -16 62
-9 21 -7 21 80 -2z m-2281 -58 c3 -21 6 -50 6 -65 0 -28 3 -27 -121 -44 l-47
-6 15 54 c15 53 17 54 72 75 31 12 59 22 62 22 4 1 9 -16 13 -36z m2496 -17
c0 -37 -12 -66 -26 -66 -10 0 -14 14 -14 49 0 44 2 49 20 44 12 -3 20 -14 20
-27z m-2420 -52 c0 -14 -4 -22 -10 -19 -5 3 -10 17 -10 31 0 14 4 22 10 19 6
-3 10 -17 10 -31z m506 9 c-10 -10 -19 5 -10 18 6 11 8 11 12 0 2 -7 1 -15 -2
-18z m678 -82 c-4 -18 1 -42 15 -69 12 -23 21 -44 21 -47 0 -3 -42 -5 -92 -5
-51 0 -149 -5 -218 -10 -68 -5 -228 -14 -355 -20 -255 -11 -555 -33 -774 -55
-79 -8 -155 -15 -169 -15 l-26 0 36 38 c19 20 49 57 66 83 l30 45 184 17 c247
23 756 51 1108 61 47 1 106 3 132 4 47 2 47 2 42 -27z m154 12 c-1 -10 2 -42
6 -70 l8 -53 -50 0 c-56 0 -57 1 -67 83 l-7 57 55 0 c47 0 56 -3 55 -17z m141
-4 c-7 -14 -9 -41 -4 -75 6 -50 5 -54 -14 -54 -19 0 -21 6 -21 59 0 65 -17 93
-40 66 -9 -11 -10 -27 -3 -65 8 -40 7 -50 -3 -50 -10 0 -14 15 -14 54 0 30 -3
61 -6 70 -5 14 3 16 55 16 60 0 61 -1 50 -21z m171 15 l65 -6 3 -74 3 -74 -83
0 c-46 0 -88 4 -94 8 -7 4 -13 40 -16 80 l-4 72 31 0 c16 0 59 -3 95 -6z m174
-65 c11 -108 12 -105 -35 -101 l-41 4 8 52 c5 28 8 63 7 79 0 23 4 27 27 27
26 0 27 -3 34 -61z m80 -10 c10 -103 10 -107 -20 -101 -24 4 -25 6 -18 61 5
31 8 66 8 79 1 12 6 22 12 22 6 0 14 -27 18 -61z m81 -24 c4 -47 5 -88 3 -91
-3 -2 -13 -1 -23 2 -14 6 -16 14 -11 43 3 20 6 57 6 84 0 79 18 53 25 -38z
m69 39 c11 -81 8 -134 -8 -134 -11 0 -15 20 -18 90 -2 61 1 90 8 90 6 0 14
-21 18 -46z m217 20 c25 -5 27 -9 33 -86 11 -137 36 -141 58 -8 l14 84 18 -97
c10 -54 16 -100 13 -103 -2 -3 -73 7 -157 23 l-152 27 7 71 c10 104 29 114
166 89z m348 -55 l31 -11 0 -89 c0 -87 0 -89 -24 -89 -43 0 -56 10 -56 45 0
35 12 155 15 155 1 0 16 -5 34 -11z m116 -99 c1 -25 6 -62 10 -84 7 -37 7 -38
-16 -31 -36 11 -37 15 -26 93 11 80 27 91 32 22z m-219 -77 c-2 -3 -9 -2 -15
2 -12 7 -14 58 -4 95 6 20 9 14 16 -34 4 -32 6 -60 3 -63z m357 10 c21 -35 23
-44 12 -53 -8 -6 -15 -20 -17 -30 -3 -17 -6 -17 -35 -5 l-33 14 0 76 0 76 24
-18 c13 -10 35 -37 49 -60z m-417 -1 c-11 -10 -15 4 -8 28 l7 25 3 -23 c2 -13
1 -26 -2 -30z m-842 13 c109 -9 208 -18 220 -20 11 -3 89 -14 171 -24 83 -11
211 -31 287 -45 75 -14 184 -30 243 -36 118 -11 188 -26 180 -40 -10 -17 8
-40 50 -65 59 -34 68 -50 24 -41 -249 52 -574 93 -834 106 -115 5 -316 17
-445 25 -364 23 -818 30 -1073 16 -485 -26 -559 -33 -747 -62 -247 -39 -299
-41 -337 -13 -36 27 -37 64 -3 81 14 7 32 21 40 31 20 24 102 46 112 29 9 -15
50 -13 428 18 162 13 457 29 655 36 198 6 362 13 364 15 11 10 487 2 665 -11z
m-2382 -137 c-2 -20 3 -49 12 -65 14 -27 72 -85 108 -108 15 -9 15 -55 7 -475
-5 -271 -15 -537 -25 -639 -15 -168 -13 -233 8 -258 8 -10 5 -13 -11 -13 -12
0 -29 -4 -39 -9 -9 -5 -39 -17 -67 -26 -57 -20 -98 -53 -90 -73 3 -8 0 -12 -7
-10 -7 3 -14 16 -16 30 -4 32 -18 38 -103 45 -52 4 -80 1 -135 -17 -38 -12
-75 -28 -83 -34 -12 -9 -13 -7 -7 9 60 157 91 334 112 625 20 293 56 455 151
678 55 129 72 195 80 300 l6 83 51 -3 51 -3 -3 -37z m-1785 -34 c29 -4 50 -11
47 -15 -15 -26 -284 -248 -289 -239 -8 13 -35 102 -35 117 0 9 7 10 26 3 14
-6 43 -10 64 -10 59 0 62 28 10 95 -24 30 -46 55 -51 55 -18 0 -8 -29 26 -71
41 -52 34 -68 -24 -50 -40 12 -65 30 -74 53 -11 31 -16 -3 -8 -48 9 -47 8 -50
-27 -89 -20 -22 -39 -41 -44 -43 -13 -6 -21 49 -9 61 12 12 15 37 4 37 -16 -1
-56 -42 -47 -48 5 -4 14 -21 20 -38 11 -30 10 -33 -29 -63 l-41 -31 -14 27
c-9 16 -11 28 -5 30 21 7 48 32 41 38 -9 10 -68 -23 -68 -39 0 -7 11 -34 24
-59 13 -26 20 -47 15 -47 -4 0 -14 -3 -23 -6 -12 -5 -16 0 -16 20 0 48 -95 63
-107 16 -5 -17 -33 -18 -33 0 0 4 63 57 139 119 76 61 172 141 212 177 l72 67
96 -7 c53 -3 120 -9 148 -12z m177 -115 c37 -39 65 -76 63 -82 -2 -6 -35 -31
-74 -56 -39 -25 -122 -80 -184 -122 -63 -41 -145 -96 -184 -121 -38 -25 -116
-83 -172 -129 -95 -79 -290 -209 -313 -209 -5 0 -10 17 -10 38 0 35 4 40 63
77 34 22 145 121 248 223 176 172 477 449 490 451 4 1 37 -31 73 -70z m2316
-66 c2 -230 21 -977 26 -1014 7 -52 13 -47 -86 -64 l-35 -6 3 128 c1 70 9 315
17 543 8 229 15 428 15 443 0 23 4 27 30 27 30 0 30 0 30 -57z m124 0 c-4 -32
-12 -119 -18 -193 l-12 -135 -7 177 c-4 97 -10 183 -13 192 -5 13 1 16 26 16
l31 0 -7 -57z m299 -475 c-3 -293 -8 -536 -12 -539 -3 -4 -33 -9 -67 -12 l-61
-5 -6 337 c-4 185 -7 411 -7 502 0 202 -4 225 -39 238 -19 7 2 10 86 10 l112
1 -6 -532z m113 425 c-15 -287 -15 -454 -1 -673 8 -129 16 -246 17 -260 3 -21
-2 -26 -24 -28 l-27 -3 -3 528 c-2 290 -2 531 0 536 2 4 12 7 23 7 19 0 20 -5
15 -107z m160 90 c-3 -10 -10 -110 -16 -223 -6 -113 -13 -209 -14 -215 -4 -13
-13 104 -23 293 -4 85 -6 156 -4 158 2 2 17 4 33 4 23 0 28 -4 24 -17z m219 3
c1 0 -2 -100 -6 -221 -4 -121 -7 -351 -8 -511 l-1 -291 -31 -7 c-17 -3 -57 -6
-89 -6 l-58 0 4 83 c2 45 9 172 14 282 6 109 13 309 17 443 l6 244 76 -7 c42
-4 76 -8 76 -9z m-1283 -592 l-4 -590 -42 -12 c-56 -15 -110 -53 -114 -80 -4
-25 11 -28 55 -11 52 21 204 59 259 65 49 6 54 5 54 -13 0 -10 7 -28 15 -39
15 -19 15 -19 30 0 8 11 15 32 15 47 0 25 4 28 53 34 28 3 59 8 68 11 12 3 18
-4 23 -27 7 -38 29 -34 36 7 5 27 9 29 60 35 44 5 57 3 67 -10 39 -51 53 -52
67 -3 9 32 9 32 77 32 l69 0 0 -30 c0 -16 8 -38 19 -49 18 -18 14 -19 -133
-30 -83 -7 -212 -19 -286 -28 -74 -8 -160 -17 -190 -18 -30 -1 -66 -7 -80 -12
-14 -6 -48 -13 -76 -17 -41 -5 -53 -3 -58 9 -8 22 -43 18 -61 -7 -9 -14 -35
-28 -62 -35 -26 -7 -48 -11 -49 -10 0 1 7 72 17 157 23 207 44 647 44 952 l0
247 55 6 c30 4 60 8 65 9 6 2 10 3 10 2 1 0 -1 -267 -3 -592z m1405 559 c-21
-134 -28 -325 -25 -641 2 -277 0 -352 -9 -352 -10 0 -13 103 -13 484 0 266 -3
498 -6 515 -6 30 -5 31 26 31 32 0 32 -1 27 -37z m-2632 -7 c98 -42 302 -173
359 -230 120 -121 170 -227 155 -331 -5 -33 -15 -148 -24 -255 -8 -107 -17
-216 -21 -241 l-5 -46 -72 38 c-40 21 -77 39 -84 39 -19 0 -31 -31 -43 -108
-9 -57 -8 -80 4 -120 26 -90 31 -95 88 -90 42 5 48 3 43 -11 -4 -9 -11 -28
-17 -42 -10 -30 -32 -39 -98 -39 -51 0 -62 6 -79 38 -17 31 -36 28 -76 -15
-68 -72 -69 -211 -1 -279 17 -17 38 -33 46 -36 11 -3 -13 -41 -89 -141 -57
-75 -105 -137 -107 -137 -2 0 4 21 12 48 53 168 81 342 58 365 -4 3 -32 -16
-63 -44 -66 -60 -86 -69 -149 -69 -57 0 -83 17 -118 75 -37 65 -61 59 -83 -20
-18 -65 -43 -90 -89 -88 -119 5 -230 101 -247 213 -13 90 -41 112 -85 65 -12
-13 -26 -22 -30 -20 -4 3 -11 25 -14 50 -7 44 -8 44 -39 38 -18 -3 -69 -21
-114 -39 -153 -63 -238 -37 -291 87 -11 26 -24 49 -29 52 -5 3 -47 11 -93 16
-46 6 -94 18 -106 26 -29 19 -53 64 -56 106 -3 38 -6 36 206 90 160 41 236 79
236 120 0 47 -86 43 -310 -15 -197 -50 -311 -98 -528 -221 -35 -20 -60 -30
-56 -23 22 36 123 155 211 248 106 112 141 160 116 160 -21 0 -273 -243 -402
-389 -73 -82 -74 -83 -93 -63 -20 20 -20 21 97 177 64 86 149 190 189 231 l71
74 109 0 109 0 118 76 c65 41 164 116 221 166 57 49 157 126 223 171 66 44
157 108 201 142 45 34 108 77 140 95 33 18 67 40 77 49 13 11 41 16 85 17 47
1 92 11 152 33 82 31 90 32 215 28 95 -2 141 -8 170 -21z m2955 17 l33 -6 -8
-196 c-4 -108 -10 -330 -14 -493 -3 -163 -9 -300 -13 -303 -4 -4 -31 -4 -60
-1 l-53 7 0 499 0 500 41 0 c23 0 56 -3 74 -7z m136 -54 c-12 -91 -25 -459
-26 -714 0 -157 -3 -246 -10 -239 -6 6 -6 171 0 449 5 242 10 466 10 498 0 46
3 57 16 57 14 0 16 -8 10 -51z m310 25 c-3 -8 -11 -88 -16 -177 -6 -89 -17
-234 -25 -322 -7 -88 -16 -214 -20 -280 -3 -66 -8 -141 -11 -167 -6 -46 -7
-48 -37 -48 l-30 0 6 158 c4 86 7 313 7 505 l0 347 66 0 c56 0 65 -2 60 -16z
m103 -26 c0 -24 -6 -108 -13 -188 l-13 -145 -2 172 c0 94 -4 178 -7 187 -4 12
0 16 15 16 18 0 21 -6 20 -42z m-4673 -13 l21 -45 -156 -153 c-179 -174 -297
-262 -346 -254 -38 6 -189 39 -193 42 -1 1 31 36 72 76 l74 75 5 -37 c14 -108
97 -120 122 -17 7 26 8 27 28 13 29 -20 49 -19 45 3 -2 9 -9 16 -16 15 -15 -3
-52 45 -52 68 0 22 -28 26 -36 4 -3 -8 -14 -17 -25 -20 -31 -10 -24 -36 9 -33
25 3 27 0 24 -27 -2 -16 -10 -41 -19 -54 -13 -21 -17 -22 -30 -9 -20 21 -31
77 -22 113 9 31 64 105 79 105 5 0 21 -21 36 -47 47 -83 104 -131 104 -88 0 8
-4 15 -10 15 -18 0 -11 50 8 56 9 3 32 12 51 20 24 11 37 12 44 5 18 -18 37
-12 68 21 42 47 37 70 -6 28 l-35 -34 -23 22 -22 23 38 35 38 35 24 -25 c30
-32 36 -32 74 0 42 35 39 48 -4 23 -28 -17 -38 -19 -50 -9 -12 10 -10 18 16
56 16 24 33 44 37 44 4 -1 16 -21 28 -45z m4891 -142 c-25 -687 -34 -833 -49
-833 -10 0 -7 343 8 818 6 185 7 192 27 192 20 0 20 -3 14 -177z m122 130 c-5
-16 -15 -183 -24 -372 -8 -190 -18 -347 -21 -350 -3 -3 -2 104 3 239 4 135 7
305 7 378 -2 132 -2 132 21 132 21 0 22 -3 14 -27z m96 8 c3 -5 1 -12 -5 -16
-5 -3 -10 1 -10 9 0 18 6 21 15 7z m244 -30 c15 -10 14 -57 -19 -506 -10 -143
-22 -308 -26 -367 l-6 -108 -30 0 -31 0 7 68 c9 99 24 413 32 685 l7 237 26 0
c14 0 32 -4 40 -9z m213 -50 l43 -18 -7 -154 c-4 -85 -14 -248 -22 -364 -8
-115 -18 -263 -22 -327 -3 -65 -10 -118 -14 -118 -5 0 -31 5 -59 11 -49 10
-49 10 -41 42 5 18 14 122 20 232 5 110 13 218 15 240 3 22 10 127 15 234 9
174 16 241 25 241 2 0 23 -8 47 -19z m153 -503 c-4 -276 -9 -507 -12 -514 -4
-10 -10 -10 -29 -2 l-24 11 5 161 c4 89 10 236 16 328 5 92 9 241 9 332 0 147
2 166 18 175 9 6 19 11 21 11 2 0 1 -226 -4 -502z m-5999 461 c3 -6 -5 -22
-19 -36 l-25 -26 -12 23 c-6 12 -9 28 -6 36 6 17 52 19 62 3z m4921 -306 c-2
-16 -4 -3 -4 27 0 30 2 43 4 28 2 -16 2 -40 0 -55z m-10 -110 c-2 -16 -4 -3
-4 27 0 30 2 43 4 28 2 -16 2 -40 0 -55z m-5116 0 c4 -4 10 -27 14 -49 l6 -41
-73 4 c-111 6 -113 7 -147 68 -17 30 -31 59 -31 63 0 10 219 -33 231 -45z
m2969 -195 c-3 -254 -4 -243 22 -268 32 -29 59 -22 74 20 l12 35 1 -51 1 -51
-50 -7 c-28 -4 -57 -9 -65 -12 -13 -5 -15 20 -15 182 0 186 8 354 18 354 2 0
3 -91 2 -202z m2137 45 c-2 -16 -4 -3 -4 27 0 30 2 43 4 28 2 -16 2 -40 0 -55z
m-1667 -208 c0 -81 -2 -95 -16 -95 -12 0 -15 6 -9 23 3 12 9 55 12 95 3 39 7
72 9 72 2 0 4 -43 4 -95z m1657 -37 c-2 -18 -4 -4 -4 32 0 36 2 50 4 33 2 -18
2 -48 0 -65z m-700 20 c-3 -8 -6 -5 -6 6 -1 11 2 17 5 13 3 -3 4 -12 1 -19z
m1062 -50 c1 -10 -3 -18 -9 -18 -5 0 -10 17 -9 38 0 30 2 33 9 17 5 -11 9 -28
9 -37z m-1050 -98 c6 -28 11 -55 11 -60 0 -6 -91 -10 -231 -10 l-230 0 7 48
c3 26 8 50 11 55 8 13 173 8 177 -5 14 -52 23 -72 38 -82 25 -15 39 3 45 58
l6 46 77 0 78 0 11 -50z m209 -12 l3 -58 -81 0 c-73 0 -81 2 -76 18 2 9 8 36
11 60 l7 43 66 -3 67 -3 3 -57z m186 46 c12 -5 16 -20 16 -61 l0 -55 -31 6
c-17 3 -47 6 -65 6 l-34 0 0 55 0 55 49 0 c27 0 56 -3 65 -6z m-910 -35 c16
-79 16 -79 -80 -79 -85 0 -86 0 -80 23 3 12 6 34 6 49 0 29 12 34 101 37 44 1
47 0 53 -30z m1086 -23 c0 -30 -4 -57 -9 -61 -16 -9 -90 6 -86 19 2 6 9 30 15
54 10 39 13 42 45 42 l35 0 0 -54z m242 14 c19 -57 72 -61 80 -7 2 13 11 23
24 25 18 3 22 -4 28 -37 8 -52 38 -71 60 -39 9 12 16 32 16 45 0 24 5 24 155
4 l50 -6 5 -53 6 -53 -131 6 c-246 12 -440 26 -446 33 -4 4 -2 31 4 60 l11 52
63 0 c62 0 64 -1 75 -30z m-5256 -69 c-9 -17 -26 -35 -37 -42 -25 -13 -93 -3
-83 12 7 13 126 70 132 65 2 -2 -4 -18 -12 -35z m5822 -16 l3 -50 -46 3 -46 4
7 37 c10 60 12 62 46 59 32 -3 33 -5 36 -53z m178 11 c73 -16 84 -21 84 -47 0
-10 9 -28 21 -40 16 -16 23 -18 35 -8 8 6 14 20 14 30 0 24 14 31 45 23 23 -6
25 -11 25 -56 0 -44 -2 -49 -17 -43 -37 16 -191 53 -245 60 -62 8 -67 15 -52
73 7 25 9 26 90 8z m-5871 -116 c3 -5 1 -10 -4 -10 -6 0 -11 5 -11 10 0 6 2
10 4 10 3 0 8 -4 11 -10z m-400 -20 c11 -33 93 -110 141 -132 30 -13 57 -18
78 -14 17 3 38 1 46 -4 13 -9 12 -13 -5 -26 -33 -26 -55 -36 -55 -25 0 16 -66
51 -96 51 -42 1 -96 29 -150 79 -35 33 -43 46 -33 52 8 4 23 15 34 23 26 20
32 20 40 -4z m-369 -88 c-51 -49 -52 -45 -3 26 21 32 32 41 40 33 8 -8 -2 -24
-37 -59z m3467 21 c3 -16 5 -29 4 -29 -1 -1 -32 -4 -69 -6 -60 -3 -68 -2 -68
14 0 12 13 21 43 28 23 6 47 13 52 15 24 9 33 3 38 -22z m-203 -48 c0 -22 -3
-25 -27 -19 -56 12 -59 16 -23 29 48 19 50 18 50 -10z m-246 -55 c16 -16 16 1
-25 -780 -10 -206 -19 -420 -19 -474 l0 -99 -110 5 c-61 3 -112 7 -114 9 -2 2
0 38 5 79 5 41 15 134 24 205 23 206 65 826 65 970 0 69 3 86 18 95 24 15 139
7 156 -10z m471 -19 c61 -13 79 -20 76 -31 -21 -76 -33 -152 -27 -173 8 -33
44 -52 126 -67 36 -6 133 -31 215 -55 213 -62 315 -87 333 -80 9 3 35 3 59 -1
l43 -6 0 -58 0 -58 -52 19 c-29 11 -96 28 -148 38 -134 27 -337 89 -530 162
-91 34 -184 66 -208 72 l-43 11 2 128 3 128 35 -6 c20 -4 72 -14 116 -23z
m-240 -656 c0 -352 4 -653 9 -669 l9 -29 -109 8 c-60 4 -110 8 -111 9 -1 1 5
136 13 301 7 165 19 459 24 654 6 195 14 359 16 363 3 5 38 8 77 6 l72 -3 0
-640z m-488 463 c-4 -90 -11 -221 -16 -293 -6 -71 -15 -218 -21 -325 -6 -107
-18 -249 -26 -315 -9 -66 -14 -136 -12 -156 l3 -35 -295 4 c-307 5 -507 -7
-582 -32 -36 -13 -44 -13 -62 0 -11 8 -39 14 -62 14 -23 0 -62 3 -88 6 -42 6
-46 9 -46 35 0 15 25 108 55 206 30 98 55 187 55 199 0 16 29 39 123 97 67 41
143 92 169 113 125 104 264 219 275 226 8 7 9 -1 1 -31 -11 -44 -4 -91 14 -91
6 0 20 -7 29 -16 17 -15 20 -15 43 -1 47 31 308 391 365 504 15 31 28 43 48
46 16 2 30 5 32 6 2 0 1 -72 -2 -161z m969 136 c99 -28 482 -154 556 -182 33
-12 45 -21 39 -30 -6 -10 -16 -8 -45 9 -24 14 -65 24 -114 30 -55 5 -99 18
-152 42 -69 32 -189 73 -332 112 -31 9 -59 22 -62 30 -7 21 8 19 110 -11z
m-3015 0 c26 -31 92 -56 164 -61 l73 -6 11 -37 c6 -20 22 -54 36 -75 15 -20
25 -38 23 -40 -2 -1 -41 -28 -87 -60 l-84 -59 -42 23 c-59 31 -97 74 -143 161
-58 110 -59 112 -15 143 44 32 46 32 64 11z m6626 0 c-3 -3 -12 -4 -19 -1 -8
3 -5 6 6 6 11 1 17 -2 13 -5z m-7317 -68 c0 -27 -12 -49 -50 -98 -64 -79 -66
-111 -7 -116 21 -2 62 2 90 8 77 16 77 -1 0 -56 -37 -26 -89 -67 -114 -91 -43
-41 -47 -42 -82 -32 -33 9 -37 13 -37 44 0 42 39 148 81 222 30 53 105 153
114 153 3 0 5 -15 5 -34z m4692 10 c43 -7 79 -14 81 -17 4 -4 -14 -191 -18
-197 -1 -2 -38 -11 -81 -22 -65 -15 -192 -58 -286 -95 -14 -6 -18 -2 -18 15 0
29 18 60 34 60 27 0 171 79 185 101 7 12 15 49 18 83 4 50 2 62 -13 73 -17 12
-17 13 2 12 10 0 54 -6 96 -13z m1730 -103 c2 -60 0 -114 -3 -122 -4 -8 -26
-20 -50 -28 -78 -23 -76 -24 -84 84 -10 134 2 150 127 172 4 0 8 -47 10 -106z
m104 87 c7 -7 8 -28 3 -58 -4 -26 -8 -78 -9 -117 l-1 -70 -20 25 c-14 16 -19
32 -15 50 3 14 9 60 12 103 7 77 11 86 30 67z m324 0 c0 -5 -2 -10 -4 -10 -3
0 -8 5 -11 10 -3 6 -1 10 4 10 6 0 11 -4 11 -10z m-2322 -41 c-3 -44 -10 -48
-116 -78 -29 -9 -33 -8 -30 9 3 16 121 107 141 109 5 1 7 -17 5 -40z m392 -23
c0 -29 3 -81 7 -116 l6 -62 -24 15 c-13 8 -35 17 -49 20 -25 6 -25 8 -22 89 2
46 5 89 7 96 3 6 20 12 40 12 l35 0 0 -54z m2031 -56 c16 -9 207 25 304 55 66
20 65 20 65 -20 0 -32 -2 -35 -29 -35 -16 0 -62 -7 -101 -15 -40 -8 -140 -26
-224 -40 -83 -13 -191 -33 -239 -45 -119 -27 -127 -27 -127 10 0 17 5 30 13
30 58 0 201 32 245 54 48 24 52 29 53 64 l1 37 12 -43 c6 -24 18 -47 27 -52z
m-761 30 c0 -23 -3 -28 -17 -23 -11 4 -14 3 -9 -5 11 -18 -27 -28 -125 -35
-47 -4 -100 -10 -118 -13 l-32 -7 3 44 3 44 125 11 c69 6 135 12 148 13 18 1
22 -4 22 -29z m-370 -50 c0 -22 -3 -40 -7 -40 -5 0 -60 -9 -123 -20 -63 -11
-118 -20 -122 -20 -5 0 -8 19 -8 43 l0 44 93 15 c50 8 109 16 130 17 37 1 37
1 37 -39z m-348 -58 c-5 -55 -8 -60 -24 -44 -8 8 -8 15 2 27 11 13 9 20 -13
43 l-27 28 34 -4 33 -4 -5 -46z m730 -2 c1 -27 2 -58 2 -67 1 -16 -15 -20
-110 -30 -61 -6 -169 -20 -240 -32 -71 -11 -169 -23 -217 -27 l-89 -7 4 28 c3
28 5 29 123 51 236 44 482 107 503 129 15 14 22 0 24 -45z m-6481 -13 c-41
-118 -38 -177 11 -232 27 -32 28 -36 14 -57 -29 -46 -24 -99 13 -140 27 -31
33 -33 116 -38 l87 -5 -54 -69 c-125 -162 -156 -192 -318 -314 -191 -143 -267
-191 -365 -227 -80 -30 -81 -31 45 63 92 67 180 151 180 171 0 5 -7 14 -15 21
-12 10 -30 1 -107 -57 -51 -39 -173 -123 -270 -187 -147 -96 -183 -116 -214
-116 l-38 0 64 43 c36 23 106 76 155 118 50 42 131 103 180 137 50 34 101 73
114 86 24 26 23 56 -2 56 -22 0 -224 -136 -312 -210 -111 -93 -167 -131 -261
-179 -115 -58 -130 -52 -43 18 100 79 221 206 306 321 75 103 150 193 278 335
45 50 130 154 188 232 59 78 142 173 183 212 42 39 78 71 79 71 2 0 -4 -24
-14 -53z m5504 -62 c122 -46 175 -54 210 -31 l25 16 0 -74 0 -75 -37 25 c-21
14 -124 68 -230 120 -105 52 -197 101 -203 109 -7 8 21 -1 61 -19 41 -19 119
-51 174 -71z m-4110 69 c35 -23 140 -29 196 -11 l46 14 5 -61 c8 -96 66 -186
120 -186 27 0 74 26 91 50 l15 21 37 -25 c57 -39 110 -50 171 -37 60 14 160
60 259 120 l70 43 -85 -79 c-147 -137 -165 -151 -271 -216 l-105 -64 -26 22
c-17 15 -46 25 -85 29 -171 20 -361 59 -418 85 -57 26 -155 113 -193 169 -14
21 -13 24 4 37 10 7 46 34 79 59 33 25 61 46 63 46 1 0 14 -7 27 -16z m-907
-74 c9 -6 40 -16 67 -23 49 -12 50 -13 62 -60 13 -55 26 -73 67 -98 l28 -17
-93 -30 c-139 -44 -440 -90 -501 -77 -38 9 -36 38 5 67 17 13 84 62 147 110
107 79 191 138 197 138 2 0 11 -5 21 -10z m452 -80 c8 -5 11 -10 5 -10 -5 0
-17 5 -25 10 -8 5 -10 10 -5 10 6 0 17 -5 25 -10z m336 -204 c86 -68 192 -93
437 -103 86 -3 157 -9 156 -12 -1 -21 -474 -317 -614 -386 -59 -29 -84 -35
-162 -40 -105 -6 -230 -30 -251 -48 -22 -18 -159 -14 -204 6 -60 26 -51 48 40
98 129 71 235 143 279 191 78 85 111 156 82 174 -6 3 -44 -26 -88 -69 -42 -41
-105 -93 -141 -114 -103 -62 -309 -168 -385 -198 -171 -68 -561 -175 -595
-163 -6 2 45 46 112 98 131 102 183 161 307 347 l73 110 106 17 c208 34 438
117 594 216 l92 57 62 -76 c35 -42 80 -89 100 -105z m3013 -247 l41 -36 -6
-86 c-7 -90 -17 -104 -28 -40 -10 63 -39 100 -95 120 l-51 18 37 37 c40 41 40
41 102 -13z m-2619 -224 c21 -125 22 -135 16 -168 l-6 -33 -68 7 c-37 4 -152
10 -255 14 l-189 8 92 48 c51 27 120 68 153 92 34 25 100 65 147 90 97 53 90
57 110 -58z m2427 -157 c-3 -8 -6 -5 -6 6 -1 11 2 17 5 13 3 -3 4 -12 1 -19z
m183 -18 c0 -5 -5 -10 -11 -10 -5 0 -7 5 -4 10 3 6 8 10 11 10 2 0 4 -4 4 -10z
m-180 -10 c0 -5 -4 -10 -10 -10 -5 0 -10 5 -10 10 0 6 5 10 10 10 6 0 10 -4
10 -10z"/>
<path d="M4775 6961 c-7 -24 11 -64 27 -59 22 8 34 37 22 56 -16 25 -41 26
-49 3z"/>
<path d="M4726 6642 c-3 -5 -10 -31 -16 -58 -6 -27 -18 -56 -26 -66 -10 -10
-13 -25 -9 -37 4 -14 -5 -46 -26 -91 -34 -74 -34 -109 1 -90 10 6 36 8 57 4
21 -3 51 -1 66 5 24 9 43 6 114 -19 83 -29 153 -39 153 -21 0 5 -12 12 -26 15
-14 4 -57 21 -95 38 -55 24 -68 35 -63 47 4 9 11 35 17 59 l10 42 87 0 c64 0
91 4 100 14 13 16 19 14 -132 37 -43 7 -78 15 -78 20 0 15 -62 80 -91 95 -33
16 -36 17 -43 6z m74 -145 c0 -20 -25 1 -28 24 -2 23 -2 23 13 5 8 -11 15 -24
15 -29z m-10 -72 c0 -8 -18 -24 -40 -35 l-40 -20 18 35 c18 36 62 51 62 20z"/>
<path d="M5130 6516 c0 -25 2 -26 60 -26 58 0 110 15 110 32 0 4 -21 8 -47 8
-27 0 -65 3 -85 6 -36 6 -38 5 -38 -20z"/>
<path d="M5083 6264 c-3 -9 1 -22 9 -31 14 -13 24 -13 99 1 106 20 132 41 38
31 -37 -4 -81 -3 -103 3 -30 9 -38 8 -43 -4z"/>
<path d="M5258 4293 c7 -3 16 -2 19 1 4 3 -2 6 -13 5 -11 0 -14 -3 -6 -6z"/>
<path d="M7250 4388 c-24 -26 -26 -77 -5 -118 42 -81 108 15 71 103 -17 42
-36 47 -66 15z"/>
<path d="M2115 2534 c-16 -2 -79 -11 -140 -19 -60 -8 -170 -21 -242 -30 -73
-8 -165 -21 -205 -29 -40 -9 -143 -27 -228 -41 -85 -14 -165 -32 -177 -40 -11
-8 -26 -30 -33 -49 -9 -29 -8 -39 5 -60 27 -41 46 -481 42 -950 -2 -215 -7
-407 -12 -427 -14 -73 29 -104 190 -137 181 -38 288 -45 629 -38 451 8 469 12
531 111 27 44 30 57 33 150 4 97 3 103 -22 132 -60 71 -150 88 -506 97 -220 6
-330 19 -347 43 -7 9 -13 29 -13 45 0 34 -5 33 185 13 84 -9 238 -15 386 -15
284 0 277 -2 325 97 25 50 28 66 27 156 -1 82 -4 104 -20 126 -31 40 -99 69
-176 74 -37 2 -73 9 -79 15 -7 7 -18 12 -26 12 -11 0 -12 -3 -3 -14 10 -11 5
-14 -29 -12 -22 0 -44 6 -48 12 -4 7 -19 12 -35 12 -25 0 -26 -2 -10 -14 16
-12 11 -13 -35 -14 -36 0 -59 5 -69 16 -9 9 -25 13 -36 10 -11 -3 -29 0 -39 5
-10 6 -28 7 -40 3 -20 -6 -21 -7 -4 -19 17 -13 17 -13 -1 -17 -26 -5 -64 3
-58 12 3 5 1 11 -4 14 -5 4 -13 1 -16 -4 -5 -8 -12 -6 -24 4 -13 12 -28 13
-66 7 -41 -6 -46 -9 -27 -15 12 -4 22 -11 22 -16 0 -9 -78 -25 -86 -18 -4 5
15 310 20 315 2 2 84 8 183 13 169 9 470 42 506 55 8 4 28 25 44 48 25 38 28
50 28 122 -1 124 -35 194 -114 234 -37 19 -133 32 -186 25z m163 -171 c16 -30
21 -101 8 -112 -6 -5 -47 -12 -92 -16 -76 -7 -82 -6 -103 16 -26 28 -26 31 -1
54 11 10 20 24 20 31 0 16 14 25 54 35 58 13 105 10 114 -8z m-913 -114 c4 -6
-2 -20 -13 -32 -34 -38 -45 -70 -48 -142 -2 -38 -9 -91 -17 -118 l-13 -47 -12
147 c-16 195 -16 191 11 196 44 8 86 7 92 -4z m424 -503 c-12 -10 -59 -15 -59
-6 0 5 14 10 32 10 17 0 29 -2 27 -4z m194 -3 c-7 -2 -19 -2 -25 0 -7 3 -2 5
12 5 14 0 19 -2 13 -5z m461 -179 c22 -8 20 -37 -3 -51 -11 -7 -21 -25 -23
-40 -2 -20 -9 -29 -26 -31 -21 -3 -21 -2 -10 23 9 21 9 31 0 46 -23 36 -13 56
30 58 9 1 23 -2 32 -5z m-164 -414 c0 -5 -4 -10 -10 -10 -5 0 -10 5 -10 10 0
6 5 10 10 10 6 0 10 -4 10 -10z m73 -130 l37 0 0 -44 c0 -85 -29 -113 -102
-99 -30 6 -37 27 -13 37 22 8 18 43 -5 56 -36 19 -14 66 25 56 11 -3 37 -6 58
-6z m-1063 -75 c0 -16 -6 -25 -15 -25 -16 0 -19 9 -9 34 9 25 24 19 24 -9z"/>
<path d="M7845 2503 c-107 -11 -556 -83 -574 -92 -27 -15 -34 -73 -28 -236 4
-94 10 -139 19 -148 36 -34 84 -50 162 -54 l82 -6 18 -201 c10 -110 20 -292
23 -403 l6 -202 -34 -5 c-19 -3 -51 -7 -71 -10 l-38 -5 0 92 c0 166 -49 299
-140 380 -46 41 -226 143 -455 257 -93 47 -113 61 -130 93 l-20 38 25 19 c14
11 40 22 58 26 29 6 38 2 67 -28 18 -20 35 -42 38 -49 4 -10 12 -6 31 15 22
27 27 29 51 18 30 -14 42 -39 27 -54 -9 -9 -2 -18 23 -35 59 -40 78 -33 135
53 64 94 110 190 110 228 0 41 -86 123 -171 164 -109 54 -177 67 -339 67 -139
0 -148 -1 -207 -29 -106 -48 -190 -154 -240 -299 -20 -57 -25 -94 -26 -177 -1
-103 -1 -106 36 -176 59 -111 119 -162 294 -245 281 -133 287 -136 321 -181
39 -51 41 -86 6 -121 -47 -47 -100 -60 -226 -55 -92 4 -126 10 -184 32 l-72
27 -4 103 c-3 91 -7 109 -36 168 -74 151 -206 251 -479 364 -77 32 -101 37
-195 42 -60 3 -108 8 -108 13 0 14 74 32 135 33 51 1 75 -5 143 -38 66 -31 85
-36 97 -26 19 16 152 239 166 279 16 46 -3 83 -65 126 -75 51 -145 75 -265 87
-194 20 -322 -23 -448 -151 -87 -89 -144 -191 -173 -312 -34 -142 -22 -241 41
-334 87 -129 216 -190 489 -230 113 -16 198 -44 221 -71 16 -20 -16 -53 -89
-92 -78 -41 -123 -46 -213 -27 -73 17 -75 18 -156 101 -84 87 -154 130 -190
117 -34 -12 -163 -106 -193 -140 -18 -20 -33 -50 -36 -74 -7 -39 -8 -41 -37
-35 -17 3 -32 7 -33 9 -1 1 3 83 9 182 6 99 11 278 11 398 1 208 2 217 21 223
45 14 101 87 115 151 9 39 -12 230 -29 262 -6 10 -27 29 -47 42 l-36 22 -351
-7 c-194 -4 -353 -9 -355 -11 -2 -2 -15 -36 -29 -76 -22 -63 -27 -96 -31 -217
-5 -151 0 -176 39 -201 28 -17 177 -42 207 -34 23 5 24 4 19 -18 -11 -42 -37
-358 -43 -529 l-6 -165 -52 -17 c-28 -9 -53 -14 -55 -12 -2 2 -24 117 -48 256
-24 139 -56 307 -72 373 -16 66 -39 163 -51 215 -12 52 -38 144 -57 203 -35
105 -54 135 -95 141 -24 3 -78 28 -78 36 0 4 -10 7 -22 6 -13 -1 -47 2 -76 6
-64 8 -111 -8 -136 -48 -41 -62 -207 -397 -241 -486 -20 -54 -38 -98 -40 -98
-2 0 -21 33 -43 73 -22 39 -66 108 -97 152 -96 134 -150 216 -189 292 -33 62
-45 76 -86 96 -46 23 -51 23 -130 12 -45 -7 -92 -10 -105 -7 -16 3 -28 -3 -38
-20 -18 -26 -41 -145 -57 -293 -7 -55 -20 -147 -30 -205 -10 -58 -26 -157 -35
-220 -34 -242 -107 -667 -121 -704 -19 -50 -10 -89 29 -122 l31 -26 185 4
c202 4 220 8 247 60 13 25 14 35 4 53 -9 18 -10 35 -2 72 6 26 14 86 17 133 3
47 8 104 12 128 5 42 6 43 25 25 11 -10 38 -54 60 -98 57 -113 113 -192 151
-212 27 -14 57 -16 187 -14 187 3 180 -2 256 155 l53 109 15 -54 c8 -30 22
-91 30 -137 19 -99 27 -117 69 -142 27 -17 51 -20 148 -20 108 0 189 9 232 25
15 6 17 0 18 -51 1 -167 37 -180 539 -191 222 -4 311 -3 327 5 12 7 27 28 33
47 11 34 32 46 45 25 12 -20 83 -59 143 -79 90 -31 319 -44 419 -25 174 33
322 104 416 199 l61 63 50 -44 c74 -64 151 -101 283 -135 238 -61 448 -24 574
102 l39 39 0 -34 c0 -49 38 -90 97 -106 55 -15 833 -23 870 -9 36 13 73 138
73 244 0 11 -3 45 -6 75 l-6 54 39 -35 c127 -115 382 -210 523 -194 123 14
224 57 311 134 24 21 51 50 58 65 l14 26 16 -47 c25 -73 55 -84 256 -91 140
-4 168 -2 189 11 34 23 61 104 76 227 6 58 13 106 14 107 2 2 96 -162 141
-246 44 -82 62 -88 274 -93 l175 -3 17 30 c10 17 29 71 43 120 47 170 87 310
116 410 16 55 39 150 50 210 12 61 41 195 66 298 25 104 51 234 59 290 13 92
13 103 -2 119 -37 41 -103 68 -210 84 -21 3 -65 12 -97 20 -98 25 -115 12
-136 -108 -6 -35 -22 -119 -35 -188 -13 -69 -31 -181 -40 -250 -24 -188 -21
-180 -52 -134 -15 21 -53 72 -86 114 -110 140 -149 195 -186 258 -31 55 -44
67 -97 93 -54 27 -71 30 -135 29 -41 -2 -83 1 -95 5 -33 10 -48 -24 -95 -218
-24 -97 -45 -174 -48 -172 -2 3 -13 37 -23 77 -63 249 -203 377 -513 469 -109
32 -111 32 -204 20 -162 -20 -234 -67 -340 -224 -119 -176 -212 -538 -196
-766 7 -102 41 -234 80 -311 14 -27 25 -52 25 -54 0 -3 -12 -1 -27 5 -16 6
-81 19 -146 29 -65 10 -120 20 -123 23 -4 3 -7 169 -8 367 l-1 362 36 32 c45
39 62 70 64 121 2 22 8 60 15 85 12 46 9 309 -4 340 -10 24 -74 60 -103 58
-16 -1 -46 -3 -68 -5z m-348 -216 c-24 -21 -36 -39 -32 -49 4 -10 -4 -21 -21
-33 -26 -17 -26 -18 -9 -31 17 -13 16 -14 -9 -24 -15 -5 -33 -10 -41 -10 -14
0 -26 52 -29 127 l-1 38 60 5 c33 3 73 6 90 8 l29 3 -37 -34z m1070 -6 c-23
-21 -66 -60 -95 -86 -29 -26 -55 -45 -58 -42 -18 18 90 140 116 132 9 -3 25 4
35 15 10 11 24 20 31 20 8 0 -5 -17 -29 -39z m157 20 c8 -13 -11 -18 -45 -13
-16 2 -26 8 -23 13 7 12 61 12 68 0z m1714 -19 c15 -10 5 -42 -13 -42 -7 0
-15 9 -18 21 -3 12 -10 18 -16 14 -6 -3 -11 -1 -11 4 0 13 39 14 58 3z m-3365
-83 c36 -30 37 -31 22 -60 -13 -24 -20 -28 -40 -23 -35 9 -50 -4 -29 -27 18
-20 13 -49 -8 -49 -12 0 -46 31 -106 96 -10 12 -21 33 -24 48 -5 23 -2 27 16
24 11 -2 25 -13 32 -25 21 -43 83 -78 68 -38 -4 8 6 16 25 20 33 7 33 25 0 25
-12 0 -19 6 -17 14 2 8 -6 22 -17 30 -19 15 -18 15 11 6 16 -6 47 -24 67 -41z
m-2606 33 c10 -6 8 -17 -8 -48 -11 -21 -25 -38 -31 -36 -28 8 -50 67 -31 85 9
9 55 8 70 -1z m-601 -33 c10 -17 -7 -31 -22 -18 -12 9 -14 5 -14 -27 0 -37 -1
-38 -15 -17 -21 30 -3 83 26 76 11 -3 22 -9 25 -14z m5065 1 c55 -29 119 -89
136 -127 15 -38 16 -46 4 -38 -6 3 -14 -1 -18 -10 -7 -12 -22 -2 -78 53 -79
77 -120 106 -137 96 -8 -5 -9 -2 -5 9 3 10 2 17 -4 17 -6 0 -7 5 -4 10 10 17
63 11 106 -10z m-2948 -26 c20 -10 37 -22 37 -27 0 -4 -20 -40 -45 -78 -40
-62 -47 -68 -67 -60 -17 7 -174 108 -196 126 -8 7 20 54 35 59 39 11 198 -2
236 -20z m3122 -25 c16 -19 13 -18 -17 5 -21 16 -38 30 -38 33 0 8 36 -16 55
-38z m-6207 -16 c-4 -66 -28 -70 -28 -4 0 39 4 51 16 51 12 0 14 -10 12 -47z
m2122 -28 c0 -15 -37 -35 -66 -35 -8 0 -14 10 -14 23 0 21 5 24 40 25 30 1 40
-2 40 -13z m3573 -112 c-6 -16 -43 -72 -65 -98 -5 -5 -6 6 -2 25 4 21 19 46
38 62 37 33 37 33 29 11z m266 -138 c83 -93 121 -162 121 -220 0 -57 -43 -139
-106 -202 -82 -83 -120 -83 -209 -1 -70 64 -98 116 -97 183 1 67 35 172 72
224 31 42 115 104 136 99 6 -2 43 -39 83 -83z m371 -91 c0 -8 5 -12 10 -9 6 3
10 -4 10 -17 0 -22 0 -22 -13 -3 -19 28 -29 57 -17 50 6 -3 10 -13 10 -21z
m-3583 -50 c-3 -3 -12 -4 -19 -1 -8 3 -5 6 6 6 11 1 17 -2 13 -5z m136 -11
c-24 -2 -62 -2 -85 0 -24 2 -5 4 42 4 47 0 66 -2 43 -4z m1151 -127 c10 -8 16
-19 15 -25 -4 -12 -69 35 -69 50 0 10 21 0 54 -25z m252 -87 c19 -22 19 -22
-3 -8 -13 8 -23 17 -23 21 0 12 6 9 26 -13z m-3359 -116 c-1 -1 -14 1 -29 4
-27 5 -27 6 -10 31 l16 25 12 -29 c7 -16 11 -30 11 -31z m-119 -98 c-32 -64
-44 -81 -50 -68 -3 10 -7 23 -7 29 -1 10 88 124 96 124 2 0 -16 -38 -39 -85z
m1611 -112 c-5 -16 -21 -38 -35 -51 -13 -13 -24 -31 -24 -42 0 -23 -18 -36
-31 -23 -5 5 -12 25 -15 44 -5 32 -3 36 48 67 65 39 70 40 57 5z m4970 -63
c-7 -43 -18 -74 -26 -77 -8 -3 -15 -4 -17 -2 -5 6 45 162 50 156 3 -2 -1 -37
-7 -77z m-6674 -9 c-6 -21 -45 -49 -45 -33 0 13 41 64 47 58 3 -2 2 -14 -2
-25z m649 -74 c11 -56 8 -65 -21 -59 -16 2 -32 8 -38 12 -5 3 -23 5 -38 4 -26
-3 -28 -1 -25 29 3 30 5 32 36 29 28 -3 32 -1 32 21 0 13 3 27 7 31 10 10 40
-33 47 -67z m2211 21 c26 -12 32 -24 15 -30 -6 -2 6 -21 26 -42 35 -37 36 -40
18 -53 -12 -9 -29 -11 -49 -7 -16 4 -40 8 -52 8 -40 2 -44 17 -20 78 12 32 25
58 29 58 4 0 19 -5 33 -12z m-1091 -40 c23 -38 5 -29 -24 12 -13 18 -16 28 -8
25 8 -3 22 -20 32 -37z m845 -10 c-20 -39 -50 -78 -59 -78 -5 0 0 23 12 50 15
35 26 50 40 50 16 0 17 -3 7 -22z m1221 7 c9 -10 9 -15 1 -15 -6 0 -11 -18
-11 -44 0 -36 -5 -49 -26 -65 -14 -11 -25 -22 -24 -25 0 -4 -10 -20 -22 -37
-23 -31 -23 -31 -29 -7 -14 46 -9 117 11 162 17 42 22 46 53 46 19 0 40 -7 47
-15z m-4754 -83 c-11 -10 -14 3 -7 38 l6 35 3 -33 c2 -19 1 -36 -2 -40z m1754
48 c0 -5 9 -12 20 -15 16 -5 19 -12 14 -28 -9 -30 -14 -34 -51 -42 -26 -5 -32
-3 -38 14 -3 11 -3 35 0 54 6 29 10 33 31 29 13 -2 24 -8 24 -12z m664 -93
c13 -46 14 -61 3 -98 -7 -24 -18 -44 -25 -43 -7 1 -21 2 -33 3 -15 1 -19 6
-15 18 4 9 9 32 12 52 3 20 8 39 10 43 2 4 0 9 -6 13 -11 7 -14 48 -3 58 3 4
14 7 24 7 13 0 22 -15 33 -53z"/>
</g>
</svg>
