<?xml version="1.0" standalone="no"?>
<!DOCTYPE svg PUBLIC "-//W3C//DTD SVG 20010904//EN"
 "http://www.w3.org/TR/2001/REC-SVG-20010904/DTD/svg10.dtd">
<svg version="1.0" xmlns="http://www.w3.org/2000/svg"
 width="946.000000pt" height="599.000000pt" viewBox="0 0 946.000000 599.000000"
 preserveAspectRatio="xMidYMid meet">

<g transform="translate(0.000000,599.000000) scale(0.100000,-0.100000)"
fill="#000000" stroke="none">
<path d="M4752 5782 c-18 -18 -29 -55 -47 -165 l-6 -38 -29 18 c-15 10 -49 37
-75 61 -60 54 -82 53 -112 -7 -19 -37 -24 -41 -29 -25 -24 67 -114 105 -267
112 -139 6 -192 -7 -206 -52 -13 -38 -27 -135 -36 -239 -5 -52 -11 -77 -18
-75 -7 2 -49 12 -94 23 l-83 18 0 126 c0 150 -8 170 -69 190 -57 18 -91 7
-104 -34 -14 -46 -21 -445 -8 -477 14 -36 52 -45 222 -54 96 -5 138 -3 143 5
5 7 15 5 34 -9 40 -29 103 -39 232 -40 122 0 163 12 192 59 12 20 13 20 36 -2
18 -17 38 -22 92 -25 63 -4 69 -2 81 19 7 13 13 52 14 87 0 71 4 69 57 -30 34
-63 56 -76 135 -80 62 -2 81 11 89 64 8 48 18 55 32 23 19 -42 66 -58 172 -58
52 -1 111 5 131 11 38 13 85 57 117 110 l20 34 7 -31 c19 -86 109 -128 252
-118 94 7 136 25 163 70 l20 32 0 -33 c0 -43 35 -78 88 -87 80 -13 135 19 149
88 6 28 6 27 46 -28 32 -43 50 -58 82 -66 55 -15 137 10 153 46 26 58 8 335
-33 500 -16 62 -42 95 -76 95 -25 0 -34 -20 -54 -123 l-18 -87 -35 27 c-77 58
-135 93 -156 93 -37 0 -54 -30 -80 -139 -26 -108 -44 -148 -31 -73 10 62 -3
146 -28 183 -48 71 -177 105 -298 78 -73 -16 -101 -44 -120 -119 -7 -27 -15
-50 -18 -50 -3 0 -14 19 -25 41 -21 46 -80 94 -139 111 -49 15 -161 -2 -227
-35 -36 -18 -47 -29 -55 -60 -12 -43 -25 -39 -25 7 0 52 -20 105 -44 122 -41
26 -91 29 -114 6z m90 -76 c15 -28 22 -235 13 -380 l-7 -116 -40 0 c-40 0 -78
14 -78 29 0 8 -25 50 -88 151 -14 22 -18 38 -12 44 6 6 10 18 10 27 0 10 6 20
13 23 6 3 3 4 -7 3 -15 -2 -20 6 -23 32 -5 35 -4 35 49 -1 36 -25 67 -23 77 5
4 12 11 56 15 97 11 110 45 148 78 86z m1427 -151 c11 -66 22 -145 26 -175 l6
-55 -21 42 c-12 23 -39 62 -60 86 -22 24 -37 46 -35 48 2 3 11 52 20 109 10
58 20 109 23 115 8 13 20 -33 41 -170z m-531 123 c46 -28 53 -48 53 -143 0
-108 -18 -208 -42 -239 -22 -28 -86 -46 -167 -46 -143 0 -162 21 -161 180 1
151 14 195 66 233 23 16 59 34 80 38 55 11 133 1 171 -23z m-1403 -29 c35 -13
56 -28 63 -45 18 -38 14 -189 -7 -276 -21 -89 -41 -125 -79 -139 -37 -15 -279
-6 -314 11 -31 15 -36 47 -18 110 6 19 17 102 25 184 8 82 18 152 21 155 34
35 215 35 309 0z m927 1 c53 -43 71 -99 67 -203 -4 -73 -8 -89 -33 -126 -37
-52 -65 -68 -144 -77 -66 -7 -69 -5 -56 44 4 13 14 22 26 22 58 0 88 51 88
148 0 67 -1 71 -35 101 -20 17 -48 34 -63 37 -15 4 -32 11 -39 16 -17 13 -5
38 19 38 12 0 17 -4 12 -12 -4 -7 -3 -8 5 -4 6 4 8 12 5 18 -10 16 17 28 66
28 36 0 53 -6 82 -30z m-1572 -132 c3 -80 8 -150 12 -153 4 -4 47 -16 95 -25
128 -27 126 -26 120 -72 -3 -22 -7 -41 -9 -43 -4 -4 -269 14 -285 20 -15 5
-17 161 -6 328 l6 98 31 -3 31 -3 5 -147z m2347 79 c17 -13 51 -41 76 -64 l44
-40 -11 -113 -11 -113 -44 56 c-59 77 -77 75 -84 -5 -8 -87 -47 -116 -120 -89
-23 9 -24 11 -15 73 4 34 18 107 30 161 l22 99 15 -29 c23 -42 84 -124 88
-119 4 4 -12 135 -23 184 -6 27 -5 27 33 -1z m-1052 3 c3 -5 1 -10 -4 -10 -6
0 -11 5 -11 10 0 6 2 10 4 10 3 0 8 -4 11 -10z m39 -28 c-3 -9 -6 -62 -7 -117
-1 -69 -6 -99 -14 -98 -6 1 -17 -4 -23 -12 -7 -8 -16 -15 -21 -15 -11 0 -12
167 -1 174 5 3 7 19 4 36 -4 25 -1 32 17 37 11 3 21 9 21 14 0 5 6 6 14 3 8
-3 12 -13 10 -22z m-515 -46 c7 -13 10 -33 7 -44 -5 -15 -2 -22 14 -27 24 -8
27 -21 35 -147 4 -66 3 -98 -5 -103 -6 -4 -31 -4 -55 0 -33 4 -46 11 -51 28
-4 12 -10 24 -15 27 -4 3 1 41 12 85 10 44 19 101 19 127 0 77 16 98 39 54z
m629 -2 c20 -14 23 -23 20 -77 -3 -60 -4 -62 -36 -71 -18 -5 -35 -7 -37 -4 -3
3 -8 42 -12 87 -6 81 -6 81 18 81 14 0 35 -7 47 -16z"/>
<path d="M4717 5473 c-9 -14 -6 -96 3 -114 7 -13 22 -17 62 -15 l53 1 -1 38
c-2 46 -49 104 -70 86 -8 -7 -14 -7 -19 1 -7 12 -22 13 -28 3z"/>
<path d="M4720 5290 c0 -5 5 -10 11 -10 5 0 7 5 4 10 -3 6 -8 10 -11 10 -2 0
-4 -4 -4 -10z"/>
<path d="M5484 5544 c-4 -14 -4 -64 -2 -111 4 -69 8 -88 23 -99 22 -16 82 -18
118 -5 31 12 67 95 67 155 0 43 -2 47 -40 66 -26 13 -59 20 -99 20 -57 0 -61
-2 -67 -26z m135 -40 c21 -5 23 -9 18 -49 -6 -57 -21 -75 -62 -75 -39 0 -45
12 -45 84 l0 53 33 -4 c17 -2 43 -6 56 -9z"/>
<path d="M4056 5610 c2 -48 3 -52 16 -44 8 5 9 2 4 -11 -14 -37 -19 -162 -7
-197 16 -48 94 -79 157 -64 34 9 63 75 66 151 2 53 0 59 -27 81 -33 26 -113
54 -156 54 -22 0 -29 6 -34 30 -4 17 -10 30 -13 30 -4 0 -6 -13 -6 -30z m170
-125 c23 -15 26 -21 20 -57 -11 -71 -22 -81 -73 -75 -25 3 -49 11 -54 18 -9
15 -12 132 -4 141 9 9 83 -9 111 -27z"/>
<path d="M2394 5585 c-4 -9 -5 -97 -2 -196 4 -141 3 -179 -7 -179 -9 0 -15 28
-20 98 -3 53 -7 108 -8 121 -4 51 -27 31 -72 -66 -37 -78 -48 -112 -52 -170
l-6 -73 -33 0 c-28 0 -38 7 -63 44 -27 39 -36 45 -79 51 -57 8 -59 9 -95 57
-38 51 -61 63 -98 48 -24 -10 -40 -9 -98 9 -88 27 -100 26 -144 -4 -44 -29
-59 -15 -22 19 19 18 25 31 20 45 -12 39 -117 82 -151 63 -13 -7 -23 -2 -43
20 -20 22 -38 31 -71 35 -39 4 -51 0 -88 -27 -56 -40 -102 -113 -102 -159 0
-20 12 -58 25 -86 26 -52 30 -81 16 -103 -11 -18 -79 -33 -117 -26 -26 5 -35
1 -57 -25 -38 -45 -51 -95 -41 -155 4 -28 8 -92 8 -143 1 -77 4 -96 22 -120
18 -24 29 -28 78 -31 31 -2 56 -7 56 -13 0 -5 11 -21 25 -34 27 -28 70 -32 99
-10 18 14 22 12 45 -16 51 -60 145 -57 212 7 20 19 32 24 53 18 33 -8 70 15
91 56 13 26 21 30 56 30 77 0 129 45 149 130 9 39 19 54 41 65 47 25 97 19
136 -15 28 -25 42 -30 86 -30 l52 0 -15 -159 c-9 -93 -20 -165 -28 -174 -7 -8
-25 -41 -41 -74 l-29 -58 -6 -295 c-9 -379 -23 -667 -41 -855 -8 -82 -22 -222
-30 -310 -8 -88 -25 -272 -39 -410 -13 -137 -32 -344 -42 -458 l-18 -209 -66
-38 c-76 -44 -416 -215 -713 -359 l-209 -101 -99 -7 c-54 -3 -99 -9 -99 -14 0
-4 123 -10 273 -12 149 -3 277 -6 282 -7 6 0 82 2 170 6 88 4 215 8 283 11
l122 4 0 -31 0 -30 -217 5 c-120 3 -338 10 -484 17 -262 11 -393 8 -424 -10
-19 -10 496 -32 746 -32 91 0 214 -3 272 -7 107 -6 107 -6 107 -32 l0 -26
-526 3 c-478 3 -586 1 -572 -14 3 -2 232 -7 509 -10 277 -2 524 -7 547 -10
l44 -5 -6 -57 c-3 -31 -8 -86 -12 -122 l-6 -65 -406 -2 c-223 -2 -414 -5 -424
-9 -11 -3 -17 -11 -15 -17 2 -7 126 -11 419 -11 229 -1 419 -4 422 -7 4 -3 4
-31 0 -62 l-7 -57 -313 3 c-287 2 -315 0 -331 -16 -16 -16 -7 -17 202 -17 121
0 270 -3 332 -7 l112 -6 3 -66 c2 -51 6 -66 18 -66 12 0 15 16 17 75 1 41 7
172 13 290 11 200 16 341 19 533 1 72 2 78 20 72 11 -3 31 -3 45 1 23 6 26 10
24 48 l-3 41 139 3 139 3 -5 -46 c-5 -41 -4 -46 18 -51 13 -4 39 -3 57 0 l32
6 3 182 c3 123 7 185 15 190 6 4 12 6 13 5 1 -1 -2 -51 -6 -112 -5 -60 -9
-245 -10 -410 -1 -165 -5 -361 -9 -435 -5 -80 -5 -142 1 -153 13 -25 98 -24
129 2 l24 19 -1 236 -2 235 72 3 71 3 7 45 c3 25 7 100 7 168 l1 122 81 0 c72
0 80 -2 75 -17 -2 -10 -7 -54 -11 -98 -3 -44 -11 -109 -16 -144 -5 -35 -6 -68
-1 -73 4 -4 45 -13 91 -20 l82 -11 -3 -211 -3 -211 180 2 c99 2 295 7 435 13
140 6 478 15 750 20 272 6 716 14 985 20 564 11 2134 9 2153 -3 7 -5 19 -4 27
3 21 18 1241 -9 1643 -36 92 -6 116 2 73 26 -30 15 -1034 50 -1458 50 -155 0
-253 4 -255 10 -1 5 -2 55 0 110 l3 100 222 0 c122 0 393 5 602 10 209 6 538
12 730 13 227 1 349 6 347 12 -3 13 -797 13 -1434 1 l-468 -9 0 45 0 45 258 6
c141 4 559 12 927 17 369 6 680 13 693 16 26 5 29 21 5 27 -11 3 -5 5 11 6 19
1 26 5 20 10 -5 6 -98 13 -206 17 -167 6 -198 9 -203 23 -10 25 -19 141 -11
141 4 0 92 -32 195 -70 184 -68 221 -79 221 -62 0 13 -105 56 -370 152 -164
59 -232 90 -425 192 -197 105 -274 148 -320 182 -16 12 -66 44 -110 70 -187
113 -411 306 -706 608 l-206 211 -6 276 c-7 292 -12 323 -72 469 -28 68 -42
56 -88 -83 l-33 -96 -32 138 c-39 165 -80 303 -91 303 -8 0 -19 -35 -92 -309
-26 -101 -50 -186 -52 -188 -3 -2 -10 33 -17 78 -19 122 -34 174 -50 174 -10
0 -27 -43 -53 -135 -34 -119 -38 -147 -38 -240 1 -58 4 -136 7 -174 l7 -69
-24 6 c-13 4 -88 7 -166 7 l-143 0 0 28 c0 26 3 28 29 24 25 -3 32 1 45 26 21
41 20 85 -2 105 -24 22 -38 21 -72 -3 l-28 -20 -16 54 c-9 30 -16 56 -16 58 0
3 14 5 32 5 40 0 68 33 68 82 0 47 -14 61 -62 61 -28 0 -46 -7 -64 -25 l-25
-25 -18 43 -18 42 33 6 c101 18 98 129 -4 158 -29 9 -33 7 -52 -25 -11 -20
-20 -39 -20 -45 0 -18 -16 -8 -60 36 l-44 45 36 0 c28 0 42 7 62 31 52 61 20
119 -66 119 -43 0 -76 -23 -85 -60 l-8 -29 -32 29 -31 28 20 40 c35 71 20 103
-59 127 -31 9 -73 -34 -73 -75 l0 -30 -40 26 c-22 15 -40 28 -40 30 0 2 7 19
16 38 21 42 13 77 -24 111 -36 33 -65 32 -96 -6 -19 -22 -26 -42 -26 -72 0
-24 -4 -37 -9 -32 -4 6 -13 169 -18 362 l-10 353 -27 35 c-15 19 -31 35 -37
35 -5 0 -9 -34 -9 -76 0 -75 -1 -76 -47 -137 -26 -34 -68 -87 -93 -117 -26
-30 -63 -79 -83 -108 l-37 -52 0 -153 0 -152 -76 3 c-96 5 -97 26 -1 30 92 4
88 32 -4 32 -39 0 -39 0 -39 41 0 53 -13 76 -50 84 -63 14 -108 -52 -77 -112
l15 -28 -49 -16 -49 -16 0 28 c0 65 -96 113 -139 70 -40 -40 -25 -102 33 -136
14 -8 9 -14 -34 -36 l-50 -27 0 24 c0 60 -40 94 -94 80 -36 -9 -56 -34 -56
-69 1 -35 12 -54 48 -79 l24 -16 -45 -30 -44 -31 -16 34 c-9 18 -25 36 -37 40
-31 10 -79 -13 -86 -41 -6 -25 -19 -28 -64 -15 -21 6 -26 14 -30 55 -7 72 -31
82 -73 32 -43 -51 -71 -47 -73 9 -1 22 -2 53 -3 69 -1 17 -14 41 -35 62 -31
31 -39 34 -93 34 -83 0 -141 -31 -171 -90 -27 -54 -35 -58 -50 -25 -16 34 -30
31 -34 -7 -2 -25 -8 -34 -25 -36 -16 -2 -28 7 -47 37 -31 48 -65 60 -102 36
-29 -19 -49 -60 -71 -152 -18 -73 -33 -86 -96 -81 -33 2 -42 7 -45 23 -9 60
-57 195 -69 195 -7 0 -13 -8 -13 -17 0 -10 -13 -61 -29 -112 l-28 -95 -94 3
c-62 2 -132 -4 -204 -18 -61 -11 -137 -22 -171 -26 l-61 -6 -7 178 c-4 98 -15
241 -26 318 -10 77 -21 185 -25 240 -7 113 -34 335 -41 347 -14 22 -24 3 -25
-44 -2 -52 -2 -52 -9 17 -5 39 -11 100 -15 136 l-6 67 83 12 c107 15 260 50
273 61 5 5 -15 9 -50 9 -33 0 -117 5 -187 11 -110 10 -128 14 -128 29 0 12 11
20 31 24 46 9 203 7 284 -4 151 -20 365 -23 512 -6 78 9 163 16 188 16 27 0
45 5 45 12 0 8 -52 10 -204 5 -203 -6 -206 -6 -393 28 -103 19 -219 41 -258
50 -38 9 -107 24 -152 33 l-82 17 -20 88 c-11 49 -27 103 -35 120 -15 34 -46
194 -46 239 0 32 -17 47 -26 23z m-979 -139 c25 -28 34 -32 49 -24 22 12 99
-7 117 -29 10 -11 8 -17 -9 -29 -23 -16 -29 -57 -12 -84 8 -12 13 -13 27 -2
42 29 82 42 106 33 53 -20 137 -31 161 -20 32 15 59 -1 87 -50 24 -44 54 -61
104 -61 29 0 39 -7 66 -45 29 -40 36 -45 72 -45 l40 0 -7 -92 c-10 -138 -10
-138 -65 -138 -38 0 -52 5 -71 25 -53 57 -154 54 -204 -6 -14 -17 -26 -36 -26
-42 0 -7 -5 -29 -10 -49 -15 -52 -59 -82 -120 -80 -42 1 -49 -2 -54 -21 -3
-12 -15 -33 -27 -46 -18 -19 -28 -22 -58 -17 -31 5 -40 1 -72 -30 -59 -58
-158 -65 -174 -12 -10 28 -39 40 -61 23 -39 -30 -110 -4 -102 36 2 11 -13 15
-60 17 -82 4 -98 24 -89 116 4 40 1 85 -8 124 -12 52 -12 67 0 107 22 74 37
86 105 78 53 -5 60 -3 84 20 34 34 34 73 0 149 -24 52 -26 63 -16 96 7 21 26
55 44 75 68 76 130 83 183 23z m915 -491 l0 -416 -61 2 -61 2 7 86 c3 47 13
145 21 216 8 72 19 190 24 263 7 112 12 143 36 197 16 36 30 65 31 65 2 0 3
-187 3 -415z m154 -372 l7 -183 -25 0 -26 0 0 243 c0 133 -2 314 -5 402 l-5
160 24 -220 c13 -121 26 -302 30 -402z m-82 430 c9 -296 3 -953 -11 -1208 -9
-157 -11 -347 -7 -550 20 -1030 20 -1099 -1 -1112 -20 -11 -20 -6 -19 475 1
268 0 789 -1 1157 -1 369 0 803 2 965 2 162 4 330 4 373 1 58 4 77 15 77 10 0
14 -37 18 -177z m102 -23 c36 -262 57 -567 66 -945 11 -432 21 -612 51 -915
11 -113 28 -322 39 -465 l19 -260 -42 -39 -42 -38 -7 38 c-3 22 -9 95 -12 164
-4 69 -13 256 -21 415 -17 339 -23 572 -35 1315 -6 366 -14 588 -24 675 -25
212 -19 253 8 55z m127 79 c35 -12 102 -32 149 -45 l85 -23 -91 6 c-53 3 -119
1 -159 -6 -37 -7 -69 -10 -71 -8 -2 2 -8 25 -13 50 -8 44 -7 47 14 47 12 0 51
-10 86 -21z m39 -189 c20 -5 12 -9 -40 -18 -65 -12 -79 -8 -80 25 0 13 61 9
120 -7z m2860 -346 c0 -24 -5 -34 -15 -34 -11 0 -15 12 -15 46 0 40 2 45 15
34 8 -7 15 -28 15 -46z m-3202 -50 c-8 -7 -128 9 -128 17 0 4 28 9 63 11 45 2
63 -1 65 -10 2 -8 2 -15 0 -18z m3202 -44 c0 -20 -5 -30 -15 -30 -15 0 -21 40
-8 53 14 15 23 6 23 -23z m-3200 0 c0 -18 -7 -20 -69 -20 -64 0 -69 1 -64 20
5 17 14 20 69 20 57 0 64 -2 64 -20z m3150 -38 c0 -35 -5 -41 -75 -95 -42 -31
-78 -57 -81 -57 -3 0 9 17 26 38 18 20 53 63 78 95 25 31 47 57 49 57 1 0 3
-17 3 -38z m-3324 -39 c-7 -47 -18 -627 -35 -1803 -5 -333 -9 -606 -10 -607
-4 -10 -154 -104 -158 -99 -3 3 5 96 17 208 12 112 21 210 22 218 0 8 10 132
23 275 82 891 95 1106 95 1537 0 214 1 230 22 273 12 25 24 45 26 45 3 0 2
-21 -2 -47z m174 7 c0 -26 -3 -30 -22 -26 -13 3 -44 8 -70 11 -62 8 -66 32 -5
38 101 9 97 10 97 -23z m3200 5 c0 -16 -6 -25 -15 -25 -28 0 -18 40 13 49 1 1
2 -10 2 -24z m-3040 -7 c0 -4 -4 -8 -9 -8 -6 0 -12 4 -15 8 -3 5 1 9 9 9 8 0
15 -4 15 -9z m130 -69 c0 -31 9 -124 20 -205 12 -89 26 -292 35 -504 8 -195
19 -418 25 -495 5 -77 12 -194 15 -260 3 -66 11 -173 16 -238 8 -90 7 -122 -2
-133 -6 -8 -13 -13 -15 -11 -2 2 -13 125 -24 273 -11 148 -29 359 -40 469 -34
332 -64 1207 -41 1175 6 -8 11 -40 11 -71z m-135 42 c3 -5 1 -12 -4 -15 -12
-8 -41 3 -41 15 0 12 37 12 45 0z m3055 -24 c0 -29 -7 -37 -26 -30 -14 5 -19
35 -7 46 14 15 33 6 33 -16z m-3210 -2 c0 -12 -14 -15 -70 -15 -56 0 -70 3
-70 15 0 12 14 15 70 15 56 0 70 -3 70 -15z m3146 -512 c-3 -285 -8 -596 -12
-690 l-7 -173 -56 0 c-53 0 -57 2 -68 29 -11 29 -10 30 26 33 24 2 36 8 36 18
0 12 -16 16 -72 18 -56 2 -73 6 -73 17 0 12 15 15 63 15 34 0 68 4 76 9 28 18
-1 31 -70 31 l-69 0 0 30 c0 30 0 30 58 30 31 0 64 5 72 10 28 18 -10 32 -72
26 -57 -6 -58 -5 -58 19 0 24 3 25 63 25 40 0 70 5 83 15 32 24 0 36 -78 29
-58 -6 -68 -4 -68 9 0 13 13 17 63 19 47 2 62 7 62 18 0 12 -13 15 -63 14 -59
-1 -63 0 -60 20 3 18 11 21 61 24 42 2 57 7 57 17 0 12 -14 15 -60 15 -53 0
-60 2 -60 20 0 18 7 20 58 20 64 0 94 12 75 31 -6 6 -35 10 -72 7 l-62 -3 3
30 c3 29 5 30 62 35 66 6 87 26 34 34 -18 2 -46 4 -63 3 -27 -2 -30 1 -30 28
0 30 0 30 63 33 46 2 62 7 62 17 0 18 -41 29 -85 22 -37 -6 -46 -2 -38 19 4
11 21 14 64 12 32 -1 62 1 66 6 15 15 -31 36 -77 36 -53 0 -60 4 -53 28 3 14
13 17 44 14 50 -5 92 5 86 21 -2 7 -30 14 -68 17 -48 4 -64 9 -64 20 0 12 14
15 61 16 71 1 91 9 73 30 -8 9 -33 14 -75 14 l-64 0 0 103 0 103 33 31 c31 30
184 143 194 143 2 0 2 -233 -1 -517z m-2996 497 c0 -5 -9 -10 -20 -10 -11 0
-20 5 -20 10 0 6 9 10 20 10 11 0 20 -4 20 -10z m-152 -32 c-3 -9 -30 -14 -76
-16 -60 -2 -72 0 -72 13 0 12 14 15 76 15 56 0 75 -3 72 -12z m152 -8 c0 -5
-9 -10 -20 -10 -11 0 -20 5 -20 10 0 6 9 10 20 10 11 0 20 -4 20 -10z m3060
-15 c0 -25 -23 -35 -35 -15 -10 16 2 40 20 40 9 0 15 -9 15 -25z m-3060 -20
c0 -8 -7 -15 -15 -15 -8 0 -15 -5 -15 -11 0 -6 7 -9 15 -5 10 4 15 -1 15 -15
0 -14 -5 -19 -17 -17 -13 2 -19 14 -21 41 -3 32 0 37 17 37 12 0 21 -7 21 -15z
m-160 -25 c0 -27 -3 -30 -32 -30 -68 0 -108 12 -108 31 0 14 10 19 43 22 101
9 97 10 97 -23z m3220 -19 c0 -24 -3 -28 -20 -24 -25 7 -26 40 -2 46 9 3 18 5
20 6 1 0 2 -12 2 -28z m-3220 -46 c0 -24 -2 -25 -70 -25 -63 0 -70 2 -70 19 0
20 19 26 103 29 33 2 37 0 37 -23z m160 5 c0 -5 -9 -10 -20 -10 -11 0 -20 5
-20 10 0 6 9 10 20 10 11 0 20 -4 20 -10z m3064 -15 c3 -10 -1 -15 -14 -15
-20 0 -33 13 -23 24 11 11 31 6 37 -9z m-3064 -15 c0 -13 -11 -13 -30 0 -12 8
-11 10 8 10 12 0 22 -4 22 -10z m-160 -30 c0 -18 -7 -20 -70 -20 -54 0 -70 3
-70 14 0 11 14 16 48 19 26 2 57 4 70 5 16 2 22 -3 22 -18z m3230 1 c0 -27
-15 -34 -34 -15 -19 19 -12 34 15 34 12 0 19 -7 19 -19z m-3070 -1 c0 -5 -9
-10 -20 -10 -11 0 -20 5 -20 10 0 6 9 10 20 10 11 0 20 -4 20 -10z m0 -30
c-10 -6 -11 -10 -2 -10 6 0 12 -7 12 -15 0 -8 -6 -15 -14 -15 -8 0 -21 -3 -30
-6 -11 -4 -16 -1 -16 10 0 9 8 16 17 16 15 0 14 2 -3 15 -18 13 -17 14 16 15
26 0 31 -3 20 -10z m-160 -36 c0 -33 -2 -36 -22 -30 -13 3 -44 6 -70 6 -44 0
-48 2 -48 25 0 22 4 24 58 28 31 2 63 4 70 5 8 1 12 -11 12 -34z m3230 1 c0
-18 -5 -25 -20 -25 -15 0 -20 7 -20 25 0 18 5 25 20 25 15 0 20 -7 20 -25z
m-490 -6 c0 -11 -49 -23 -58 -14 -10 10 28 35 44 28 8 -3 14 -9 14 -14z
m-2570 -19 c0 -5 -15 -10 -32 -9 -28 0 -30 2 -13 9 28 12 45 12 45 0z m2576
-58 c-13 -13 -19 -14 -43 -2 l-28 13 32 11 c17 6 35 15 40 19 4 5 10 1 11 -8
2 -10 -3 -24 -12 -33z m-2798 32 c43 -6 52 -10 52 -27 0 -15 -5 -18 -22 -13
-13 3 -44 6 -70 6 -41 0 -48 3 -48 20 0 22 7 23 88 14z m222 -4 c0 -5 -6 -10
-12 -11 -10 0 -10 -2 0 -6 24 -9 12 -23 -20 -22 -28 0 -30 2 -13 9 17 7 17 9
3 9 -21 1 -24 17 -5 24 21 9 47 7 47 -3z m3060 -5 c0 -8 -9 -15 -20 -15 -11 0
-20 7 -20 15 0 8 9 15 20 15 11 0 20 -7 20 -15z m-735 -5 c7 -11 -42 -37 -51
-27 -9 9 15 37 32 37 7 0 16 -4 19 -10z m880 0 c3 -5 -3 -10 -14 -10 -11 0
-23 5 -26 10 -3 6 3 10 14 10 11 0 23 -4 26 -10z m-835 -39 c0 -50 -34 -67
-75 -38 -17 13 -16 14 14 20 17 4 34 13 37 22 9 21 24 19 24 -4z m838 -11 c28
0 27 -26 -1 -44 -25 -16 -71 12 -75 47 -3 26 -3 26 25 12 15 -8 38 -15 51 -15z
m-150 -2 c-5 -34 -38 -37 -38 -4 0 20 5 26 21 26 15 0 20 -5 17 -22z m-3228
-14 c0 -20 -4 -25 -16 -20 -9 3 -40 6 -70 6 -47 0 -54 2 -54 20 0 18 7 20 70
20 69 0 70 0 70 -26z m165 16 c-3 -5 -17 -10 -31 -10 -13 0 -24 5 -24 10 0 6
14 10 31 10 17 0 28 -4 24 -10z m1617 -21 c29 -29 30 -33 24 -91 -7 -71 2 -88
49 -88 25 0 40 8 60 32 32 37 47 25 38 -30 -8 -44 14 -62 73 -62 34 0 44 -4
49 -20 3 -11 18 -28 32 -39 l25 -20 -22 -36 c-24 -39 -40 -45 -40 -15 0 24
-47 50 -89 50 -77 0 -82 -131 -6 -160 l24 -9 -22 -40 c-21 -39 -37 -52 -37
-31 0 5 -9 14 -21 20 -32 18 -78 -6 -98 -49 -9 -21 -25 -37 -36 -39 -11 -2
-32 -15 -47 -29 -31 -30 -60 -27 -68 7 -5 21 -12 25 -45 25 -34 0 -42 -5 -60
-34 -11 -19 -35 -50 -53 -69 -29 -31 -36 -34 -70 -27 -72 13 -86 25 -93 79 -4
36 -12 54 -30 67 -45 35 -49 40 -49 61 0 60 -67 234 -84 217 -7 -7 -56 -179
-56 -198 0 -9 -4 -22 -9 -29 -5 -9 -16 37 -30 121 -11 74 -21 137 -21 139 0 3
23 8 52 10 57 6 88 32 88 74 0 34 36 133 57 156 27 30 63 19 96 -29 23 -35 34
-43 59 -43 22 0 31 6 35 20 4 16 8 18 19 9 22 -18 41 -4 66 48 28 59 70 82
151 83 52 0 62 -3 89 -31z m-1612 -9 c0 -5 -16 -10 -36 -10 -21 0 -33 4 -29
10 3 6 19 10 36 10 16 0 29 -4 29 -10z m2560 -4 c0 -9 -18 -16 -52 -20 -29 -4
-72 -16 -96 -26 -40 -18 -43 -18 -40 -2 2 11 26 25 68 39 75 26 120 29 120 9z
m-2730 -46 l0 -30 -70 0 c-54 0 -72 4 -76 15 -14 35 3 45 76 45 l70 0 0 -30z
m2304 16 c-6 -16 -34 -30 -42 -21 -8 7 19 35 34 35 7 0 11 -6 8 -14z m926 -6
c0 -13 -7 -20 -20 -20 -13 0 -20 7 -20 20 0 13 7 20 20 20 13 0 20 -7 20 -20z
m-3060 0 c0 -5 -9 -10 -20 -10 -11 0 -20 5 -20 10 0 6 9 10 20 10 11 0 20 -4
20 -10z m2734 -57 c8 -81 -3 -632 -14 -652 -4 -8 -16 35 -28 100 -36 192 -102
583 -102 602 0 14 10 17 69 17 l68 0 7 -67z m690 52 c6 -17 4 -18 -18 -9 -20
8 -21 24 -2 24 8 0 16 -7 20 -15z m-1244 -19 c0 -54 -19 -68 -62 -45 -19 10
-19 12 11 30 17 10 31 23 31 29 0 5 5 10 10 10 6 0 10 -11 10 -24z m408 -113
c12 -76 38 -226 57 -333 19 -107 36 -208 39 -225 6 -35 -74 119 -108 210 -13
33 -47 107 -76 165 -47 93 -120 255 -120 266 0 15 108 51 161 53 25 1 26 -1
47 -136z m542 127 c8 -5 11 -10 5 -10 -5 0 -17 5 -25 10 -8 5 -10 10 -5 10 6
0 17 -5 25 -10z m-780 -19 c0 -5 -30 -25 -66 -45 -79 -44 -78 -44 -82 -31 -3
11 114 85 135 85 7 0 13 -4 13 -9z m909 -38 c40 -26 69 -49 64 -50 -9 -3 -163
85 -163 93 0 14 36 -2 99 -43z m158 2 c-10 -30 -67 -9 -67 25 0 16 2 17 35 2
19 -9 34 -21 32 -27z m-3417 20 c0 -10 -11 -15 -35 -15 -24 0 -35 5 -35 15 0
10 11 15 35 15 24 0 35 -5 35 -15z m3058 -45 c-2 -40 -7 -50 -20 -50 -13 0
-18 8 -18 25 0 17 6 25 18 26 16 1 16 2 0 6 -26 6 -23 43 3 43 18 0 20 -5 17
-50z m60 42 c15 -10 5 -45 -12 -39 -13 4 -21 47 -9 47 4 0 14 -4 21 -8z
m-3288 -32 l0 -30 -75 0 c-73 0 -75 1 -75 24 0 22 5 25 43 29 108 9 107 10
107 -23z m1016 -31 c7 -30 14 -65 14 -79 0 -24 -3 -25 -41 -22 -25 3 -39 9
-36 16 2 6 12 41 22 79 10 37 20 65 22 63 2 -2 11 -28 19 -57z m1559 -54 c20
-49 66 -152 101 -227 35 -76 64 -142 64 -148 0 -5 -13 -10 -30 -10 -29 0 -30
2 -30 45 0 56 -25 85 -75 85 -30 0 -37 5 -54 38 -11 20 -51 80 -90 132 -39 52
-71 100 -71 105 0 14 133 86 142 77 3 -4 23 -47 43 -97z m-2405 80 c0 -10 -11
-15 -35 -15 -39 0 -48 16 -12 23 41 8 47 7 47 -8z m3235 -21 c33 -19 61 -37
64 -39 5 -6 -52 -95 -61 -95 -5 0 -8 3 -8 8 0 4 -20 31 -45 59 -37 42 -44 57
-39 77 8 34 19 33 89 -10z m1270 -134 c95 -373 102 -426 50 -406 -12 4 -15 13
-11 33 9 40 -10 142 -30 164 -25 28 -66 24 -96 -8 -40 -43 -48 -67 -48 -137 0
-59 -2 -66 -20 -66 -37 0 -26 73 62 405 39 146 47 170 53 163 2 -2 20 -68 40
-148z m-4505 120 c0 -5 -16 -10 -35 -10 -19 0 -35 5 -35 10 0 6 16 10 35 10
19 0 35 -4 35 -10z m3110 -11 c0 -5 -4 -9 -10 -9 -5 0 -10 7 -10 16 0 8 5 12
10 9 6 -3 10 -10 10 -16z m-3280 -9 c0 -18 -7 -20 -75 -20 -59 0 -75 3 -75 14
0 11 15 16 53 19 28 2 62 4 75 5 16 2 22 -3 22 -18z m2294 -54 c-43 -39 -62
-51 -71 -44 -17 14 -11 22 55 73 81 63 93 41 16 -29z m1516 43 c0 -12 -4 -11
-35 3 -35 16 -31 29 5 17 17 -6 30 -15 30 -20z m-1680 1 c-6 -11 -15 -20 -20
-20 -14 0 -12 27 3 33 23 10 28 7 17 -13z m1469 -20 c58 -46 88 -90 61 -90 -6
0 -26 18 -46 40 -20 22 -49 48 -65 57 -15 9 -26 20 -23 25 9 14 21 9 73 -32z
m-3429 -9 c0 -22 3 -46 6 -55 4 -11 0 -16 -12 -17 -17 -1 -17 -2 -1 -6 20 -5
23 -23 5 -24 -10 0 -10 -2 0 -6 6 -2 12 -20 12 -39 0 -34 0 -34 -47 -34 -48 0
-50 14 -3 23 24 4 24 4 -2 6 -34 1 -39 30 -5 32 l22 2 -22 4 c-27 5 -31 22 -5
24 16 1 16 2 0 6 -26 7 -22 33 5 34 l22 2 -22 4 c-13 2 -23 9 -23 14 0 5 10
10 23 10 l22 2 -22 4 c-32 6 -29 23 5 23 l27 1 -30 14 -30 13 38 1 c37 1 37 1
37 -38z m3604 -1 c21 0 21 -16 0 -24 -25 -10 -69 16 -72 43 l-4 24 30 -22 c17
-11 37 -21 46 -21z m-1594 1 c0 -32 -21 -54 -46 -49 -26 5 -28 25 -4 31 12 3
24 15 27 26 8 31 23 26 23 -8z m1050 9 c0 -13 -7 -20 -20 -20 -19 0 -27 20
-13 33 13 14 33 6 33 -13z m110 -27 c56 -73 56 -83 1 -23 -27 30 -50 58 -51
63 -1 17 17 3 50 -40z m-867 -112 c72 -97 76 -106 57 -113 -16 -6 -20 -16 -20
-48 0 -22 -4 -40 -9 -40 -5 0 -26 21 -47 48 -21 26 -74 82 -118 125 l-81 79
55 50 54 51 15 -23 c9 -13 51 -71 94 -129z m1105 94 c73 -63 73 -62 -34 -149
l-95 -77 3 65 c1 41 -2 70 -9 77 -12 12 5 56 44 116 17 26 27 23 91 -32z
m-3578 9 l0 -25 -72 7 c-40 3 -75 8 -77 10 -2 2 -1 10 2 19 5 11 23 15 77 15
68 0 70 -1 70 -26z m3363 -83 l42 -54 -65 -58 c-35 -33 -68 -59 -72 -59 -5 0
-8 64 -8 142 l0 142 31 -30 c17 -16 49 -53 72 -83z m-133 64 c0 -19 -20 -29
-32 -17 -8 8 -7 16 2 26 14 17 30 12 30 -9z m-3230 -45 l0 -30 -75 0 -75 0 0
30 0 30 75 0 75 0 0 -30z m872 24 l45 -6 -16 -64 c-9 -35 -21 -66 -28 -68 -29
-12 -50 7 -67 60 -22 69 -40 70 -71 0 l-24 -54 -41 8 c-41 8 -66 20 -39 20 8
0 24 7 36 15 28 20 20 43 -21 60 l-30 13 44 10 c53 12 150 14 212 6z m164 -6
c2 -3 15 -70 28 -149 14 -79 31 -166 40 -194 22 -70 21 -85 -7 -85 -21 0 -24
7 -34 79 -18 120 -45 149 -106 114 -43 -25 -77 -94 -77 -155 0 -28 -5 -48 -11
-48 -15 0 -6 130 13 200 9 30 26 99 38 154 l22 98 44 -5 c25 -2 47 -7 50 -9z
m1172 -5 c-1 -5 -23 -39 -47 -76 -28 -45 -47 -65 -53 -59 -14 14 72 142 94
142 5 0 8 -3 6 -7z m1022 -18 c0 -8 -9 -15 -20 -15 -22 0 -27 15 -7 23 21 9
27 7 27 -8z m535 -56 c32 -35 53 -65 48 -70 -9 -9 -133 104 -133 121 0 25 33
5 85 -51z m1113 -41 c17 -51 32 -102 36 -113 6 -19 2 -21 -65 -20 l-70 0 6 35
c8 43 54 190 60 190 2 0 17 -42 33 -92z m-4224 69 c17 -12 17 -14 3 -20 -9 -3
-62 -9 -119 -12 -57 -3 -113 -8 -125 -11 -19 -4 -23 0 -23 20 0 25 2 25 88 29
48 1 103 4 123 5 19 1 43 -4 53 -11z m1720 -118 c69 -73 125 -133 124 -134 -2
-2 -39 1 -84 5 -69 6 -90 12 -143 44 -33 21 -61 40 -61 42 0 3 10 18 21 34 22
29 23 75 4 123 -16 39 18 11 139 -114z m1566 84 c0 -7 -4 -13 -8 -13 -15 0
-32 24 -32 44 0 18 1 19 20 1 11 -10 20 -24 20 -32z m-3940 2 c0 -26 -1 -26
-72 -23 -59 2 -73 6 -76 20 -3 14 7 18 65 21 37 2 71 4 76 5 4 1 7 -9 7 -23z
m1964 10 c-4 -8 -8 -15 -10 -15 -2 0 -4 7 -4 15 0 8 4 15 10 15 5 0 7 -7 4
-15z m72 0 c10 -25 -5 -63 -27 -70 -33 -11 -40 7 -22 48 18 38 39 48 49 22z
m188 -1 c12 -32 5 -74 -16 -98 -23 -26 -23 -26 -48 -7 l-24 19 34 51 c38 55
45 59 54 35z m1006 -4 c0 -22 -7 -25 -29 -11 -16 10 -6 31 15 31 8 0 14 -9 14
-20z m471 -11 c21 -17 47 -43 58 -58 l20 -27 -52 -36 c-165 -112 -251 -168
-259 -168 -4 0 -8 33 -8 74 0 63 3 79 23 101 19 22 166 143 176 144 2 1 21
-13 42 -30z m734 -75 c4 -32 11 -68 15 -80 8 -19 5 -20 -41 -20 -28 1 -48 5
-46 11 2 6 15 50 27 99 26 97 33 95 45 -10z m-3645 29 c6 -32 13 -65 16 -74 4
-13 -5 -17 -43 -22 -27 -3 -49 -4 -50 -4 -4 5 53 157 59 157 4 0 12 -26 18
-57z m3088 37 c7 -11 8 -20 2 -20 -5 0 -14 9 -20 20 -6 11 -7 20 -3 20 5 0 14
-9 21 -20z m-2654 -73 c9 -38 16 -70 16 -71 0 -2 -18 -3 -40 -2 -22 0 -40 4
-40 7 0 29 34 149 41 142 4 -4 15 -39 23 -76z m-1224 18 l0 -36 -72 3 c-71 3
-73 4 -76 30 -3 27 -3 27 70 31 40 1 74 4 76 5 1 1 2 -14 2 -33z m180 10 c0
-23 -3 -25 -47 -25 -44 1 -47 2 -29 15 18 14 18 15 2 15 -9 0 -14 5 -11 10 3
6 24 10 46 10 35 0 39 -3 39 -25z m385 15 c28 -5 69 -12 93 -16 23 -3 42 -8
42 -10 0 -2 -7 -29 -16 -61 -12 -47 -15 -107 -12 -328 l3 -270 -42 -55 c-45
-60 -170 -187 -177 -179 -4 4 -15 153 -41 579 -8 135 -17 269 -19 298 l-5 52
62 -1 c34 0 85 -4 112 -9z m2670 0 c12 -19 -5 -30 -30 -18 -13 6 -22 15 -19
19 7 12 41 11 49 -1z m-1140 -30 c14 -22 -77 -160 -106 -160 -19 0 -19 1 2 43
27 52 80 127 90 127 4 0 11 -4 14 -10z m-1228 -45 c-12 -51 -22 -48 -30 8 -5
34 -4 37 17 37 22 0 23 -2 13 -45z m2572 -317 l1 -107 -85 -3 -85 -3 0 158 0
158 78 80 77 79 6 -127 c4 -71 7 -176 8 -235z m-199 337 c0 -16 -17 -19 -45
-9 -13 5 -14 8 -3 15 21 14 48 10 48 -6z m85 -35 c-27 -27 -54 -50 -60 -50
-10 1 94 100 104 100 3 0 -17 -22 -44 -50z m-3145 25 c0 -11 -11 -15 -39 -15
-38 0 -57 10 -44 24 3 3 24 6 45 6 27 0 38 -4 38 -15z m3684 -50 c16 -36 26
-68 23 -71 -3 -4 -20 24 -36 61 -34 75 -34 75 -23 75 4 0 20 -29 36 -65z
m-1704 0 c0 -28 20 -45 63 -55 31 -8 31 -8 -13 -10 -25 0 -71 -3 -102 -6 -32
-3 -58 -3 -58 0 0 2 16 32 36 66 35 58 38 60 55 44 11 -10 19 -27 19 -39z
m468 39 c19 -6 22 -13 22 -58 0 -29 -2 -55 -4 -57 -2 -2 -29 -2 -60 -1 l-56 4
0 52 c0 29 3 56 7 59 8 9 60 9 91 1z m1192 -46 c12 -29 24 -58 26 -64 3 -7
-37 -30 -93 -54 -54 -24 -132 -60 -173 -81 -41 -20 -85 -40 -97 -44 -21 -6
-23 -3 -23 33 0 40 1 41 94 100 52 33 125 83 162 111 38 28 72 51 75 51 4 0
16 -24 29 -52z m-3812 15 c-3 -26 -6 -28 -43 -25 -91 6 -115 13 -115 33 0 17
8 19 81 19 l80 0 -3 -27z m4669 -13 c7 -19 12 -68 12 -109 l1 -74 35 6 35 6 0
-65 0 -64 -79 0 c-43 0 -99 -3 -125 -6 l-46 -7 0 61 c0 59 1 61 28 64 26 3 27
5 24 53 -4 72 5 110 35 145 34 41 64 37 80 -10z m-4497 15 c0 -11 -11 -15 -40
-15 -29 0 -40 4 -40 15 0 11 11 15 40 15 29 0 40 -4 40 -15z m3060 -5 c0 -22
-3 -23 -37 -14 -34 9 -29 34 7 34 23 0 30 -4 30 -20z m778 -24 c2 -16 -1 -33
-7 -39 -14 -14 -17 -10 -25 36 -6 34 -5 38 11 35 11 -2 19 -14 21 -32z m-3008
-1 c7 -8 18 -54 26 -102 7 -49 13 -89 14 -90 0 -2 18 -3 40 -3 l40 0 0 -48 0
-47 -135 -2 -135 -3 0 50 c0 38 4 49 17 52 12 2 20 22 29 77 10 56 19 80 40
102 31 33 46 36 64 14z m1216 0 c15 -11 16 -14 3 -15 -8 0 -24 7 -35 15 -15
11 -16 14 -3 15 8 0 24 -7 35 -15z m1730 -32 c-10 -11 -25 18 -18 35 4 13 8
11 15 -6 6 -12 7 -25 3 -29z m-3776 21 c0 -11 -9 -14 -37 -12 -52 4 -56 28 -4
28 30 0 41 -4 41 -16z m650 -127 l0 -143 -35 4 c-19 2 -48 0 -63 -6 l-29 -10
-7 60 c-3 34 -6 96 -6 140 0 90 6 96 93 97 l47 1 0 -143z m1095 83 c-7 -26
-24 -42 -37 -34 -4 3 -4 14 2 24 5 10 10 31 10 47 1 27 1 27 16 8 9 -12 13
-30 9 -45z m-64 7 c-17 -17 -24 -1 -10 25 12 21 14 21 17 4 2 -10 -1 -23 -7
-29z m1379 22 c0 -15 -4 -19 -16 -15 -9 3 -22 6 -30 6 -8 0 -14 7 -14 15 0 10
10 15 30 15 24 0 30 -4 30 -21z m-3230 -9 c0 -18 -7 -20 -80 -20 -73 0 -80 2
-80 20 0 18 7 20 80 20 73 0 80 -2 80 -20z m1115 11 c3 -5 1 -12 -5 -16 -5 -3
-10 1 -10 9 0 18 6 21 15 7z m106 -1 c17 -10 19 -22 19 -131 0 -115 -1 -119
-19 -109 -11 5 -31 10 -44 10 -30 0 -37 27 -37 145 0 57 4 85 13 88 21 9 47 7
68 -3z m3674 -10 c12 -10 15 -38 15 -131 l0 -119 -25 16 c-17 11 -38 15 -64
11 l-38 -5 -7 116 c-5 89 -4 117 6 124 17 12 94 4 113 -12z m-4723 -47 c3 -27
3 -49 2 -51 -1 -2 -22 1 -46 6 -29 7 -35 10 -18 11 14 1 32 6 40 11 11 7 5 10
-22 10 -27 0 -38 4 -38 15 0 10 12 16 38 17 l37 1 -37 4 c-50 5 -49 23 1 23
l39 0 4 -47z m4285 33 c3 -3 8 -60 11 -127 5 -120 5 -121 -16 -110 -11 6 -38
11 -60 11 l-39 0 -6 108 c-6 127 -2 136 61 129 23 -2 46 -7 49 -11z m-3159
-19 c6 -7 12 -32 14 -56 4 -58 36 -83 115 -89 69 -5 101 15 135 81 23 46 34
57 61 57 10 0 17 -8 17 -19 0 -20 35 -51 57 -51 7 0 28 14 46 30 38 33 62 37
91 15 11 -8 28 -15 38 -15 19 0 22 -11 12 -47 -5 -19 -9 -20 -29 -11 -46 21
-115 -18 -115 -64 0 -34 38 -68 78 -68 27 0 33 -3 28 -16 -3 -9 -6 -20 -6 -25
0 -5 -97 -9 -227 -10 -126 0 -254 -4 -285 -8 l-58 -7 0 158 c0 87 4 158 9 158
5 0 13 -6 19 -13z m1055 -23 l47 -37 0 -64 c0 -36 -3 -63 -7 -61 -8 4 -78 37
-260 121 l-113 52 123 11 c67 6 131 12 143 12 11 1 42 -14 67 -34z m42 25 c11
-17 -1 -21 -15 -4 -8 9 -8 15 -2 15 6 0 14 -5 17 -11z m349 -21 c3 -18 12 -68
19 -110 l14 -77 -50 -20 c-27 -12 -52 -21 -56 -21 -3 0 -4 55 -3 122 4 127 7
138 49 138 17 0 23 -7 27 -32z m486 12 c0 -11 -6 -20 -14 -20 -21 0 -46 11
-46 20 0 7 10 11 53 19 4 0 7 -8 7 -19z m-3232 -33 l3 -27 -80 0 c-79 0 -81 1
-81 25 0 23 3 24 68 27 88 5 87 6 90 -25z m2484 -108 l-3 -129 -30 0 -30 0 5
128 c3 70 6 130 6 133 0 3 12 4 28 2 l27 -5 -3 -129z m1452 40 c30 -98 31
-109 12 -109 -15 0 -26 30 -26 72 0 15 -9 49 -19 77 -11 27 -17 52 -14 55 12
11 21 -7 47 -95z m-1960 82 c9 -14 -47 -151 -62 -151 -8 0 -11 7 -8 18 2 9 12
45 22 80 15 57 34 77 48 53z m658 -47 c2 -25 1 -47 -1 -50 -8 -7 -110 -4 -115
4 -2 4 -2 27 1 50 l6 42 52 0 53 0 4 -46z m1229 25 c9 -19 41 -171 36 -175 -1
-1 -60 -11 -131 -22 -91 -15 -136 -18 -154 -11 -14 5 -43 9 -64 7 -34 -2 -40
-6 -45 -30 -6 -29 -11 -32 -37 -22 -11 4 -16 19 -16 49 l0 44 98 47 c117 56
284 132 294 133 4 1 12 -9 19 -20z m-1761 -35 c103 -49 259 -114 276 -114 9 0
14 -11 14 -28 l0 -28 -67 16 c-38 10 -134 26 -215 36 -99 12 -148 22 -148 30
0 25 43 124 54 124 6 0 45 -16 86 -36z m1130 16 c0 -15 -7 -20 -28 -20 -34 0
-43 7 -35 26 3 8 18 14 34 14 22 0 29 -5 29 -20z m-3050 -20 c0 -5 -18 -10
-39 -10 -22 0 -43 5 -46 10 -4 6 12 10 39 10 25 0 46 -4 46 -10z m2686 -157
c-1 -2 -16 3 -33 9 -33 12 -34 16 -48 118 -5 44 -5 44 39 -40 24 -47 43 -86
42 -87z m-2866 116 l0 -29 -78 0 c-43 0 -81 2 -84 5 -3 3 -3 16 0 30 4 23 9
24 76 27 39 2 74 2 79 0 4 -2 7 -16 7 -33z m180 -21 c0 -24 3 -82 7 -130 l6
-88 -45 0 c-44 0 -45 0 -46 35 -1 30 2 35 21 36 l22 2 -22 4 c-39 7 -28 33 15
35 l37 1 -37 4 c-34 4 -38 7 -38 34 0 23 4 29 23 30 l22 1 -23 6 c-33 10 -31
26 4 33 l29 7 -32 1 c-31 1 -41 10 -26 24 3 4 24 7 45 7 l38 0 0 -42z m3048
25 c-4 -17 -21 -19 -56 -8 -22 8 -6 20 28 23 26 2 31 -1 28 -15z m-1380 -12
c18 -11 11 -65 -8 -69 -12 -2 -16 6 -15 38 0 42 2 45 23 31z m2216 -8 c4 -9 2
-21 -4 -27 -7 -7 -10 -7 -10 1 0 6 -3 18 -6 27 -3 9 -2 16 4 16 5 0 13 -8 16
-17z m-2264 -23 c0 -31 -16 -41 -26 -15 -5 13 11 45 22 45 2 0 4 -13 4 -30z
m840 -21 l0 -42 -37 7 c-21 3 -50 6 -65 6 -24 0 -28 4 -28 29 0 32 9 35 98 39
31 2 32 1 32 -39z m1390 -2 c0 -20 -25 1 -28 24 -2 23 -2 23 13 5 8 -11 15
-24 15 -29z m-800 23 c0 -12 -45 -24 -59 -15 -22 13 -10 25 24 25 19 0 35 -4
35 -10z m-3230 -40 l0 -31 -82 3 c-77 3 -83 5 -86 25 -3 21 1 22 70 26 40 1
79 4 86 5 7 1 12 -10 12 -28z m1908 -40 c-6 -22 -16 -40 -23 -40 -11 0 -11 8
-3 38 13 46 17 54 28 47 4 -3 3 -23 -2 -45z m1320 38 c-6 -16 -33 -22 -56 -13
-15 6 -15 8 3 15 31 13 57 12 53 -2z m-1042 -33 c218 -35 225 -41 54 -49 -80
-4 -153 -10 -162 -12 -12 -4 -17 2 -20 23 -3 27 -6 28 -60 31 -50 3 -58 6 -58
23 0 23 -8 24 246 -16z m-965 15 c17 -10 19 -23 19 -165 l0 -154 -27 14 c-16
8 -36 12 -45 9 -17 -5 -18 7 -18 150 l0 156 26 0 c14 0 34 -5 45 -10z m3653
-5 l36 -15 0 -137 c0 -131 -1 -136 -18 -120 -21 19 -64 22 -93 7 -18 -10 -19
-6 -19 125 0 131 1 136 23 145 30 12 30 12 71 -5z m-124 -134 l0 -138 -116 -7
c-64 -4 -117 -6 -119 -4 -1 2 -5 60 -9 129 l-6 126 37 7 c21 3 61 6 88 7 28 1
64 5 80 9 17 4 33 8 38 9 4 0 7 -61 7 -138z m-3952 123 c20 -6 22 -12 22 -79
0 -39 -3 -106 -6 -148 -7 -75 -7 -75 -31 -66 -13 5 -37 9 -52 9 -28 0 -28 1
-35 77 -3 42 -6 102 -6 134 0 53 2 58 28 67 33 13 50 14 80 6z m2432 -4 c0 -5
-15 -10 -32 -10 -25 0 -29 3 -18 10 20 13 50 13 50 0z m740 -15 c0 -14 -4 -25
-9 -25 -12 0 -23 29 -15 41 10 18 24 9 24 -16z m475 8 l35 -17 0 -144 c0 -140
-1 -145 -18 -129 -12 11 -36 17 -65 17 l-47 0 0 138 c0 76 3 142 7 145 11 12
51 7 88 -10z m-4445 -18 c0 -25 -1 -25 -85 -25 -77 0 -85 2 -85 19 0 21 20 26
123 29 44 2 47 0 47 -23z m1120 -127 l0 -153 -142 -3 -141 -3 6 53 c4 29 7 99
7 156 l0 102 135 0 135 0 0 -152z m1702 131 l58 -22 -4 -46 c-3 -25 -5 -52 -5
-58 -1 -10 -27 -13 -96 -13 l-95 0 0 28 c0 72 12 104 44 118 39 17 29 17 98
-7z m-182 1 c0 -6 -30 -10 -70 -10 -40 0 -70 4 -70 10 0 6 30 10 70 10 40 0
70 -4 70 -10z m1250 -5 c0 -11 -13 -15 -52 -15 -29 0 -84 -2 -123 -5 -59 -4
-65 -3 -36 6 18 5 68 14 110 18 42 5 82 9 89 10 6 0 12 -6 12 -14z m-910 -15
c10 -18 8 -20 -30 -20 -41 0 -49 7 -28 28 18 18 46 14 58 -8z m611 0 l30 0 -3
-57 -3 -58 -44 -3 c-42 -3 -43 -2 -39 23 3 14 2 27 -1 30 -4 2 -5 20 -3 40 3
27 8 35 19 31 8 -3 28 -6 44 -6z m-1561 -55 l0 -55 -47 0 -48 0 3 55 4 55 44
0 44 0 0 -55z m1200 45 c0 -5 -16 -10 -35 -10 -19 0 -35 5 -35 10 0 6 16 10
35 10 19 0 35 -4 35 -10z m-3230 -45 l0 -35 -84 0 c-47 0 -87 4 -90 8 -3 5 -3
18 1 30 5 19 13 22 82 25 42 1 79 4 84 5 4 1 7 -14 7 -33z m1893 15 c-4 -4
-147 -11 -318 -15 -246 -5 -307 -4 -298 6 9 9 94 14 310 18 164 4 302 5 306 2
5 -2 5 -7 0 -11z m757 5 c0 -13 -34 -15 -249 -15 -136 0 -269 -3 -295 -6 -27
-4 -46 -3 -46 3 0 5 21 11 48 12 26 1 94 6 152 10 58 5 169 9 248 10 120 1
142 -1 142 -14z m850 -9 c0 -18 -112 -26 -384 -26 -137 0 -216 4 -210 9 5 5
124 14 264 19 140 5 272 10 293 10 25 2 37 -2 37 -12z m827 1 c-4 -14 -24 -15
-399 -20 -229 -3 -288 -1 -288 9 0 18 48 21 393 22 223 0 297 -3 294 -11z
m-2707 -39 c0 -7 11 -21 25 -33 23 -18 24 -22 12 -39 -13 -18 -14 -18 -43 0
-16 10 -31 19 -33 21 -2 2 4 12 13 22 10 11 15 25 11 30 -3 6 -1 11 4 11 6 0
11 -5 11 -12z m88 -8 c-16 -25 -20 -25 -49 0 l-24 19 43 1 c40 0 41 -1 30 -20z
m129 -5 c-29 -26 -38 -25 -82 9 -19 14 -16 15 45 15 l65 0 -28 -24z m73 9 c0
-8 -4 -12 -10 -9 -5 3 -10 10 -10 16 0 5 5 9 10 9 6 0 10 -7 10 -16z m-570 -2
c0 -14 -11 -21 -26 -15 -21 8 -17 23 6 23 11 0 20 -4 20 -8z m102 -14 c-17
-18 -26 -20 -39 -12 -33 21 -26 34 18 34 l43 0 -22 -22z m128 3 c-22 -17 -27
-18 -52 -5 -15 8 -28 17 -28 19 0 3 24 5 53 5 l52 0 -25 -19z m520 9 c0 -5 -5
-10 -11 -10 -5 0 -7 5 -4 10 3 6 8 10 11 10 2 0 4 -4 4 -10z m63 -37 c18 -20
18 -23 3 -29 -10 -4 -25 1 -35 10 -16 14 -17 21 -7 41 6 13 13 19 15 12 2 -7
13 -22 24 -34z m57 38 c0 -15 -16 -22 -34 -15 -25 9 -19 24 9 24 14 0 25 -4
25 -9z m120 -11 c-10 -19 -13 -19 -40 -5 -17 9 -30 18 -30 20 0 3 18 5 40 5
38 0 40 -2 30 -20z m128 4 c-14 -14 -18 -14 -44 0 l-29 15 45 1 c41 0 43 -1
28 -16z m139 -1 c-15 -16 -19 -16 -49 -1 l-33 17 50 0 c46 1 48 0 32 -16z m53
-13 c0 -18 6 -33 15 -36 8 -4 15 -10 15 -15 0 -5 -18 0 -40 11 -37 19 -39 22
-28 45 16 35 38 32 38 -5z m1110 22 c0 -5 -8 -16 -18 -25 -16 -15 -20 -14 -50
5 -17 11 -32 22 -32 24 0 2 23 4 50 4 28 0 50 -4 50 -8z m54 -6 c-3 -7 7 -23
21 -34 19 -16 25 -27 20 -42 -9 -28 -39 -25 -81 7 l-35 26 27 29 c29 29 57 38
48 14z m84 -6 c-16 -25 -20 -25 -49 0 l-24 19 43 1 c40 0 41 -1 30 -20z m182
11 c0 -5 -6 -14 -14 -20 -11 -10 -21 -9 -45 3 -16 9 -35 16 -41 16 -21 0 -9
-26 21 -42 32 -19 36 -43 8 -61 -13 -8 -27 -2 -62 23 l-46 33 20 28 c19 27 25
29 90 29 38 0 69 -4 69 -9z m116 -75 c-26 -40 -40 -40 -80 -4 -38 35 -38 36
-21 61 l17 26 48 -32 c44 -29 48 -34 36 -51z m62 72 c-10 -28 -35 -32 -69 -10
l-34 22 53 0 c37 0 52 -4 50 -12z m70 -83 l-3 -96 -480 1 c-264 0 -587 3 -717
7 -207 5 -1376 -9 -1730 -22 l-128 -4 0 29 0 28 83 5 c260 12 2354 13 2770 1
143 -5 197 -3 197 5 0 6 -17 28 -39 48 l-38 37 20 28 c13 17 30 28 44 28 23 0
24 -1 21 -95z m-4138 75 c0 -5 -20 -10 -45 -10 -25 0 -45 5 -45 10 0 6 20 10
45 10 25 0 45 -4 45 -10z m2808 -2 c-6 -18 -22 -20 -43 -3 -19 14 -18 14 13
15 22 0 32 -4 30 -12z m99 -16 c20 -27 20 -29 3 -50 -23 -27 -28 -27 -64 3
-29 23 -29 24 -12 49 21 34 47 33 73 -2z m63 20 c0 -14 -11 -21 -26 -15 -21 8
-17 23 6 23 11 0 20 -4 20 -8z m73 -73 l-21 -22 -25 29 c-23 27 -24 30 -8 51
l16 22 30 -30 30 -29 -22 -21z m67 72 c0 -17 -34 -22 -49 -6 -14 13 -12 15 17
15 18 0 32 -4 32 -9z m97 -20 c20 -26 21 -30 7 -49 -20 -28 -42 -27 -76 3 -34
29 -35 38 -5 58 32 23 49 20 74 -12z m58 19 c-3 -5 -12 -10 -20 -10 -8 0 -17
5 -20 10 -4 6 5 10 20 10 15 0 24 -4 20 -10z m47 -20 c5 -33 0 -36 -26 -17
-11 8 -15 19 -10 30 10 27 31 20 36 -13z m-1612 1 c11 -22 4 -51 -13 -51 -6 0
-18 7 -28 16 -17 16 -17 17 4 35 27 23 24 23 37 0z m518 -9 c14 -10 6 -42 -12
-42 -6 0 -22 9 -36 19 -20 16 -22 22 -11 35 13 15 21 14 59 -12z m-2406 3 c4
-5 8 -18 8 -27 0 -16 -11 -18 -90 -18 -71 0 -92 3 -96 15 -14 36 2 44 88 42
46 -1 86 -6 90 -12z m1296 2 c8 -9 6 -21 -8 -42 l-20 -30 0 43 c0 43 9 52 28
29z m197 -3 c20 -13 23 -19 14 -36 -13 -25 -6 -34 11 -13 16 19 35 18 85 -5
l40 -19 -73 0 c-69 -1 -76 1 -101 28 -21 22 -24 32 -16 45 12 20 10 20 40 0z
m265 -4 c20 -15 22 -21 13 -31 -10 -10 -18 -8 -38 11 -13 12 -22 27 -19 31 8
13 16 11 44 -11z m505 4 c25 -16 32 -38 17 -48 -11 -7 -73 44 -67 55 9 13 22
11 50 -7z m266 -5 c16 -11 27 -25 24 -30 -4 -5 0 -6 7 -4 8 3 31 -1 53 -9 l40
-15 -53 0 c-43 -1 -61 4 -90 26 -20 15 -39 28 -41 29 -6 5 10 24 21 24 5 0 23
-9 39 -21z m409 3 c17 -13 21 -24 16 -40 -7 -20 -14 -22 -73 -22 -74 0 -79 12
-20 43 20 10 37 23 37 28 0 14 16 11 40 -9z m-2740 -2 c0 -12 -44 -12 -80 0
-20 6 -14 8 28 9 28 1 52 -3 52 -9z m1185 -3 c10 -8 15 -19 11 -26 -6 -9 -13
-8 -27 5 -33 30 -20 47 16 21z m2296 -5 c15 -10 24 -23 21 -32 -4 -12 -2 -13
9 -3 11 9 18 8 33 -3 18 -12 15 -14 -31 -13 -63 2 -104 28 -82 52 18 20 19 20
50 -1z m-1638 -22 c-20 -35 -43 -38 -68 -10 -20 22 -15 26 40 33 17 2 34 5 38
6 5 0 0 -12 -10 -29z m767 5 c-12 -15 -30 -12 -30 6 0 5 10 9 21 9 18 0 19 -2
9 -15z m-2610 -5 c0 -6 -19 -7 -47 -3 -65 8 -67 13 -5 13 29 0 52 -4 52 -10z
m2533 3 c11 -10 -14 -33 -36 -33 -19 0 -20 1 -2 20 19 21 28 24 38 13z m767
-26 c8 -3 -9 -6 -38 -6 -49 -1 -51 0 -40 18 10 17 15 18 37 7 14 -7 33 -16 41
-19z m77 19 c4 -8 17 -16 28 -19 11 -3 4 -5 -15 -4 -35 1 -60 12 -60 28 0 14
38 10 47 -5z m-2219 -8 c23 -23 13 -38 -23 -38 -39 0 -40 2 -23 30 15 23 29
25 46 8z m363 -8 l24 -19 -49 -1 c-48 0 -49 0 -31 20 22 25 27 25 56 0z m229
-5 c0 -3 -14 -5 -31 -5 -27 0 -30 2 -19 15 9 11 17 12 31 4 10 -5 19 -12 19
-14z m154 10 c18 -14 17 -15 -24 -15 -41 0 -42 1 -24 15 10 8 21 14 24 14 3 0
14 -6 24 -14z m112 0 c18 -13 16 -14 -25 -15 -37 0 -42 2 -31 15 16 19 31 19
56 0z m134 0 l25 -14 -37 -1 c-29 0 -36 3 -32 15 7 18 12 18 44 0z m130 0 c24
-14 23 -14 -29 -15 -46 0 -52 2 -41 15 15 19 37 19 70 0z m532 -13 c-27 -4
-37 2 -27 17 4 8 13 7 28 -1 l22 -13 -23 -3z m148 7 c0 -5 -12 -9 -26 -9 -22
0 -24 2 -14 14 12 15 40 11 40 -5z m140 6 c25 -14 24 -14 -19 -15 -37 0 -42 2
-31 15 15 18 18 18 50 0z m627 -21 c-2 -2 -18 -1 -36 2 -25 5 -29 9 -20 20 9
11 15 11 35 -3 14 -9 23 -17 21 -19z m324 16 l24 -19 -43 -1 c-40 0 -42 1 -32
20 13 25 22 25 51 0z m-2797 -5 c19 -14 19 -15 -6 -15 -15 0 -34 -3 -43 -6
-15 -6 -15 -4 -4 15 16 25 27 26 53 6z m376 5 c11 -7 7 -10 -18 -10 -20 0 -31
4 -27 10 8 13 26 13 45 0z m2256 -5 c18 -13 17 -14 -18 -15 -29 0 -36 3 -32
15 8 19 25 19 50 0z m-3886 -5 c0 -12 -44 -12 -80 0 -20 6 -14 8 28 9 28 1 52
-3 52 -9z m-190 -35 l0 -35 -95 0 -95 0 0 28 c0 16 3 32 7 35 3 4 46 7 95 7
l88 0 0 -35z m190 0 c0 -11 -13 -15 -47 -17 l-48 -2 48 -3 c26 -2 47 -8 47
-14 0 -5 -21 -10 -47 -11 l-48 -1 50 -7 50 -7 -45 -3 -45 -3 43 -4 c59 -6 53
-23 -8 -23 l-50 0 0 55 0 55 50 0 c38 0 50 -4 50 -15z m4798 -127 l31 -87 -37
-31 c-20 -16 -40 -30 -44 -30 -5 0 -8 64 -8 143 1 161 3 162 58 5z m-118 100
c23 -17 30 -30 30 -55 l0 -33 -26 17 c-21 14 -33 15 -65 6 l-39 -10 0 38 c0
32 4 39 28 47 38 15 40 14 72 -10z m-140 -35 l0 -48 -115 -2 -115 -2 0 38 0
39 88 7 c87 6 135 11 140 14 1 0 2 -20 2 -46z m345 -108 c-16 -14 -32 -21 -36
-17 -5 5 -48 111 -68 167 -2 5 28 -21 65 -58 l69 -68 -30 -24z m-3867 119 c12
-8 22 -25 22 -37 0 -19 -5 -22 -45 -22 -44 0 -45 1 -45 31 0 17 3 34 7 37 11
12 37 8 61 -9z m3244 -11 c10 -9 18 -26 18 -39 0 -22 -1 -22 -27 -8 -18 9 -41
12 -65 8 -37 -6 -38 -5 -38 24 0 21 6 32 18 35 27 8 74 -2 94 -20z m-3683 11
c26 -5 31 -11 31 -34 0 -25 -4 -28 -37 -32 -21 -3 -46 -8 -55 -12 -16 -7 -18
-2 -18 38 0 50 7 54 79 40z m-769 -29 c0 -25 0 -25 -95 -25 -88 0 -95 2 -95
20 0 16 8 20 63 23 34 2 77 4 95 5 28 2 32 -1 32 -23z m1110 -5 c0 -29 -2 -30
-42 -30 -24 0 -87 -3 -140 -7 l-98 -6 0 31 0 31 128 4 c70 1 133 4 140 5 7 1
12 -10 12 -28z m-455 -188 c-3 -3 -15 4 -27 15 l-21 22 24 88 24 88 3 -104 c1
-57 0 -106 -3 -109z m1725 174 c0 -19 -14 -27 -92 -56 -51 -18 -110 -42 -130
-52 -21 -10 -42 -18 -48 -18 -6 0 -10 30 -10 75 l0 74 133 3 c72 2 135 2 140
0 4 -2 7 -13 7 -26z m106 -233 c-4 -148 -11 -401 -16 -563 -4 -163 -6 -307 -4
-320 1 -14 5 -64 7 -112 l5 -88 -32 0 -31 0 3 487 c2 269 -1 571 -5 671 -4
101 -6 186 -4 188 2 2 22 4 44 4 l40 0 -7 -267z m164 254 c0 -10 -19 -14 -65
-15 -52 -2 -65 1 -65 13 0 12 14 15 65 15 47 0 65 -4 65 -13z m64 -64 c-14
-43 -26 -82 -29 -88 -2 -5 -4 29 -4 78 l-1 87 29 0 29 0 -24 -77z m136 74 c0
-2 -14 -13 -31 -26 -23 -17 -33 -20 -44 -11 -24 20 -6 40 36 40 21 0 39 -1 39
-3z m150 -14 c0 -9 -10 -27 -22 -40 l-22 -23 -33 32 c-18 17 -33 36 -33 40 0
4 25 8 55 8 45 0 55 -3 55 -17z m200 -70 c0 -47 -2 -84 -5 -81 -5 5 -45 141
-45 152 0 3 10 7 23 9 12 2 23 5 25 6 1 0 2 -38 2 -86z m210 17 l0 -70 -29 0
c-60 0 -121 -13 -121 -26 0 -20 9 -21 83 -15 l67 6 0 -32 0 -32 -82 -3 c-66
-2 -83 -6 -83 -18 0 -12 16 -15 83 -15 l82 0 0 -70 0 -71 -66 4 c-42 3 -70 0
-77 -7 -19 -19 11 -31 81 -31 61 0 62 0 62 -27 l0 -28 -78 0 -79 0 -16 100
c-16 95 -24 376 -11 396 3 5 45 9 95 9 l89 0 0 -70z m100 -372 c0 -244 -3
-548 -7 -675 l-6 -233 -29 0 -28 0 -1 648 c-1 356 -2 659 -3 675 -2 25 1 27
36 27 l38 0 0 -442z m333 425 c-2 -6 -5 -126 -8 -265 -3 -139 -8 -304 -11
-365 l-6 -113 -24 6 c-13 3 -40 3 -59 0 -26 -5 -35 -12 -35 -27 0 -19 5 -20
61 -17 l61 3 -6 -29 c-3 -16 -6 -56 -6 -90 l0 -61 -46 4 c-50 4 -76 -11 -56
-31 7 -7 33 -13 57 -13 44 0 45 -1 45 -32 0 -32 -1 -32 -52 -35 -45 -3 -53 -6
-53 -23 0 -17 6 -20 48 -18 41 2 47 0 47 -17 0 -17 -7 -20 -39 -20 -22 0 -43
-5 -46 -10 -12 -19 16 -40 51 -40 31 0 34 -3 34 -30 0 -27 -2 -29 -18 -21 -28
15 -77 -1 -77 -25 0 -23 43 -31 75 -14 18 10 20 8 20 -20 l0 -30 -135 0 c-102
0 -135 3 -135 13 0 7 10 17 23 22 27 12 26 29 -3 33 -29 5 -25 32 5 32 15 0
25 6 25 14 0 8 -11 17 -25 20 -30 8 -32 22 -5 31 11 3 20 13 20 21 0 8 -9 14
-20 14 -15 0 -20 7 -20 26 0 17 6 28 20 31 26 7 26 30 -1 38 -30 10 -22 57 10
65 36 8 37 27 2 35 -24 5 -31 12 -31 30 0 17 6 25 22 27 32 5 34 26 3 38 -21
8 -26 16 -23 38 2 19 9 28 26 30 30 5 28 28 -4 36 -38 10 -29 47 14 58 39 10
38 32 -1 36 -22 3 -27 9 -27 30 0 18 7 31 22 37 32 14 33 33 4 41 -33 8 -35
45 -4 59 32 14 33 33 4 41 -20 5 -26 12 -26 35 0 16 4 29 9 29 15 0 42 31 36
41 -4 5 -15 9 -26 9 -29 0 -26 48 3 52 31 4 34 26 4 39 -36 17 -34 45 4 53 40
7 38 24 -5 42 l-35 14 0 70 0 71 158 -3 c114 -2 156 -6 155 -15z m-2177 -5 c6
-10 26 -1326 20 -1335 0 -1 -55 -3 -122 -4 -111 -3 -122 -1 -143 18 -12 11
-49 28 -82 37 -32 10 -59 18 -60 19 -3 10 -15 1264 -12 1270 2 4 91 7 198 7
143 0 196 -3 201 -12z m84 -72 c0 -39 5 -143 11 -231 6 -88 12 -355 13 -593 1
-410 0 -433 -17 -438 -10 -3 -22 -3 -25 1 -4 4 -10 205 -14 448 -4 243 -12
541 -17 662 -4 121 -7 223 -5 226 2 4 15 4 29 1 24 -4 25 -7 25 -76z m89 -341
c-2 -231 -4 -531 -4 -668 0 -218 -2 -247 -16 -247 -14 0 -16 44 -16 408 0 265
-6 493 -17 655 -9 137 -16 255 -16 263 0 11 9 14 36 12 l37 -3 -4 -420z m233
358 c1 -38 2 -327 2 -643 1 -316 5 -587 10 -602 l8 -28 -106 0 c-103 0 -106 0
-112 24 -10 40 -10 400 0 874 l9 442 94 0 93 0 2 -67z m1048 58 c0 -5 -7 -14
-15 -21 -12 -10 -18 -10 -30 0 -8 7 -12 16 -9 21 7 12 54 12 54 0z m794 -183
c-3 -106 -10 -267 -15 -358 -18 -308 -31 -695 -24 -742 5 -45 4 -48 -16 -48
l-22 0 7 303 c8 378 24 1031 25 1035 1 1 12 2 26 2 l25 0 -6 -192z m404 170
c3 -17 -10 -18 -156 -18 -88 0 -174 -3 -191 -6 -29 -6 -31 -4 -31 21 l0 27
187 -4 c169 -3 188 -5 191 -20z m-3713 -50 c-24 -71 -23 -70 -50 -52 l-24 16
41 49 c23 26 44 46 46 44 2 -2 -4 -28 -13 -57z m2304 -44 l-31 -32 -33 37
c-18 20 -34 41 -35 46 -1 6 13 20 32 32 l33 22 33 -36 32 -37 -31 -32z m-2718
69 c1 -10 2 -31 4 -48 1 -16 4 -64 6 -105 l4 -75 -57 0 c-55 0 -65 8 -23 18
15 4 13 5 -7 6 -42 2 -34 21 10 23 l37 1 -40 5 c-36 4 -38 6 -15 12 24 8 24 8
3 9 -41 2 -27 31 15 32 l37 2 -40 7 -40 7 35 3 35 2 -29 7 c-33 7 -37 21 -9
32 16 7 15 8 -4 8 -27 1 -31 20 -5 22 14 1 13 2 -3 7 l-20 5 20 8 c17 6 17 8
3 8 -10 1 -18 6 -18 11 0 6 23 10 50 10 41 0 50 -3 51 -17z m2858 -6 c8 -10 4
-20 -19 -42 -25 -24 -32 -26 -45 -15 -14 12 -13 16 11 42 31 32 37 33 53 15z
m1826 -3 c24 -16 25 -20 25 -131 0 -106 -1 -115 -17 -107 -23 10 -62 10 -90 0
l-23 -7 0 121 c0 116 1 121 23 130 33 13 55 12 82 -6z m-4875 -14 c0 -19 -7
-20 -95 -20 -73 0 -95 3 -95 13 0 24 12 27 102 27 81 0 88 -2 88 -20z m2650
-4 c0 -47 -6 -51 -70 -48 l-60 4 0 34 0 34 65 0 c62 0 65 -1 65 -24z m101 1
c-10 -9 -11 -8 -5 6 3 10 9 15 12 12 3 -3 0 -11 -7 -18z m1689 8 l30 -16 0
-114 c0 -105 -7 -134 -25 -105 -8 13 -61 13 -86 0 -18 -10 -19 -6 -19 114 0
90 3 126 13 129 24 10 58 7 87 -8z m293 -67 c4 -46 7 -102 7 -125 l0 -43 -120
0 -120 0 0 114 0 115 43 5 c23 4 71 8 107 9 36 2 68 4 71 5 3 1 9 -35 12 -80z
m-3519 66 c13 -5 16 -25 16 -118 l0 -111 -45 3 -45 4 0 107 c0 59 3 111 7 114
8 9 46 9 67 1z m3101 -44 l0 -45 -187 -3 c-183 -2 -188 -2 -188 18 0 19 6 20
125 20 77 0 125 4 125 10 0 9 -174 16 -232 11 -10 -1 -18 4 -18 13 0 17 66 23
260 22 l115 -1 0 -45z m-3515 -76 c0 -107 -1 -116 -17 -108 -10 4 -35 7 -55 6
l-38 -2 0 99 c0 99 0 99 28 109 15 6 39 11 55 11 l27 1 0 -116z m310 6 l0
-110 -140 0 -140 0 0 104 0 105 33 4 c17 2 80 5 140 5 l107 2 0 -110z m1270
58 l0 -53 -86 -55 c-47 -30 -105 -70 -130 -87 -24 -18 -46 -33 -49 -33 -3 0
-5 38 -5 84 l0 84 33 15 c17 9 71 30 120 47 48 18 90 36 93 41 14 23 24 4 24
-43z m470 -52 c0 -12 -41 -56 -51 -56 -5 0 -22 20 -39 45 -25 36 -29 49 -20
64 22 42 42 42 77 -3 18 -22 33 -45 33 -50z m285 -35 l-24 -25 -39 41 -39 41
26 27 26 26 37 -43 38 -43 -25 -24z m-3135 67 l0 -28 -90 0 c-71 0 -92 3 -96
15 -13 33 2 40 95 41 l91 1 0 -29z m2980 0 c0 -11 -41 -68 -49 -68 -4 0 -12
10 -19 21 -12 19 -10 24 14 50 21 22 31 26 41 18 7 -6 13 -16 13 -21z m2119
-65 l-1 -88 -22 70 c-20 62 -21 72 -8 88 27 31 32 19 31 -70z m-4540 18 c0 -9
-9 -34 -19 -56 -16 -35 -19 -37 -19 -15 -1 14 -4 50 -7 80 l-7 55 27 -24 c14
-14 26 -32 25 -40z m4595 -25 l25 -78 -26 -39 c-14 -22 -27 -39 -29 -39 -2 0
-4 55 -4 122 0 67 2 119 4 117 3 -2 16 -40 30 -83z m78 17 c17 -19 17 -21 -7
-43 l-25 -23 -14 34 c-8 20 -18 48 -22 64 l-7 29 29 -21 c16 -12 37 -30 46
-40z m-4748 -61 l6 -103 -30 16 c-35 18 -34 12 -15 86 9 33 13 64 10 70 -6 8
14 44 20 37 1 -2 5 -49 9 -106z m2156 68 l0 -40 -60 0 -60 0 0 34 c0 34 1 35
43 39 23 2 50 4 60 5 14 2 17 -6 17 -38z m114 -20 c14 -22 26 -43 26 -47 -1
-5 -14 -24 -30 -43 -29 -33 -30 -34 -45 -15 -10 14 -14 32 -10 57 5 38 21 88
28 88 3 0 16 -18 31 -40z m282 0 c1 -6 2 -14 3 -20 0 -5 6 -10 12 -10 8 0 8 5
-1 15 -7 8 -8 15 -4 15 5 0 15 -10 22 -21 12 -19 10 -25 -19 -55 -30 -31 -49
-36 -49 -13 0 6 5 7 10 4 12 -8 40 18 40 37 0 8 -7 5 -18 -8 -18 -21 -49 -26
-45 -7 1 6 -4 16 -12 23 -12 10 -10 16 12 41 25 28 45 27 49 -1z m1274 -8 l0
-39 -127 -6 c-203 -11 -243 -9 -243 8 0 12 20 15 118 15 64 0 124 5 132 10 10
7 -28 10 -117 10 -126 0 -133 1 -133 20 0 19 7 20 185 20 l185 0 0 -38z m740
-28 c11 -36 20 -68 20 -71 0 -2 -25 15 -55 39 -30 23 -55 46 -55 50 0 7 51 47
62 48 4 0 16 -30 28 -66z m-5050 41 c0 -12 -17 -15 -95 -15 -87 0 -107 5 -88
23 3 4 46 7 95 7 72 0 88 -3 88 -15z m2351 -147 c-16 -24 -55 -70 -85 -102
-64 -67 -64 -67 -122 19 l-34 50 22 17 c13 10 66 44 119 77 53 33 102 68 110
77 12 15 14 11 17 -39 3 -50 -1 -62 -27 -99z m541 135 c23 -21 23 -27 -5 -68
l-24 -35 -22 30 -22 30 23 30 c25 35 26 35 50 13z m-2478 -40 c-8 -25 -15 -48
-17 -49 -1 -1 -11 4 -21 12 -19 14 -19 15 14 49 19 19 35 35 36 35 1 0 -4 -21
-12 -47z m204 39 c9 -6 3 -19 -22 -48 -38 -42 -45 -35 -22 21 15 36 22 40 44
27z m2557 -70 c-4 -11 -8 -12 -20 -2 -18 15 -19 32 -3 48 10 10 14 8 21 -10 4
-12 5 -28 2 -36z m-3185 23 c0 -23 -4 -25 -44 -25 -87 0 -136 11 -136 31 0 17
9 19 90 19 89 0 90 0 90 -25z m5045 -57 l68 -64 -14 -360 c-7 -197 -14 -407
-14 -466 0 -91 -2 -107 -15 -103 -8 2 -41 7 -72 11 l-58 6 0 530 c0 607 -12
554 105 446z m223 5 c-3 -43 -7 -82 -8 -88 -1 -5 -10 17 -21 50 l-18 60 26 27
c15 16 27 28 28 28 0 0 -3 -35 -7 -77z m-4602 -375 c-3 -238 -9 -474 -12 -524
-6 -89 -7 -92 -33 -97 -14 -3 -33 -8 -42 -12 -15 -6 -18 8 -23 112 -11 196
-14 213 -41 213 -23 0 -23 2 -30 148 -4 81 -11 201 -15 267 l-8 120 101 102
c56 57 104 103 106 103 2 0 1 -195 -3 -432z m1982 385 c-2 -27 -6 -47 -10 -45
-5 1 -30 2 -58 2 l-50 0 0 45 0 45 61 0 60 0 -3 -47z m179 -79 l-31 -45 -18
23 c-40 50 -40 55 -6 94 l32 37 27 -33 27 -32 -31 -44z m148 -1 c-10 -18 -21
-33 -24 -33 -3 1 -18 18 -33 40 l-27 39 25 31 26 30 25 -37 c25 -37 25 -38 8
-70z m175 65 c0 -11 -53 -87 -61 -88 -4 0 -14 12 -24 26 -17 26 -16 27 21 65
35 36 40 38 51 22 7 -9 13 -20 13 -25z m1170 23 c0 -18 -12 -19 -182 -23 -101
-3 -186 -3 -190 -1 -4 2 -5 10 -2 18 5 11 34 15 137 18 73 1 156 4 185 5 45 2
52 0 52 -17z m1043 -58 c-19 -29 -27 -20 -38 42 l-8 40 31 -29 c30 -27 30 -30
15 -53z m-5143 57 c0 -6 -25 -9 -60 -8 -78 4 -78 18 0 18 34 0 60 -4 60 -10z
m-220 -20 c0 -19 -7 -20 -90 -20 -72 0 -90 3 -90 15 0 11 17 15 73 18 39 1 80
4 90 5 11 1 17 -5 17 -18z m331 -8 c-7 -2 -26 -33 -42 -69 l-29 -64 -32 17
-33 17 25 15 c14 9 45 38 70 64 26 29 46 44 49 36 2 -6 -2 -14 -8 -16z m4984
-59 c5 -35 2 -53 -9 -68 -14 -18 -15 -13 -15 70 0 94 12 93 24 -2z m-4195 27
l0 -50 -140 0 -140 0 0 45 0 44 128 4 c70 1 133 4 140 5 8 1 12 -14 12 -48z
m1577 -21 c-21 -37 -41 -53 -32 -26 2 6 9 32 15 57 11 41 13 43 26 26 11 -16
10 -24 -9 -57z m2188 59 c17 -8 25 -19 25 -37 0 -24 -3 -26 -47 -26 -27 0 -56
-4 -65 -9 -15 -7 -18 -3 -18 27 0 53 46 72 105 45z m-4665 -16 c0 -28 -29 -62
-53 -63 -12 0 -16 -3 -9 -6 21 -8 3 -23 -29 -23 -32 0 -38 14 -11 29 16 10 16
10 0 11 -10 0 -18 7 -18 15 0 11 13 15 53 16 l52 1 -53 10 c-66 12 -58 28 14
28 45 0 54 -3 54 -18z m588 -30 c3 -42 2 -43 -19 -32 -12 7 -37 10 -55 7 -34
-6 -34 -6 -34 34 l0 40 53 -3 52 -3 3 -43z m432 18 c0 -26 -4 -30 -26 -30 -14
0 -34 -5 -45 -10 -17 -10 -19 -7 -19 30 l0 40 45 0 c43 0 45 -1 45 -30z m3218
14 c14 -9 22 -26 22 -43 0 -34 -9 -44 -27 -30 -8 7 -31 9 -58 6 l-45 -7 0 39
c0 29 5 41 18 44 36 10 68 6 90 -9z m292 -29 l0 -45 -126 0 -125 0 3 38 3 37
105 6 c58 3 113 6 123 7 14 2 17 -6 17 -43z m-4359 22 c-1 -4 -1 -14 -1 -22 0
-8 -4 -15 -10 -15 -5 0 -10 12 -10 26 0 14 5 24 11 22 6 -2 10 -7 10 -11z
m3927 -64 c-2 -47 -7 -68 -15 -67 -7 1 -92 2 -188 3 l-175 1 0 60 0 59 103 4
c56 1 142 4 190 5 l88 2 -3 -67z m901 9 c7 -24 11 -45 9 -47 -2 -2 -20 9 -41
24 l-37 28 21 27 c25 32 31 27 48 -32z m-5219 2 l0 -37 -37 7 c-21 3 -62 6
-90 6 -50 0 -53 2 -53 25 0 23 3 24 68 28 37 2 77 4 90 5 19 2 22 -3 22 -34z
m343 -41 l6 -73 -30 15 c-16 9 -29 20 -29 26 0 12 42 111 45 107 1 -2 5 -36 8
-75z m130 59 c9 -4 -61 -82 -75 -82 -4 0 -1 15 6 33 7 17 16 40 19 49 6 16 21
16 50 0z m1926 -145 c1 -43 -4 -87 -9 -97 -10 -18 -16 -15 -80 36 l-70 56 70
75 c39 41 71 80 71 87 4 31 18 -89 18 -157z m820 43 c1 -27 -4 -37 -23 -46
-21 -10 -25 -7 -49 31 -15 23 -27 45 -27 49 0 4 12 25 28 46 l27 39 22 -42
c12 -23 22 -58 22 -77z m-458 73 l26 -36 -31 -53 c-17 -29 -33 -53 -36 -54 -3
0 -13 12 -22 28 -10 15 -23 34 -29 43 -10 13 -6 25 21 63 18 25 36 46 39 46 3
0 18 -17 32 -37z m142 -7 l28 -45 -23 -35 c-13 -20 -26 -36 -30 -36 -14 0 -68
75 -63 88 6 17 48 71 55 71 3 1 18 -19 33 -43z m2587 -16 l45 -40 -25 -25 -26
-25 -37 75 c-41 83 -36 85 43 15z m-2854 33 c-41 -143 -106 -670 -106 -861 0
-38 -3 -51 -12 -46 -8 5 -10 109 -5 408 4 221 10 427 13 459 l7 57 54 0 c47 0
54 -2 49 -17z m2753 -90 c-1 -110 -9 -111 -24 -3 -6 44 7 110 21 110 2 0 4
-48 3 -107z m-2342 69 l21 -28 -28 -38 -28 -37 -22 31 -22 31 27 34 c14 19 27
35 29 35 1 0 12 -13 23 -28z m1856 -6 c16 -12 17 -26 11 -149 l-7 -135 -32 14
c-23 9 -42 11 -64 4 l-31 -9 0 134 0 133 37 15 c39 15 57 14 86 -7z m-3663
-136 c0 -128 -2 -149 -15 -144 -8 3 -28 1 -45 -4 l-30 -11 0 144 c0 158 2 164
63 165 l27 0 0 -150z m3968 96 l54 -41 -6 -100 c-4 -55 -11 -239 -17 -410 -5
-170 -11 -310 -12 -311 -9 -6 -98 -10 -107 -4 -9 5 -9 108 -1 421 6 228 11
433 11 457 0 49 -2 49 78 -12z m-4424 34 l26 -10 0 -145 0 -146 -22 7 c-13 4
-38 6 -55 6 l-33 -1 0 143 c0 106 3 146 13 149 20 9 44 8 71 -3z m336 -139 l0
-138 -82 -6 c-46 -4 -109 -7 -140 -7 l-58 0 0 145 0 145 140 0 140 0 0 -139z
m3334 133 c14 -5 16 -28 16 -150 0 -79 -2 -144 -3 -144 -2 0 -18 7 -35 16 -29
14 -35 14 -62 0 l-30 -14 0 143 c0 128 2 144 18 148 27 7 79 8 96 1z m286
-129 l0 -135 -59 0 c-32 0 -86 -3 -120 -6 l-61 -7 0 135 c0 74 3 138 7 141 3
4 57 7 120 7 l113 0 0 -135z m700 89 c26 -59 25 -66 -5 -94 l-25 -23 0 81 c0
45 2 82 5 82 2 0 13 -21 25 -46z m-5310 26 c0 -5 -7 -10 -16 -10 -8 0 -12 5
-9 10 3 6 10 10 16 10 5 0 9 -4 9 -10z m-132 -11 c-2 -6 -7 -10 -11 -10 -4 1
-43 1 -87 1 -47 0 -80 4 -80 10 0 6 37 10 91 10 60 0 89 -4 87 -11z m153 -57
c-17 -33 -35 -63 -40 -66 -5 -3 -19 2 -31 12 l-22 18 57 52 c32 29 59 51 62
48 2 -2 -9 -31 -26 -64z m2042 -26 c-7 -11 -72 64 -73 84 0 8 18 -5 39 -30 21
-25 36 -49 34 -54z m658 7 c11 -20 8 -29 -22 -73 -19 -27 -36 -50 -39 -50 -3
0 -18 21 -33 46 l-28 46 33 55 33 54 22 -27 c12 -15 27 -38 34 -51z m-2608 50
c3 -5 -1 -21 -8 -38 l-13 -30 -1 38 c-1 33 11 49 22 30z m2883 -38 c24 -41 27
-84 5 -71 -5 3 -12 -1 -15 -10 -3 -8 -2 -12 4 -9 6 3 10 2 10 -3 0 -6 -6 -12
-14 -15 -13 -5 -76 61 -76 79 0 8 49 74 55 74 2 0 16 -20 31 -45z m2216 10 c5
-39 2 -42 -23 -19 -15 13 -16 20 -6 35 17 28 24 24 29 -16z m-5352 -8 l0 -30
-61 7 c-34 3 -73 6 -85 6 -17 0 -24 6 -24 18 0 10 2 21 4 23 3 2 41 5 85 5
l81 2 0 -31z m455 -294 c6 -135 5 -183 -4 -183 -7 0 -11 25 -12 73 0 39 -6
149 -13 242 -9 121 -9 174 -2 184 13 17 20 -54 31 -316z m2524 235 c-12 -18
-24 -35 -26 -37 -4 -5 -42 42 -43 53 0 5 12 25 26 44 l27 34 19 -31 20 -31
-23 -32z m1341 -25 l0 -108 -177 3 c-174 3 -220 -1 -195 -17 7 -4 93 -5 192
-3 178 4 180 4 180 -17 0 -21 -3 -21 -190 -21 -120 0 -190 -4 -190 -10 0 -6
70 -10 190 -10 l190 0 0 -74 0 -73 -61 -7 c-34 -3 -122 -6 -195 -6 l-134 0 0
35 0 35 68 0 c95 0 173 11 165 23 -4 6 -48 7 -121 2 l-115 -7 7 142 c3 79 9
146 12 151 3 5 51 9 107 9 56 0 108 4 115 9 24 15 -13 21 -119 21 -81 0 -99 3
-99 15 0 13 27 15 185 15 l185 0 0 -107z m-4128 -35 c-5 -5 -16 0 -25 10 -16
18 -16 22 5 73 l23 54 3 -64 c2 -35 -1 -68 -6 -73z m121 120 c15 -12 13 -15
-18 -36 -37 -24 -42 -19 -23 23 13 28 18 30 41 13z m2377 -23 l22 -36 -23 -44
c-21 -40 -25 -43 -40 -29 -13 12 -15 23 -7 67 10 58 15 77 22 77 2 0 14 -16
26 -35z m740 -56 c0 -47 -3 -68 -11 -64 -20 13 -99 -5 -99 -22 0 -13 9 -15 55
-9 l55 6 0 -30 0 -31 -62 3 -63 3 -11 85 c-21 147 -26 136 61 132 l75 -4 0
-69z m2120 4 l-1 -78 -19 57 c-17 48 -18 61 -8 78 22 35 28 22 28 -57z m102
40 l51 -37 -23 -18 c-12 -10 -25 -18 -29 -18 -4 0 -19 25 -34 55 -15 30 -24
55 -21 55 4 0 29 -17 56 -37z m-3421 -83 l47 -45 -19 -24 c-28 -34 -25 -85 7
-110 53 -41 108 -19 124 51 7 29 8 26 8 -22 1 -53 -2 -59 -73 -155 -41 -55
-98 -135 -127 -177 -29 -43 -56 -77 -60 -78 -5 0 -8 152 -8 338 l0 337 27 -35
c15 -19 48 -55 74 -80z m-1836 -177 l8 -183 -46 0 c-25 0 -48 3 -50 8 -3 4 -8
93 -11 197 l-7 190 43 33 43 33 6 -48 c4 -26 10 -130 14 -230z m5002 -160 l-2
-353 -62 0 -63 0 0 47 c0 76 19 570 26 661 l6 83 49 -43 48 -43 -2 -352z
m-3083 362 c42 -34 55 -50 47 -58 -14 -14 -50 5 -109 59 -28 24 -43 45 -38 52
9 15 23 8 100 -53z m3293 -62 l-27 -28 1 80 0 80 27 -53 26 -52 -27 -27z
m-2365 85 c1 -15 -1 -27 -7 -28 -8 0 -10 12 -6 52 2 19 9 5 13 -24z m-3305
-13 c-29 -22 -57 -35 -76 -35 -29 0 -31 3 -31 35 l0 35 76 0 77 0 -46 -35z
m3126 -27 c15 -20 27 -42 27 -48 0 -15 -39 -70 -49 -70 -11 0 -61 76 -61 91 0
19 42 81 49 72 4 -4 19 -25 34 -45z m2445 7 c5 -16 13 -39 18 -49 6 -16 -3
-13 -39 14 l-47 34 22 23 c24 26 30 23 46 -22z m-5508 -10 c-9 -23 -13 -25
-25 -15 -14 12 -13 16 7 37 26 28 33 19 18 -22z m2920 12 c14 -24 13 -30 -15
-82 -17 -30 -33 -55 -37 -55 -3 0 -16 16 -28 35 l-22 36 33 49 c19 27 39 48
44 46 6 -1 17 -14 25 -29z m-161 -30 l24 -44 -23 -33 -23 -33 -28 34 c-16 19
-29 39 -29 46 0 17 41 84 48 79 4 -2 18 -24 31 -49z m-2715 -27 c6 -65 6 -65
-12 -41 -16 20 -17 30 -9 67 6 24 11 43 12 41 1 -1 5 -31 9 -67z m48 39 c-5
-42 -22 -46 -22 -5 0 26 4 36 13 33 6 -2 11 -15 9 -28z m5626 -101 l-3 -43
-24 58 -24 58 24 25 24 26 3 -41 c2 -23 2 -60 0 -83z m-5455 -141 l4 -162 28
0 c29 -1 29 -2 27 -55 -4 -112 -14 -218 -22 -229 -4 -7 -35 -15 -68 -18 -48
-5 -63 -10 -67 -24 -5 -14 -16 -19 -41 -19 l-34 0 0 50 0 50 74 0 c41 0 77 4
80 9 4 5 2 19 -2 32 -8 21 -14 22 -80 20 l-72 -2 0 50 0 51 79 0 79 0 -7 27
c-5 20 -14 28 -32 28 -13 1 -45 2 -71 3 l-48 2 0 45 0 45 70 0 c67 0 71 1 80
26 6 14 8 30 4 35 -3 5 -39 9 -81 9 -64 0 -74 2 -69 16 3 9 6 25 6 36 0 18 5
19 60 16 l60 -3 0 33 c0 17 -4 32 -10 32 -5 0 -10 -10 -10 -21 0 -17 -4 -20
-22 -15 -13 3 -35 6 -50 6 -19 0 -28 5 -28 16 0 12 7 14 30 9 16 -3 37 -2 47
4 14 8 8 10 -29 11 -35 0 -48 4 -48 14 0 20 61 56 94 56 15 0 29 7 31 15 3 8
8 23 11 33 12 31 23 -61 27 -231z m-342 202 c-12 -13 -21 -25 -21 -28 -1 -17
-19 -31 -33 -25 -26 9 -21 19 25 53 46 34 61 34 29 0z m220 8 c-13 -13 -26 -3
-16 12 3 6 11 8 17 5 6 -4 6 -10 -1 -17z m5352 -23 l57 -46 0 -268 c0 -148 3
-275 6 -284 18 -47 24 10 26 254 l3 270 67 -45 67 -45 3 -229 3 -228 -144 -7
c-79 -4 -145 -5 -146 -4 -5 6 -10 678 -5 678 3 0 31 -21 63 -46z m298 33 c15
-11 15 -16 3 -37 -7 -14 -13 -23 -14 -20 0 3 -4 20 -9 38 -10 34 -6 39 20 19z
m-5936 -7 c-3 -5 -13 -10 -21 -10 -8 0 -12 5 -9 10 3 6 13 10 21 10 8 0 12 -4
9 -10z m5910 -55 c3 -22 1 -53 -4 -70 -9 -28 -9 -26 -10 21 -1 28 -4 67 -7 85
-4 26 -3 30 5 19 6 -8 13 -33 16 -55z m-3355 24 c0 -22 -13 -25 -29 -6 -8 10
-7 17 1 25 15 15 28 6 28 -19z m226 -7 c-18 -16 -19 -16 -12 1 3 10 6 24 6 30
0 8 4 7 12 -1 10 -9 8 -16 -6 -30z m357 -32 l28 -50 -32 -45 c-18 -25 -34 -45
-35 -45 -2 0 -17 20 -34 44 l-30 45 31 50 c18 28 35 51 38 51 3 0 19 -23 34
-50z m2683 -13 c12 -31 19 -57 16 -57 -4 0 -28 16 -54 35 l-47 34 22 26 c12
13 26 23 32 22 5 -2 19 -29 31 -60z m-5701 13 c-4 -17 -9 -29 -12 -26 -3 2 -2
19 2 36 4 17 9 29 12 26 3 -2 2 -19 -2 -36z m-35 -17 c0 -45 0 -46 -20 -28
-18 16 -18 20 -4 46 8 16 17 29 19 29 3 0 5 -21 5 -47z m2412 30 c18 -17 23
-39 12 -67 -8 -21 -24 -21 -24 0 0 9 -9 32 -21 50 -19 31 -19 34 -3 34 10 0
26 -7 36 -17z m342 -23 c25 -39 26 -41 10 -71 l-16 -31 -34 33 c-19 18 -34 41
-34 51 0 18 28 58 41 58 3 0 18 -18 33 -40z m134 -5 c27 -42 27 -40 1 -82
l-21 -34 -30 41 -30 41 23 34 c13 19 26 35 29 35 3 0 15 -16 28 -35z m1922
-10 l0 -45 -120 0 -120 0 0 34 0 34 98 9 c157 16 142 19 142 -32z m153 31 c9
-7 17 -26 17 -41 0 -22 -3 -26 -17 -20 -39 16 -52 16 -82 1 l-31 -17 0 40 c0
22 5 42 13 44 24 10 82 6 100 -7z m927 -71 c0 -96 -14 -113 -25 -29 -6 49 6
114 21 114 2 0 4 -38 4 -85z m103 52 c22 -15 25 -22 16 -33 -18 -22 -27 -17
-50 27 -21 42 -19 43 34 6z m-4805 -19 c-3 -39 -5 -43 -38 -50 -19 -3 -81 -10
-137 -14 l-103 -7 0 45 0 45 123 10 c67 5 130 10 140 11 15 2 18 -5 15 -40z
m120 -4 l3 -40 -43 0 c-40 1 -43 3 -46 31 -4 35 21 57 58 53 21 -3 25 -9 28
-44z m2032 -72 c7 -51 10 -95 7 -98 -3 -3 -14 11 -25 33 -18 34 -18 41 -6 58
20 28 17 36 -12 33 -34 -4 -39 19 -12 63 26 42 31 32 48 -89z m1178 102 c14
-9 22 -26 22 -44 0 -27 -1 -28 -29 -17 -22 8 -39 8 -65 0 -35 -11 -36 -11 -36
17 0 32 31 60 65 60 11 0 31 -7 43 -16z m1425 -106 c-15 -15 -28 -27 -29 -25
-1 1 1 36 4 77 l5 75 23 -50 23 -50 -26 -27z m-6024 68 c0 -6 -9 -29 -19 -51
l-19 -40 0 69 c-1 68 -1 69 19 51 11 -10 20 -23 19 -29z m2446 8 c20 -42 17
-49 -13 -28 -12 8 -22 26 -22 40 0 35 15 30 35 -12z m825 32 c0 -2 -7 -7 -16
-10 -8 -3 -12 -2 -9 4 6 10 25 14 25 6z m-2336 -12 c9 -3 16 -17 16 -30 0 -21
-3 -23 -26 -14 -14 6 -36 7 -50 4 -19 -5 -24 -2 -24 13 0 11 3 23 7 26 8 9 56
9 77 1z m-1024 -18 c0 -3 -5 -17 -10 -32 -10 -26 -12 -26 -27 -11 -16 16 -16
18 2 32 20 14 35 19 35 11z m3330 -21 c0 -8 7 -11 20 -8 11 3 20 10 20 16 0 6
2 8 5 5 6 -6 -27 -68 -35 -68 -13 1 -41 53 -36 66 7 18 26 9 26 -11z m330
-265 l-2 -280 -33 0 c-41 0 -45 10 -45 108 0 81 -26 387 -36 428 -6 23 -4 24
55 24 l62 0 -1 -280z m-3526 242 c6 -9 -33 -46 -41 -39 -7 7 16 47 27 47 5 0
11 -4 14 -8z m2745 -23 l24 -31 -23 -41 c-12 -23 -29 -49 -36 -57 -12 -12 -14
-9 -14 20 0 53 12 140 19 139 3 0 17 -14 30 -30z m2246 19 l26 -11 -7 -226
c-4 -124 -7 -227 -8 -228 0 0 -28 2 -61 5 -57 7 -60 8 -59 35 0 15 1 112 2
217 l2 189 28 15 c33 19 44 19 77 4z m1085 -38 c0 -57 -12 -65 -27 -17 -7 23
-6 38 1 50 18 29 26 19 26 -33z m74 29 c41 -24 43 -30 17 -46 -16 -10 -21 -6
-40 28 -12 21 -20 39 -17 39 3 0 21 -9 40 -21z m-6354 6 c0 -4 -62 -88 -75
-103 -2 -2 -15 4 -29 13 l-26 17 58 39 c54 37 72 45 72 34z m3066 -34 c22 -34
24 -42 12 -60 -7 -12 -15 -21 -18 -21 -3 0 -17 18 -32 39 -25 35 -26 40 -12
59 8 12 17 22 19 22 3 0 16 -18 31 -39z m149 -87 l-18 -33 -33 44 c-19 24 -34
47 -34 50 0 3 10 19 21 35 l22 29 30 -46 30 -45 -18 -34z m175 66 c-1 -3 -18
-29 -40 -59 l-39 -54 -20 34 c-12 19 -21 39 -21 45 0 6 17 30 37 54 l37 43 23
-29 c13 -16 23 -31 23 -34z m1378 37 c10 -8 12 -58 10 -223 l-3 -213 -35 -6
c-19 -3 -47 -8 -61 -11 l-27 -5 -1 229 -2 229 33 10 c35 11 64 8 86 -10z
m1325 -4 c6 -34 5 -36 -17 -20 -11 8 -15 19 -10 30 9 25 21 21 27 -10z m-6003
-10 c0 -19 -3 -24 -10 -17 -6 6 -8 18 -4 27 9 24 14 21 14 -10z m1018 -200 l2
-223 -22 -4 c-13 -3 -38 -7 -55 -10 l-33 -5 0 77 c0 42 3 148 7 235 l6 158 46
-3 46 -3 3 -222z m2383 188 c-5 -9 -15 -24 -23 -34 -12 -17 -14 -16 -25 1 -9
15 -7 23 10 44 16 19 25 24 34 16 8 -7 9 -16 4 -27z m1559 -98 c0 -76 -3 -175
-6 -220 l-7 -82 -113 -3 -114 -3 0 213 c0 116 1 213 3 213 1 1 49 5 107 9 58
3 111 7 118 8 9 2 12 -31 12 -135z m-4750 97 l0 -30 -62 0 -63 1 29 23 c15 13
36 21 46 19 10 -3 21 0 24 6 13 21 26 11 26 -19z m1130 -97 c0 -71 3 -165 6
-209 l7 -82 -109 -6 c-60 -4 -126 -9 -146 -12 l-38 -6 0 206 c0 113 1 206 3
207 1 0 58 6 127 13 69 8 131 14 138 15 9 1 12 -30 12 -126z m115 105 c2 -7 5
-102 8 -210 l4 -198 -38 0 -37 0 -6 73 c-16 210 -18 330 -4 338 20 13 68 11
73 -3z m4780 -18 c13 -24 13 -33 3 -50 -20 -32 -28 -24 -28 30 0 28 2 50 5 50
2 0 11 -13 20 -30z m-58 -96 c-2 -2 -24 11 -50 28 l-48 31 27 28 27 29 23 -57
c13 -31 22 -58 21 -59z m-3245 44 l26 -42 -25 -49 -25 -49 -39 38 -39 38 21
30 c11 17 25 41 31 54 6 12 14 22 17 22 3 0 18 -19 33 -42z m3071 23 c26 -14
27 -17 27 -91 0 -42 -3 -132 -7 -198 l-6 -122 -29 0 -28 0 0 216 c0 119 3 214
8 212 4 -2 19 -10 35 -17z m317 -33 l-1 -53 -19 35 c-17 32 -17 37 -3 53 9 9
18 17 20 17 1 0 3 -24 3 -52z m-6174 12 l64 0 0 -90 c0 -83 -1 -90 -20 -90
-16 0 -20 7 -20 33 0 47 -15 57 -90 57 l-66 0 4 40 c3 29 12 46 31 61 22 18
26 19 29 5 3 -13 17 -16 68 -16z m2464 -58 l0 -88 -65 -79 c-36 -44 -85 -104
-108 -132 -50 -63 -73 -68 -83 -18 -6 31 -1 45 41 108 27 40 84 118 127 175
43 57 78 108 78 113 0 5 2 9 5 9 3 0 5 -40 5 -88z m850 36 c0 -4 -12 -20 -26
-35 -24 -27 -25 -27 -18 -4 4 15 2 21 -4 17 -19 -11 -21 9 -5 43 l16 33 18
-24 c10 -12 19 -26 19 -30z m2949 16 c-10 -12 -14 -12 -20 -2 -17 26 -11 40
12 28 16 -9 18 -14 8 -26z m-6509 -11 c0 -34 -1 -36 -16 -21 -13 12 -14 20 -5
37 16 30 21 26 21 -16z m80 28 c0 -5 -7 -11 -14 -14 -10 -4 -13 -1 -9 9 6 15
23 19 23 5z m3350 -49 c-6 -15 -24 -42 -39 -60 l-29 -34 -16 23 c-17 25 -18
25 48 97 26 27 31 30 39 16 5 -9 4 -26 -3 -42z m-250 -43 c0 -9 -6 -22 -13
-28 -11 -8 -21 -2 -47 30 -30 38 -31 43 -19 66 l13 25 33 -38 c18 -22 33 -46
33 -55z m3289 55 c8 -29 7 -41 -4 -58 -14 -19 -15 -16 -15 37 0 31 2 57 5 57
2 0 9 -16 14 -36z m-6659 -14 c-11 -22 -22 -40 -24 -40 -1 0 -11 9 -21 19 -17
19 -16 21 16 40 48 29 52 26 29 -19z m728 23 c3 -10 -15 -13 -67 -13 -57 0
-71 3 -71 15 0 13 12 15 67 13 42 -2 68 -8 71 -15z m-635 -51 c-21 -52 -23
-52 -23 7 0 48 1 51 19 41 19 -10 19 -12 4 -48z m3378 17 c21 -41 21 -42 1
-61 -19 -20 -20 -20 -41 11 -22 30 -22 32 -4 61 9 16 19 30 20 30 1 0 12 -19
24 -41z m3376 -11 c10 -8 7 -15 -13 -30 -14 -11 -26 -19 -28 -17 -16 20 -56
85 -56 92 0 7 74 -27 97 -45z m-6807 -15 l0 -57 -20 20 c-19 19 -20 22 -5 57
8 20 17 37 20 37 3 0 5 -26 5 -57z m6379 25 l50 -33 3 -137 c2 -75 6 -139 10
-143 20 -21 28 15 28 131 0 68 2 124 4 124 2 0 24 -9 49 -20 l46 -21 3 -101
c2 -70 7 -103 16 -106 9 -3 12 20 12 92 0 53 2 96 4 96 1 0 17 -5 35 -11 l31
-11 0 -78 c0 -43 2 -85 6 -93 4 -12 -24 -15 -178 -20 -101 -3 -186 -2 -189 1
-9 11 2 362 12 362 5 0 31 -15 58 -32z m185 -56 c-5 -7 -73 19 -80 29 -3 6 2
21 11 35 l17 26 27 -44 c16 -24 27 -45 25 -46z m-6324 31 c0 -27 -18 -29 -46
-8 -19 15 -19 15 5 35 27 23 41 14 41 -27z m4540 24 c0 -24 -2 -24 -167 -36
-240 -16 -235 -17 -231 17 l3 27 155 5 c85 3 174 7 198 8 38 2 42 0 42 -21z
m1899 -29 c0 -38 -1 -40 -10 -19 -8 22 -4 61 7 61 2 0 4 -19 3 -42z m-6769
-71 c-7 -25 -18 -48 -26 -51 -11 -4 -14 10 -14 72 l0 77 26 -26 c24 -24 25
-28 14 -72z m200 84 c0 -5 -7 -11 -14 -14 -10 -4 -13 -1 -9 9 6 15 23 19 23 5z
m-270 -63 c0 -56 -1 -61 -16 -47 -13 13 -13 23 -3 62 6 26 13 47 15 47 2 0 4
-28 4 -62z m3420 23 l31 -40 -28 -39 c-15 -21 -31 -39 -35 -40 -15 -4 -57 60
-50 76 7 21 43 82 47 82 2 0 17 -18 35 -39z m501 9 c4 -14 7 -40 8 -57 1 -29
-2 -33 -24 -33 -19 0 -29 9 -41 34 -16 32 -15 35 2 60 23 31 46 30 55 -4z
m-3606 10 c3 -5 -1 -10 -10 -10 -9 0 -13 5 -10 10 3 6 8 10 10 10 2 0 7 -4 10
-10z m3477 -5 c10 -14 10 -35 0 -35 -5 0 -14 11 -20 25 -9 19 -9 24 1 22 6 -1
15 -6 19 -12z m3108 -31 c0 -6 -7 -17 -15 -24 -13 -11 -15 -6 -15 31 1 41 2
43 15 25 8 -11 15 -25 15 -32z m-6944 20 c-3 -9 -6 -18 -6 -21 0 -3 -7 0 -15
7 -13 11 -13 15 -3 21 21 13 31 10 24 -7z m3314 -25 l33 -40 -18 -40 c-20 -43
-26 -46 -45 -24 -7 8 -19 15 -26 15 -11 0 -13 10 -8 43 14 103 17 106 64 46z
m1658 16 c-4 -4 -293 -25 -349 -25 -21 0 -39 4 -39 8 0 5 51 12 113 16 61 4
148 11 192 14 69 6 98 1 83 -13z m2082 -45 c0 -38 -3 -70 -7 -70 -5 0 -18 23
-30 50 l-21 49 26 20 c15 11 28 21 30 21 1 0 2 -31 2 -70z m-3460 -7 c0 -26
-24 -25 -47 1 -19 23 -21 31 -12 49 12 21 12 21 35 -9 13 -16 24 -34 24 -41z
m3270 21 c0 -7 -8 -10 -20 -7 -22 6 -24 12 -13 39 6 16 7 16 20 -2 7 -10 13
-23 13 -30z m269 -1 c-10 -11 -14 -10 -25 4 -20 27 -17 34 11 21 19 -9 22 -14
14 -25z m-3448 6 c9 -18 8 -25 -8 -41 -19 -18 -19 -18 -33 6 -10 21 -11 28 0
41 17 20 27 19 41 -6z m-3715 -59 l-14 -45 -1 60 c-1 53 1 58 14 44 13 -13 13
-20 1 -59z m201 54 c3 -10 -36 -38 -44 -31 -2 3 1 15 7 27 11 21 31 23 37 4z
m113 -9 c0 -14 -4 -25 -10 -25 -5 0 -10 11 -10 25 0 14 5 25 10 25 6 0 10 -11
10 -25z m4690 -7 l0 -31 -127 6 c-71 4 -158 7 -195 7 -126 0 -69 17 100 29
148 11 186 14 215 20 4 0 7 -13 7 -31z m-5086 -7 c-15 -25 -21 -28 -38 -19
-18 10 -18 12 15 29 19 10 35 18 37 19 2 0 -5 -13 -14 -29z m7208 -25 c-9 -18
-11 -16 -11 19 0 33 1 37 10 21 8 -12 8 -25 1 -40z m88 -8 l0 -53 -21 34 c-19
31 -19 34 -3 52 9 11 19 19 21 19 1 0 3 -24 3 -52z m-6301 21 c3 -9 -6 -10
-29 -6 -18 4 -48 7 -66 7 -19 0 -34 4 -34 10 0 14 124 4 129 -11z m2671 -48
c0 -3 -15 -24 -34 -46 -29 -34 -36 -38 -49 -26 -31 25 -30 49 4 96 l32 45 24
-32 c12 -18 23 -34 23 -37z m336 44 c15 -23 14 -26 -12 -62 -15 -21 -31 -42
-35 -47 -4 -4 -14 5 -23 21 -15 29 -14 32 15 72 17 22 32 41 35 41 2 0 11 -11
20 -25z m3115 -7 c21 -29 21 -31 3 -24 -10 5 -32 13 -47 18 -22 8 -25 13 -16
24 18 22 36 17 60 -18z m-6797 10 c-5 -7 -8 -58 -9 -113 l0 -100 -62 -3 -63
-3 0 79 0 78 63 36 c68 39 82 44 71 26z m7060 -19 c-4 -6 -11 -6 -20 2 -21 17
-17 31 6 19 11 -6 18 -15 14 -21z m-36 -5 c9 -17 8 -25 -3 -34 -13 -11 -15 -7
-15 25 0 41 1 42 18 9z m-7318 0 c0 -8 -5 -12 -10 -9 -6 4 -8 11 -5 16 9 14
15 11 15 -7z m120 -15 c0 -10 -40 -33 -46 -26 -3 2 0 17 6 32 9 23 13 25 25
15 8 -7 15 -16 15 -21z m3598 -17 c-2 -7 -7 -14 -12 -15 -15 -3 -30 29 -22 49
7 18 8 18 22 -1 8 -11 13 -26 12 -33z m-565 25 c-11 -18 -165 -197 -169 -197
-14 0 6 28 76 104 44 49 80 92 80 97 0 5 5 9 10 9 7 0 8 -6 3 -13z m324 -21
l21 -33 -20 -31 c-24 -38 -28 -39 -52 -6 -18 25 -18 27 -1 65 10 21 21 39 24
39 3 0 16 -15 28 -34z m3793 -48 c0 -4 -12 -3 -27 3 -16 6 -39 15 -52 20 l-24
10 23 24 23 25 28 -38 c16 -20 29 -40 29 -44z m-7336 63 c3 -5 -1 -24 -9 -42
-8 -19 -14 -29 -15 -23 0 6 -3 26 -6 43 -5 24 -3 31 9 31 9 0 18 -4 21 -9z
m3895 -9 c7 -14 5 -27 -11 -52 l-20 -34 -14 33 c-19 46 -18 59 9 64 12 2 23 5
24 6 1 0 7 -7 12 -17z m1231 4 c0 -17 -62 -24 -250 -28 -133 -3 -135 -3 -138
20 l-3 22 195 0 c161 0 196 -2 196 -14z m2028 -18 c51 -21 52 -21 52 -64 0
-23 3 -49 6 -58 5 -14 -5 -16 -75 -16 l-81 0 0 78 c0 83 5 96 29 86 9 -3 40
-15 69 -26z m-7279 -14 c-33 -32 -40 -35 -70 -29 l-34 8 60 28 c80 37 86 36
44 -7z m4251 9 c-1 -24 -2 -26 -11 -10 -5 9 -7 22 -4 27 10 17 15 11 15 -17z
m3330 -20 l-1 -48 -14 34 c-12 25 -12 37 -4 47 17 21 19 18 19 -33z m-4020
-17 c-1 -6 -9 -27 -20 -46 l-19 -35 0 70 0 70 19 -24 c11 -13 20 -28 20 -35z
m-3492 -9 c-2 -17 -9 -21 -27 -19 -35 4 -36 7 -10 41 19 26 24 29 32 16 4 -9
7 -26 5 -38z m120 22 c2 -20 -4 -28 -33 -42 -20 -9 -38 -17 -40 -17 -3 0 5 20
17 45 24 50 51 57 56 14z m3157 -59 l0 -80 -67 0 c-38 0 -68 3 -68 6 0 7 123
152 130 153 3 1 6 -35 5 -79z m525 35 c0 -6 -12 -28 -26 -49 -17 -25 -23 -41
-16 -48 7 -7 18 2 35 27 18 27 27 33 33 23 13 -19 34 -60 34 -64 0 -2 -24 -4
-52 -4 -50 0 -55 3 -76 36 -24 37 -23 39 17 92 23 32 26 33 38 16 7 -10 13
-23 13 -29z m387 -76 l6 -39 -53 0 c-29 0 -51 3 -47 6 3 4 0 19 -8 35 -20 38
-19 43 16 84 l32 36 25 -41 c13 -23 26 -59 29 -81z m-3940 -25 c-2 -2 -25 -7
-50 -10 l-47 -7 0 51 c0 51 0 52 48 76 l47 24 3 -65 c2 -36 1 -67 -1 -69z
m3646 40 c-8 -22 -17 -16 -34 24 -23 54 -11 73 17 27 12 -21 20 -44 17 -51z
m1287 47 c0 -22 2 -45 5 -53 9 -23 -125 -48 -261 -48 l-121 0 -7 38 c-3 20 -6
49 -6 64 0 32 8 34 238 36 l152 2 0 -39z m2299 13 c11 -26 11 -26 -16 -19 -36
9 -38 12 -23 30 17 21 25 19 39 -11z m-3474 -10 c16 -25 16 -28 -1 -65 -17
-38 -18 -39 -72 -39 -55 0 -55 0 -37 20 13 14 22 17 29 10 5 -5 16 -10 23 -10
11 0 11 5 -1 27 -13 25 -12 30 6 55 24 35 31 35 53 2z m3338 7 c33 -14 46 -26
49 -45 7 -34 3 -36 -54 -36 l-48 0 0 50 c0 28 2 50 4 50 2 0 24 -9 49 -19z
m-3689 -22 c13 -23 15 -34 7 -42 -6 -6 -11 -19 -11 -29 0 -27 -23 -22 -42 9
-15 24 -15 29 0 60 9 18 18 33 22 33 3 0 14 -14 24 -31z m-3825 10 c17 -6 31
-14 31 -18 0 -4 -16 -22 -35 -41 l-35 -34 0 36 c0 20 -3 43 -6 52 -7 19 2 20
45 5z m-69 -8 c0 -5 -30 -28 -66 -51 -55 -35 -72 -41 -110 -38 l-44 3 103 46
c113 52 117 53 117 40z m1325 -1 c4 -6 -19 -9 -62 -8 -64 1 -66 1 -23 8 69 11
78 11 85 0z m2452 -18 c16 -21 18 -32 10 -50 -8 -18 -18 -22 -59 -22 -27 0
-48 5 -48 11 0 5 5 7 10 4 6 -3 19 14 30 39 10 25 23 46 28 46 4 0 17 -12 29
-28z m-3567 -13 c11 -6 0 -15 -42 -33 -32 -14 -70 -28 -85 -32 -27 -6 -26 -5
16 39 46 47 64 52 111 26z m7503 3 c55 -21 52 -32 -10 -32 -39 0 -43 2 -43 25
0 14 1 25 3 25 1 0 23 -8 50 -18z m-7355 -24 c-3 -32 -4 -33 -55 -36 -43 -2
-53 0 -53 13 0 9 18 24 43 35 60 28 69 26 65 -12z m1279 -25 c-3 -10 -5 -2 -5
17 0 19 2 27 5 18 2 -10 2 -26 0 -35z m-1637 7 c0 -32 -11 -36 -58 -24 -22 6
-22 7 10 30 43 30 48 30 48 -6z m6037 -5 c81 -14 165 -29 186 -35 l37 -11 0
-179 c0 -99 -3 -180 -6 -180 -3 0 -30 21 -58 48 -60 53 -156 104 -235 122 -80
19 -228 8 -326 -24 -81 -26 -208 -97 -257 -144 -15 -14 -29 -24 -32 -21 -2 2
-6 93 -9 201 l-5 197 66 15 c59 13 152 27 262 40 69 8 231 -4 377 -29z m-3737
15 c102 -14 151 -25 208 -45 l52 -19 0 -179 0 -179 -22 14 c-164 104 -221 128
-341 144 -108 14 -227 6 -330 -21 -32 -8 -62 -15 -67 -15 -6 0 -10 51 -10 120
l0 119 -32 9 -33 9 40 11 c36 11 133 25 235 35 72 7 237 6 300 -3z m1645 -10
c18 -20 17 -20 -14 -20 -29 0 -31 2 -21 20 6 11 12 20 14 20 2 0 11 -9 21 -20z
m347 -18 c-30 -4 -38 4 -23 22 11 13 15 12 29 -2 16 -16 16 -17 -6 -20z m-467
8 c3 -5 1 -10 -4 -10 -6 0 -11 5 -11 10 0 6 2 10 4 10 3 0 8 -4 11 -10z
m-3602 -7 c-7 -2 -19 -2 -25 0 -7 3 -2 5 12 5 14 0 19 -2 13 -5z m7567 -3
c-122 -7 -974 -27 -1372 -33 -103 -2 -141 4 -127 17 2 2 263 7 579 11 316 4
577 9 579 11 2 2 113 3 245 3 238 -2 239 -2 96 -9z m-3202 -34 c3 -3 -298 -6
-669 -6 -429 0 -792 -6 -999 -15 -253 -11 -326 -12 -332 -2 -13 22 6 26 137
30 193 6 1856 -1 1863 -7z m349 8 c-3 -3 -12 -4 -19 -1 -8 3 -5 6 6 6 11 1 17
-2 13 -5z m273 -4 l95 -7 -110 0 c-60 0 -139 3 -175 7 l-65 7 80 0 c44 1 123
-3 175 -7z m-317 -58 c-17 -15 -65 -50 -105 -78 -69 -48 -76 -51 -106 -40 -33
11 -162 120 -162 137 0 5 83 9 203 9 l202 -1 -32 -27z m405 13 c4 -4 -132
-273 -139 -274 -4 -1 -12 13 -20 31 -7 17 -40 70 -74 117 -61 84 -85 123 -85
136 0 6 311 -4 318 -10z m-4028 -10 c0 -10 -11 -15 -35 -15 -39 0 -48 16 -12
23 41 8 47 7 47 -8z m1730 7 c0 -4 -42 -50 -94 -101 l-94 -94 -29 21 c-49 36
-157 151 -149 159 4 5 71 11 149 14 78 3 159 6 180 7 20 1 37 -1 37 -6z m400
-12 c-28 -22 -156 -100 -164 -100 -8 0 -176 110 -176 115 0 3 82 5 183 5 l182
0 -25 -20z m184 -12 c30 -18 54 -34 51 -36 -4 -5 -309 -41 -313 -38 -1 2 24
19 56 39 33 20 65 43 72 52 20 24 74 18 134 -17z m206 -3 c-71 -39 -91 -42
-111 -19 -7 8 -29 24 -48 34 l-36 19 130 0 130 1 -65 -35z m225 13 c19 -13 35
-26 35 -30 0 -5 -57 -8 -127 -8 l-128 0 50 30 c63 37 121 39 170 8z m263 -13
c-52 -31 -62 -34 -110 -28 -35 4 -66 16 -92 35 l-39 28 149 0 149 0 -57 -35z
m256 -26 c57 -58 59 -61 31 -56 -49 10 -206 36 -260 42 l-49 7 59 34 c46 26
72 34 109 34 47 0 52 -3 110 -61z m535 -119 c28 -41 48 -76 43 -78 -4 -1 -69
18 -144 42 -75 25 -152 48 -172 51 -20 4 -36 10 -36 14 1 3 39 33 85 65 47 32
90 65 96 72 9 11 18 3 43 -39 18 -28 56 -86 85 -127z m-2376 52 c53 -57 97
-107 97 -112 0 -7 -113 -55 -177 -75 l-23 -6 0 152 c0 84 1 150 3 148 2 -2 47
-50 100 -107z m382 73 c25 -18 59 -42 75 -52 17 -9 30 -20 30 -23 0 -3 -33
-14 -72 -24 -40 -10 -122 -33 -182 -51 l-108 -33 103 108 c57 59 105 108 106
109 2 0 23 -15 48 -34z m-1847 -62 c3 -44 0 -51 -18 -56 -18 -5 -20 -1 -20 38
0 88 33 103 38 18z m42 2 c0 -30 -4 -55 -10 -55 -5 0 -10 25 -10 55 0 30 5 55
10 55 6 0 10 -25 10 -55z m4040 -80 c0 -105 -3 -135 -13 -135 -23 0 -107 32
-107 40 0 25 100 230 112 230 5 0 8 -61 8 -135z m-1052 90 c202 -21 506 -84
692 -143 131 -41 220 -76 220 -85 0 -1 -208 -3 -463 -4 -254 -2 -649 -7 -877
-13 -964 -22 -1240 -24 -1240 -8 0 24 263 116 505 177 129 32 350 67 510 80
173 14 496 12 653 -4z m1681 -80 c77 -19 181 -69 230 -112 l36 -32 -130 -1
c-71 0 -256 -3 -410 -6 l-280 -5 30 25 c48 42 204 116 275 131 86 18 171 18
249 0z m-3657 -28 c26 -8 99 -46 162 -83 l116 -69 -53 -7 c-28 -3 -155 -9
-282 -12 -126 -4 -276 -8 -332 -11 l-103 -5 0 79 0 79 38 13 c93 31 150 38
277 34 76 -2 150 -9 177 -18z m-1012 -8 c0 -5 -18 -9 -40 -9 -26 0 -40 5 -40
13 0 9 12 11 40 9 22 -2 40 -8 40 -13z m-1 -56 c0 -10 -4 -36 -8 -58 l-7 -40
-8 47 c-4 27 -4 52 -1 58 10 16 25 12 24 -7z m-49 -42 c0 -49 -13 -72 -31 -54
-14 14 1 103 17 103 10 0 14 -14 14 -49z m50 -106 c0 -8 -6 -15 -14 -15 -7 0
-28 -3 -45 -6 -27 -6 -31 -4 -31 15 0 18 6 21 45 21 33 0 45 -4 45 -15z"/>
<path d="M2458 3023 c7 -3 16 -2 19 1 4 3 -2 6 -13 5 -11 0 -14 -3 -6 -6z"/>
<path d="M6050 2505 c-6 -8 -9 -19 -5 -25 13 -20 105 -8 105 15 0 25 -80 34
-100 10z"/>
<path d="M6071 2400 c-33 -8 -38 -28 -9 -35 28 -6 78 6 78 20 0 14 -40 23 -69
15z"/>
<path d="M6042 2298 c-18 -18 5 -38 42 -38 37 0 72 22 62 38 -9 16 -89 15
-104 0z"/>
<path d="M6037 2196 c-8 -21 2 -26 53 -26 52 0 65 7 49 27 -15 18 -95 17 -102
-1z"/>
<path d="M6047 2103 c-4 -3 -7 -15 -7 -25 0 -14 8 -18 38 -18 50 0 70 13 53
34 -13 16 -72 22 -84 9z"/>
<path d="M6075 1991 c-36 -7 -40 -35 -6 -39 34 -5 71 6 71 22 0 11 -26 30 -33
25 -1 -1 -15 -4 -32 -8z"/>
<path d="M6044 1785 c-10 -26 6 -37 45 -30 50 9 57 16 36 32 -25 17 -74 17
-81 -2z"/>
<path d="M4276 1914 c-8 -20 -8 -408 0 -428 18 -47 24 5 24 208 0 203 -7 265
-24 220z"/>
<path d="M5330 2420 c0 -5 5 -10 10 -10 6 0 10 5 10 10 0 6 -4 10 -10 10 -5 0
-10 -4 -10 -10z"/>
<path d="M1465 2400 c-3 -5 -2 -10 4 -10 5 0 13 5 16 10 3 6 2 10 -4 10 -5 0
-13 -4 -16 -10z"/>
<path d="M1407 2381 c-4 -17 -3 -21 5 -13 5 5 8 16 6 23 -3 8 -7 3 -11 -10z"/>
<path d="M2540 1194 c0 -47 13 -84 30 -84 6 0 10 29 10 65 0 58 -2 65 -20 65
-17 0 -20 -7 -20 -46z"/>
<path d="M2878 1232 c-20 -2 -28 -9 -28 -23 0 -15 7 -19 38 -19 41 0 68 13 58
28 -8 13 -34 18 -68 14z"/>
<path d="M1934 1216 c-3 -7 -4 -40 -2 -72 2 -44 7 -59 18 -59 12 0 16 16 18
73 2 60 0 72 -13 72 -9 0 -18 -6 -21 -14z"/>
<path d="M2007 1214 c-13 -13 -7 -90 7 -110 24 -32 38 -6 29 56 -8 50 -20 69
-36 54z"/>
<path d="M2076 1176 c-4 -27 -3 -53 4 -66 24 -45 44 -10 32 59 -10 60 -28 63
-36 7z"/>
<path d="M2137 1204 c-12 -12 -8 -89 5 -102 23 -23 29 -12 26 45 -3 52 -14 73
-31 57z"/>
<path d="M2850 1136 c0 -17 22 -26 60 -26 33 0 49 18 29 31 -23 15 -89 11 -89
-5z"/>
<path d="M2533 1053 c-11 -27 16 -38 97 -38 88 0 120 15 86 40 -26 20 -175 18
-183 -2z"/>
<path d="M2851 1061 c-25 -16 6 -41 50 -41 39 0 58 15 42 31 -14 14 -76 21
-92 10z"/>
<path d="M2012 948 c2 -41 7 -54 21 -56 13 -3 17 3 17 27 0 38 -16 81 -30 81
-7 0 -10 -20 -8 -52z"/>
<path d="M2087 993 c-9 -8 -9 -76 -1 -97 3 -9 12 -16 20 -16 10 0 14 13 14 44
0 63 -13 90 -33 69z"/>
<path d="M2139 958 c-2 -48 2 -72 12 -82 18 -19 28 9 21 58 -8 58 -31 75 -33
24z"/>
<path d="M1930 945 c0 -39 15 -75 31 -75 6 0 9 22 7 52 -2 41 -7 54 -20 56
-15 3 -18 -4 -18 -33z"/>
<path d="M2548 963 c-26 -7 -22 -42 5 -48 12 -3 53 -5 91 -3 53 2 71 7 80 21
8 14 8 20 -4 27 -15 10 -139 12 -172 3z"/>
<path d="M2855 949 c-16 -24 40 -48 79 -33 20 8 21 34 2 34 -7 0 -27 3 -44 6
-19 4 -32 1 -37 -7z"/>
<path d="M2530 861 c0 -10 7 -22 16 -25 8 -3 90 -9 182 -12 171 -7 212 -1 212
30 0 22 -34 26 -227 26 -173 0 -183 -1 -183 -19z"/>
<path d="M2078 753 c-8 -64 21 -133 38 -90 8 21 -10 120 -22 124 -7 2 -14 -12
-16 -34z"/>
<path d="M1940 731 c0 -33 6 -55 17 -67 16 -15 17 -15 23 0 3 10 3 38 0 64 -4
34 -10 48 -22 50 -15 3 -18 -4 -18 -47z"/>
<path d="M2022 723 c2 -46 7 -59 21 -61 13 -3 17 3 17 26 0 51 -12 92 -27 92
-11 0 -13 -13 -11 -57z"/>
<path d="M2132 728 c2 -41 7 -54 21 -56 14 -3 17 4 17 40 0 41 -13 68 -33 68
-4 0 -7 -24 -5 -52z"/>
</g>
</svg>
