<?xml version="1.0" standalone="no"?>
<!DOCTYPE svg PUBLIC "-//W3C//DTD SVG 20010904//EN"
 "http://www.w3.org/TR/2001/REC-SVG-20010904/DTD/svg10.dtd">
<svg version="1.0" xmlns="http://www.w3.org/2000/svg"
 width="913.000000pt" height="957.000000pt" viewBox="0 0 913.000000 957.000000"
 preserveAspectRatio="xMidYMid meet">

<g transform="translate(0.000000,957.000000) scale(0.100000,-0.100000)"
fill="#000000" stroke="none">
<path d="M3042 9278 c-7 -7 -12 -27 -12 -46 0 -19 -20 -84 -44 -145 -25 -62
-59 -164 -76 -227 -26 -93 -38 -120 -62 -143 -24 -22 -29 -34 -24 -55 3 -15
12 -64 20 -110 8 -46 18 -92 21 -103 4 -13 0 -25 -14 -37 -31 -25 -34 -59 -9
-84 l21 -21 -62 -124 c-34 -68 -77 -138 -95 -156 -18 -18 -36 -45 -39 -62 -4
-24 1 -35 28 -60 31 -28 33 -36 40 -115 4 -47 11 -90 16 -96 5 -6 4 -27 -2
-49 -6 -21 -14 -86 -18 -144 l-8 -106 -2 128 c0 71 -6 137 -11 148 -16 30 -56
25 -65 -8 -8 -35 -24 -337 -25 -475 l0 -106 -50 -11 c-68 -15 -95 -14 -109 3
-7 8 -18 60 -24 116 -10 82 -16 106 -35 125 -34 36 -115 59 -207 60 -66 0 -90
-5 -137 -27 -142 -66 -217 -222 -175 -361 8 -26 12 -49 7 -52 -4 -2 -52 -9
-106 -14 -170 -16 -274 -70 -329 -171 -25 -47 -29 -66 -29 -130 0 -97 28 -164
76 -184 18 -8 79 -21 136 -29 144 -21 170 -48 82 -86 -35 -15 -88 -24 -182
-32 -82 -7 -153 -19 -185 -31 -73 -27 -145 -98 -184 -181 -87 -186 -21 -342
184 -437 138 -64 283 -90 397 -71 159 26 292 136 415 345 113 192 144 214 225
160 36 -24 46 -26 104 -21 36 3 81 13 102 22 l37 15 -7 -192 c-9 -250 -34
-695 -42 -730 -3 -16 -9 -28 -14 -28 -4 0 -36 11 -71 24 -232 86 -661 221
-745 233 -49 8 -214 -26 -279 -56 -112 -52 -288 -212 -374 -340 -58 -85 -87
-152 -160 -370 -94 -281 -108 -357 -73 -401 17 -21 17 -25 0 -92 -27 -107 -51
-337 -52 -508 -1 -131 2 -160 17 -190 18 -35 18 -35 -5 -53 -59 -47 -119 -111
-124 -133 -4 -16 3 -46 21 -85 15 -33 24 -67 21 -75 -9 -23 37 -104 83 -149
36 -34 40 -43 35 -71 -8 -45 3 -89 32 -123 27 -33 25 -35 -27 -45 -54 -10
-248 -82 -471 -176 -149 -62 -199 -87 -204 -103 -18 -57 94 -57 331 -2 50 12
139 18 317 22 l247 5 -8 -30 c-11 -38 5 -72 44 -91 24 -11 37 -12 73 -2 132
35 791 61 825 32 9 -7 49 -14 89 -17 101 -6 1436 -29 1580 -27 163 2 190 18
164 98 -6 16 -2 20 16 21 13 0 82 6 153 12 72 6 225 19 340 28 116 8 224 21
240 27 68 24 550 50 575 31 39 -30 89 -47 159 -51 97 -7 146 7 216 60 l56 42
87 -7 c48 -3 335 -7 637 -7 313 -1 698 -8 895 -16 190 -9 357 -13 372 -9 19 4
37 -1 57 -15 16 -12 64 -38 106 -58 180 -85 380 -41 475 106 32 49 35 51 79
51 70 0 79 10 61 62 -12 35 -20 44 -43 46 -16 2 -26 8 -24 15 2 8 19 10 48 7
24 -3 94 -5 154 -5 113 1 141 8 245 68 14 8 41 22 61 30 29 12 43 28 65 74 26
52 29 68 29 158 0 123 -22 190 -81 252 -34 37 -47 43 -80 43 -22 0 -49 -6 -60
-14 -13 -10 -23 -11 -31 -4 -10 8 -8 17 9 41 17 24 23 46 23 92 0 79 -18 112
-85 151 -54 33 -57 33 -180 34 -69 0 -217 7 -330 15 -113 8 -262 15 -331 15
-186 0 -217 6 -233 44 -14 34 -181 317 -224 380 -17 25 -25 49 -23 68 7 72
-35 108 -128 108 -74 0 -119 -17 -136 -50 -9 -17 -22 -30 -29 -30 -7 0 -25 -9
-39 -20 -17 -13 -40 -20 -71 -20 l-46 0 5 58 c31 346 50 1168 29 1264 -3 15
-13 30 -23 33 -10 3 -28 28 -41 55 -27 57 -126 157 -185 188 -61 30 -269 99
-365 119 -66 14 -129 18 -285 18 -213 -1 -228 -4 -410 -71 -113 -43 -269 -198
-237 -237 6 -7 12 -64 13 -127 l4 -116 -68 126 c-82 149 -81 148 -132 171 -29
13 -40 24 -40 41 0 14 -9 27 -25 35 -19 9 -27 24 -36 65 -9 48 -8 58 14 107
21 45 24 63 18 114 -3 33 -13 68 -22 78 -14 16 -14 24 11 94 14 42 32 118 38
168 l13 91 104 12 c58 7 143 19 190 28 47 9 157 25 245 36 185 24 204 28 184
41 -8 5 -25 9 -39 9 l-25 1 24 10 c13 5 21 12 18 15 -3 3 -97 12 -209 20 -222
15 -429 32 -468 40 -23 4 -28 13 -42 75 -32 135 -85 220 -171 275 -62 40 -213
86 -302 92 -92 5 -138 -11 -188 -67 -15 -17 -33 -31 -40 -31 -23 0 -99 -73
-137 -131 -20 -32 -45 -86 -55 -121 -9 -34 -22 -66 -29 -70 -6 -4 -42 -8 -79
-8 -77 0 -89 11 -68 64 49 118 48 112 21 162 -32 62 -86 96 -157 102 l-56 5 7
91 c3 50 9 161 12 246 7 166 6 169 -43 184 -40 12 -46 -21 -55 -284 -5 -135
-11 -296 -14 -357 l-6 -113 -43 0 c-25 0 -47 6 -55 15 -10 11 -9 82 0 336 7
178 10 370 7 428 -6 92 -10 108 -29 124 -19 16 -23 16 -36 3 -24 -24 -31 -102
-42 -456 -13 -451 -14 -454 -25 -462 -5 -4 -20 -8 -32 -8 -22 0 -23 4 -23 75
0 64 3 76 20 85 25 13 28 60 4 60 -15 0 -15 17 -8 173 5 94 9 242 9 327 l0
155 -27 3 c-22 3 -30 -2 -38 -23 -5 -14 -10 -40 -10 -56 0 -16 -3 -29 -6 -29
-3 0 -24 13 -48 29 -70 49 -135 65 -229 57 -120 -10 -172 -30 -233 -91 l-51
-51 -6 90 c-3 50 -5 92 -3 93 1 1 119 5 262 8 142 3 297 11 344 17 47 7 90 11
96 10 6 -1 28 7 50 17 24 12 43 16 48 10 9 -8 46 -13 46 -6 0 1 6 18 13 38
l13 37 73 -49 c57 -37 78 -46 88 -38 7 6 13 17 13 24 0 14 -57 89 -132 174
-39 45 -46 58 -41 83 4 23 -5 46 -47 115 -101 166 -201 314 -216 320 -9 3 -14
21 -14 57 -1 83 -19 198 -35 223 -9 13 -32 70 -51 126 -73 208 -187 407 -255
442 -34 18 -32 18 -47 3z m124 -361 c25 -62 54 -127 65 -145 27 -46 25 -50
-23 -41 -24 4 -89 8 -145 9 -57 0 -103 1 -103 3 0 1 16 41 36 87 20 47 50 122
67 167 37 95 31 101 103 -80z m134 -297 c0 -5 -4 -10 -9 -10 -6 0 -13 5 -16
10 -3 6 1 10 9 10 9 0 16 -4 16 -10z m-76 -32 c-3 -18 -1 -59 4 -90 7 -47 6
-58 -5 -58 -7 0 -16 -1 -20 -2 -5 -2 -10 31 -13 72 -5 69 -7 76 -33 90 -24 13
-29 13 -38 0 -10 -15 -5 -123 7 -155 4 -10 0 -15 -15 -15 -20 0 -21 5 -21 79
0 44 -3 86 -6 95 -5 14 5 16 69 16 l76 0 -5 -32z m-229 -35 c0 -32 3 -73 7
-90 7 -33 7 -33 -32 -33 l-40 0 0 53 c0 28 3 69 6 90 6 32 10 37 33 37 25 0
26 -2 26 -57z m354 -111 c-29 -11 -39 9 -38 75 l1 68 23 -70 c13 -38 19 -72
14 -73z m57 -164 c18 -40 56 -91 102 -140 70 -73 72 -77 50 -83 -13 -3 -53 -5
-88 -3 l-64 3 -28 88 c-36 118 -45 177 -27 188 22 14 24 12 55 -53z m-279 10
c-7 -26 16 -152 37 -203 9 -21 15 -40 12 -42 -2 -2 -27 -6 -56 -10 l-52 -6 6
29 c15 70 36 201 36 227 0 15 5 27 11 27 7 0 9 -9 6 -22z m116 -31 c3 -29 19
-88 35 -130 16 -42 27 -79 24 -82 -3 -3 -23 -5 -44 -5 -37 0 -38 1 -39 38 -1
20 -4 81 -8 135 -5 85 -4 97 10 97 12 0 18 -13 22 -53z m-218 -90 l-1 -132
-103 -3 -103 -3 35 43 c40 49 79 124 97 186 12 38 16 42 44 42 l31 0 0 -133z
m590 -355 c6 -22 -1 -27 -28 -16 -12 4 -14 18 -9 66 4 51 2 63 -13 74 -17 13
-17 14 6 22 24 9 24 8 30 -58 4 -37 10 -77 14 -88z m-110 58 c0 -38 -3 -70 -7
-70 -9 0 -22 106 -14 125 12 33 21 11 21 -55z m-88 -5 c7 -27 13 -53 13 -57 0
-5 -22 -8 -50 -8 l-50 0 0 53 c0 63 4 69 44 65 27 -3 31 -8 43 -53z m-253 8
c13 -81 12 -83 -49 -83 -60 0 -61 0 -49 72 6 34 10 37 43 41 20 2 39 4 42 5 4
1 9 -15 13 -35z m99 23 c3 -7 9 -34 12 -60 7 -45 7 -46 -19 -46 -23 0 -26 4
-26 38 0 66 19 105 33 68z m-420 -35 c3 -16 9 -40 13 -55 5 -23 3 -26 -20 -26
-24 0 -26 3 -26 48 0 47 5 62 20 62 4 0 10 -13 13 -29z m157 10 c0 -10 3 -33
6 -50 6 -31 6 -31 -35 -31 -40 0 -41 1 -41 34 0 52 9 66 41 66 22 0 29 -5 29
-19z m120 -363 c17 -11 22 -10 30 1 7 12 15 13 52 2 91 -27 142 -70 162 -138
7 -20 5 -21 -53 -16 -51 5 -60 3 -69 -13 -6 -12 -6 -28 -1 -42 9 -23 12 -24
70 -17 61 7 61 7 54 -16 -26 -90 -78 -151 -161 -192 -42 -20 -44 -20 -63 -3
-11 10 -21 28 -23 40 -2 13 -11 22 -27 24 -23 4 -24 2 -18 -37 6 -47 1 -49
-51 -21 -49 26 -75 49 -106 95 -33 48 -33 62 1 93 l27 25 -21 16 c-20 16 -20
18 -3 60 43 110 139 177 200 139z m-391 -410 c1 -86 -3 -138 -9 -138 -6 0 -10
67 -9 183 1 125 4 168 10 137 4 -25 8 -107 8 -182z m-382 158 c34 -17 44 -50
41 -139 -1 -55 21 -93 68 -116 28 -14 91 -8 147 14 14 6 17 2 17 -24 0 -17 -4
-31 -10 -31 -15 0 -12 -48 4 -57 10 -6 15 -35 18 -105 l3 -98 -53 -11 c-53
-11 -72 -28 -72 -68 0 -26 28 -41 79 -41 22 0 42 -4 45 -9 4 -5 3 -102 -1
-214 l-6 -205 -57 -16 c-77 -22 -139 -20 -170 4 -30 23 -90 26 -129 5 -16 -8
-48 -45 -73 -82 -24 -37 -74 -113 -111 -168 -145 -221 -279 -296 -469 -265
-85 14 -254 77 -316 118 -111 75 -139 190 -75 317 59 120 119 150 335 169 204
18 268 46 268 119 0 61 -48 87 -195 107 -43 6 -89 17 -101 25 -52 34 -59 172
-11 243 41 62 144 109 271 123 54 6 109 14 122 19 39 15 49 50 36 126 -6 36
-9 71 -7 77 2 7 6 25 10 40 11 54 100 133 175 158 39 13 182 4 217 -15z m1041
-261 c-2 -1 -32 -5 -68 -9 l-65 -7 48 32 c26 17 56 42 65 54 17 23 17 23 20
-22 2 -25 2 -46 0 -48z m-417 -14 l44 -21 -35 0 c-19 0 -59 -3 -87 -6 l-53 -7
0 62 0 62 43 -35 c24 -19 63 -44 88 -55z m924 -35 c56 -17 95 -51 95 -82 0
-12 -12 -47 -26 -78 -30 -66 -27 -100 15 -140 38 -37 84 -42 147 -18 l50 20
-3 -31 c-11 -91 -13 -97 -39 -97 -43 0 -87 -26 -167 -99 -42 -39 -89 -73 -102
-76 -14 -3 -37 -7 -51 -10 l-26 -6 4 139 c2 115 6 141 21 156 19 20 23 46 6
46 -9 0 -10 23 -5 83 12 156 19 207 26 207 4 0 28 -6 55 -14z m-505 -116 c0
-40 -4 -70 -10 -70 -6 0 -10 30 -10 70 0 40 4 70 10 70 6 0 10 -30 10 -70z
m-86 4 c11 -81 10 -84 -29 -84 -39 0 -40 3 -29 84 6 39 10 46 29 46 19 0 23
-7 29 -46z m-218 -32 c9 -51 9 -62 -3 -67 -29 -11 -33 -4 -33 66 0 89 20 90
36 1z m108 52 c3 -9 6 -38 6 -65 0 -45 -2 -49 -24 -49 -25 0 -36 28 -36 96 0
29 3 34 24 34 13 0 27 -7 30 -16z m-454 -79 c0 -63 -1 -65 -26 -65 -20 0 -25
4 -20 16 3 9 6 42 6 75 0 57 1 59 20 49 17 -9 20 -21 20 -75z m254 48 c10 -62
7 -93 -8 -93 -7 0 -28 -3 -46 -6 l-32 -7 7 49 c12 91 13 94 44 94 25 0 29 -4
35 -37z m-124 -38 c0 -51 -3 -65 -15 -65 -12 0 -15 14 -15 65 0 51 3 65 15 65
12 0 15 -14 15 -65z m784 -107 l38 -19 -6 -152 c-3 -84 -9 -237 -12 -342 -4
-104 -8 -185 -10 -180 -2 6 -8 145 -13 310 -5 165 -12 308 -16 318 -5 12 -16
17 -34 15 -21 -2 -27 -10 -32 -38 -5 -26 -7 -16 -8 36 0 39 2 74 6 77 8 9 36
1 87 -25z m-162 -355 c-2 -203 -5 -369 -6 -371 -2 -1 -27 -5 -56 -9 l-53 -6 6
54 c3 30 11 119 17 199 14 190 44 452 55 488 3 6 12 12 22 12 17 0 18 -20 15
-367z m-132 325 c0 -7 -11 -123 -24 -258 -14 -135 -28 -293 -32 -352 -5 -85
-10 -108 -21 -108 -12 0 -14 10 -9 48 10 78 26 418 26 555 l0 127 30 0 c17 0
30 -5 30 -12z m-156 -185 c-14 -355 -28 -538 -41 -538 -10 0 -13 77 -13 350
-1 193 -1 353 0 358 0 4 14 7 31 7 l30 0 -7 -177z m1257 -108 l19 -40 -22 -15
c-13 -8 -37 -29 -55 -47 l-31 -33 -7 30 c-3 16 -1 38 4 49 6 11 19 91 28 178
l17 158 13 -120 c9 -76 21 -135 34 -160z m-1391 -85 l0 -350 -25 0 -24 0 2
303 c1 166 -2 315 -6 330 -6 23 -12 28 -35 25 -26 -3 -27 -6 -34 -73 -4 -38
-10 -186 -14 -327 l-6 -256 -26 -7 c-13 -3 -28 -2 -32 2 -4 4 -3 71 2 148 5
77 8 228 6 336 l-3 197 70 9 c38 6 82 11 98 12 l27 1 0 -350z m2230 319 c100
-1 247 -15 194 -17 -17 -1 -85 -13 -150 -26 -66 -13 -146 -27 -178 -31 l-59
-8 6 33 c4 18 7 40 7 50 0 15 6 16 43 9 23 -4 85 -9 137 -10z m-2491 -16 c3
-2 -1 -113 -8 -246 -24 -421 -24 -421 -43 -425 -16 -3 -17 19 -12 330 3 183 8
339 10 346 3 12 39 9 53 -5z m1351 -220 c1 -168 23 -207 155 -276 24 -12 34
-27 48 -77 14 -50 28 -73 72 -116 29 -30 47 -54 40 -54 -16 0 -45 -49 -45 -75
0 -30 29 -73 64 -94 l35 -22 -5 -107 c-2 -59 -7 -277 -10 -484 l-6 -378 -180
0 -179 0 7 343 c4 189 4 356 0 370 -7 31 -42 37 -50 10 -22 -75 -44 -362 -48
-645 -2 -98 -6 -178 -10 -178 -33 0 -33 6 -26 338 7 341 16 451 43 540 18 60
68 122 97 122 16 0 19 5 16 25 -6 28 -1 31 87 41 87 10 123 27 140 68 21 49
20 51 -24 71 -33 14 -59 17 -153 13 -123 -5 -150 -14 -173 -58 -19 -36 -6 -75
29 -91 l24 -11 -32 -29 c-39 -34 -88 -122 -112 -204 -16 -53 -18 -102 -19
-422 0 -200 -2 -363 -5 -363 -3 0 -40 12 -84 26 l-79 26 8 97 c5 53 7 304 6
559 -3 378 -1 465 10 479 11 13 11 17 2 20 -10 4 -13 58 -13 229 l0 224 28 0
c56 0 103 22 160 75 56 52 158 125 174 125 5 0 8 -53 8 -117z m635 -129 c32
-21 75 -105 75 -148 0 -71 -69 -159 -135 -172 -136 -25 -254 57 -284 198 -6
26 -8 54 -5 61 7 20 95 66 146 77 66 14 170 6 203 -16z m163 -347 c-5 -10 -8
-35 -7 -56 2 -26 -3 -43 -17 -57 -18 -18 -19 -38 -22 -396 -3 -285 -1 -382 9
-399 24 -45 28 -94 17 -199 l-11 -105 -141 1 c-77 0 -151 1 -163 2 -25 2 -32
32 -8 32 26 0 30 30 6 46 -11 8 -21 26 -21 39 0 19 7 26 32 33 44 11 47 35 6
53 -56 24 -47 68 14 69 53 0 43 43 -13 55 -40 9 -44 21 -12 37 38 18 41 43 6
60 -23 11 -29 20 -31 55 -3 41 -2 42 30 45 25 2 33 8 33 23 0 11 -10 24 -22
30 -31 13 -29 19 9 30 49 15 48 40 -3 57 -48 16 -64 38 -27 38 23 0 68 25 58
32 -3 2 -22 11 -42 21 -37 16 -52 47 -25 47 8 0 22 9 32 20 10 11 24 20 32 20
7 0 13 7 13 15 0 9 -9 15 -22 15 -52 0 -68 11 -68 44 0 31 1 31 53 32 94 2
134 19 168 71 16 26 29 53 29 60 0 7 -16 21 -36 31 l-36 19 36 21 c34 20 116
131 116 157 0 6 6 17 13 24 10 10 13 1 18 -46 4 -32 3 -66 -3 -76z m-1291 41
c-3 -8 -6 -5 -6 6 -1 11 2 17 5 13 3 -3 4 -12 1 -19z m-177 -58 l0 -50 -44 0
c-24 0 -52 -3 -61 -6 -14 -6 -16 0 -13 42 3 49 3 49 43 55 78 12 75 14 75 -41z
m-200 -20 c0 -26 -5 -40 -13 -40 -9 0 -11 12 -9 40 2 22 8 40 13 40 5 0 9 -18
9 -40z m-122 -7 c-4 -52 -28 -56 -28 -4 0 30 4 41 16 41 11 0 14 -9 12 -37z
m-98 -8 c0 -31 -3 -35 -25 -35 -21 0 -25 5 -25 28 0 33 7 42 32 42 14 0 18 -8
18 -35z m-140 -15 c0 -28 -3 -30 -35 -30 -30 0 -35 3 -35 24 0 26 11 34 48 35
18 1 22 -4 22 -29z m3280 -1 c47 -10 51 -13 30 -19 -37 -10 -84 -36 -100 -54
-11 -14 -17 -12 -54 21 -22 21 -52 46 -66 56 -25 18 -24 18 55 13 44 -3 105
-10 135 -17z m-3440 -14 c0 -18 -5 -25 -20 -25 -15 0 -20 7 -20 25 0 18 5 25
20 25 15 0 20 -7 20 -25z m1909 -5 c76 0 67 -15 -15 -26 -53 -6 -109 11 -134
41 -9 11 -2 11 36 -1 26 -8 77 -14 113 -14z m1809 -54 c28 -10 52 -19 52 -22
0 -8 -67 10 -100 28 -38 21 -33 20 48 -6z m-2998 -121 l0 -135 -75 0 -75 0 0
30 c0 16 5 74 11 129 l12 100 36 4 c20 2 48 4 64 5 l27 2 0 -135z m-214 50
c-3 -36 -9 -94 -12 -130 -4 -36 -11 -65 -16 -65 -10 0 -8 40 8 203 3 31 11 57
16 57 7 0 8 -24 4 -65z m-116 -52 c0 -112 -6 -153 -21 -153 -10 0 -12 219 -3
244 15 40 24 7 24 -91z m-90 -28 c0 -118 -1 -125 -20 -126 -11 -1 -25 -2 -32
-3 -8 -1 -11 32 -9 119 1 66 5 123 7 127 3 5 16 8 30 8 l24 0 0 -125z m-150
-15 l0 -130 -45 0 -44 0 5 83 c10 161 11 165 47 170 18 2 33 5 35 5 1 1 2 -56
2 -128z m2972 105 c74 -15 164 -56 161 -73 -4 -18 -31 -371 -38 -487 -3 -60
-15 -193 -25 -295 -11 -102 -24 -286 -30 -410 -6 -124 -12 -234 -14 -245 -6
-38 -4 511 2 630 4 66 5 205 2 308 -4 152 -8 190 -20 197 -8 5 -40 8 -70 5
-78 -6 -328 -34 -372 -41 -36 -5 -38 -4 -38 20 0 13 3 27 8 29 4 3 72 12 152
22 167 19 291 49 315 75 8 9 18 40 22 68 9 78 1 84 -121 77 -89 -5 -235 -23
-334 -41 -33 -6 -33 -6 -30 27 4 42 42 65 188 114 117 38 146 41 242 20z
m-3122 -120 c0 -101 -3 -125 -14 -125 -8 0 -22 -3 -32 -7 -16 -6 -17 2 -11
117 7 122 13 139 45 140 9 0 12 -32 12 -125z m2270 73 c0 -7 -5 -20 -10 -28
-8 -12 -10 -9 -10 13 0 15 5 27 10 27 6 0 10 -6 10 -12z m1445 -22 l50 -14
-41 -1 c-76 -2 -196 12 -182 20 20 13 118 10 173 -5z m-1188 -366 c35 -80 66
-163 69 -185 4 -30 -6 -81 -40 -198 -25 -87 -48 -174 -52 -193 -3 -19 -10 -36
-14 -39 -4 -2 -36 8 -70 22 l-62 27 5 106 c4 58 11 120 16 139 7 23 7 66 1
130 -5 53 -11 194 -12 313 l-3 218 49 -98 c27 -53 78 -162 113 -242z m-1720
258 c-2 -13 -4 -3 -4 22 0 25 2 35 4 23 2 -13 2 -33 0 -45z m2313 -17 l0 -38
-62 -7 c-54 -6 -252 -35 -340 -51 -27 -4 -28 -3 -28 35 0 28 5 40 18 44 44 14
312 52 380 55 31 1 32 0 32 -38z m268 23 c18 -5 22 -13 22 -45 0 -36 -2 -39
-29 -39 -37 0 -44 10 -35 55 7 37 7 38 42 29z m407 -28 c108 -1 123 -3 152
-24 18 -12 46 -28 63 -33 22 -8 30 -17 30 -35 l0 -25 -27 20 c-41 29 -185 52
-375 58 l-166 6 -5 25 -5 25 107 -8 c58 -5 160 -9 226 -9z m-2976 -176 c2 -79
20 -182 35 -200 10 -11 15 -66 18 -203 5 -186 4 -187 -16 -181 -12 4 -86 35
-166 69 -80 35 -188 80 -240 101 -52 20 -99 40 -103 44 -5 4 -5 105 -1 224 5
169 10 216 20 216 11 0 12 -36 7 -193 -6 -203 -2 -247 22 -247 25 0 31 33 50
248 10 111 22 202 27 202 10 0 11 21 -12 -228 -10 -116 -17 -219 -14 -227 8
-21 41 -19 48 3 8 25 56 388 56 422 0 16 4 31 9 34 5 4 43 9 85 13 l76 6 2
-279 c3 -256 4 -279 20 -282 31 -6 38 41 51 312 10 233 22 300 26 146z m2605
81 c3 -4 72 -11 153 -14 178 -6 343 -27 361 -44 7 -7 33 -13 58 -13 l44 0 0
-47 c0 -82 -20 -433 -30 -538 -10 -99 -40 -494 -40 -521 0 -8 -10 -14 -21 -14
-20 0 -21 4 -16 58 4 31 10 237 13 457 5 272 10 402 18 407 18 12 -4 24 -69
38 -71 16 -386 29 -400 18 -13 -12 -23 -142 -25 -323 0 -104 -5 -157 -14 -174
-10 -18 -11 -31 -3 -52 8 -20 7 -71 -2 -181 -7 -84 -16 -181 -18 -215 l-5 -63
-85 0 -85 0 6 43 c3 23 8 125 12 227 3 102 14 302 25 445 11 143 22 298 25
345 3 47 7 104 10 128 5 41 6 42 44 42 21 0 41 -4 44 -9z m-3124 -226 c0 -113
-2 -205 -4 -205 -2 0 -25 9 -51 20 -35 15 -45 24 -41 37 2 10 7 65 11 123 10
185 15 218 33 223 54 15 52 24 52 -198z m-150 20 c0 -91 -1 -165 -2 -165 -2 0
-25 9 -53 19 -59 22 -58 19 -48 181 l8 115 30 6 c70 15 65 26 65 -156z m-150
15 l0 -130 -42 17 c-24 9 -47 19 -51 23 -7 6 2 94 19 187 4 20 18 27 62 32 9
1 12 -31 12 -129z m-945 72 c100 -31 138 -61 168 -134 41 -96 47 -138 54 -330
7 -203 4 -209 -67 -162 -34 23 -40 31 -36 53 3 14 10 82 16 151 6 69 15 157
19 195 4 39 4 80 -1 93 -13 38 -41 23 -57 -31 -16 -51 -14 -50 -101 -37 -30 4
-160 3 -289 -2 -128 -5 -235 -8 -237 -6 -4 5 153 130 198 157 38 22 201 69
248 70 14 1 52 -7 85 -17z m4055 -45 l0 -34 -102 -7 c-242 -16 -312 -25 -327
-43 -12 -16 -13 -16 -7 7 3 14 6 30 6 37 0 6 24 13 58 17 242 24 311 34 370
55 1 1 2 -14 2 -32z m-3539 -98 c151 -55 352 -128 447 -160 96 -33 198 -71
228 -84 51 -23 54 -26 54 -60 0 -40 23 -45 28 -7 2 12 7 22 12 22 16 0 108
-38 244 -102 72 -33 165 -74 206 -90 147 -59 472 -168 607 -203 169 -44 225
-68 263 -112 39 -44 38 -54 -7 -41 -20 5 -50 7 -66 4 -23 -5 -33 -1 -48 18
-20 26 -140 80 -201 91 -21 4 -38 12 -38 17 0 6 -14 8 -31 6 -25 -4 -32 -1
-40 19 -10 28 -57 50 -137 64 -32 6 -67 16 -79 21 -17 9 -28 7 -48 -6 -15 -10
-28 -16 -30 -14 -1 2 -8 14 -14 26 -7 13 -27 30 -45 37 -36 15 -113 18 -122 4
-9 -15 -24 -10 -24 7 0 26 -63 81 -106 93 -21 5 -77 15 -124 21 -56 6 -87 15
-93 25 -11 20 -33 19 -56 -4 -19 -19 -19 -18 -43 18 -39 60 -134 103 -300 137
-53 11 -82 13 -95 6 -37 -21 -56 -187 -27 -248 22 -45 94 -79 211 -99 103 -18
149 -12 188 25 l23 22 7 -24 c18 -58 87 -102 190 -118 75 -12 148 -5 183 16
22 14 22 14 22 -29 0 -30 8 -56 24 -79 l24 -35 -307 79 c-534 137 -556 141
-599 95 -41 -45 -56 -89 -56 -167 -1 -96 28 -158 100 -213 79 -60 341 -138
564 -167 47 -6 175 -24 285 -40 614 -91 744 -105 795 -87 45 16 59 46 67 147
l6 81 51 -7 c138 -21 184 19 141 122 -21 50 1 31 30 -26 l24 -48 -48 -121
c-68 -169 -125 -256 -153 -234 -7 6 -89 13 -183 16 -296 10 -676 66 -1230 183
-319 67 -481 108 -549 138 -28 13 -71 30 -96 39 -25 9 -61 31 -80 48 -19 17
-61 48 -93 70 -85 59 -111 104 -116 201 -2 60 0 83 12 96 14 16 28 57 42 126
5 22 9 26 15 16 6 -9 26 -13 65 -11 74 3 264 -43 287 -70 19 -23 51 -25 72 -4
27 27 66 206 66 304 0 33 -5 43 -30 61 -115 82 -378 145 -465 111 -18 -7 -23
0 -46 68 -14 42 -29 84 -33 94 -5 9 -6 17 -4 17 3 0 128 -45 279 -101z m3539
-42 l0 -44 -127 -7 c-71 -3 -156 -9 -190 -13 l-63 -6 0 44 0 44 103 3 c56 1
131 6 167 11 116 15 110 17 110 -32z m796 7 c-3 -9 -9 -54 -13 -101 l-6 -85
-81 6 c-45 3 -123 9 -173 12 l-93 7 0 84 0 84 123 -6 c67 -3 145 -2 172 3 74
14 78 14 71 -4z m-4779 -116 c-3 -13 -9 -53 -12 -90 l-7 -67 -32 17 c-26 14
-56 17 -191 15 -88 -2 -227 -10 -309 -18 -82 -9 -150 -14 -152 -13 -1 2 0 38
3 81 6 73 7 77 27 70 12 -5 44 -8 71 -7 89 1 570 25 580 29 22 8 27 4 22 -17z
m303 17 c0 -3 -7 -16 -15 -28 -22 -35 -39 -156 -27 -199 8 -29 7 -40 -4 -49
-12 -10 -14 2 -14 77 0 49 -3 112 -6 141 -6 48 -5 52 17 56 38 7 49 7 49 2z
m254 -45 l113 -31 -23 -45 c-12 -24 -28 -75 -35 -114 -10 -58 -15 -70 -28 -65
-9 4 -62 16 -118 27 -56 12 -101 24 -98 28 2 3 5 59 6 124 l3 118 34 -5 c18
-4 84 -20 146 -37z m3426 -4 l0 -33 -112 -7 c-62 -4 -158 -9 -213 -12 -55 -4
-106 -11 -112 -16 -16 -13 -17 7 -2 50 10 28 13 30 35 20 18 -8 63 -8 171 2
81 7 159 16 173 21 51 15 60 11 60 -25z m-12 -138 l-3 -63 -70 -6 c-129 -12
-393 -10 -401 3 -4 6 -3 8 3 5 13 -8 23 24 23 73 1 32 2 33 14 17 9 -11 33
-20 64 -24 63 -7 230 14 297 38 77 27 76 27 73 -43z m786 -18 c-3 -36 -7 -78
-9 -95 l-5 -30 -112 8 c-62 4 -140 10 -173 13 l-61 5 4 72 c2 40 5 77 6 82 2
6 71 10 180 10 l176 0 -6 -65z m-3841 -4 c189 -71 253 -130 197 -181 -17 -15
-26 -16 -82 -6 -79 14 -181 63 -195 94 -12 26 -5 117 8 117 5 0 37 -11 72 -24z
m-943 -53 c0 -20 -5 -51 -12 -69 -9 -26 -9 -37 3 -55 13 -19 12 -33 -8 -128
-12 -58 -25 -137 -29 -174 l-7 -69 -31 6 c-17 3 -61 8 -98 12 l-66 7 13 46
c30 100 57 286 53 368 l-3 82 35 3 c19 2 61 4 93 5 l57 2 0 -36z m-270 -48 c0
-74 -22 -235 -47 -344 l-17 -73 -51 6 c-27 3 -98 9 -157 13 -126 7 -119 -5
-88 149 36 177 71 284 94 290 32 7 165 21 219 23 l47 1 0 -65z m-510 47 c0
-18 54 -33 96 -26 l44 6 -25 -57 c-36 -81 -75 -238 -75 -302 l0 -56 -77 7
c-43 4 -82 11 -88 17 -6 6 -5 30 3 66 18 84 104 353 114 353 4 0 8 -4 8 -8z
m4768 -74 c-3 -22 -8 -23 -133 -30 -71 -4 -172 -11 -222 -16 l-93 -8 0 26 0
26 158 -4 c115 -2 170 1 207 11 75 22 87 21 83 -5z m-2498 -71 c54 -27 65 -36
65 -57 0 -22 -5 -25 -38 -28 -92 -8 -202 37 -221 90 -18 50 -5 58 66 42 35 -8
92 -29 128 -47z m3136 13 l144 0 -6 -102 c-4 -57 -8 -105 -10 -107 -5 -5 -335
17 -341 23 -2 2 -1 48 3 101 l7 97 30 -6 c16 -3 94 -6 173 -6z m-1278 -52 c64
-24 74 -38 50 -70 -12 -15 -20 -12 -80 24 -47 28 -68 47 -68 61 0 21 -2 22 98
-15z m619 10 c-3 -13 -15 -76 -27 -141 -18 -96 -26 -120 -43 -129 -12 -6 -86
-13 -166 -16 l-144 -5 6 59 c4 32 9 93 13 135 l6 76 107 7 c58 3 133 12 166
20 86 19 88 19 82 -6z m-917 -33 l0 -45 -24 15 c-22 15 -75 20 -243 24 -40 1
-53 5 -53 16 0 12 17 15 88 16 74 1 221 12 230 17 1 1 2 -18 2 -43z m-557 28
c121 -5 137 -8 137 -24 0 -13 -12 -19 -50 -24 -27 -4 -52 -11 -55 -16 -3 -4
-16 -4 -28 0 -12 5 -62 19 -112 31 -165 41 -148 46 108 33z m-2390 -19 c-1 -5
-6 -45 -12 -89 -19 -137 -46 -252 -57 -248 -8 3 -8 19 1 56 7 29 20 107 30
175 12 78 22 121 29 119 6 -3 10 -8 9 -13z m1646 -39 c37 -42 39 -75 9 -115
-28 -39 -42 -38 -63 5 -12 27 -15 49 -10 90 9 65 21 69 64 20z m237 -59 c28
-13 59 -34 68 -47 18 -26 22 -99 6 -99 -24 0 -109 51 -134 80 -31 37 -36 90
-8 90 9 0 40 -11 68 -24z m1327 -58 c13 -50 -1 -115 -32 -150 -20 -23 -38 -31
-73 -35 -40 -5 -50 -2 -72 20 -45 45 -30 110 26 122 46 10 65 30 73 76 l7 40
31 -20 c20 -12 35 -33 40 -53z m-282 -12 c-65 -69 -36 -214 52 -261 29 -16 37
-26 37 -48 0 -16 5 -48 11 -73 11 -41 9 -47 -14 -83 l-26 -39 -63 14 c-35 7
-82 13 -105 14 l-43 0 0 73 c0 82 -17 156 -54 231 -13 28 -27 64 -31 80 -3 16
-22 44 -42 62 -19 18 -32 37 -28 43 4 7 56 11 144 11 120 0 140 2 157 18 18
18 19 18 22 -1 2 -10 -6 -29 -17 -41z m-1961 -6 c102 -28 313 -82 470 -121
157 -38 335 -83 395 -99 61 -16 178 -43 260 -60 83 -17 160 -33 172 -35 16 -4
24 -15 29 -40 8 -42 -3 -105 -17 -105 -6 0 -104 15 -217 34 -114 19 -234 37
-267 41 -33 4 -139 19 -235 35 -96 16 -215 34 -265 40 -132 16 -226 37 -350
77 -135 43 -170 61 -215 108 -30 31 -35 43 -35 83 0 26 4 60 8 76 7 26 11 28
45 22 20 -3 120 -28 222 -56z m2354 -121 c4 -67 4 -124 1 -127 -3 -4 -45 -14
-92 -24 -48 -10 -95 -25 -105 -34 -17 -16 -18 -16 -18 3 0 16 8 21 42 26 23 3
53 14 67 24 42 30 75 108 79 186 3 37 8 67 12 67 4 0 10 -55 14 -121z m-1557
62 l50 -48 -41 10 c-23 5 -58 13 -80 19 l-38 9 28 30 c15 16 28 29 29 29 1 0
24 -22 52 -49z m438 -14 c42 -29 85 -69 85 -80 0 -5 -16 -7 -37 -3 -111 18
-153 46 -153 101 l0 34 38 -16 c20 -8 51 -24 67 -36z m2455 3 c0 -47 19 -44
-198 -28 -131 10 -162 15 -157 26 3 7 5 18 5 24 0 7 32 9 98 4 53 -3 122 -2
152 3 101 16 100 16 100 -29z m-2626 -76 c5 -13 2 -15 -16 -10 -13 3 -30 6
-38 7 -10 0 -8 3 5 9 30 13 42 12 49 -6z m1834 -55 c-7 -5 -40 -9 -73 -9 -33
0 -123 -7 -200 -15 -77 -8 -146 -15 -152 -15 -8 0 -13 14 -13 36 0 32 2 35 23
28 26 -9 198 -8 311 1 52 5 84 13 95 24 15 15 16 14 19 -13 2 -16 -2 -33 -10
-37z m-1412 32 c44 -32 68 -58 77 -83 8 -22 7 -22 -101 -2 -151 27 -140 23
-101 42 24 12 35 25 37 45 4 36 37 36 88 -2z m1913 -7 c2 -2 -14 -4 -37 -4
-23 0 -42 4 -42 9 0 9 69 4 79 -5z m-5244 -14 c50 -5 114 -10 143 -10 28 0 52
-1 52 -2 0 -2 -7 -37 -15 -78 -8 -41 -18 -141 -21 -221 l-7 -146 -163 1 -164
1 0 48 c0 26 5 47 10 47 6 0 10 -4 10 -9 0 -5 16 -17 37 -26 54 -26 150 -16
180 19 28 32 42 84 45 162 4 91 -36 125 -154 130 l-67 2 -15 -39 c-9 -22 -16
-47 -16 -56 0 -9 -2 -14 -5 -11 -3 3 0 40 6 82 8 52 15 73 21 64 5 -8 6 2 2
26 -6 34 -5 38 12 32 11 -3 60 -10 109 -16z m6020 -25 c39 3 81 8 95 10 21 3
29 -3 47 -36 l21 -39 -104 7 c-104 6 -104 6 -104 -17 0 -13 31 -83 70 -157 53
-103 66 -135 55 -139 -8 -3 -19 -4 -25 -2 -13 4 -118 248 -123 286 -3 21 -10
28 -30 30 -21 3 -27 -1 -27 -15 0 -10 34 -84 76 -165 41 -82 73 -148 71 -148
-2 0 -28 41 -58 92 -59 99 -124 178 -151 182 -9 1 -25 9 -35 18 -30 27 -67 37
-185 49 -181 18 -508 -9 -813 -67 -71 -14 -169 -29 -217 -34 -179 -19 -293
-60 -453 -165 -89 -58 -223 -177 -235 -209 -9 -25 7 -64 29 -70 37 -11 138
-26 173 -26 36 0 38 -2 38 -30 0 -27 -3 -30 -32 -30 -18 0 -114 -7 -213 -15
-99 -8 -182 -15 -185 -15 -3 1 10 7 28 15 26 11 33 20 31 37 -2 15 13 45 41
83 150 206 244 326 287 367 46 45 52 48 123 57 41 5 167 23 280 40 217 32 280
37 280 21 0 -16 38 -11 48 6 7 13 57 19 283 34 151 10 386 22 523 26 245 6
250 7 270 30 21 23 21 23 36 3 14 -18 23 -19 85 -14z m-5625 -18 c0 -18 7 -42
15 -53 23 -31 18 -34 -27 -14 -24 11 -60 20 -80 20 -38 0 -38 0 -38 40 l0 40
65 0 65 0 0 -33z m377 -3 c-3 -3 -12 -4 -19 -1 -8 3 -5 6 6 6 11 1 17 -2 13
-5z m5497 -181 c30 -49 73 -113 96 -143 40 -54 40 -54 18 -63 -20 -7 -38 -24
-38 -37 0 -21 31 -30 140 -45 69 -8 174 -27 235 -40 124 -28 233 -34 200 -12
-11 8 -38 21 -60 30 l-40 17 95 -5 c52 -3 169 -13 260 -22 l165 -17 0 -45 c0
-26 8 -61 18 -80 9 -19 17 -35 17 -36 0 -1 -61 15 -135 36 -214 60 -270 70
-432 76 -161 6 -260 -4 -394 -38 -72 -18 -79 -18 -115 -3 -33 14 -72 16 -264
11 -306 -7 -440 -31 -707 -127 -135 -48 -141 -49 -261 -51 l-122 -1 -43 38
c-129 116 -153 131 -175 110 -10 -8 -41 -24 -70 -35 -60 -24 -69 -17 -58 42 5
27 2 38 -15 53 -20 18 -21 18 -35 -1 -8 -10 -14 -34 -14 -52 0 -32 -21 -46
-34 -24 -3 5 -26 6 -50 4 -38 -5 -45 -3 -51 16 -8 26 -21 27 -37 1 -10 -15
-24 -20 -60 -20 -44 0 -48 2 -48 24 0 23 2 24 103 28 56 3 107 1 113 -4 18
-13 42 1 64 38 19 29 22 51 23 163 l2 130 48 11 c61 13 62 13 48 -3 -10 -12
-51 -199 -51 -233 0 -7 12 -27 28 -44 25 -28 35 -32 122 -41 119 -14 344 -6
391 14 61 25 64 33 69 221 l5 171 76 3 76 3 6 -152 c5 -120 10 -159 25 -188
19 -36 20 -36 78 -34 32 0 178 3 323 6 278 6 302 10 263 49 -18 18 -120 30
-416 48 -82 5 -153 13 -156 17 -7 7 -30 203 -30 247 0 18 7 19 128 12 70 -3
141 -9 159 -12 25 -5 37 -1 57 19 l26 26 33 -42 c89 -110 140 -190 141 -220 1
-31 3 -32 44 -32 41 0 43 -1 66 -50 29 -64 43 -75 92 -72 35 2 39 4 36 27 -2
14 -13 46 -24 73 -16 37 -26 47 -44 47 -12 0 -26 5 -29 10 -3 6 -1 10 4 10 20
0 11 35 -39 144 -28 60 -50 112 -50 117 0 8 40 14 112 17 35 2 38 0 92 -85z
m-6283 35 c37 -11 39 -13 39 -53 0 -52 -13 -65 -68 -65 -44 0 -44 0 -38 31 3
17 6 47 6 65 0 37 5 39 61 22z m659 -1 c14 -7 30 -28 37 -47 15 -45 15 -158
-1 -240 -12 -64 -12 -65 -42 -60 -16 3 -68 5 -115 5 l-87 -1 24 31 c39 51 58
207 34 271 -18 45 -7 54 62 54 35 0 74 -6 88 -13z m-260 -25 c34 -35 45 -82
33 -153 l-8 -54 -78 -9 c-43 -5 -80 -6 -82 -4 -3 3 -2 59 2 126 l6 122 49 0
c41 0 54 -5 78 -28z m1050 -13 c85 -22 202 -49 260 -60 58 -11 159 -33 225
-49 173 -41 569 -115 715 -134 69 -9 171 -23 228 -32 56 -8 166 -17 245 -21
112 -5 145 -10 154 -22 9 -11 11 -40 6 -100 -5 -76 -9 -86 -35 -110 -53 -48
-54 -147 -1 -174 26 -14 25 -14 -24 -19 -55 -5 -115 -40 -144 -85 -59 -88 30
-230 139 -221 l42 3 0 -76 0 -76 -31 -7 c-60 -12 -69 -8 -69 24 0 76 -59 158
-143 200 -64 32 -87 36 -116 20 -14 -7 -23 -5 -35 9 -19 21 -19 21 81 36 46 7
68 26 59 51 -6 15 -19 16 -115 9 -80 -5 -116 -3 -133 6 -35 19 -126 14 -184
-9 -45 -18 -82 -21 -332 -28 l-281 -7 -38 33 c-20 18 -62 45 -93 59 -46 22
-68 26 -140 25 -98 -1 -163 -22 -258 -84 -50 -32 -70 -39 -119 -41 l-58 -3 3
45 c2 24 10 80 18 124 7 44 23 157 34 250 10 94 24 202 29 240 21 141 14 182
-37 238 -14 15 -22 27 -16 27 5 0 79 -18 164 -41z m3704 -6 c-5 -10 -9 -79 -9
-153 l0 -135 -113 -3 c-93 -3 -309 12 -320 22 -1 2 2 44 8 95 7 61 7 98 0 110
-9 17 -4 20 53 29 34 6 123 18 197 27 74 9 144 17 155 19 11 2 24 4 29 5 4 0
4 -7 0 -16z m-4338 -13 c30 -12 337 -50 402 -50 39 0 42 -2 42 -27 -1 -36 -28
-264 -32 -268 -6 -6 -373 34 -416 46 l-43 12 8 46 c4 25 8 92 8 149 0 56 1
102 2 102 1 0 14 -5 29 -10z m3658 -202 c-4 -62 -7 -113 -8 -113 0 0 -56 1
-123 3 -114 3 -123 5 -123 23 0 32 40 107 67 125 24 15 168 72 186 74 4 0 5
-51 1 -112z m-355 5 c-40 -52 -50 -73 -47 -95 l5 -28 -56 7 c-31 3 -58 8 -61
10 -9 9 187 173 207 173 1 0 -21 -30 -48 -67z m-368 41 l66 -7 -44 -84 c-24
-46 -43 -93 -43 -103 0 -15 -7 -20 -29 -20 -15 0 -49 -11 -75 -25 -25 -13 -46
-21 -46 -17 0 4 14 67 31 140 30 125 33 133 53 128 11 -3 51 -9 87 -12z
m-3722 -142 l138 3 -16 -21 c-12 -16 -20 -19 -31 -11 -32 19 -136 -23 -262
-107 l-28 -18 0 91 0 92 31 -16 c24 -13 58 -15 168 -13z m4091 -22 c0 -5 -5
-10 -11 -10 -5 0 -7 5 -4 10 3 6 8 10 11 10 2 0 4 -4 4 -10z m-625 -42 c-3
-13 -12 -58 -20 -100 -9 -42 -29 -105 -45 -140 -26 -56 -45 -156 -49 -253 -1
-11 -5 -63 -10 -115 -6 -66 -8 9 -4 245 3 187 7 343 10 348 2 4 19 7 37 7 18
0 41 7 52 15 27 20 35 18 29 -7z m3995 -5 c30 -27 45 -79 25 -84 -5 -2 -25 16
-42 40 -52 68 -41 96 17 44z m-6801 -7 c-3 -3 -52 -14 -109 -26 -200 -41 -320
-94 -320 -141 0 -31 24 -32 81 -3 29 14 105 40 169 57 103 27 131 30 265 30
137 1 197 -6 308 -34 32 -9 37 -14 37 -39 0 -35 -6 -36 -185 -45 -118 -5 -401
-35 -522 -55 -60 -10 -63 -9 -105 20 -46 32 -144 57 -310 80 -76 10 -91 10
-120 -4 l-33 -16 35 30 c19 16 73 48 120 70 47 23 97 47 112 55 20 10 34 11
55 3 20 -7 75 -6 188 5 158 14 342 21 334 13z m6326 -95 c44 -12 148 -44 230
-71 83 -26 167 -52 188 -56 65 -11 77 -43 77 -201 l0 -133 -55 0 c-46 0 -60
-4 -80 -24 -16 -17 -22 -31 -18 -46 6 -21 9 -22 62 -15 31 5 79 9 108 9 33 1
58 7 68 17 23 23 42 225 28 307 -11 72 -3 78 46 36 45 -38 65 -114 56 -216
l-7 -80 -59 -43 c-91 -67 -132 -79 -245 -72 -100 6 -124 16 -124 51 0 36 -90
204 -134 249 -53 55 -110 72 -231 70 -159 -3 -302 -55 -482 -175 l-80 -54 -7
78 c-11 126 -41 180 -93 164 -16 -5 -18 1 -15 58 3 48 0 67 -13 79 -15 16 -13
17 29 17 52 0 96 17 96 37 0 7 6 13 13 14 6 0 57 6 112 14 149 21 426 13 530
-14z m-2174 -104 c47 -30 89 -62 92 -71 6 -15 23 -16 162 -10 l155 7 0 -149 0
-149 -160 4 c-189 4 -271 -11 -385 -68 l-74 -37 -17 45 c-15 40 -16 61 -5 237
7 107 10 202 7 211 -4 14 7 24 47 45 50 25 53 26 72 8 11 -10 59 -42 106 -73z
m-3628 36 c-7 -45 -8 -47 -22 -38 -12 7 -15 58 -4 68 19 20 31 5 26 -30z
m4577 33 c0 -6 -220 -39 -226 -34 -3 3 37 12 88 21 97 15 138 20 138 13z
m-2176 -46 c-4 -16 -4 -40 -1 -52 9 -34 46 -70 65 -64 9 3 122 22 251 41 163
25 237 33 245 25 5 -5 9 -40 8 -76 -2 -51 2 -73 17 -98 l21 -33 -78 -16 c-137
-30 -233 -87 -293 -174 l-31 -44 -56 6 c-143 17 -221 55 -249 124 -22 52 -10
198 22 268 21 47 71 123 81 123 2 0 1 -13 -2 -30z m2586 5 c-5 -14 -15 -78
-21 -143 -6 -64 -20 -145 -31 -180 l-20 -63 -54 59 c-133 147 -253 171 -431
86 -78 -37 -122 -81 -150 -151 -20 -47 -23 -48 -106 -32 l-57 12 0 106 c0 58
-3 130 -6 159 -7 51 -6 52 18 52 14 0 149 21 299 46 243 40 462 70 541 73 25
1 27 -1 18 -24z m-657 -2 c-7 -2 -19 -2 -25 0 -7 3 -2 5 12 5 14 0 19 -2 13
-5z m-1033 -7 c0 -3 -19 -44 -43 -93 -24 -48 -51 -108 -61 -133 l-18 -45 -13
25 c-13 23 -10 32 34 115 27 50 54 100 60 113 10 18 41 32 41 18z m-90 -11 c0
-3 -17 -44 -39 -91 -38 -85 -39 -86 -55 -63 -9 13 -16 30 -16 39 1 22 39 103
53 112 13 9 57 11 57 3z m-104 -14 c-3 -4 -10 -21 -17 -37 l-11 -29 -15 29
c-12 24 -13 30 -1 37 17 11 51 12 44 0z m-3116 -68 c0 -10 -5 -25 -10 -33 -7
-11 -10 -7 -10 18 0 17 5 32 10 32 6 0 10 -8 10 -17z m-1410 -7 c0 -45 -26
-57 -75 -34 -31 14 -31 20 -2 34 33 17 77 17 77 0z m108 -236 c-2 -58 -6 -77
-15 -72 -9 6 -9 44 0 167 11 152 12 156 15 72 1 -48 1 -124 0 -167z m293 185
c12 -31 10 -168 -3 -247 l-11 -71 -76 7 c-132 11 -121 -4 -121 166 0 81 -3
161 -6 177 l-6 29 108 -20 c86 -17 109 -25 115 -41z m4304 -65 c-26 -53 -40
-70 -53 -68 -23 5 -19 17 36 116 43 78 47 82 50 54 2 -20 -9 -55 -33 -102z
m-3385 101 c0 -21 -4 -22 -220 -46 -74 -8 -163 -20 -197 -26 -58 -10 -64 -10
-103 14 l-41 24 108 17 c115 18 274 32 386 35 59 1 67 -1 67 -18z m-764 -56
c16 11 27 10 79 -10 33 -12 95 -39 138 -60 50 -24 84 -34 95 -30 21 9 446 74
451 69 2 -2 -2 -22 -9 -44 -13 -39 -15 -40 -44 -33 -17 4 -69 8 -116 8 -72 -1
-93 -5 -137 -28 -54 -28 -164 -113 -199 -154 -18 -21 -32 -25 -110 -30 -50 -3
-125 -2 -167 2 l-77 7 7 66 c10 84 10 153 1 215 l-8 47 39 -19 c33 -17 41 -18
57 -6z m5934 -149 c0 -103 -3 -131 -20 -170 -30 -67 -43 -59 -36 22 3 37 8
103 12 147 6 85 20 138 35 129 5 -3 9 -61 9 -128z m-6474 77 c-3 -21 -6 -54
-6 -73 l0 -35 -40 40 c-47 47 -46 77 3 93 49 15 50 15 43 -25z m3464 -58 c0
-61 -3 -75 -16 -75 -36 0 -104 52 -104 80 0 31 52 68 98 69 21 1 22 -3 22 -74z
m1257 -22 c-3 -2 -14 1 -25 8 l-21 13 22 39 22 40 3 -48 c2 -26 1 -49 -1 -52z
m1380 59 c59 -30 129 -98 165 -158 24 -40 39 -54 56 -54 19 0 22 -4 16 -27 -4
-16 -11 -31 -16 -34 -12 -8 -203 -18 -483 -24 -126 -3 -249 -8 -273 -10 l-43
-5 3 51 3 51 84 2 c90 1 88 0 112 65 49 131 250 207 376 143z m-4127 -17 c32
-12 23 -13 -105 -13 -128 0 -137 1 -105 13 19 7 67 13 105 13 39 0 86 -6 105
-13z m630 -86 c-91 -75 -249 -80 -350 -11 -24 17 -22 17 95 22 66 4 156 7 200
8 l80 2 -25 -21z m358 -23 c44 -42 46 -45 30 -63 -48 -52 -70 -147 -54 -230
l8 -43 -286 0 c-158 0 -432 5 -609 11 -209 7 -372 7 -465 1 l-143 -9 -32 32
c-30 30 -31 34 -22 71 11 41 29 65 133 175 l64 67 71 6 c40 3 153 8 252 11
l180 6 69 -51 c157 -115 341 -121 484 -16 94 69 109 75 195 76 l78 0 47 -44z
m-1741 23 c56 -15 103 -72 103 -128 l0 -36 -23 40 c-59 103 -201 113 -288 18
-61 -65 -78 -155 -32 -161 19 -3 27 6 49 52 26 56 52 80 97 91 35 9 95 -12
108 -37 11 -21 11 -21 -24 0 -115 72 -225 -55 -134 -154 40 -44 104 -56 154
-30 37 18 83 71 83 94 1 15 2 15 10 1 11 -19 -13 -88 -48 -137 -44 -61 -107
-76 -195 -46 -76 26 -125 91 -161 215 -29 102 -76 100 -76 -4 0 -29 -4 -46
-10 -42 -5 3 -10 28 -10 55 0 45 3 51 42 84 144 124 233 155 355 125z m5753
-14 c0 -8 -6 -15 -14 -15 -20 0 -64 -38 -97 -83 -26 -35 -29 -48 -29 -112 0
-95 27 -151 90 -182 59 -30 126 -30 171 0 42 27 89 116 89 169 0 28 4 38 15
38 9 0 29 7 45 15 34 18 46 58 31 111 l-10 37 31 -29 c17 -16 39 -48 50 -72
17 -39 18 -49 7 -95 -44 -191 -193 -306 -355 -276 -25 5 -73 23 -107 41 -109
58 -219 186 -197 228 17 32 159 168 212 204 59 40 68 43 68 21z m-5510 -25
c-21 -30 -40 -46 -40 -35 0 19 33 65 46 65 13 0 12 -5 -6 -30z m5678 0 c25
-24 56 -80 44 -80 -8 0 -55 48 -81 83 -20 25 9 23 37 -3z m-2830 -46 c-26 -44
-28 -127 -5 -174 13 -25 13 -29 2 -20 -23 19 -55 94 -55 128 0 33 18 82 35 94
5 4 18 8 27 8 16 0 15 -4 -4 -36z m1104 0 c24 -6 27 -10 30 -65 l3 -59 -50 0
c-70 0 -416 -18 -497 -26 -63 -6 -68 -5 -68 14 0 11 10 27 23 36 14 10 16 14
5 10 -29 -10 -21 2 15 24 41 24 139 61 192 72 42 10 300 5 347 -6z m-708 -88
c11 -55 -39 -157 -89 -180 -44 -21 -106 -31 -132 -22 -14 6 -9 11 26 27 118
53 188 165 150 242 -9 19 -6 18 14 -5 13 -14 27 -42 31 -62z m-209 43 c55 -31
65 -49 45 -79 -9 -13 -12 -12 -25 4 -22 29 -67 56 -92 56 -26 0 -27 3 -13 31
14 25 21 24 85 -12z m-1309 -4 c72 -43 84 -92 34 -148 -16 -19 -30 -40 -30
-48 0 -19 -31 -49 -50 -49 -17 0 -16 3 2 38 25 47 20 122 -10 181 -12 23 -22
44 -22 46 0 13 38 2 76 -20z m3774 -96 c0 -14 -7 -34 -15 -45 -15 -19 -15 -19
-30 0 -18 24 -20 107 -3 124 10 10 16 5 30 -20 9 -18 17 -45 18 -59z m-6849
64 c38 -16 78 -18 302 -17 141 1 257 -2 257 -6 0 -4 -9 -15 -19 -24 -38 -34
-92 -45 -226 -45 -195 -1 -283 18 -342 72 -20 18 -30 37 -19 37 2 0 23 -8 47
-17z m3712 -47 c23 -3 80 -10 125 -16 82 -11 85 -11 123 14 21 15 42 26 46 27
4 0 12 -19 18 -43 7 -24 16 -52 20 -62 8 -18 5 -19 -81 -10 -49 4 -168 7 -265
5 -116 -2 -179 1 -183 8 -4 5 7 20 24 32 22 17 30 31 30 54 0 18 3 34 6 38 3
3 26 -5 50 -18 25 -13 64 -26 87 -29z m-3070 7 c-20 -49 -12 -121 21 -180 l26
-45 -63 7 c-70 8 -91 22 -108 73 -11 33 -10 37 12 51 41 27 80 73 86 103 4 18
12 28 24 28 17 0 17 -2 2 -37z m6348 -4 c21 -40 -28 -149 -67 -149 -9 0 -5 13
11 36 18 27 25 50 25 85 0 52 12 63 31 28z m-4051 -15 c11 -28 3 -77 -11 -68
-9 5 -13 94 -4 94 3 0 10 -12 15 -26z m3596 -77 c3 -10 3 -21 1 -24 -3 -3
-102 0 -219 6 -117 6 -251 12 -298 13 -63 1 -35 4 105 13 105 7 238 12 298 11
94 -1 108 -3 113 -19z m-6214 -104 c9 -26 16 -48 14 -50 -1 -1 -24 20 -51 47
l-49 50 34 0 c33 0 36 -3 52 -47z m918 -3 c0 -18 -19 -30 -46 -30 -12 0 -11 6
6 30 22 32 40 32 40 0z"/>
<path d="M3030 7461 c-14 -27 -13 -75 5 -168 11 -60 20 -83 40 -100 15 -13 32
-23 39 -23 19 0 62 68 100 159 47 109 50 128 26 141 -30 16 -56 -3 -87 -63
l-26 -52 -11 48 c-8 35 -18 53 -36 63 -33 18 -37 17 -50 -5z"/>
<path d="M6224 5322 c-10 -2 -26 -6 -34 -9 -8 -3 -20 -5 -27 -4 -24 4 -26 -56
-14 -328 11 -260 22 -335 42 -300 9 17 27 453 21 522 l-4 47 175 0 c107 0 187
4 204 11 l28 11 -35 15 c-19 8 -62 19 -95 24 -64 9 -229 16 -261 11z"/>
<path d="M6678 5274 c-15 -14 -8 -43 11 -49 17 -5 97 8 106 17 2 2 0 10 -4 17
-10 15 -102 27 -113 15z"/>
<path d="M2563 3808 c-12 -16 -17 -94 -17 -253 0 -153 10 -178 87 -199 118
-33 433 -81 637 -96 216 -17 727 -28 835 -19 128 11 135 15 135 88 0 69 -13
111 -52 168 -24 36 -38 45 -91 62 -35 10 -90 22 -122 26 -33 4 -112 15 -175
25 -63 10 -140 21 -170 24 -79 10 -448 77 -737 136 -258 52 -314 58 -330 38z
m190 -89 c40 -6 75 -14 79 -17 4 -4 0 -36 -9 -72 -8 -36 -18 -95 -22 -131 l-6
-66 -72 20 -73 19 0 129 c0 147 -10 135 103 118z m289 -80 c-1 -13 -5 -75 -8
-136 -4 -64 -11 -113 -17 -113 -5 0 -39 5 -74 12 -58 11 -64 14 -58 32 10 29
33 151 40 207 l6 46 57 -12 c52 -10 57 -13 54 -36z m213 -15 c55 -9 103 -19
107 -23 4 -3 1 -31 -7 -61 -8 -30 -15 -85 -15 -122 0 -66 -1 -68 -26 -68 -47
0 -219 22 -227 29 -4 4 2 51 13 105 11 54 20 114 20 133 0 28 3 33 18 29 9 -3
62 -13 117 -22z m301 -85 c-3 -17 -6 -39 -7 -48 -1 -26 -17 19 -18 52 -1 19 4
27 15 27 13 0 15 -7 10 -31z m112 6 c2 -2 -1 -29 -7 -61 -6 -32 -11 -77 -11
-101 l0 -43 -120 0 -121 0 7 36 c4 20 12 59 19 88 11 50 12 50 19 20 4 -17 26
-52 50 -79 l43 -49 26 26 c19 19 28 44 38 102 12 70 15 76 33 70 12 -4 22 -8
24 -9z m196 -25 c60 -10 112 -23 116 -27 4 -4 5 -25 3 -46 -4 -31 -9 -37 -22
-31 -9 4 -58 14 -108 22 -83 13 -93 17 -93 36 0 11 -3 31 -6 44 -4 12 -5 22
-3 22 2 0 53 -9 113 -20z m236 -69 c21 -31 54 -101 48 -106 -2 -1 -17 -6 -34
-9 l-31 -7 -7 53 c-3 29 -9 63 -12 76 -9 31 11 28 36 -7z m-217 -88 c97 -18
139 -41 51 -29 -26 3 -79 6 -119 6 -68 0 -73 1 -68 20 7 25 14 25 136 3z"/>
<path d="M1421 3139 c-42 -69 -35 -169 16 -209 53 -41 110 -12 134 70 17 57
-3 115 -50 147 -48 32 -77 30 -100 -8z m79 -117 c0 -54 -25 -33 -28 24 -2 45
-1 48 13 30 8 -11 15 -35 15 -54z"/>
<path d="M7690 2199 c-248 -22 -415 -58 -498 -105 -37 -22 -47 -24 -75 -15
-35 12 -383 18 -394 8 -11 -12 -78 -8 -91 5 -10 10 -15 10 -21 -1 -5 -7 -14
-11 -20 -7 -6 4 -26 3 -44 -2 -21 -6 -40 -6 -50 0 -11 6 -17 5 -17 -2 0 -7
-28 -10 -87 -6 -49 2 -92 1 -98 -4 -5 -4 -64 -10 -130 -13 -98 -4 -123 -2
-134 10 -31 33 -46 -27 -57 -235 -8 -147 -8 -148 -85 30 -32 73 -62 126 -75
135 -47 30 -133 55 -238 69 -107 14 -136 11 -136 -18 0 -5 -11 -24 -25 -42
-14 -19 -48 -85 -76 -147 -57 -127 -62 -136 -53 -93 9 47 -31 87 -124 123 -42
16 -77 33 -77 38 0 4 -4 14 -9 21 -6 11 -10 10 -20 -3 -10 -14 -15 -14 -55 0
-69 24 -96 20 -119 -17 -11 -18 -58 -152 -105 -298 -48 -146 -113 -338 -145
-428 -64 -178 -65 -178 -92 -62 -18 78 -73 291 -99 385 -69 246 -104 345 -136
375 -14 13 -25 29 -25 35 0 7 -9 20 -19 29 -19 17 -20 17 -31 -3 -9 -18 -20
-21 -79 -21 -65 0 -71 2 -102 33 -28 28 -49 37 -114 51 -44 10 -84 22 -90 27
-11 11 -38 12 -32 2 3 -5 -81 -8 -186 -7 -106 0 -199 -3 -208 -7 -9 -5 -50 -9
-90 -10 -41 -2 -84 -6 -97 -11 -12 -4 -50 -12 -83 -17 -61 -10 -99 -32 -99
-58 0 -20 -8 -16 -58 28 -26 23 -85 60 -132 83 -85 41 -85 41 -200 41 -81 -1
-148 -8 -225 -24 -117 -25 -381 -106 -403 -124 -13 -10 -12 -36 5 -107 5 -20
-5 -14 -62 37 -107 96 -194 135 -385 173 -25 4 -65 16 -90 25 -51 19 -117 28
-133 18 -6 -4 -63 -8 -126 -10 -104 -4 -130 -9 -253 -49 -75 -24 -143 -41
-151 -38 -22 8 -39 -21 -44 -76 -2 -28 0 -137 6 -243 6 -122 7 -278 1 -427 -5
-129 -12 -361 -15 -515 -9 -394 -26 -377 340 -349 44 3 88 8 98 10 46 13 84
181 74 325 -3 51 -1 83 6 93 9 12 52 20 162 32 171 17 222 27 284 55 56 25
155 96 206 148 21 23 42 41 46 41 3 0 10 -55 13 -122 4 -68 9 -141 12 -163 2
-22 6 -65 8 -95 2 -30 11 -72 20 -94 9 -22 16 -66 16 -103 0 -112 31 -153 117
-153 46 0 141 25 207 54 63 28 76 54 76 156 0 59 3 71 28 100 l28 32 37 -21
c21 -12 44 -21 51 -21 8 0 16 -7 20 -15 3 -8 12 -12 19 -9 8 3 21 -1 28 -8 22
-22 45 -28 59 -15 10 9 11 9 8 -3 -7 -23 14 -40 35 -28 21 11 166 -37 174 -58
2 -6 12 -10 22 -7 10 3 37 -5 59 -16 58 -30 86 -27 115 10 l25 32 -2 -96 c-1
-88 1 -98 22 -119 26 -26 9 -26 352 -14 206 7 233 6 315 -12 78 -17 92 -18
106 -6 10 9 38 14 77 14 76 0 85 11 107 125 20 104 19 133 -4 171 -24 40 -75
63 -179 83 l-84 16 6 36 c3 20 1 119 -6 220 -11 178 -17 535 -9 612 l3 37 63
0 62 0 22 -137 c26 -161 129 -677 158 -788 3 -11 7 -49 9 -84 2 -38 12 -80 24
-103 11 -21 20 -56 20 -77 0 -49 29 -87 78 -101 20 -6 93 -13 162 -17 158 -7
184 2 236 82 l36 57 126 -5 c70 -2 182 -7 248 -10 116 -5 123 -5 142 16 11 12
30 54 42 92 42 140 102 322 109 333 7 12 378 -25 398 -40 6 -5 17 -32 23 -61
7 -29 28 -101 46 -160 19 -60 34 -121 34 -136 0 -34 26 -71 49 -71 11 0 21 -7
25 -15 7 -19 45 -20 52 -1 5 12 27 14 124 10 110 -5 120 -4 139 15 12 12 21
29 21 39 0 36 -22 139 -47 222 -29 97 -43 146 -106 390 -26 96 -74 261 -109
366 l-63 192 188 12 c103 7 191 10 195 6 3 -4 7 -75 9 -158 1 -83 4 -162 8
-175 3 -13 3 -28 0 -33 -3 -5 -5 -192 -6 -415 0 -357 2 -410 16 -431 29 -45
79 -51 293 -38 150 9 152 11 177 198 16 120 17 187 13 580 l-5 445 75 7 c42 4
100 12 129 19 l52 12 -4 -41 c-9 -77 -24 -331 -30 -496 -5 -141 -31 -444 -51
-602 -5 -38 -2 -50 15 -67 18 -18 34 -21 114 -22 50 0 112 -4 137 -8 28 -4 66
-1 100 7 30 7 100 15 155 17 55 2 150 8 210 12 61 4 144 6 186 5 44 -1 96 4
125 13 27 8 61 15 75 15 15 0 29 7 33 15 3 9 18 15 34 15 101 0 121 29 128
181 6 133 1 139 -133 139 -187 1 -634 36 -643 51 -10 15 -20 118 -23 239 l-2
85 115 0 c63 0 217 -2 342 -5 l226 -5 26 24 c28 26 50 108 61 227 7 66 6 73
-16 93 -13 12 -40 26 -61 31 -60 17 -317 40 -519 47 -215 7 -199 -2 -199 111
0 43 4 62 13 62 6 1 103 9 214 18 111 10 210 14 220 11 27 -11 81 -10 88 1 3
6 17 10 30 10 56 0 129 23 153 49 24 25 24 29 19 145 -5 110 -7 121 -31 144
-17 18 -41 28 -78 33 -69 10 -367 9 -488 -2z m-342 -151 c-3 -7 -15 -18 -27
-24 -12 -6 -33 -22 -46 -34 -20 -19 -24 -30 -20 -61 3 -21 0 -41 -5 -44 -7 -5
-10 19 -8 71 l3 77 40 13 c53 16 67 16 63 2z m-4738 -28 c0 -5 -2 -10 -4 -10
-3 0 -8 5 -11 10 -3 6 -1 10 4 10 6 0 11 -4 11 -10z m97 4 c-3 -3 -12 -4 -19
-1 -8 3 -5 6 6 6 11 1 17 -2 13 -5z m-140 -15 c-9 -5 -21 -8 -26 -4 -5 3 -12
1 -15 -3 -3 -5 -18 -7 -33 -4 l-28 6 30 7 c17 4 44 7 60 8 25 0 27 -1 12 -10z
m183 1 c0 -5 -4 -10 -9 -10 -6 0 -13 5 -16 10 -3 6 1 10 9 10 9 0 16 -4 16
-10z m-377 -37 c-7 -2 -19 -2 -25 0 -7 3 -2 5 12 5 14 0 19 -2 13 -5z m3737
-12 c0 -13 -40 -61 -51 -61 -5 0 -9 16 -9 35 0 32 2 35 30 35 17 0 30 -4 30
-9z m-3863 -36 c-20 -14 -42 -23 -47 -20 -6 3 -14 -4 -19 -18 -5 -13 -21 -40
-35 -61 l-25 -37 -11 43 c-6 24 -12 48 -14 53 -3 10 134 62 169 64 14 1 10 -6
-18 -24z m953 -22 c0 -4 -65 -33 -75 -33 -3 0 -5 9 -5 19 0 13 8 21 23 23 23
4 57 -1 57 -9z m-2306 1 c26 -10 17 -74 -10 -74 -10 0 -14 12 -14 40 0 43 0
43 24 34z m6376 -43 c0 -6 -4 -13 -10 -16 -5 -3 -10 1 -10 9 0 9 5 16 10 16 6
0 10 -4 10 -9z m-149 -124 c-5 -5 -43 -11 -83 -13 -74 -3 -73 -2 25 22 31 7
41 21 53 79 l9 40 3 -59 c2 -32 -1 -63 -7 -69z m-3136 73 c-3 -5 -2 -10 3 -10
6 0 8 -8 5 -19 -3 -10 0 -21 5 -25 5 -3 7 -16 5 -30 -4 -20 -12 -24 -51 -29
-68 -7 -80 2 -33 26 49 25 51 35 11 44 -39 7 -34 24 11 40 43 15 52 16 44 3z
m1213 -43 c2 -9 -3 -31 -11 -49 -27 -64 -56 -133 -61 -148 -2 -8 -5 -4 -5 10
-1 14 8 57 20 95 11 39 22 79 24 90 2 11 4 22 4 23 3 10 26 -7 29 -21z m-1783
-183 c11 -145 -4 -857 -19 -866 -6 -4 -21 -8 -33 -8 -13 0 -23 -4 -23 -9 0
-10 -58 -26 -67 -18 -2 3 1 15 7 27 6 12 9 34 5 48 -3 14 -62 83 -131 153 -68
69 -124 130 -124 134 0 4 15 24 34 46 57 67 175 348 136 324 -10 -6 -11 0 -6
26 3 19 9 66 12 106 5 59 4 75 -10 88 -28 28 -18 34 57 38 39 1 91 4 114 5
l41 2 7 -96z m-1892 68 c73 -26 134 -67 157 -105 24 -39 26 -104 5 -154 -24
-56 -43 -73 -75 -67 -15 4 -31 1 -34 -5 -9 -14 -63 -15 -71 -1 -9 15 -34 12
-51 -5 -8 -8 -21 -12 -29 -8 -9 3 -21 0 -29 -6 -10 -8 -16 -8 -25 3 -7 9 -23
13 -38 10 -46 -9 -61 3 -73 60 -6 29 -9 97 -8 152 l3 99 65 22 c80 27 135 29
203 5z m1138 -22 c93 -17 138 -95 88 -149 -20 -22 -102 -63 -117 -59 -4 1 -16
-3 -27 -9 -11 -6 -44 -10 -73 -8 -44 3 -57 9 -75 32 -23 28 -42 131 -28 146
15 15 126 57 152 57 15 0 51 -4 80 -10z m2968 -125 c9 -36 9 -38 -4 -21 -8 11
-15 31 -15 45 0 32 5 25 19 -24z m-13 -221 c6 -24 5 -26 -12 -20 -33 13 -36
12 -40 -13 -3 -14 -6 -26 -8 -29 -6 -5 -66 -6 -71 0 -3 2 14 51 37 108 l42
103 23 -61 c12 -34 25 -73 29 -88z m-3106 100 c0 -2 -9 -4 -21 -4 -11 0 -18 4
-14 10 5 8 35 3 35 -6z m5726 -92 c-13 -14 -16 -12 -27 11 -11 23 -9 29 12 46
l24 19 3 -30 c2 -18 -3 -37 -12 -46z m-3182 -91 c-26 -61 -49 -109 -52 -107
-2 3 13 42 33 88 20 46 41 96 47 111 6 15 12 26 15 24 2 -3 -17 -55 -43 -116z
m2561 -431 c3 -5 -1 -10 -9 -10 -8 0 -18 5 -21 10 -3 6 1 10 9 10 8 0 18 -4
21 -10z m-2761 -215 c-26 -34 -64 -47 -64 -22 0 20 22 45 45 50 43 10 46 6 19
-28z m1355 -6 c53 -53 53 -69 1 -69 -29 0 -42 5 -50 19 -15 30 -12 91 5 91 2
0 21 -19 44 -41z m-1251 25 c15 -4 21 -12 18 -21 -3 -8 -1 -11 4 -8 6 3 10 -1
10 -11 0 -14 -7 -16 -37 -10 -21 3 -49 6 -62 6 l-24 0 23 25 c25 27 32 28 68
19z m268 -39 c-7 -28 -26 -34 -26 -9 0 8 5 25 12 37 14 26 23 8 14 -28z m1264
-14 c0 -24 11 -33 25 -21 9 8 14 5 18 -9 6 -24 -10 -31 -40 -20 -18 7 -23 16
-23 44 0 22 4 34 10 30 6 -3 10 -14 10 -24z m671 -4 l-23 -22 17 28 c10 15 20
25 23 22 3 -3 -5 -16 -17 -28z m-2014 1 c-3 -8 -6 -5 -6 6 -1 11 2 17 5 13 3
-3 4 -12 1 -19z m-717 -78 c0 -5 -5 -10 -11 -10 -5 0 -7 5 -4 10 3 6 8 10 11
10 2 0 4 -4 4 -10z m190 -9 c0 -23 -14 -41 -32 -41 -18 0 -18 1 -1 25 18 25
33 32 33 16z m-230 -21 c-20 -13 -33 -13 -25 0 3 6 14 10 23 10 15 0 15 -2 2
-10z"/>
</g>
</svg>
