<?xml version="1.0" standalone="no"?>
<!DOCTYPE svg PUBLIC "-//W3C//DTD SVG 20010904//EN"
 "http://www.w3.org/TR/2001/REC-SVG-20010904/DTD/svg10.dtd">
<svg version="1.0" xmlns="http://www.w3.org/2000/svg"
 width="1066.000000pt" height="1045.000000pt" viewBox="0 0 1066.000000 1045.000000"
 preserveAspectRatio="xMidYMid meet">

<g transform="translate(0.000000,1045.000000) scale(0.100000,-0.100000)"
fill="#000000" stroke="none">
<path d="M5770 9913 c-44 -17 -110 -69 -126 -98 -15 -28 -21 -32 -36 -24 -12
6 -31 6 -56 0 -20 -5 -71 -13 -112 -17 -86 -7 -116 -27 -126 -80 -5 -26 -11
-33 -33 -36 -21 -2 -27 -9 -29 -35 -4 -40 -11 -41 -47 -7 -39 36 -57 26 -50
-28 15 -112 51 -177 118 -218 l30 -19 -37 -15 c-42 -18 -53 -38 -38 -71 19
-42 100 -58 255 -51 73 3 153 8 178 12 l46 6 17 -86 c9 -48 23 -107 30 -131
l14 -44 -66 -3 c-36 -2 -67 -8 -69 -14 -6 -19 42 -79 80 -99 25 -13 35 -25 31
-35 -3 -8 -8 -77 -11 -152 -6 -130 -7 -138 -26 -138 -11 0 -28 -7 -38 -16 -15
-14 -19 -13 -44 12 -22 22 -33 25 -62 21 -49 -8 -98 -49 -133 -110 -24 -42
-30 -48 -35 -32 -3 11 -16 41 -29 66 l-22 46 28 32 c41 46 37 81 -14 138 -44
47 -125 93 -166 93 -13 0 -42 16 -65 35 -23 20 -53 39 -66 42 -14 3 -41 23
-61 45 -20 21 -44 38 -53 38 -19 0 -47 -37 -47 -62 0 -27 -22 -21 -50 14 -43
53 -60 69 -70 63 -21 -13 -9 -54 24 -83 26 -23 31 -33 24 -46 -5 -10 -6 -29
-2 -44 4 -15 7 -30 6 -34 -1 -5 4 -8 11 -8 6 -1 -10 -12 -36 -26 -50 -26 -79
-66 -60 -85 7 -7 24 2 53 26 82 69 101 68 50 -3 -48 -66 -90 -79 -128 -39 -35
37 -23 119 19 130 37 10 19 34 -41 56 -33 12 -60 25 -60 28 0 3 34 3 75 0 62
-6 75 -4 75 8 0 20 -27 32 -90 39 -71 8 -114 -3 -118 -32 -4 -28 38 -71 77
-78 30 -6 30 -7 16 -35 -8 -15 -15 -48 -15 -73 0 -62 45 -116 97 -116 19 0 44
5 55 11 18 10 20 9 14 -7 -29 -74 -167 -634 -186 -756 -7 -41 -15 -80 -19 -84
-3 -5 -32 -21 -63 -36 l-58 -28 0 38 c0 31 6 42 36 66 65 52 78 123 32 173
l-21 22 32 36 c17 20 31 46 31 59 0 33 -37 75 -84 97 -47 21 -142 25 -181 7
-14 -6 -27 -9 -29 -7 -3 2 0 23 7 46 9 34 8 52 -7 100 -26 89 -28 84 44 99 82
17 202 76 225 110 9 14 19 41 22 59 5 29 0 39 -25 65 -17 16 -40 30 -51 30
-19 0 -19 2 -5 35 22 54 18 97 -15 142 -28 38 -82 73 -115 73 -9 0 -16 7 -16
15 0 9 -7 29 -15 45 -18 35 -53 40 -79 11 -11 -12 -36 -20 -69 -23 -29 -3 -59
-9 -69 -12 -14 -7 -16 -1 -11 52 5 51 2 66 -17 96 -45 73 -122 87 -175 32 -30
-32 -32 -33 -43 -15 -21 33 -78 25 -119 -16 -34 -34 -35 -37 -31 -100 2 -36 4
-65 3 -65 0 0 -22 11 -49 25 -69 35 -142 31 -168 -9 -14 -21 -8 -95 12 -146
25 -64 26 -63 -10 -45 -74 38 -195 -4 -173 -60 3 -10 32 -34 64 -55 52 -33 57
-39 43 -51 -43 -36 -36 -106 12 -128 36 -16 82 -14 182 8 48 11 115 23 149 27
59 6 61 6 65 -17 2 -15 15 -29 35 -39 41 -19 43 -48 6 -96 -19 -25 -28 -51
-31 -89 l-4 -53 -45 32 c-39 27 -53 31 -112 31 -57 0 -74 -4 -109 -27 -39 -26
-102 -38 -102 -20 0 16 -41 52 -65 58 -16 4 -33 -1 -50 -14 -29 -23 -50 -20
-189 24 -90 28 -121 26 -166 -13 -25 -21 -30 -32 -30 -69 0 -24 7 -62 16 -84
24 -59 6 -73 -94 -75 -102 -1 -162 -29 -198 -92 -37 -62 -43 -126 -15 -163
l21 -29 -26 -38 c-26 -38 -26 -71 -1 -102 17 -20 71 -41 106 -41 l30 0 -20
-34 c-15 -25 -17 -39 -10 -57 13 -33 76 -92 100 -94 22 -1 75 -71 61 -80 -4
-3 -70 34 -146 81 -114 72 -260 151 -306 166 -7 3 -1 25 15 59 14 30 29 70 32
90 16 87 -41 172 -114 172 -39 0 -40 1 -56 49 -32 97 -92 168 -144 168 -14 0
-48 -7 -75 -15 -27 -8 -76 -14 -108 -13 -53 3 -62 0 -79 -21 -12 -15 -17 -32
-13 -45 3 -12 8 -29 10 -38 4 -13 -5 -20 -35 -28 -75 -20 -91 -64 -45 -119
l26 -31 -50 0 c-61 0 -94 -23 -110 -78 -19 -62 -15 -107 11 -137 19 -23 33
-28 90 -32 l68 -6 -29 -17 c-35 -22 -52 -65 -52 -135 0 -58 10 -71 57 -81 l30
-6 -15 -42 c-13 -36 -13 -45 -1 -71 18 -37 102 -95 139 -95 54 0 108 64 141
168 l18 57 0 -56 c1 -41 6 -61 21 -77 26 -28 25 -32 -8 -32 -39 0 -69 -25 -77
-63 -4 -17 -15 -56 -26 -85 -23 -62 -25 -159 -5 -206 l14 -34 -66 -30 c-37
-16 -100 -41 -140 -56 -75 -29 -203 -107 -236 -144 -15 -18 -18 -31 -13 -73 9
-70 35 -113 72 -117 46 -4 181 66 340 177 144 101 231 151 262 151 10 0 45 8
78 19 71 23 196 45 244 42 18 0 49 3 67 8 38 10 40 7 19 -29 -19 -33 -19 -79
0 -135 15 -44 15 -46 -10 -88 -14 -24 -25 -55 -25 -68 0 -30 33 -84 59 -99 14
-7 21 -21 21 -39 0 -64 86 -117 148 -92 48 20 84 66 108 138 13 37 25 61 27
53 21 -68 50 -132 104 -230 96 -172 147 -283 186 -400 48 -143 104 -269 187
-421 38 -71 70 -130 70 -133 0 -2 -24 -19 -52 -36 -93 -57 -251 -173 -307
-225 -141 -132 -347 -386 -425 -526 -131 -231 -159 -365 -159 -754 -1 -272 10
-334 86 -490 42 -86 81 -144 174 -260 124 -156 175 -208 256 -263 54 -38 54
-18 1 -211 -38 -141 -40 -154 -19 -171 20 -16 44 -6 177 74 56 35 157 96 223
136 66 40 126 79 133 88 15 20 15 88 1 167 -6 33 -14 157 -18 275 l-6 215 -29
0 c-27 0 -29 -3 -63 -119 -18 -65 -40 -132 -47 -149 l-12 -31 -31 45 c-43 62
-162 268 -207 356 -85 170 -117 299 -118 473 -1 274 87 508 280 751 76 96 216
218 312 273 l43 24 51 -85 c100 -167 202 -232 377 -241 83 -4 107 -1 182 22
48 15 94 29 102 33 13 4 12 -1 -4 -28 -55 -95 -57 -265 -7 -546 36 -202 77
-342 116 -395 19 -26 20 -31 6 -85 -24 -99 -27 -138 -12 -159 10 -12 18 -16
24 -9 12 13 45 114 72 224 27 106 152 497 186 581 14 34 32 69 40 77 8 8 14
20 14 27 0 6 25 68 56 136 31 69 84 188 119 265 34 77 79 190 100 250 20 61
53 148 72 195 84 202 123 305 123 322 0 44 65 -3 141 -102 19 -25 30 -32 38
-25 8 8 1 31 -23 80 -36 75 -55 98 -99 114 l-28 11 20 26 c18 23 42 85 55 144
4 21 16 29 58 43 36 11 54 13 59 6 3 -6 9 -43 13 -83 11 -118 63 -405 76 -421
9 -11 9 -22 1 -47 -6 -18 -29 -105 -50 -193 -44 -178 -73 -263 -124 -375 -20
-41 -45 -115 -56 -163 -12 -50 -60 -178 -111 -297 -134 -312 -188 -451 -231
-595 -44 -146 -138 -424 -179 -530 -36 -94 -42 -128 -25 -151 13 -18 14 -18
34 0 11 10 30 47 41 82 12 35 25 64 30 64 5 0 14 -17 21 -37 6 -21 25 -61 41
-90 l29 -52 -38 -8 c-42 -8 -776 -11 -889 -3 l-71 5 -68 -65 c-102 -99 -253
-274 -259 -301 -8 -33 1 -44 59 -62 154 -49 362 -80 661 -97 104 -5 252 -15
329 -21 341 -27 763 20 1177 131 515 138 710 229 1333 624 49 31 125 96 198
168 65 65 123 118 128 118 5 0 51 -14 102 -30 107 -34 143 -37 168 -14 25 22
15 40 -81 140 -62 64 -89 104 -139 201 -35 67 -76 133 -92 149 l-29 27 -52
-25 c-32 -15 -142 -45 -273 -73 -293 -63 -293 -63 -300 -84 -15 -49 17 -60
180 -62 55 0 108 -4 118 -7 15 -7 16 -9 2 -28 -8 -12 -55 -49 -104 -83 -50
-34 -93 -66 -96 -72 -7 -11 -139 -79 -155 -79 -5 0 -10 6 -10 13 0 16 -149
273 -198 342 -20 28 -88 104 -152 170 -64 66 -159 170 -212 230 -52 61 -122
129 -155 153 l-60 43 -6 97 c-3 53 -13 118 -20 144 -17 54 -110 200 -159 250
-20 19 -38 48 -41 64 -3 16 -16 56 -30 89 -21 51 -26 82 -31 208 l-6 147 72
47 c111 71 187 131 202 161 13 24 27 31 128 55 190 45 466 74 603 62 129 -11
358 -52 440 -80 128 -43 278 -120 328 -168 160 -156 234 -594 153 -904 -29
-111 -87 -247 -117 -276 -23 -21 -23 -27 -5 -53 14 -18 28 -19 255 -19 227 0
241 1 260 20 11 12 29 65 46 137 42 187 56 282 62 449 10 261 -25 448 -121
644 -82 167 -174 267 -385 419 -192 138 -333 200 -559 245 -274 55 -778 53
-1058 -5 l-32 -6 -11 63 c-19 115 -50 400 -61 579 -6 96 -18 254 -26 350 -8
96 -18 237 -21 313 -5 117 -9 140 -24 150 -20 14 -23 -9 38 277 45 216 76 282
176 377 69 66 77 70 117 69 38 -1 46 4 76 39 18 22 36 54 40 70 l7 30 19 -45
c29 -68 44 -80 99 -80 99 0 209 65 209 124 0 15 6 22 22 23 13 1 41 9 63 17
22 8 74 17 115 20 110 9 164 31 268 107 78 57 109 73 180 94 225 65 514 172
542 201 13 13 21 41 25 89 7 69 7 71 -31 127 -63 92 -132 131 -165 92 -32 -38
-126 -74 -539 -202 -143 -45 -370 -129 -394 -147 -11 -8 -42 -29 -69 -46 -26
-17 -53 -39 -60 -49 -8 -11 -18 -16 -25 -11 -8 5 0 18 28 40 22 17 47 45 55
61 14 27 14 33 0 60 -18 35 -69 70 -103 70 -33 0 -91 -32 -151 -83 l-51 -44
-38 38 c-24 23 -52 40 -75 44 -80 15 -276 -52 -345 -118 -63 -60 -91 -148 -68
-213 7 -19 2 -22 -50 -32 -95 -20 -120 -16 -133 17 -11 26 -10 31 18 58 69 70
85 280 27 368 -14 21 -12 25 25 61 55 53 101 128 97 156 -6 42 -33 31 -79 -32
-44 -60 -59 -72 -59 -46 0 17 -23 27 -40 16 -9 -6 -11 -20 -6 -50 5 -32 3 -41
-6 -38 -7 3 -14 18 -16 34 -2 16 -19 92 -37 169 -40 163 -44 149 70 210 144
77 222 152 232 223 7 50 -22 190 -44 215 -12 13 -27 18 -50 15 -27 -3 -33 0
-33 15 0 72 -116 156 -180 130z m106 -77 c19 -19 34 -44 34 -56 0 -11 -18 -64
-40 -116 -26 -59 -45 -124 -52 -173 -10 -72 -13 -80 -36 -84 -23 -4 -24 -3
-18 32 4 20 9 73 13 119 5 71 4 82 -10 82 -17 0 -22 -16 -42 -155 l-11 -80
-22 66 c-13 36 -29 109 -37 163 -14 93 -14 99 5 136 41 80 61 54 36 -46 -16
-62 -14 -134 3 -134 12 0 41 150 41 207 0 59 13 72 69 73 25 0 42 -9 67 -34z
m-276 -114 c0 -20 16 -98 35 -172 20 -74 38 -146 42 -158 5 -21 2 -23 -18 -20
-20 2 -33 23 -77 123 -58 130 -59 132 -69 122 -9 -9 23 -109 54 -170 13 -27
22 -51 19 -54 -9 -9 -98 81 -143 144 -25 35 -58 72 -75 84 -24 18 -28 26 -23
48 7 27 32 61 45 61 5 0 10 -10 14 -22 9 -36 64 -118 80 -118 10 0 4 19 -21
66 -19 36 -33 67 -32 68 2 2 16 6 31 10 25 6 28 3 33 -28 4 -19 20 -49 35 -67
23 -27 31 -32 41 -21 10 9 10 12 0 12 -15 0 -41 60 -41 94 0 26 11 34 48 35
19 1 22 -4 22 -37z m429 -78 c20 -80 21 -87 5 -120 -18 -37 -80 -96 -128 -121
-22 -11 -34 -12 -52 -4 l-23 10 21 73 c30 108 77 216 101 233 43 30 53 21 76
-71z m-719 -44 c6 -11 18 -19 27 -18 11 2 38 -25 74 -72 31 -41 55 -76 54 -78
-5 -5 -138 48 -172 69 -25 16 -33 17 -33 7 0 -36 80 -82 210 -122 159 -49 131
-58 -44 -14 -100 24 -146 48 -183 93 -27 32 -61 111 -45 103 66 -34 63 -33 79
-13 7 11 11 30 8 43 -7 28 11 29 25 2z m482 -260 c-38 -24 -52 -25 -52 -6 0
15 19 23 60 25 24 1 23 0 -8 -19z m-374 -16 c41 -8 87 -14 103 -14 27 0 56
-30 42 -44 -10 -10 -188 -7 -243 5 -64 14 -68 36 -6 41 30 3 33 12 9 28 -16
10 -16 11 2 5 11 -4 53 -13 93 -21z m292 -4 c0 -5 -7 -10 -16 -10 -8 0 -12 5
-9 10 3 6 10 10 16 10 5 0 9 -4 9 -10z m-1650 -250 c31 -31 34 -64 12 -137
-11 -38 -25 -89 -32 -116 -16 -58 -35 -75 -23 -20 4 21 8 65 8 98 0 47 -3 60
-16 63 -23 4 -29 -25 -29 -138 0 -95 0 -95 -30 -112 -28 -16 -29 -16 -36 5 -3
12 -30 70 -60 129 -58 115 -66 156 -34 188 29 29 47 25 60 -14 23 -70 62 -70
73 0 11 69 65 96 107 54z m3841 -137 c30 -27 86 -111 78 -117 -2 -1 -58 -8
-124 -14 -93 -8 -144 -19 -225 -47 -164 -58 -220 -87 -281 -147 -74 -74 -106
-90 -176 -86 -33 2 -58 8 -60 15 -6 16 67 94 129 139 58 43 224 118 406 184
74 27 152 60 175 74 23 14 43 25 45 26 1 0 16 -12 33 -27z m-3571 -20 c0 -42
-136 -177 -206 -203 -33 -13 -25 -36 11 -32 67 8 158 70 211 146 20 27 22 28
57 17 41 -14 87 -63 87 -92 0 -30 -24 -70 -67 -111 -32 -31 -54 -41 -138 -63
-55 -14 -107 -32 -115 -40 -9 -8 -26 -11 -43 -8 -23 5 -28 10 -23 26 3 11 -2
34 -11 51 -15 29 -15 30 1 17 12 -10 20 -11 27 -4 8 8 -3 21 -35 44 -25 19
-45 37 -46 40 0 3 29 21 65 39 75 39 100 62 91 85 -5 13 -10 14 -28 4 -24 -12
-128 -97 -139 -113 -4 -5 -12 -5 -18 -2 -7 5 2 19 27 39 21 17 44 45 52 62 19
39 84 75 136 75 27 0 50 7 65 20 30 24 39 25 39 3z m1426 0 c30 -40 8 -45 -33
-8 l-28 24 24 1 c13 0 30 -8 37 -17z m-2095 -13 c20 -6 52 -26 72 -45 32 -31
97 -132 97 -150 0 -5 -27 17 -59 48 -57 54 -101 73 -101 43 0 -16 87 -99 156
-149 45 -33 50 -40 46 -67 -3 -23 -9 -29 -21 -26 -9 3 -34 8 -56 11 -60 10
-76 16 -70 25 3 5 -13 29 -37 54 -47 48 -106 157 -115 213 -9 51 15 63 88 43z
m1296 -26 c-3 -3 -12 -4 -19 -1 -8 3 -5 6 6 6 11 1 17 -2 13 -5z m897 -67 c44
-60 28 -233 -28 -302 -22 -27 -26 -29 -41 -14 -14 14 -14 31 -5 160 15 194 27
219 74 156z m-820 -46 c11 -12 14 -21 8 -21 -7 0 -12 5 -12 10 0 6 -3 9 -7 8
-5 -1 -21 10 -38 26 l-30 29 30 -16 c17 -8 39 -24 49 -36z m214 -55 c15 -8 45
-33 66 -55 34 -35 37 -42 26 -57 -24 -28 -58 -35 -89 -20 -36 19 -81 85 -81
119 0 22 4 27 25 27 15 0 38 -6 53 -14z m1541 5 c24 -16 -86 -134 -139 -150
-48 -14 -46 -15 -55 19 -5 22 1 31 36 60 99 81 125 92 158 71z m830 -5 c-10
-9 -129 -66 -129 -61 0 6 111 64 124 65 5 0 7 -2 5 -4z m-2650 -12 c20 -4 31
-12 31 -23 0 -10 8 -50 19 -89 l19 -72 -25 0 c-32 0 -80 25 -93 49 -11 21 -14
100 -4 125 7 18 9 18 53 10z m2131 -52 c-35 -36 -60 -70 -64 -90 -9 -39 10
-82 44 -99 30 -15 102 -17 150 -3 32 9 33 8 16 -5 -29 -22 -278 -21 -300 1
-18 17 -22 85 -7 113 24 44 95 101 149 120 31 10 60 20 64 20 3 1 -20 -25 -52
-57z m-3520 3 c41 -24 81 -48 89 -53 8 -4 -11 -7 -45 -7 -44 0 -59 -4 -59 -14
0 -23 26 -30 150 -38 66 -4 104 -9 85 -11 -19 -2 -84 -12 -144 -23 -130 -23
-127 -23 -151 -5 -18 13 -18 14 4 49 l22 37 -27 35 c-15 20 -35 40 -46 46 -28
15 -21 29 15 29 20 0 60 -17 107 -45z m1534 29 c11 -10 16 -34 16 -74 0 -53
-3 -61 -25 -76 -31 -20 -35 -17 -46 38 -14 74 -11 116 9 121 29 8 30 8 46 -9z
m1346 -3 c0 -17 -82 -100 -123 -124 -61 -36 -217 -98 -228 -92 -15 10 -10 58
10 92 24 38 87 76 179 109 66 23 162 32 162 15z m-2464 -54 c-29 -10 -35 -43
-13 -66 10 -11 7 -12 -18 -6 -16 3 -33 11 -36 17 -9 15 7 67 27 90 17 18 18
18 41 -4 l24 -23 -25 -8z m2528 -43 l15 -45 -44 -19 c-25 -11 -45 -24 -45 -30
0 -5 -12 -10 -27 -10 -46 -1 -111 -36 -133 -73 -16 -26 -30 -36 -71 -46 -45
-12 -53 -11 -67 3 -13 13 -14 20 -6 34 12 19 16 21 164 91 80 37 115 60 145
94 22 25 43 46 47 46 3 1 13 -19 22 -45z m-1976 4 c36 -30 -3 -75 -99 -115
-54 -22 -79 -27 -159 -27 -105 -1 -159 9 -143 25 8 8 31 8 75 1 84 -13 168 -2
168 22 0 11 -6 12 -27 4 -20 -7 -41 -7 -73 2 l-45 13 63 13 c74 16 123 37 148
65 14 15 25 18 48 13 17 -3 37 -11 44 -16z m653 -35 c13 -14 19 -23 13 -20
-23 13 -36 -21 -32 -88 3 -57 1 -65 -15 -65 -10 0 -31 -7 -47 -15 -53 -27 -62
-112 -21 -195 10 -19 24 -53 31 -75 15 -50 34 -65 82 -65 31 0 38 -4 38 -19 0
-11 2 -26 5 -33 4 -11 -15 -20 -77 -37 -77 -20 -84 -21 -93 -5 -5 9 -23 33
-39 53 -27 34 -28 40 -22 106 26 309 37 362 73 371 31 8 73 60 73 90 0 30 1
30 31 -3z m-258 -73 c23 -11 50 -20 61 -20 14 0 17 -5 12 -22 -3 -13 -14 -95
-23 -183 -9 -88 -17 -162 -19 -164 -2 -2 -17 8 -35 23 -50 43 -89 60 -103 46
-8 -9 -6 -15 9 -24 11 -6 43 -33 72 -61 51 -48 52 -51 47 -92 l-6 -42 -34 27
c-19 15 -48 46 -65 70 -35 49 -49 53 -49 13 0 -30 28 -72 69 -105 l23 -19 -58
-27 c-68 -31 -90 -52 -124 -123 -36 -73 -55 -75 -46 -6 14 103 109 513 172
738 l15 54 20 -32 c11 -18 38 -41 62 -51z m-1049 42 c3 -5 -8 -6 -25 -4 -16 2
-29 6 -29 8 0 8 49 4 54 -4z m1403 -5 c14 5 53 -96 60 -159 7 -62 25 -87 47
-69 9 7 16 25 16 40 0 34 51 122 90 155 33 27 89 36 91 14 3 -28 -4 -46 -47
-120 -24 -42 -44 -86 -44 -98 0 -15 -6 -20 -29 -20 -17 0 -42 -11 -59 -25 -29
-24 -29 -24 -47 -5 -10 11 -24 20 -32 20 -21 0 -15 -27 10 -45 16 -12 22 -25
22 -55 0 -35 -3 -40 -23 -40 -12 0 -39 -7 -59 -15 -52 -22 -100 -20 -113 6 -7
11 -10 23 -7 25 2 2 40 9 85 15 104 15 110 20 78 52 -20 20 -24 32 -20 55 5
22 -2 38 -30 75 -37 48 -55 104 -56 169 0 35 1 36 28 29 15 -4 32 -6 39 -4z
m1543 -40 c0 -26 5 -58 11 -69 7 -13 7 -24 1 -30 -6 -6 -12 -1 -16 16 -3 13
-20 35 -37 47 -31 22 -77 23 -149 4 -14 -4 11 9 54 29 44 19 84 40 89 45 5 5
18 9 28 8 16 -1 19 -10 19 -50z m-2825 3 c3 -5 -3 -10 -14 -10 -11 0 -23 5
-26 10 -3 6 3 10 14 10 11 0 23 -4 26 -10z m1715 -5 c17 -9 30 -22 30 -31 0
-8 7 -17 15 -20 21 -8 36 -39 29 -57 -9 -24 -169 -125 -181 -114 -2 3 5 22 16
43 11 20 18 41 15 46 -13 21 -34 3 -54 -48 -16 -39 -27 -53 -37 -50 -8 4 -21
6 -30 6 -12 0 -11 3 3 18 10 9 39 51 65 92 52 81 88 130 95 130 3 0 18 -7 34
-15z m-1636 -60 c11 -8 18 -16 15 -17 -2 -2 -19 -14 -38 -27 -27 -19 -37 -21
-57 -12 -32 14 -33 58 -1 64 43 8 62 6 81 -8z m2004 -119 c11 -7 -158 -176
-176 -176 -7 0 -12 12 -12 26 0 34 -67 102 -109 110 l-31 6 43 39 c39 35 47
38 102 39 35 0 77 8 100 18 l40 18 16 -37 c9 -20 21 -39 27 -43z m332 54 c10
-18 0 -93 -14 -107 -3 -3 -16 2 -30 10 -23 16 -49 89 -39 110 2 4 20 7 38 7
24 0 38 -6 45 -20z m-2185 -20 c12 -14 20 -41 23 -80 4 -51 1 -66 -23 -107
-16 -26 -41 -63 -57 -81 -15 -18 -28 -41 -28 -52 0 -21 -15 -34 -30 -25 -5 3
4 24 21 48 18 25 29 51 27 66 -5 43 -22 32 -53 -34 -20 -44 -34 -64 -43 -60
-8 3 -31 5 -52 5 -57 0 -81 46 -88 165 -4 79 -2 93 15 114 20 24 29 24 66 -1
16 -11 21 -9 40 13 32 38 56 48 113 49 39 0 55 -5 69 -20z m2513 -17 c3 -31 1
-33 -53 -49 -63 -18 -71 -15 -84 34 -10 34 -17 30 79 46 46 7 55 2 58 -31z
m-1552 9 c5 -4 27 -37 47 -74 l37 -68 -71 0 -70 0 -15 35 c-18 45 -18 74 3 97
16 18 50 24 69 10z m1054 -63 c0 -6 7 -26 16 -44 l15 -33 -84 -83 c-125 -125
-152 -188 -207 -500 -54 -304 -75 -343 -272 -505 -73 -60 -149 -121 -169 -136
l-37 -27 -30 62 c-17 34 -30 62 -29 62 1 1 34 14 72 30 94 39 162 104 213 203
69 134 93 231 111 442 11 129 26 179 73 248 40 58 199 225 252 263 40 30 76
38 76 18z m-3033 -28 c32 -11 85 -27 118 -35 54 -14 62 -14 84 1 22 14 25 14
37 -1 10 -15 9 -23 -6 -49 -27 -47 -34 -101 -20 -154 15 -51 66 -109 105 -119
l25 -6 -25 -30 c-14 -16 -25 -36 -25 -44 0 -27 45 -61 96 -73 47 -11 50 -14
46 -40 -3 -24 -10 -30 -38 -34 -19 -3 -46 -15 -61 -27 l-26 -20 -19 20 c-10
11 -26 20 -36 20 -40 1 -44 15 -18 55 75 110 22 187 -90 132 l-53 -26 -6 42
c-4 26 0 61 9 92 18 58 21 111 5 120 -16 10 -18 4 -33 -79 -7 -42 -15 -79 -18
-81 -3 -3 -18 0 -34 5 -27 9 -32 18 -42 70 -7 33 -17 62 -23 66 -23 14 -26
-14 -9 -70 10 -32 15 -55 11 -50 -20 22 -121 253 -121 277 0 56 68 71 167 38z
m2263 -18 c0 -10 -11 -23 -25 -30 -33 -15 -35 9 -3 31 28 20 28 20 28 -1z
m150 7 c0 -3 -4 -10 -8 -17 -6 -9 -11 -8 -19 5 -9 15 -7 18 8 18 11 0 19 -3
19 -6z m170 -27 c64 -44 66 -78 8 -93 -24 -6 -75 -20 -114 -31 -84 -23 -85
-23 -78 -4 3 8 21 19 39 25 39 13 67 40 42 40 -9 0 -27 -4 -40 -9 -21 -8 -26
-6 -31 12 -10 37 -8 53 6 39 9 -9 17 -5 34 13 28 30 96 34 134 8z m-2029 -4
c37 -13 103 -75 119 -111 5 -13 17 -33 25 -44 15 -20 14 -22 -10 -38 -25 -16
-27 -16 -63 14 -21 17 -62 39 -90 50 -52 20 -112 27 -112 13 1 -5 40 -27 88
-51 48 -23 98 -51 112 -62 l25 -19 -35 8 c-76 18 -158 42 -227 65 -68 23 -73
24 -73 7 0 -10 6 -24 14 -30 18 -15 145 -47 247 -62 72 -10 88 -16 112 -42
l28 -30 -24 -36 c-13 -20 -49 -62 -79 -94 -69 -73 -53 -88 27 -27 48 37 115
119 115 142 0 4 6 8 14 8 8 0 23 -28 36 -70 l23 -71 -29 -30 c-51 -54 -99 -72
-170 -66 -33 3 -80 13 -103 23 -40 16 -42 18 -39 55 2 48 -9 60 -73 79 -28 8
-51 20 -51 25 -1 25 53 48 135 56 91 9 137 22 137 39 0 18 -22 21 -146 23
-146 3 -191 21 -218 88 -17 42 -14 99 5 99 5 0 14 11 19 25 7 18 17 25 37 25
16 0 60 11 98 25 81 29 81 29 126 14z m1772 -84 c-3 -9 -8 -14 -10 -11 -3 3
-2 9 2 15 9 16 15 13 8 -4z m-1068 -6 c53 -13 84 -43 69 -66 -17 -28 -114 -54
-224 -62 -58 -4 -116 -13 -128 -20 -24 -13 -43 -7 -26 8 5 5 54 16 109 26 95
16 126 27 113 40 -3 3 -43 1 -89 -4 -45 -6 -84 -9 -86 -7 -11 11 169 95 205
96 7 0 33 -5 57 -11z m954 -48 c10 -10 27 -24 37 -30 14 -8 15 -11 4 -11 -8 0
-52 -9 -97 -19 l-83 -19 0 24 c0 25 31 51 68 57 12 2 25 6 28 10 12 11 23 8
43 -12z m-3126 -29 c19 -21 72 -136 81 -174 4 -16 2 -28 -3 -28 -6 0 -42 32
-80 70 -65 66 -91 83 -91 60 0 -5 16 -28 37 -50 27 -31 33 -44 25 -52 -16 -16
-15 -91 2 -155 l14 -52 -29 6 c-19 3 -29 1 -29 -6 0 -6 -11 -16 -25 -21 -21
-8 -38 -3 -90 22 -50 25 -68 29 -77 20 -9 -9 -7 -16 7 -32 10 -11 24 -20 31
-20 7 0 16 -4 19 -10 4 -6 -41 -10 -129 -10 -158 0 -165 4 -143 81 15 53 44
70 102 62 73 -10 99 42 45 90 -34 31 -39 53 -12 60 73 20 73 20 123 -32 26
-28 65 -75 85 -105 35 -54 80 -93 92 -82 9 10 -50 115 -90 161 -21 24 -38 47
-38 51 0 4 -23 29 -51 55 -67 61 -65 85 6 81 28 -1 70 4 95 12 63 20 104 19
123 -2z m3555 11 c-1 -5 -18 -37 -35 -73 -18 -36 -39 -93 -45 -127 l-13 -61
-23 18 c-21 17 -22 23 -13 57 17 59 13 80 -19 117 l-31 34 83 20 c97 24 101
24 96 15z m-2796 -74 c63 -35 77 -62 38 -74 -14 -4 -36 4 -67 24 -54 36 -114
57 -137 48 -28 -11 -17 -26 42 -56 85 -43 152 -106 152 -142 0 -37 -10 -37
-93 1 -75 34 -141 40 -135 14 2 -11 31 -24 88 -41 46 -13 86 -26 88 -28 8 -7
-91 -58 -140 -71 -42 -11 -63 -12 -100 -3 -54 12 -62 33 -27 65 41 37 43 52
10 90 -37 41 -38 54 -10 111 20 42 50 65 109 84 43 14 135 3 182 -22z m1984
-36 c-3 -20 -33 -30 -48 -15 -5 5 -6 26 -2 48 l7 38 23 -27 c12 -14 21 -34 20
-44z m453 6 c-10 -20 -9 -47 5 -79 5 -12 -4 -15 -52 -16 -58 0 -59 0 -80 40
-12 21 -21 40 -20 42 4 3 131 32 146 33 10 1 10 -4 1 -20z m160 5 c20 -15 22
-22 16 -58 -14 -81 -12 -99 14 -112 57 -29 41 -66 -58 -133 -31 -21 -62 -46
-69 -54 -11 -12 -17 -10 -46 19 -19 19 -41 34 -49 34 -11 0 -18 14 -22 45 -4
24 -13 50 -21 56 -28 23 -10 49 35 49 25 0 55 -37 81 -97 24 -56 42 -70 60
-48 16 20 7 63 -34 166 -19 46 -31 89 -28 97 4 12 74 51 92 52 3 0 16 -7 29
-16z m-1140 -20 c37 -47 24 -102 -28 -124 -42 -17 -72 -7 -176 58 l-90 57 95
7 c52 4 109 11 125 17 46 14 52 13 74 -15z m804 -61 c13 -27 29 -73 36 -103
18 -72 38 -110 59 -111 12 0 9 -3 -8 -10 -22 -9 -28 -6 -51 20 -14 17 -31 31
-37 31 -16 0 -15 -10 3 -30 13 -15 12 -19 -14 -38 l-29 -21 -23 25 c-26 27
-39 31 -39 10 0 -8 14 -24 31 -36 24 -18 30 -28 27 -54 -3 -29 -7 -32 -68 -48
-38 -10 -106 -17 -162 -17 -107 -1 -112 2 -88 63 l9 25 44 -19 c47 -21 178
-32 183 -15 2 6 -24 18 -59 28 -95 28 -156 57 -162 78 -8 24 0 36 37 55 29 15
31 15 62 -14 43 -41 146 -104 146 -90 0 6 -34 46 -75 88 -115 119 -121 158
-27 186 70 21 153 42 169 43 7 1 23 -20 36 -46z m-1128 8 c36 -34 217 -131
246 -131 16 0 18 -5 13 -27 -15 -68 -12 -65 -64 -58 -49 7 -49 7 -64 -29 -10
-23 -22 -36 -34 -36 -40 0 -113 33 -138 63 -29 34 -78 133 -90 181 l-7 30 44
-36 c51 -41 168 -118 181 -118 27 0 -3 38 -77 97 -75 60 -83 69 -68 81 23 16
23 16 58 -17z m745 15 c0 -8 -21 -28 -47 -44 -27 -17 -64 -47 -82 -66 -21 -21
-45 -36 -59 -36 -23 0 -23 0 10 46 18 25 42 51 53 57 15 9 106 50 123 56 1 1
2 -5 2 -13z m-2444 -64 c37 -24 44 -104 15 -167 -23 -52 -47 -75 -75 -75 -22
0 -23 2 -18 80 4 68 2 80 -11 80 -11 0 -19 -17 -27 -55 -9 -42 -16 -55 -30
-55 -24 0 -31 20 -37 113 -7 87 3 94 46 36 25 -34 40 -29 67 23 14 28 45 37
70 20z m2520 -37 c8 -36 7 -45 -4 -50 -33 -12 -41 -6 -36 33 11 77 24 83 40
17z m-1796 16 c0 -24 -40 -55 -54 -41 -12 12 19 60 39 60 8 0 15 -9 15 -19z
m210 -20 c0 -31 -39 -71 -69 -71 -54 0 -111 -69 -111 -134 0 -23 -16 -36 -45
-36 -10 0 -9 15 4 73 13 62 22 80 56 113 60 58 165 94 165 55z m1504 -28 c-20
-176 -26 -240 -29 -315 -5 -138 -6 -141 -85 -182 l-69 -36 -68 18 c-66 18 -68
20 -71 53 -2 19 -1 77 3 129 l7 95 91 88 c85 81 95 87 127 83 19 -2 45 -7 58
-11 34 -11 28 22 -8 43 -16 9 -30 19 -30 22 0 6 62 50 71 50 4 0 5 -17 3 -37z
m-1827 -57 c-6 -8 -15 -12 -19 -9 -4 2 -2 10 5 17 6 8 15 12 19 9 4 -2 2 -10
-5 -17z m1573 -45 c-26 -22 -36 -26 -38 -15 -5 23 17 44 46 44 26 0 26 0 -8
-29z m-493 -94 c38 -15 73 -20 125 -18 20 1 32 9 43 31 9 18 23 30 35 30 25 0
25 -5 2 -38 -10 -15 -40 -66 -65 -114 -43 -81 -58 -128 -39 -128 4 0 37 47 75
104 37 56 82 118 100 136 33 34 114 90 130 90 23 0 -6 -93 -43 -143 -22 -28
-59 -92 -84 -142 l-45 -90 -115 -3 c-110 -3 -118 -2 -153 22 -41 28 -67 21
-46 -13 13 -21 8 -31 -18 -31 -9 0 -20 10 -24 23 -9 31 -19 362 -11 383 6 15
14 9 51 -33 25 -28 62 -57 82 -66z m1570 40 c-4 -41 -10 -83 -14 -95 -8 -20
-10 -19 -49 17 -39 37 -40 39 -21 51 12 7 16 15 9 19 -6 3 7 19 29 35 21 17
39 33 39 38 0 4 3 8 6 8 4 0 4 -33 1 -73z m-2704 -24 c-32 -91 -24 -131 13
-63 19 35 24 39 19 17 -9 -46 -46 -136 -58 -144 -6 -3 -16 2 -21 12 -21 37
-55 65 -79 65 -26 0 -61 32 -55 50 3 10 199 139 205 136 1 -1 -10 -34 -24 -73z
m-683 27 c0 -13 -7 -20 -20 -20 -13 0 -20 -7 -20 -18 0 -11 9 -29 20 -42 24
-27 25 -40 6 -84 -32 -77 -60 -37 -47 69 5 47 14 72 31 90 28 30 30 30 30 5z
m1063 -47 c-3 -38 -7 -69 -8 -70 -6 -9 -85 72 -85 87 0 24 37 50 72 50 l27 0
-6 -67z m237 42 c41 -21 39 -53 -12 -175 -31 -74 -47 -100 -60 -100 -23 0 -22
10 2 88 21 67 26 147 11 157 -16 9 -30 -28 -52 -137 -12 -57 -26 -106 -33
-110 -6 -4 -22 -8 -35 -8 -23 0 -23 2 -17 46 3 26 6 85 6 132 0 84 0 85 20 67
19 -17 21 -17 60 19 44 40 66 44 110 21z m1810 -10 c40 -21 47 -51 19 -81 -18
-19 -32 -24 -75 -24 -66 0 -107 17 -101 41 3 10 0 20 -7 22 -24 9 20 36 69 42
27 4 52 8 54 11 6 6 9 5 41 -11z m-1481 -77 c0 -76 -2 -80 -12 -51 -17 47 -42
67 -80 66 -23 -1 -37 5 -45 18 -11 17 -9 19 20 20 18 0 49 6 68 13 19 8 38 14
43 15 4 0 7 -36 6 -81z m-1829 62 c0 -5 -10 -10 -22 -9 -22 0 -22 1 -3 9 11 5
21 9 23 9 1 1 2 -3 2 -9z m1617 2 c9 -6 7 -11 -7 -20 -17 -11 -20 -10 -20 8 0
21 7 25 27 12z m1776 -42 c3 -11 1 -20 -4 -20 -5 0 -9 9 -9 20 0 11 2 20 4 20
2 0 6 -9 9 -20z m-3090 -14 c28 -1 35 -7 54 -46 51 -102 38 -210 -25 -210 -34
0 -52 14 -80 61 -38 64 -24 66 33 5 30 -33 58 -57 62 -53 4 4 -16 40 -43 80
-42 60 -52 82 -57 130 -5 51 -4 57 9 46 9 -7 30 -13 47 -13z m-293 -1 c0 -11
-11 -15 -39 -15 -49 0 -71 -8 -71 -26 0 -23 23 -26 63 -9 21 9 37 11 37 5 0
-5 -11 -12 -25 -16 -14 -3 -53 -24 -87 -46 -35 -22 -80 -43 -100 -46 l-38 -5
0 44 c0 63 19 84 92 103 108 27 168 31 168 11z m1235 -111 c8 -13 18 -40 23
-61 9 -37 8 -38 -30 -56 l-38 -19 -50 45 c-28 25 -66 51 -85 57 -29 10 -35 16
-35 41 0 22 7 32 30 44 16 8 37 26 46 40 l16 24 54 -46 c30 -26 61 -57 69 -69z
m477 76 c41 0 48 -11 48 -75 0 -59 -17 -92 -53 -105 -37 -12 -87 -13 -87 -1 0
5 24 31 54 58 58 53 82 88 66 98 -20 13 -49 -7 -110 -75 -59 -67 -64 -70 -106
-70 -26 0 -44 5 -44 11 0 23 71 128 111 164 l41 37 22 -21 c14 -13 36 -21 58
-21z m1784 -4 c40 -40 41 -55 12 -116 l-21 -45 -8 46 c-8 51 -29 99 -53 118
-23 20 -19 31 10 31 16 0 39 -13 60 -34z m-2561 -131 c-38 -38 -65 -40 -41 -2
8 12 23 45 34 72 36 94 36 95 40 28 3 -60 2 -64 -33 -98z m-868 113 c-3 -7 -5
-2 -5 12 0 14 2 19 5 13 2 -7 2 -19 0 -25z m3314 10 c37 -43 59 -101 59 -160
0 -56 -1 -58 -40 -84 -22 -15 -42 -25 -45 -22 -2 2 0 22 6 43 12 41 7 197 -6
228 -10 24 3 21 26 -5z m-244 -7 l24 -20 -32 -16 c-36 -19 -210 -65 -245 -65
-26 0 -34 -27 -10 -36 8 -3 66 12 130 33 64 21 116 38 116 36 0 -2 -32 -24
-70 -49 -86 -58 -149 -69 -192 -34 -31 24 -39 70 -12 70 29 0 233 72 245 86
15 18 16 18 46 -5z m-2595 -58 c64 -38 131 -76 149 -86 17 -10 30 -20 27 -22
-3 -4 -208 -54 -296 -73 l-24 -5 17 34 c14 26 16 48 12 104 -4 38 -9 80 -13
93 -3 12 -2 22 2 22 5 0 62 -30 126 -67z m-522 42 c0 -8 -4 -15 -10 -15 -5 0
-10 7 -10 15 0 8 5 15 10 15 6 0 10 -7 10 -15z m3304 -26 c8 -40 8 -143 -1
-192 -6 -39 -11 -43 -72 -62 -23 -7 -23 -6 -17 30 4 21 7 84 7 141 l-1 103 28
4 c15 2 32 5 38 6 6 0 14 -13 18 -30z m-931 -71 c-5 -72 -9 -88 -22 -88 -29 0
-61 12 -61 22 0 13 81 161 85 156 2 -2 1 -42 -2 -90z m470 85 c-7 -2 -19 -2
-25 0 -7 3 -2 5 12 5 14 0 19 -2 13 -5z m349 -39 c10 -59 9 -174 -3 -216 -5
-21 -11 -38 -12 -38 -2 0 -20 9 -42 20 -44 22 -111 26 -150 8 -22 -10 -28 -9
-36 3 -16 25 -5 60 25 77 38 22 142 131 139 146 -3 12 46 45 62 42 5 -2 13
-20 17 -42z m-3277 -80 c-66 -107 -73 -124 -55 -124 8 0 114 135 147 186 6 11
-2 -19 -18 -66 -54 -152 -84 -183 -147 -151 -70 36 -76 62 -29 132 22 32 140
129 158 129 5 0 -20 -48 -56 -106z m2850 48 c-2 -20 -8 -37 -14 -37 -6 0 -11
3 -11 8 0 4 0 23 0 42 0 25 4 33 13 29 9 -3 13 -18 12 -42z m-956 -104 c1 -23
-4 -28 -35 -34 -26 -5 -40 -2 -51 8 -13 14 -12 16 10 22 24 6 55 61 58 104 2
22 17 -64 18 -100z m-1729 82 c0 -11 -4 -20 -10 -20 -5 0 -10 9 -10 20 0 11 5
20 10 20 6 0 10 -9 10 -20z m90 -42 c0 -43 -30 -89 -55 -86 -24 4 -32 39 -13
59 7 8 13 20 14 27 2 27 5 30 29 30 21 0 25 -5 25 -30z m3637 -166 c1 -97 9
-276 17 -397 37 -507 47 -608 91 -889 28 -181 32 -284 11 -324 -19 -36 -189
-172 -201 -160 -2 2 7 41 21 86 35 124 59 360 47 464 -9 77 -9 85 10 105 24
27 21 54 -24 178 -22 62 -43 100 -65 121 -17 17 -44 54 -58 83 -42 82 -235
370 -256 381 -56 30 -37 -14 84 -198 116 -176 165 -270 144 -277 -117 -42
-121 -43 -136 -10 -6 14 -29 44 -50 67 -49 54 -68 131 -80 318 -5 74 -11 142
-15 150 -5 10 1 19 20 27 16 7 96 71 180 143 112 97 163 148 196 198 25 37 48
77 51 90 4 12 8 22 9 22 1 0 3 -80 4 -178z m-943 111 c32 -5 36 -9 36 -35 0
-16 5 -39 11 -50 9 -18 6 -26 -23 -55 l-35 -34 -74 59 c-99 78 -103 84 -74 98
21 10 27 6 80 -63 85 -110 104 -73 25 50 -41 64 -43 93 -5 57 12 -11 39 -23
59 -27z m-1801 -32 l51 -49 -34 -9 c-34 -9 -36 -8 -61 33 -15 23 -32 45 -38
48 -18 12 -12 26 10 26 11 0 44 -22 72 -49z m-797 -22 c-6 -4 -28 -10 -49 -13
l-38 -7 16 30 15 30 34 -17 c20 -10 29 -20 22 -23z m593 12 c48 -25 101 -85
101 -114 0 -29 -42 -116 -70 -146 -24 -24 -78 -51 -105 -51 -10 0 7 29 50 87
36 47 65 92 65 98 0 7 -11 20 -24 29 -28 18 -47 16 -180 -21 -113 -31 -201
-74 -264 -129 l-51 -45 -11 39 c-5 22 -21 56 -35 76 l-25 37 28 10 c15 6 88
28 162 50 74 22 169 53 210 68 92 35 101 36 149 12z m721 -8 c32 -11 151 -83
285 -172 126 -85 252 -164 280 -177 94 -43 249 -56 361 -29 65 15 260 90 281
107 22 18 58 0 90 -44 61 -86 61 -82 -15 -118 -167 -80 -265 -94 -472 -65
-156 22 -197 34 -405 124 -138 59 -210 97 -265 137 -41 31 -92 65 -114 76 -64
33 -161 49 -253 42 -67 -6 -83 -4 -83 7 0 8 -11 40 -24 71 -21 51 -22 58 -7
62 9 3 77 4 151 2 100 -3 149 -8 190 -23z m789 11 c2 -2 0 -21 -5 -41 -8 -32
-15 -38 -66 -56 -32 -12 -60 -18 -64 -15 -3 4 2 34 12 68 l17 62 51 -7 c28 -3
53 -8 55 -11z m-173 -10 c-3 -9 -6 -21 -6 -27 0 -7 -4 -18 -9 -26 -7 -11 -18
-6 -55 21 -25 20 -43 38 -39 42 3 3 31 6 61 6 45 0 53 -3 48 -16z m-104 -46
c43 -28 76 -53 74 -56 -3 -2 -41 10 -86 27 -88 33 -120 38 -120 19 0 -27 18
-37 100 -58 47 -12 86 -23 88 -25 2 -1 -13 -12 -33 -24 l-37 -21 -84 51 c-81
49 -104 71 -104 103 0 12 42 25 114 35 5 0 44 -22 88 -51z m363 32 c2 -4 -7
-12 -20 -18 -26 -12 -41 -2 -31 23 5 13 42 10 51 -5z m191 -11 c19 -22 19 -22
-3 -10 -24 12 -39 31 -25 31 5 0 17 -10 28 -21z m-81 -59 c19 -37 60 -76 97
-91 35 -14 35 -23 2 -38 -23 -10 -30 -8 -65 20 -21 17 -56 51 -76 76 -30 36
-34 46 -22 54 26 16 48 9 64 -21z m-96 -73 c31 -29 67 -60 81 -69 30 -19 27
-24 -22 -33 -36 -7 -40 -5 -109 61 l-71 69 29 12 c15 7 30 12 32 13 2 0 29
-24 60 -53z m-1303 -3 c6 -30 -14 -64 -37 -64 -13 0 -49 38 -49 53 0 15 62 57
72 48 4 -4 10 -20 14 -37z m1959 -8 c32 -25 65 -72 65 -94 0 -4 -26 -16 -57
-26 -32 -10 -71 -25 -88 -34 -27 -13 -30 -13 -40 3 -5 9 -24 36 -41 59 -51 68
-51 80 -2 105 56 28 115 24 163 -13z m-775 -46 l60 -60 -47 0 c-43 0 -50 4
-90 47 -41 44 -43 48 -27 60 29 21 41 16 104 -47z m-2130 28 c71 -49 96 -121
66 -191 -40 -96 -223 -82 -257 20 -12 38 -7 149 8 164 7 7 90 25 134 28 9 0
31 -9 49 -21z m1940 -33 c0 -9 -6 -12 -16 -8 -13 5 -13 7 -2 14 17 11 18 11
18 -6z m-900 -70 c-20 -60 -56 -95 -99 -95 -34 0 -81 22 -81 38 0 4 19 6 43 4
51 -4 90 23 122 83 23 43 33 24 15 -30z m292 12 c40 -20 84 -46 97 -57 23 -20
23 -21 5 -35 -49 -36 -289 -92 -346 -81 -58 11 -62 19 -34 61 14 20 31 64 38
97 l12 60 78 -4 c64 -4 90 -11 150 -41z m668 27 c0 -2 -7 -4 -15 -4 -8 0 -15
4 -15 10 0 5 7 7 15 4 8 -4 15 -8 15 -10z m-1203 -36 c18 -18 33 -41 33 -52 0
-18 -1 -18 -19 -2 -10 9 -35 20 -55 23 -20 3 -36 8 -36 10 0 6 34 52 40 53 2
0 19 -14 37 -32z m-39 -84 c33 -9 27 -24 -11 -24 -37 0 -74 -29 -81 -63 -3
-12 -8 -47 -13 -77 -11 -73 -36 -80 -52 -16 -15 61 -14 95 4 112 27 28 18 37
-32 29 -61 -9 -53 -1 23 24 60 20 121 26 162 15z m169 -75 c58 -2 66 -4 70
-16 3 -8 -5 -13 -21 -13 -13 0 -35 -4 -48 -9 -17 -6 -43 -3 -91 14 -59 20 -65
23 -42 29 14 4 30 17 36 30 l11 23 28 -29 c17 -16 40 -28 57 -29z m2109 30
c19 -21 18 -21 -5 -40 -16 -13 -39 -19 -75 -19 -90 0 -117 47 -39 68 63 17 98
14 119 -9z m-1511 1 c-3 -5 -11 -10 -16 -10 -6 0 -7 5 -4 10 3 6 11 10 16 10
6 0 7 -4 4 -10z m-985 -78 c0 -15 4 -43 10 -61 5 -19 8 -36 6 -38 -1 -2 -25 4
-52 12 -62 19 -74 19 -74 0 0 -19 26 -32 89 -46 65 -14 70 -40 12 -57 -76 -23
-88 -18 -105 42 -34 118 -8 175 82 176 28 0 32 -3 32 -28z m1150 7 c12 -6 12
-9 -5 -15 -11 -4 -35 -13 -53 -20 -19 -8 -32 -10 -30 -6 33 67 37 69 88 41z
m-1868 -30 c-4 -3 -73 -50 -154 -103 -151 -100 -295 -173 -312 -156 -5 5 -9
26 -10 47 -1 37 0 39 69 75 39 20 122 55 185 78 63 22 133 51 154 64 32 19 43
22 58 13 9 -6 14 -14 10 -18z m2985 -9 c26 0 73 -27 73 -41 0 -5 -16 -9 -35
-9 -37 0 -85 35 -85 62 0 9 3 9 12 0 7 -7 23 -12 35 -12z m-111 -35 l11 -35
-36 0 c-86 0 -232 -30 -290 -59 -97 -49 -253 -141 -294 -174 -31 -24 -41 -27
-47 -16 -14 22 -32 142 -28 190 3 40 5 44 28 41 14 -1 95 -5 180 -8 172 -7
229 3 375 64 39 17 75 30 80 31 6 1 15 -15 21 -34z m377 -133 c-11 -8 -38 -12
-67 -10 -47 3 -50 5 -59 37 -5 19 -6 49 -3 67 6 28 11 33 49 38 23 4 53 13 67
21 l25 13 3 -76 c2 -64 0 -79 -15 -90z m-2225 121 c33 -15 70 -45 100 -80 67
-79 117 -105 196 -105 74 0 132 17 281 85 123 55 313 126 363 134 53 9 36 -12
-42 -50 -251 -122 -489 -208 -622 -223 -54 -7 -56 -6 -97 33 -23 22 -90 77
-149 123 -60 45 -108 88 -108 96 0 7 -6 15 -12 18 -7 3 -2 3 12 0 14 -3 49
-17 78 -31z m1118 -116 c1 -53 9 -118 19 -153 l17 -60 -35 -65 c-20 -35 -50
-111 -67 -169 -28 -90 -33 -125 -37 -242 l-5 -136 -57 -25 c-31 -13 -64 -27
-75 -31 -14 -5 -17 -13 -13 -34 5 -26 89 -241 106 -272 14 -25 38 -23 106 9
66 31 95 38 95 22 0 -20 92 -110 179 -174 111 -82 186 -118 296 -142 64 -14
88 -25 120 -53 22 -20 41 -39 43 -43 2 -4 -35 -19 -82 -33 -47 -15 -161 -64
-253 -110 -92 -46 -184 -88 -204 -94 -36 -9 -37 -9 -43 18 -3 16 -14 37 -25
47 -10 10 -37 52 -58 93 -37 72 -101 170 -245 380 -134 194 -219 347 -313 565
-50 116 -143 286 -232 423 -34 53 -48 84 -40 86 6 2 49 13 94 25 89 22 203 64
348 128 50 22 128 53 175 68 47 15 103 36 125 46 22 10 45 18 50 18 6 1 10
-37 11 -92z m814 38 c14 -8 21 -14 15 -14 -5 0 -21 6 -35 14 -14 8 -20 14 -15
14 6 0 21 -6 35 -14z m-70 -5 c0 -5 -6 -10 -14 -10 -8 0 -18 5 -21 10 -3 6 3
10 14 10 12 0 21 -4 21 -10z m170 0 c0 -5 -4 -10 -10 -10 -5 0 -10 5 -10 10 0
6 5 10 10 10 6 0 10 -4 10 -10z m-2085 -20 c3 -5 2 -10 -4 -10 -5 0 -13 5 -16
10 -3 6 -2 10 4 10 5 0 13 -4 16 -10z m-237 -66 c-9 -20 -9 -30 1 -46 15 -25
2 -43 -43 -58 -57 -18 -126 20 -126 70 0 30 24 58 35 40 9 -14 54 -12 90 5 48
21 57 19 43 -11z m2407 -169 c4 -75 6 -138 4 -139 -2 -2 -31 21 -63 51 -55 51
-58 57 -46 77 32 51 39 72 32 101 -5 17 -4 38 2 51 10 20 13 21 37 8 27 -13
27 -15 34 -149z m174 -12 c13 -93 27 -183 31 -202 6 -23 6 -39 -2 -48 -11 -14
-95 -18 -114 -5 -7 4 -14 63 -17 147 -4 77 -10 165 -13 195 l-6 56 38 11 c22
6 44 11 50 12 7 1 19 -63 33 -166z m-499 107 c0 -5 -2 -10 -4 -10 -3 0 -8 5
-11 10 -3 6 -1 10 4 10 6 0 11 -4 11 -10z m197 -16 c3 -8 -1 -23 -10 -32 -15
-14 -17 -14 -25 9 -6 13 -8 27 -5 32 8 13 33 7 40 -9z m-2217 -25 c-12 -42
-35 -75 -65 -95 -34 -22 -89 -8 -93 24 -3 16 1 20 12 16 25 -10 81 14 116 51
19 19 35 35 36 35 2 0 -1 -14 -6 -31z m2116 -34 c11 -35 11 -35 -34 -60 -43
-24 -46 -25 -64 -8 -44 39 -42 50 15 77 28 13 57 25 62 25 6 1 15 -15 21 -34z
m497 -42 c7 -9 5 -13 -7 -13 -11 0 -16 8 -15 28 0 15 3 21 6 12 3 -8 10 -21
16 -27z m-658 -71 c-17 -4 -98 23 -102 35 -2 6 8 15 23 20 22 7 31 4 58 -22
17 -16 27 -31 21 -33z m876 31 c10 -27 39 -155 39 -174 0 -5 -7 -9 -15 -9 -8
0 -48 -13 -90 -30 -42 -16 -77 -30 -79 -30 -2 0 -2 9 1 19 8 30 -17 93 -48
122 -15 14 -29 36 -31 49 -3 23 3 26 92 51 121 34 119 34 131 2z m-2239 -153
c98 -175 127 -233 194 -388 78 -181 173 -356 271 -507 77 -117 81 -126 43 -90
-23 22 -64 72 -90 111 -52 76 -453 862 -488 957 -41 109 -27 92 70 -83z m1596
120 c11 -18 8 -26 -19 -60 -18 -22 -35 -40 -38 -40 -3 1 -18 17 -33 37 l-27
35 42 23 c54 29 60 29 75 5z m-375 -14 c29 -29 84 -46 149 -46 45 0 47 -1 86
-59 l41 -59 -77 -32 c-109 -46 -333 -130 -347 -130 -13 0 -75 123 -75 151 0
47 58 129 119 170 54 35 73 36 104 5z m469 -81 c9 -21 8 -28 -7 -45 -24 -26
-50 -33 -74 -20 -19 10 -19 12 17 50 20 22 40 39 45 40 4 0 13 -11 19 -25z
m87 -121 c11 -14 26 -24 33 -23 7 2 36 -1 64 -5 38 -5 61 -3 88 8 34 14 37 14
43 -1 4 -10 -2 -23 -18 -36 -21 -17 -35 -19 -100 -14 -90 6 -169 36 -169 65 0
40 30 43 59 6z m-205 -19 c27 -14 57 -25 67 -25 25 0 31 -13 32 -76 2 -50 -4
-66 -17 -45 -3 5 -26 5 -53 0 -78 -15 -97 3 -38 35 37 20 71 53 63 61 -3 3
-31 -6 -63 -20 -68 -31 -86 -26 -23 6 52 26 51 25 44 37 -3 5 -31 4 -68 -3
-57 -10 -63 -13 -66 -37 -2 -15 4 -40 12 -56 18 -34 13 -42 -25 -42 -23 0 -32
8 -49 40 -11 21 -20 45 -20 52 0 8 29 26 65 42 35 15 69 34 76 42 14 17 5 19
63 -11z m720 -1 c29 -75 -29 -531 -80 -624 -13 -25 -13 -24 -14 15 0 22 -7 69
-15 105 -8 36 -24 122 -36 191 -22 123 -22 127 -5 164 16 34 17 60 4 114 -2
10 15 20 52 32 69 22 86 23 94 3z m593 -20 c-3 -3 -12 -4 -19 -1 -8 3 -5 6 6
6 11 1 17 -2 13 -5z m-793 -40 c11 -28 7 -42 -14 -47 -12 -3 -20 -14 -20 -26
0 -12 -2 -21 -4 -21 -2 0 -20 -7 -41 -15 -37 -16 -37 -16 -30 7 4 13 22 35 41
51 18 15 36 36 39 47 8 24 21 26 29 4z m-1098 -30 c13 -30 13 -38 2 -45 -28
-18 -38 -9 -38 36 0 54 16 58 36 9z m349 -46 c13 -40 29 -68 47 -81 25 -19 28
-19 74 -3 101 34 91 11 -20 -46 -63 -32 -253 -108 -271 -108 -5 0 -26 46 -45
102 -19 55 -36 104 -38 108 -3 7 42 30 58 30 5 0 5 -13 0 -31 -18 -60 12 -122
66 -135 52 -13 144 18 144 49 0 9 -18 12 -70 9 -66 -4 -70 -3 -78 19 -11 29
-4 59 15 66 8 3 13 16 11 31 -2 21 3 27 32 38 19 7 40 13 45 13 6 0 19 -27 30
-61z m-435 31 c0 -11 -4 -18 -10 -14 -5 3 -7 12 -3 20 7 21 13 19 13 -6z m919
-75 c10 -9 -35 -3 -49 6 -11 8 -7 9 15 4 17 -4 32 -8 34 -10z m-789 -13 c0 -5
-6 -14 -14 -20 -8 -6 -19 -25 -26 -41 l-12 -29 -34 27 c-19 15 -34 30 -34 33
0 6 86 36 108 38 6 1 12 -3 12 -8z m843 2 c-7 -2 -21 -2 -30 0 -10 3 -4 5 12
5 17 0 24 -2 18 -5z m-138 -130 c8 -50 19 -102 24 -116 8 -20 6 -28 -12 -44
-51 -46 -173 -124 -211 -134 -43 -12 -155 -6 -244 13 -58 12 -63 18 -92 104
l-19 54 27 14 c15 7 96 39 181 70 173 64 295 118 306 136 14 22 25 -5 40 -97z
m-845 68 c5 -11 25 -29 44 -40 19 -12 37 -32 40 -44 3 -13 17 -40 30 -60 l25
-36 -77 -29 c-42 -16 -95 -35 -117 -42 -22 -7 -73 -26 -113 -41 -40 -16 -77
-29 -81 -29 -11 0 -55 126 -60 172 -1 4 -7 13 -14 20 -11 11 3 21 86 60 73 35
97 43 91 30 -4 -9 -9 -38 -12 -64 -3 -42 -1 -51 26 -78 38 -37 66 -38 123 -2
85 54 92 90 11 54 -64 -29 -74 -31 -94 -20 -37 18 -11 114 30 112 23 -1 30 20
11 32 -8 4 -7 9 2 15 22 14 38 10 49 -10z m185 -62 c23 -67 25 -83 14 -90 -21
-13 -23 -12 -37 24 -7 17 -18 40 -23 49 -5 10 -9 24 -9 32 0 14 20 66 26 66 1
0 15 -37 29 -81z m776 51 c25 0 29 -4 29 -27 -1 -31 -40 -115 -56 -120 -6 -2
-16 25 -22 60 -16 87 -16 100 4 93 9 -3 29 -6 45 -6z m864 -141 c-96 -30 -126
-34 -119 -16 7 19 69 35 134 35 l45 0 -60 -19z m-1581 -85 c8 -21 -12 -17 -24
6 -8 16 -8 18 4 14 8 -3 17 -12 20 -20z m1089 -352 c-6 -91 10 -198 38 -253
10 -21 19 -42 19 -46 0 -5 -37 -19 -82 -32 -46 -13 -89 -25 -97 -28 -8 -3 -11
-1 -7 5 3 6 26 89 51 186 42 164 68 246 79 246 2 0 2 -35 -1 -78z m-2168 28
c3 -6 -6 -15 -22 -21 -15 -6 -64 -34 -108 -64 -93 -62 -355 -323 -428 -426
-101 -143 -279 -482 -327 -624 l-30 -90 6 70 c21 231 133 449 373 725 156 180
225 242 410 369 109 74 116 77 126 61z m1595 -34 c0 -3 -4 -8 -10 -11 -5 -3
-10 -1 -10 4 0 6 5 11 10 11 6 0 10 -2 10 -4z m-40 -86 c0 -5 -5 -21 -12 -35
-13 -29 -26 -27 -92 9 l-39 21 59 6 c33 3 65 6 72 7 6 1 12 -2 12 -8z m-1000
-340 l55 -43 -57 6 c-83 8 -152 49 -206 122 -39 53 -112 184 -112 201 0 3 60
-50 133 -118 72 -69 157 -144 187 -168z m926 133 c-18 -52 -74 -173 -79 -173
-3 0 -22 7 -42 16 -38 16 -134 36 -167 36 -11 -1 -18 7 -18 18 0 24 89 71 177
94 33 9 76 22 94 31 48 20 50 19 35 -22z m774 -96 c-8 -8 -33 -19 -55 -25 -34
-10 -191 -42 -204 -42 -2 0 2 7 9 15 7 8 24 15 39 16 14 0 62 11 106 24 44 12
89 23 100 24 17 1 17 -1 5 -12z m-1120 -26 c0 -11 -31 -24 -39 -16 -3 3 1 10
9 15 19 12 30 12 30 1z m1215 -93 c54 -72 85 -129 96 -175 4 -18 6 -33 4 -33
-2 0 -17 22 -35 49 -56 89 -151 161 -210 161 -55 0 -150 -79 -188 -155 -26
-53 -32 -81 -46 -204 -10 -86 -9 -151 6 -380 9 -152 20 -361 23 -466 6 -223
16 -300 39 -323 26 -27 36 0 36 101 0 74 4 96 25 137 14 28 27 50 29 50 2 0 6
-9 9 -20 3 -12 1 -18 -5 -14 -5 4 3 -12 18 -35 15 -23 29 -39 32 -36 3 2 -1
52 -8 110 -8 66 -10 109 -4 115 6 6 32 -39 68 -118 57 -125 98 -192 117 -192
18 0 8 31 -66 217 -41 103 -75 193 -75 199 0 7 19 54 42 104 l41 91 52 -51 52
-51 5 -200 c5 -181 9 -221 22 -208 3 2 8 82 12 177 l7 174 38 -39 39 -38 -26
-140 c-38 -204 -47 -381 -19 -353 15 14 74 359 75 431 0 22 26 -3 96 -94 44
-55 84 -111 91 -123 29 -52 48 -60 178 -70 171 -13 200 1 155 77 -20 33 -22
34 -103 40 -45 4 -100 7 -123 7 -37 0 -42 3 -58 36 -22 48 -7 68 27 36 27 -26
65 -29 74 -6 3 9 -1 38 -9 65 l-16 48 69 -59 c83 -71 155 -110 205 -110 29 0
46 -8 81 -40 l43 -41 -67 -30 c-259 -118 -765 -279 -1031 -329 -136 -25 -365
-49 -510 -52 l-114 -3 -45 125 c-24 69 -47 135 -50 148 -7 31 11 28 26 -5 21
-46 125 -187 129 -175 4 13 -91 185 -121 219 -20 22 -20 24 -2 83 10 33 21 60
24 60 3 0 16 -36 29 -81 21 -75 84 -228 105 -256 13 -18 27 -6 27 23 0 35 -97
333 -119 364 -15 21 -15 31 -5 65 l12 40 11 -29 c60 -151 132 -285 159 -294
24 -7 11 30 -68 210 -68 152 -79 186 -74 215 4 19 10 31 14 26 4 -4 31 -73 60
-153 58 -159 194 -438 216 -447 22 -8 26 1 14 33 -6 15 -13 136 -16 273 -3
136 -7 269 -9 296 -10 135 -36 398 -46 460 -5 39 -10 75 -11 80 0 6 18 53 39
105 22 52 55 145 73 205 47 157 53 167 95 159 24 -4 65 4 149 31 64 20 118 41
122 46 8 14 18 5 69 -63z m-2900 -118 c-9 -16 -18 -30 -21 -30 -2 0 2 14 11
30 9 17 18 30 21 30 2 0 -2 -13 -11 -30z m2817 4 c32 -22 98 -99 122 -142 4
-6 -8 -3 -27 8 -32 19 -155 160 -140 160 4 0 24 -12 45 -26z m-1092 -4 c0 -11
-2 -20 -4 -20 -2 0 -11 -3 -20 -6 -11 -4 -16 0 -16 14 0 18 11 29 33 31 4 1 7
-8 7 -19z m93 13 c-7 -2 -21 -2 -30 0 -10 3 -4 5 12 5 17 0 24 -2 18 -5z m916
-63 c29 -36 30 -40 12 -40 -14 0 -26 11 -36 36 -24 58 -20 59 24 4z m-1108
-123 c-12 -44 -21 -108 -21 -141 0 -69 24 -191 40 -212 9 -9 7 -28 -6 -69 -17
-53 -19 -55 -26 -30 -13 51 -38 267 -38 335 0 76 22 207 41 242 12 23 13 23
21 -10 7 -25 3 -56 -11 -115z m213 89 c-18 -38 -34 -33 -34 11 0 15 7 23 23
25 30 5 30 5 11 -36z m836 -13 c0 -7 -3 -13 -7 -13 -5 0 -18 -3 -30 -6 -28 -8
-30 11 -6 45 15 23 17 23 30 6 7 -11 13 -25 13 -32z m-905 -39 c16 -43 16 -48
0 -90 -9 -24 -18 -44 -20 -44 -2 0 -11 33 -21 74 -14 62 -15 78 -4 90 19 24
26 20 45 -30z m1045 -44 c0 -13 -20 -13 -40 0 -12 8 -9 10 13 10 15 0 27 -4
27 -10z m-194 -39 c-10 -11 -15 -25 -11 -30 3 -6 1 -11 -4 -11 -6 0 -11 14
-11 30 0 24 4 30 22 30 20 0 20 -1 4 -19z m-906 -38 l25 -37 -25 -73 c-14 -40
-28 -73 -32 -73 -3 0 -10 29 -13 65 -7 65 0 155 13 155 4 -1 18 -17 32 -37z
m3368 -75 c-2 -6 -10 -14 -16 -16 -7 -2 -10 2 -6 12 7 18 28 22 22 4z m-2761
-255 l3 -147 -40 54 c-29 38 -38 60 -34 74 6 21 66 166 68 166 0 0 2 -66 3
-147z m405 18 l77 -74 -41 -81 -41 -81 -47 101 c-48 103 -90 219 -90 250 0 20
14 9 142 -115z m-3025 -33 c-3 -8 -6 -5 -6 6 -1 11 2 17 5 13 3 -3 4 -12 1
-19z m3613 -138 c68 -80 107 -130 87 -111 -28 27 -41 32 -61 27 -30 -7 -31
-16 -10 -80 9 -26 14 -49 11 -52 -2 -3 -19 14 -38 38 -52 69 -92 108 -108 108
-17 1 -65 53 -125 138 -39 54 -38 61 4 37 52 -29 110 -14 110 29 0 10 2 17 4
15 1 -2 58 -69 126 -149z m-1031 -6 c46 -60 51 -72 51 -116 l0 -50 -43 58
c-24 33 -56 71 -70 85 -24 24 -25 29 -15 57 7 18 15 32 19 32 4 0 30 -30 58
-66z m342 -93 c20 -107 21 -124 9 -161 -20 -61 -30 -58 -30 8 0 32 -3 107 -7
165 -3 59 -4 107 -1 107 3 0 16 -54 29 -119z m895 27 l29 -33 -32 29 c-18 17
-33 31 -33 33 0 8 8 1 36 -29z m-1233 -104 l58 -62 6 -143 c3 -79 3 -142 1
-139 -6 6 -115 266 -157 375 -33 85 -30 112 7 64 15 -19 53 -62 85 -95z m2230
-205 l38 -10 -22 -30 c-12 -17 -23 -28 -26 -25 -3 3 -50 -35 -104 -84 -54 -49
-138 -112 -186 -141 -49 -29 -142 -87 -208 -129 -342 -218 -618 -339 -1040
-456 -284 -79 -509 -119 -720 -128 -95 -4 -100 -4 -35 3 197 22 413 69 607
132 67 21 171 48 230 60 148 28 276 66 348 102 33 16 112 53 175 82 71 32 180
95 287 166 94 63 217 143 274 179 67 43 141 103 218 177 64 62 118 112 121
112 3 1 22 -4 43 -10z"/>
<path d="M4218 8648 c-126 -58 -112 -80 23 -36 82 26 121 53 99 68 -22 14 -26
13 -122 -32z"/>
<path d="M4010 8103 c1 -21 56 -91 65 -82 13 14 -35 99 -57 99 -4 0 -8 -8 -8
-17z"/>
<path d="M2302 6918 c-20 -20 -15 -85 8 -108 63 -63 110 31 48 97 -24 26 -38
29 -56 11z"/>
<path d="M5643 5148 c-4 -7 -9 -92 -9 -188 -2 -214 -7 -227 -151 -480 -55 -96
-119 -212 -141 -257 -34 -66 -202 -520 -252 -678 -7 -22 -37 -98 -67 -170
-131 -311 -143 -344 -146 -408 -2 -49 1 -62 14 -65 18 -3 40 43 84 178 15 47
50 141 77 210 28 69 102 278 165 465 124 368 163 460 309 717 162 287 158 274
162 474 3 116 1 178 -7 193 -13 24 -26 27 -38 9z"/>
<path d="M8344 2215 c-156 -34 -346 -186 -446 -358 l-43 -73 0 81 c0 115 -27
152 -137 180 -106 28 -437 20 -671 -16 -85 -14 -92 -24 -83 -133 8 -104 19
-144 53 -185 l28 -33 120 -6 120 -7 3 -340 c2 -266 -1 -345 -11 -358 -19 -28
-185 -41 -235 -20 -30 13 -61 14 -168 9 l-131 -6 -7 122 c-4 68 -15 179 -26
248 -17 109 -29 240 -56 573 -8 101 -16 107 -134 96 -47 -4 -119 -8 -160 -8
-53 -1 -83 -6 -99 -18 l-24 -16 7 -256 c4 -141 11 -296 16 -346 5 -49 16 -209
25 -355 31 -519 30 -514 84 -542 57 -30 621 5 694 44 10 5 122 11 250 12 223
3 387 20 463 46 20 7 37 23 47 46 15 30 36 172 37 240 0 17 13 9 68 -45 53
-52 93 -79 190 -129 67 -34 122 -60 122 -57 0 3 9 1 20 -5 52 -28 328 -19 463
15 l29 8 -39 17 c-21 10 -31 19 -22 19 14 1 29 20 29 38 0 3 -19 3 -42 0 l-43
-5 37 32 c36 32 63 79 59 103 -1 7 37 50 84 96 47 45 85 86 85 90 0 4 -8 7
-17 7 -13 0 -12 5 9 27 15 16 28 37 30 48 3 18 -2 20 -39 17 -43 -4 -53 4 -32
25 18 18 1 35 -22 22 -12 -6 -22 -9 -24 -7 -2 2 -1 24 2 51 5 40 9 47 28 47
34 0 145 -60 185 -99 32 -32 34 -39 33 -92 0 -31 -9 -74 -19 -95 -10 -21 -19
-45 -19 -55 -3 -32 -66 -98 -120 -125 -30 -15 -52 -31 -49 -35 2 -4 -9 -16
-26 -25 -40 -24 -38 -34 5 -34 38 0 104 29 138 61 12 10 25 19 29 19 18 0 70
99 95 180 31 102 35 184 10 221 -40 60 -218 159 -286 159 -38 0 -61 -32 -61
-85 0 -72 -92 -167 -192 -197 -76 -22 -247 57 -293 136 -23 40 -55 178 -55
240 0 17 7 58 15 90 50 191 178 310 313 290 51 -8 161 -58 178 -82 14 -20 49
-12 181 38 138 53 164 86 138 176 -35 120 -176 236 -333 273 -104 24 -262 27
-358 6z m304 -71 c96 -19 151 -43 219 -94 49 -38 93 -97 107 -147 6 -17 1 -25
-21 -37 -35 -17 -203 -76 -220 -76 -16 0 -54 41 -47 51 2 4 0 10 -6 14 -7 4
-7 12 0 25 8 15 3 24 -26 50 -20 17 -47 36 -60 42 -17 8 -23 17 -18 30 4 13 0
18 -15 18 -23 0 -24 1 -16 22 3 8 22 13 53 12 67 -1 70 5 16 32 -26 13 -50 20
-53 15 -3 -4 -24 -8 -47 -8 -27 0 -58 -10 -90 -28 l-49 -29 24 27 c14 15 31
27 39 27 22 0 8 25 -16 28 -15 2 -27 -6 -41 -28 -11 -19 -22 -27 -25 -21 -4 6
-12 11 -17 11 -6 0 -7 -4 -4 -10 3 -5 -1 -10 -9 -10 -9 0 -16 -4 -16 -10 0 -5
-6 -10 -13 -10 -7 0 -42 -15 -79 -34 -36 -19 -68 -32 -71 -30 -3 3 -11 -4 -17
-16 -6 -12 -14 -19 -17 -17 -2 3 0 15 7 26 21 40 -13 23 -49 -24 -34 -46 -96
-145 -112 -180 -5 -11 -25 -45 -45 -75 -30 -46 -35 -50 -30 -25 10 45 80 184
120 237 44 57 182 170 251 205 96 49 259 65 393 37z m-1312 -195 c1 -8 -29
-37 -66 -64 -37 -28 -73 -63 -80 -80 -19 -41 -37 -52 -84 -51 l-41 1 -8 94
c-5 59 -5 97 1 103 12 12 241 27 261 17 8 -4 15 -13 17 -20z m77 20 c-8 -8
-16 -8 -30 0 -16 9 -14 10 12 11 21 0 26 -3 18 -11z m362 -32 c10 -14 15 -46
15 -89 l0 -67 -44 -20 c-55 -24 -121 -31 -120 -13 1 6 2 23 3 36 0 13 17 47
36 75 19 28 35 54 34 58 -6 38 2 49 31 45 17 -2 37 -14 45 -25z m405 -25 c0
-5 -7 -9 -15 -9 -8 0 -12 4 -9 9 3 4 9 8 15 8 5 0 9 -4 9 -8z m-1607 -49 c3
-16 11 -82 17 -148 6 -66 23 -195 36 -287 14 -92 29 -229 34 -305 10 -136 9
-138 -12 -156 -21 -18 -22 -18 -29 0 -4 10 -2 61 3 113 17 152 -33 566 -78
652 -19 37 -36 32 -47 -15 -8 -34 -11 -36 -42 -31 -31 5 -33 3 -54 -45 -11
-27 -21 -54 -21 -60 0 -5 -6 -16 -13 -23 -7 -7 -21 -24 -30 -38 l-17 -24 0 24
c0 36 -18 257 -26 312 l-6 47 84 4 c214 8 195 10 201 -20z m1237 -203 c-32
-95 -53 -281 -47 -420 5 -125 34 -267 59 -298 11 -13 10 -14 -12 -8 -14 4 -54
11 -89 17 -36 5 -67 11 -69 13 -18 19 -21 279 -5 545 l8 144 75 24 c41 14 79
29 84 34 16 15 15 6 -4 -51z m-233 -182 c-3 -8 -6 -5 -6 6 -1 11 2 17 5 13 3
-3 4 -12 1 -19z m174 -604 c35 -6 37 -8 42 -52 8 -59 -5 -165 -22 -186 -7 -8
-29 -18 -50 -21 -20 -3 -48 -8 -63 -10 -26 -4 -27 -3 -15 16 10 18 9 23 -15
42 -26 21 -27 23 -11 55 8 17 21 32 28 32 7 0 18 7 25 15 10 12 6 22 -20 55
-27 34 -30 43 -19 56 9 11 23 14 48 9 20 -3 52 -8 72 -11z m-716 -4 c3 -5 8
-33 11 -62 4 -46 3 -49 -7 -25 -6 15 -18 27 -29 27 -10 0 -20 9 -23 20 -4 15
-14 20 -36 20 -31 0 -42 14 -18 23 22 9 96 7 102 -3z m176 -10 c44 0 37 -29
-19 -69 -26 -18 -39 -31 -30 -28 25 9 33 -12 12 -28 -20 -14 -47 -9 -41 9 2 6
-2 25 -10 43 -19 48 -17 71 10 76 12 2 28 3 35 1 8 -2 27 -4 43 -4z m-314 -16
c0 -11 -7 -14 -21 -10 -12 3 -28 6 -36 7 -12 1 15 11 51 18 3 0 6 -6 6 -15z
m153 -214 c0 -36 -4 -50 -14 -50 -8 0 -16 -4 -18 -9 -1 -5 -12 -11 -23 -13
-17 -2 -19 2 -17 26 2 17 10 35 19 41 9 7 13 17 9 23 -10 17 2 32 25 32 16 0
19 -7 19 -50z m-638 -17 c10 -9 18 -25 18 -35 0 -10 12 -30 26 -43 l27 -25
-36 0 c-61 0 -67 6 -67 66 0 58 4 63 32 37z"/>
<path d="M7098 1763 c7 -3 16 -2 19 1 4 3 -2 6 -13 5 -11 0 -14 -3 -6 -6z"/>
<path d="M3140 2151 c-58 -11 -173 -39 -257 -62 -121 -34 -150 -46 -141 -56
12 -15 3 -47 -12 -38 -5 3 -10 15 -10 26 0 10 -5 19 -11 19 -5 0 -8 -4 -4 -9
3 -6 -3 -15 -14 -20 -14 -8 -20 -7 -25 4 -3 9 -12 12 -21 8 -28 -10 -36 -50
-25 -116 5 -34 14 -139 20 -234 11 -179 5 -304 -14 -300 -14 3 -12 -233 4
-318 6 -33 15 -114 20 -180 5 -66 16 -156 24 -200 8 -44 14 -103 13 -131 -4
-92 44 -118 218 -119 145 0 181 8 200 45 13 25 14 64 9 259 l-7 229 69 15 c38
9 116 25 174 37 139 28 204 46 265 73 75 32 160 92 202 142 20 25 41 45 45 45
9 0 14 -47 28 -250 17 -261 22 -291 58 -349 17 -29 36 -47 50 -49 12 -2 20 -8
17 -13 -4 -5 6 -9 22 -10 15 0 46 -11 68 -24 89 -54 121 -65 186 -65 35 0 75
-1 89 -2 14 -1 75 -2 135 -2 161 1 277 44 380 143 92 88 123 151 155 317 55
282 73 581 46 764 -20 134 -34 169 -79 195 -36 22 -167 32 -178 14 -4 -7 -18
-8 -43 0 -73 20 -91 -10 -101 -164 -4 -60 -9 -119 -11 -130 -3 -11 -9 -92 -14
-180 -13 -203 -35 -377 -56 -438 -19 -55 -61 -101 -111 -122 -76 -32 -113 -14
-172 83 -70 116 -86 242 -60 488 15 147 9 412 -10 440 -29 43 -70 58 -174 62
-100 4 -177 -9 -208 -35 -14 -12 -22 -7 -63 41 -59 69 -150 130 -235 157 -97
31 -300 35 -441 10z m487 -106 c75 -34 169 -129 178 -178 10 -50 -9 -72 -33
-41 -9 12 -25 36 -35 54 -14 27 -20 30 -32 20 -12 -10 -15 -9 -15 4 0 9 -5 16
-11 16 -5 0 -7 -4 -4 -10 3 -5 1 -10 -5 -10 -6 0 -9 -4 -5 -9 3 -5 -8 -9 -25
-9 -16 1 -30 5 -30 10 0 5 4 7 9 4 4 -3 16 3 26 14 16 18 15 20 -22 43 -47 31
-115 102 -106 110 13 14 59 6 110 -18z m-676 -39 c1 -5 -23 -22 -52 -37 -29
-16 -57 -36 -62 -44 -8 -15 -11 -15 -28 1 -10 9 -19 13 -20 8 0 -5 -5 2 -10
15 -5 13 -7 26 -5 29 3 2 34 13 68 23 65 19 108 21 109 5z m-216 -54 c6 -4 15
-16 21 -27 7 -11 19 -19 28 -17 19 3 21 -14 3 -25 -6 -4 -19 -21 -27 -38 -8
-16 -21 -34 -29 -39 -10 -7 -11 -10 -1 -16 9 -5 10 -17 5 -36 l-8 -29 -12 30
c-21 48 -30 186 -14 196 17 11 21 11 34 1z m909 -33 c-3 -5 -10 -7 -15 -3 -5
3 -7 10 -3 15 3 5 10 7 15 3 5 -3 7 -10 3 -15z m1261 3 c-3 -3 -11 0 -18 7 -9
10 -8 11 6 5 10 -3 15 -9 12 -12z m-1326 -28 c22 -28 28 -64 11 -64 -40 0 -90
55 -74 82 10 17 43 7 63 -18z m621 -12 c25 -31 34 -128 27 -302 -5 -126 -28
-305 -41 -317 -4 -4 -9 24 -36 207 -11 79 -38 142 -73 172 -20 18 -21 18 -36
-29 -11 -34 -21 -48 -33 -47 -10 1 -16 -1 -14 -5 2 -3 -2 -19 -9 -35 l-12 -29
-11 33 c-15 43 -34 240 -30 310 4 66 10 69 152 66 89 -1 100 -4 116 -24z m712
-23 c15 -8 22 -8 28 1 11 17 57 5 69 -18 23 -44 43 -218 38 -332 -7 -152 -28
-304 -37 -270 -4 14 -5 38 -2 54 3 18 1 27 -5 23 -12 -8 -60 207 -62 284 -1
14 -10 36 -21 49 -11 13 -20 29 -20 35 0 7 -9 23 -20 36 -19 22 -21 23 -30 7
-6 -10 -17 -18 -25 -18 -8 0 -19 -9 -25 -20 -12 -23 -26 -26 -29 -7 -10 54
-11 147 -1 171 10 28 12 29 66 22 31 -3 65 -11 76 -17z m-1453 -38 c47 -2 71
-18 71 -48 0 -14 2 -15 9 -4 7 10 10 10 16 1 4 -7 2 -16 -6 -21 -11 -6 -8 -13
11 -33 13 -15 20 -26 16 -26 -14 0 -51 23 -59 37 -5 7 -12 11 -18 8 -17 -11
-31 6 -18 21 9 11 7 14 -15 12 -17 -2 -22 -6 -16 -12 6 -6 10 -15 10 -22 0 -8
-27 -2 -77 18 -66 26 -91 31 -163 31 -55 0 -99 -6 -124 -17 -47 -20 -46 -19
-46 -1 0 17 11 20 155 40 61 8 128 19 150 23 22 5 45 5 50 2 6 -4 30 -8 54 -9z
m-471 -127 c11 -221 25 -306 59 -364 2 -3 -14 -6 -36 -7 l-39 -2 -7 142 c-9
180 -9 180 -19 195 -4 7 -5 16 -2 19 3 3 -1 15 -9 26 -13 19 -12 22 8 33 34
19 42 11 45 -42z m393 -21 c80 -37 99 -61 99 -128 0 -118 -90 -175 -275 -175
-97 0 -106 3 -124 38 -12 23 -36 242 -29 264 7 21 97 37 183 34 64 -2 93 -9
146 -33z m459 -34 c0 -11 5 -30 12 -42 12 -23 13 -187 1 -196 -5 -3 -19 -28
-32 -54 -14 -27 -46 -67 -72 -90 -49 -44 -149 -103 -149 -89 0 5 25 32 56 62
30 29 62 67 71 84 9 17 28 49 43 71 27 40 46 103 42 140 -2 11 2 30 9 41 8 16
8 27 0 42 -11 21 -5 52 10 52 5 0 9 -9 9 -21z m-736 -356 c4 -5 12 -8 17 -8 5
0 9 -4 9 -10 0 -5 -20 -10 -44 -11 -57 -1 -54 23 5 35 3 0 9 -2 13 -6z m1162
-291 c36 -79 76 -137 107 -153 11 -6 66 -15 124 -20 88 -8 163 -28 163 -44 0
-2 -35 -4 -77 -4 -43 0 -105 -3 -138 -8 -66 -8 -118 -7 -150 2 -48 13 -106
157 -108 270 -2 88 10 113 31 64 8 -19 30 -67 48 -107z m-1232 -45 c3 3 6 -32
6 -79 0 -47 3 -146 7 -221 l6 -136 -51 -7 c-50 -6 -58 -14 -53 -46 1 -11 -47
-10 -53 1 -12 18 -56 19 -66 1 -13 -24 -64 -15 -55 9 4 9 8 25 10 36 1 11 8
33 16 48 11 25 17 28 53 25 40 -3 41 -2 38 26 -2 17 0 26 6 22 6 -4 12 7 14
26 3 29 7 33 35 36 25 2 31 7 26 19 -4 11 -2 14 5 9 17 -10 25 52 20 154 -4
80 -3 88 13 80 9 -5 19 -6 23 -3z m1598 -89 c-4 -18 -11 -32 -15 -30 -4 1 -19
2 -33 2 l-27 0 39 40 c42 43 50 41 36 -12z m-469 -114 c9 -4 17 -11 17 -16 0
-6 9 -19 21 -29 11 -10 18 -23 14 -28 -10 -18 -43 -12 -64 10 -21 23 -35 83
-17 74 6 -3 19 -8 29 -11z"/>
<path d="M3490 1798 c0 -9 5 -20 11 -23 17 -11 18 -2 3 19 -12 17 -14 17 -14
4z"/>
<path d="M5493 2040 c-134 -19 -291 -79 -313 -121 -36 -67 -63 -1154 -31
-1263 16 -55 119 -175 149 -174 24 1 72 -20 72 -31 0 -5 20 -17 44 -26 39 -15
57 -16 153 -5 59 6 133 11 163 11 30 0 59 4 65 8 5 5 34 16 63 26 34 11 85 42
140 86 141 112 182 176 233 360 45 161 37 236 -38 341 l-33 46 25 87 c30 105
46 260 34 334 -18 114 -84 203 -188 252 -125 59 -380 92 -538 69z m362 -89
c180 -43 250 -91 290 -194 24 -63 16 -230 -16 -332 -35 -116 -36 -149 -3 -193
62 -80 66 -94 59 -220 -4 -95 -10 -123 -30 -164 -33 -66 -50 -89 -59 -81 -4 4
-11 1 -16 -7 -6 -10 -8 6 -5 44 3 33 9 64 15 70 22 22 -1 66 -33 66 -8 0 -20
7 -27 15 -8 10 -16 12 -19 6 -4 -5 -15 3 -26 19 -21 32 -38 40 -29 15 4 -8 1
-15 -6 -15 -6 0 -14 8 -16 18 -6 19 -64 55 -107 66 -43 10 -21 29 25 22 39 -6
40 -6 36 19 -3 14 -2 25 2 25 12 0 19 39 9 46 -35 21 60 80 114 70 22 -4 27
-2 27 13 0 11 -4 21 -10 23 -14 5 -23 75 -12 95 7 11 6 23 -2 36 -8 15 -8 21
2 24 16 6 15 28 -1 41 -9 8 -21 7 -41 -3 -32 -17 -60 -20 -51 -5 3 6 15 10 26
10 20 0 27 34 9 45 -5 3 -10 21 -10 39 0 46 -37 97 -90 124 -32 16 -38 22 -22
22 12 0 22 4 22 8 0 17 -77 31 -175 33 -55 1 -104 5 -110 9 -5 5 -28 11 -49
14 -21 4 -50 9 -63 12 -65 17 -177 -52 -172 -105 2 -14 -7 -57 -18 -96 -12
-38 -25 -85 -30 -103 -4 -19 -12 -33 -18 -33 -13 1 -15 97 -8 284 l6 149 46
20 c25 11 87 31 136 43 121 32 330 34 450 6z m-483 -305 c2 -16 9 -21 29 -19
26 1 26 0 31 -82 10 -146 51 -192 184 -203 70 -5 77 -13 17 -18 -41 -5 -113
-33 -113 -44 0 -7 -68 4 -75 12 -3 3 -63 175 -70 198 -2 8 -4 35 -4 59 -1 24
-4 41 -8 37 -7 -7 -8 -11 -11 -73 -4 -73 -38 -12 -44 80 -3 31 -1 57 4 57 5 0
7 4 4 9 -4 5 0 11 6 14 24 7 47 -5 50 -27z m353 13 c104 -19 169 -65 157 -111
-22 -85 -228 -156 -340 -117 -37 13 -49 45 -59 151 l-6 67 34 5 c71 12 85 13
120 15 19 0 62 -4 94 -10z m-208 -406 c4 -12 -36 -25 -50 -16 -12 7 23 35 37
30 5 -2 11 -8 13 -14z m275 -249 c101 -29 136 -99 81 -164 -56 -67 -163 -111
-275 -113 -87 -2 -98 14 -98 149 0 71 4 105 13 111 18 11 126 31 176 32 25 1
71 -6 103 -15z m-357 -232 c5 -86 4 -89 -39 -72 -30 11 -35 31 -7 25 18 -3 21
4 27 66 4 38 8 68 10 66 2 -1 6 -40 9 -85z m510 1 c-4 -10 -8 -25 -9 -34 0 -9
-16 -29 -35 -44 -30 -26 -32 -30 -15 -36 16 -6 14 -8 -11 -14 -43 -11 -85 -34
-85 -46 0 -6 7 -9 15 -5 8 3 22 3 31 -1 13 -5 13 -7 2 -14 -23 -16 -86 -30
-148 -33 -47 -3 -60 -1 -60 11 0 9 7 13 18 10 11 -4 27 7 45 29 22 26 25 34
13 34 -25 0 -19 19 10 30 71 27 133 62 169 94 44 38 72 47 60 19z m-415 -205
c0 -15 -9 -18 -47 -18 -59 0 -126 18 -118 31 4 5 42 8 86 7 67 -3 79 -6 79
-20z"/>
</g>
</svg>
