<?xml version="1.0" standalone="no"?>
<!DOCTYPE svg PUBLIC "-//W3C//DTD SVG 20010904//EN"
 "http://www.w3.org/TR/2001/REC-SVG-20010904/DTD/svg10.dtd">
<svg version="1.0" xmlns="http://www.w3.org/2000/svg"
 width="437.000000pt" height="472.000000pt" viewBox="0 0 437.000000 472.000000"
 preserveAspectRatio="xMidYMid meet">

<g transform="translate(0.000000,472.000000) scale(0.100000,-0.100000)"
fill="#000000" stroke="none">
<path d="M2255 4659 c-4 -6 1 -63 10 -128 18 -117 18 -118 -4 -182 -11 -35
-30 -107 -41 -159 -11 -52 -28 -117 -39 -145 l-19 -50 -51 -3 c-28 -2 -51 -7
-51 -13 0 -5 8 -9 18 -9 13 -1 12 -4 -7 -14 -21 -11 -17 -12 32 -8 l55 4 11
-38 c18 -66 13 -84 -52 -183 -35 -53 -72 -111 -81 -130 -11 -21 -21 -30 -25
-23 -4 7 -7 -3 -8 -21 0 -17 -6 -45 -13 -62 -7 -16 -15 -48 -17 -70 -1 -22 -5
-45 -7 -51 -4 -11 -55 -28 -62 -21 -6 6 43 114 55 121 5 3 7 14 4 25 -2 10 4
36 15 58 11 21 23 57 26 78 6 35 5 37 -5 18 -7 -13 -18 -23 -25 -23 -8 0 -11
-6 -8 -14 3 -8 -4 -36 -15 -62 -21 -45 -22 -46 -39 -28 -9 10 -24 20 -32 22
-12 2 -12 0 2 -11 21 -17 17 -51 -7 -56 -13 -2 -16 1 -12 13 5 11 1 16 -14 16
-14 0 -24 10 -31 33 -7 17 -29 66 -50 108 -40 81 -45 94 -27 84 6 -4 5 2 -3
14 -7 12 -14 17 -16 11 -4 -11 -9 -7 -70 68 -29 35 -39 54 -30 56 21 8 231 36
235 32 2 -1 -4 -20 -12 -40 -9 -20 -13 -41 -10 -46 4 -6 2 -10 -4 -10 -6 0
-15 9 -21 20 -11 21 -40 28 -40 9 0 -6 9 -22 20 -36 21 -28 26 -53 10 -53 -16
0 -12 -30 5 -36 8 -4 15 -16 15 -28 1 -19 2 -19 13 -5 12 15 14 15 36 -2 17
-14 20 -23 13 -32 -5 -6 -6 -20 -3 -30 6 -16 9 -17 18 -5 7 7 11 23 9 33 -2
11 2 24 8 28 7 6 5 7 -5 4 -20 -7 -59 32 -59 58 0 17 -1 17 -19 1 -13 -11 -21
-14 -26 -7 -3 6 1 14 9 17 9 3 13 10 10 15 -3 5 2 9 11 9 11 0 15 7 12 28 -6
41 32 112 59 112 17 0 21 4 17 20 -3 11 -13 20 -23 20 -15 0 -19 13 -25 86 -4
47 -5 87 -3 89 1 2 16 7 31 10 26 7 28 6 22 -18 -8 -28 11 -97 26 -97 5 0 9
-8 9 -18 0 -44 16 -29 25 24 l10 59 45 7 c25 4 55 10 67 13 18 4 22 0 28 -33
8 -50 24 -77 26 -42 0 14 2 41 4 60 10 83 0 159 -20 160 -5 0 -11 -24 -13 -54
l-3 -54 -63 -11 c-80 -14 -78 -14 -64 9 7 11 21 20 30 20 22 0 24 18 2 27 -13
5 -14 18 -8 84 4 51 3 79 -4 79 -13 0 -22 -35 -22 -94 0 -48 -1 -48 -27 -43
-74 15 -83 23 -83 76 0 49 1 50 35 57 41 7 37 24 -6 24 l-29 0 0 125 c0 69 -3
125 -7 125 -5 0 -8 -55 -8 -122 0 -116 -1 -123 -20 -123 -18 0 -20 8 -23 98
-2 64 0 97 7 97 7 0 11 -30 11 -80 0 -44 4 -80 9 -80 4 0 8 40 7 90 -1 85 -2
89 -21 84 -41 -12 -115 -49 -115 -58 0 -4 7 -6 14 -3 11 5 17 -6 22 -39 4 -28
14 -50 25 -57 11 -7 19 -22 19 -35 0 -21 -4 -23 -25 -18 -22 6 -25 3 -24 -21
0 -16 7 -44 14 -63 l13 -35 -1 45 c-2 35 2 45 16 48 13 3 17 -3 17 -27 0 -17
4 -31 8 -31 4 0 8 12 7 27 0 18 6 29 17 31 15 3 18 -7 20 -69 l3 -72 53 -15
c70 -20 62 -37 -16 -35 -34 1 -61 -2 -61 -5 6 -43 0 -49 -53 -45 -52 5 -103
-15 -86 -33 4 -4 14 -1 22 5 9 8 34 11 63 8 l48 -4 5 -63 c3 -37 1 -64 -5 -66
-21 -8 -209 -33 -213 -29 -3 2 10 21 27 41 38 43 57 81 46 92 -4 4 -12 -2 -19
-12 -6 -11 -24 -34 -39 -52 -16 -18 -29 -42 -30 -54 -1 -12 -10 -23 -24 -26
-13 -4 -23 -12 -23 -20 0 -8 -4 -14 -10 -14 -5 0 -10 5 -10 12 0 6 -13 0 -28
-15 -31 -30 -42 -33 -42 -14 0 6 -16 52 -35 102 -20 49 -33 95 -31 102 3 7 32
26 65 43 l60 30 3 -82 c3 -86 21 -116 32 -54 5 27 13 37 31 42 32 8 32 24 0
24 -23 0 -25 3 -25 49 0 27 -3 61 -6 77 l-5 29 100 3 101 4 0 -30 c0 -36 9
-62 21 -62 10 0 12 53 3 87 -7 25 -79 49 -92 29 -9 -14 -34 -14 -44 -1 -11 14
-10 55 1 55 5 0 11 -10 14 -22 4 -12 9 -20 12 -16 10 9 -14 58 -28 58 -9 0
-14 13 -15 39 -1 21 -6 49 -11 62 -11 27 -7 -119 4 -157 6 -19 2 -22 -28 -26
-33 -4 -35 -2 -41 31 -5 35 -50 91 -73 91 -20 0 -16 -20 8 -39 21 -17 38 -77
39 -137 0 -28 -4 -33 -38 -41 -46 -12 -122 -59 -122 -76 1 -6 20 -64 44 -127
39 -104 42 -117 28 -132 -20 -24 -32 -14 -32 27 0 43 -24 69 -51 55 -10 -6
-19 -16 -19 -22 0 -6 -3 -8 -6 -5 -4 3 -15 2 -25 -4 -16 -8 -21 -5 -29 16 -13
35 -23 31 -15 -6 7 -29 -4 -48 -27 -49 -17 0 -19 43 -2 61 9 10 14 22 9 27 -4
4 -10 1 -12 -5 -8 -22 -30 -14 -42 15 -16 38 -58 89 -66 80 -4 -4 2 -22 13
-40 11 -18 22 -49 24 -68 3 -31 1 -35 -19 -33 -36 4 -28 -21 32 -108 l54 -79
-59 -30 -60 -30 -22 37 c-13 21 -37 65 -53 97 -16 33 -38 61 -47 64 -11 2 -18
14 -18 28 0 12 -5 26 -11 30 -21 12 -29 -20 -23 -85 l7 -64 -37 7 c-29 6 -36
4 -36 -9 0 -11 11 -15 41 -15 l40 0 -7 -45 c-5 -38 -4 -44 9 -40 15 6 27 64
27 134 l1 36 15 -30 c9 -16 34 -59 57 -93 33 -52 38 -65 26 -73 -19 -13 -87
-49 -92 -49 -3 0 -7 13 -10 30 -5 22 -11 28 -23 23 -12 -4 -14 -14 -10 -38 6
-31 4 -33 -41 -53 -27 -11 -67 -26 -91 -33 -23 -7 -41 -17 -39 -23 5 -14 25
-11 110 16 l69 22 19 -24 c10 -14 19 -30 19 -36 0 -7 8 -14 18 -16 11 -3 29
-26 41 -51 12 -25 38 -65 56 -89 19 -24 42 -64 50 -89 17 -50 49 -87 59 -70 4
6 0 24 -9 40 -21 42 -18 61 5 31 13 -16 20 -20 19 -10 0 8 -6 24 -14 34 -19
25 -19 46 0 46 8 0 15 4 15 9 0 5 3 17 7 27 4 12 3 15 -5 10 -7 -4 -17 3 -24
18 -6 14 -16 26 -21 26 -9 0 -7 -17 8 -52 6 -14 2 -18 -17 -18 -24 0 -98 67
-98 89 0 5 -8 16 -18 23 -24 18 -22 42 8 66 l25 20 12 -21 c7 -12 12 -17 13
-10 0 17 -40 83 -51 83 -12 0 -11 -7 1 -30 7 -14 5 -19 -10 -23 -11 -3 -20 -2
-20 3 0 4 -11 5 -25 2 -48 -9 -27 25 37 61 l63 35 11 -26 c19 -46 38 -55 64
-34 23 18 23 20 7 59 l-15 40 56 27 c71 34 182 106 182 116 0 10 58 40 77 40
7 0 19 -11 25 -25 6 -14 17 -25 25 -25 17 0 17 8 -2 27 -18 18 -11 33 16 33
10 0 19 5 19 10 0 6 -14 10 -31 10 -27 0 -30 2 -19 15 21 26 38 17 90 -47 28
-35 61 -75 74 -90 13 -15 21 -29 19 -32 -3 -2 3 -18 12 -36 9 -18 15 -33 13
-35 -2 -2 -18 -7 -37 -12 -37 -10 -55 -33 -24 -33 10 1 29 7 43 14 24 14 26
13 55 -42 20 -38 36 -57 48 -56 20 2 23 -26 5 -45 -11 -10 -10 -11 4 -6 13 5
19 0 24 -22 4 -15 12 -34 18 -42 8 -10 6 -17 -8 -26 -10 -8 -15 -18 -11 -24 3
-6 2 -11 -4 -11 -5 0 -13 4 -16 10 -7 11 -72 -13 -172 -64 -77 -38 -112 -71
-96 -87 8 -8 25 0 58 25 55 43 61 44 69 12 3 -13 9 -31 12 -40 4 -11 1 -16
-11 -16 -24 0 -13 -23 16 -31 15 -4 -2 -7 -45 -8 -53 -1 -74 3 -89 17 -19 16
-19 16 -13 -5 4 -13 3 -23 -3 -23 -5 0 -18 -3 -28 -6 -16 -6 -16 -5 2 9 32 26
-3 21 -54 -8 -23 -14 -46 -25 -50 -25 -3 0 -14 14 -23 31 -10 17 -22 28 -27
24 -6 -3 -14 2 -19 11 -7 13 -13 14 -30 5 -25 -13 -72 -15 -72 -2 0 5 -7 11
-15 15 -13 5 -14 2 -4 -17 19 -37 59 -87 70 -87 6 0 6 7 -1 19 -15 28 -13 35
16 48 21 10 28 9 45 -8 21 -21 25 -44 8 -55 -6 -4 -57 -14 -112 -23 -98 -16
-134 -36 -88 -48 15 -4 21 -13 21 -33 0 -24 3 -27 25 -22 18 3 31 -2 41 -14
12 -17 13 -17 8 -1 -3 9 -2 17 4 17 5 0 12 -19 15 -42 3 -24 9 -53 12 -65 6
-20 2 -23 -39 -34 -25 -6 -46 -14 -47 -18 -4 -31 -10 -46 -23 -53 -18 -10 -22
-28 -7 -28 6 0 17 13 26 28 9 15 37 37 61 48 l45 21 16 -29 c10 -15 21 -28 26
-28 9 0 0 40 -13 53 -4 4 11 50 33 101 38 90 41 94 81 106 22 7 54 19 71 28
27 14 28 16 10 22 -15 5 -13 8 15 14 27 5 38 3 47 -11 19 -25 17 -32 -27 -75
-22 -22 -40 -44 -40 -49 0 -18 19 -8 54 27 20 20 38 35 40 33 2 -2 13 -20 24
-40 17 -31 18 -38 6 -60 -8 -13 -19 -37 -25 -54 l-11 -30 -19 25 c-41 51 -46
56 -111 108 -13 10 -19 9 -38 -6 -22 -18 -22 -19 -6 -74 15 -53 18 -56 44 -52
15 3 37 12 49 20 12 8 26 14 30 14 15 0 41 -59 36 -79 -3 -12 -1 -21 6 -21 6
0 11 -12 11 -27 -1 -27 -1 -27 -16 -8 -15 19 -15 19 -9 -6 5 -22 0 -29 -34
-52 -23 -15 -64 -45 -93 -67 -29 -22 -56 -40 -60 -40 -16 0 8 38 49 78 37 35
47 40 64 32 24 -14 26 6 3 39 -18 25 -10 40 22 45 25 4 30 26 6 26 -33 0 -51
-11 -45 -26 7 -18 3 -18 -36 2 -25 12 -36 13 -44 5 -13 -13 6 -31 34 -31 9 0
22 -6 28 -14 10 -12 8 -17 -11 -27 -13 -7 -33 -24 -45 -38 -12 -14 -24 -23
-26 -21 -37 49 -47 67 -47 86 0 13 -4 24 -10 24 -5 0 -10 -18 -10 -40 0 -35 3
-40 22 -40 17 0 19 -3 10 -12 -6 -6 -8 -18 -3 -27 5 -9 11 -31 14 -48 8 -42
-14 -55 -76 -47 -42 6 -47 10 -78 67 -53 94 -82 90 -34 -5 26 -52 30 -68 18
-68 -5 1 -21 27 -37 60 -26 51 -28 63 -18 85 7 14 12 29 12 32 0 3 -35 3 -77
1 -43 -3 -73 -3 -66 -1 9 3 9 12 2 29 -5 14 -9 40 -9 59 0 18 -3 40 -6 49 -12
30 -22 16 -22 -29 1 -25 5 -45 10 -45 10 0 11 -37 0 -44 -5 -3 -14 10 -21 29
-7 20 -17 32 -24 29 -25 -9 -127 156 -127 205 0 21 3 23 30 18 32 -7 68 2 52
12 -5 3 -16 30 -25 59 -17 59 -6 80 24 44 22 -28 33 -28 18 0 -10 18 -8 24 7
35 26 19 30 17 43 -28 7 -22 18 -42 26 -45 8 -3 17 -26 21 -50 8 -54 14 -58
50 -39 16 8 37 15 47 15 9 0 17 5 17 10 0 6 -20 10 -45 10 -38 0 -45 3 -45 19
0 11 -5 23 -11 27 -7 4 -1 15 17 30 20 16 24 23 14 24 -9 0 -21 -5 -27 -11
-13 -13 -18 -6 -31 42 l-10 37 41 6 c28 5 43 3 48 -6 53 -95 66 -102 109 -67
l25 20 -37 -6 c-36 -5 -50 3 -54 31 -1 6 -10 23 -19 38 -14 22 -25 26 -62 26
-47 0 -83 -14 -83 -31 0 -34 -65 -51 -75 -19 -3 11 -15 20 -25 20 -13 0 -20
10 -25 36 -3 20 -5 37 -3 38 95 50 133 52 161 8 9 -15 17 -22 17 -15 0 7 7 10
18 7 10 -3 4 5 -13 20 l-30 26 25 20 25 20 -32 0 c-18 0 -33 5 -33 10 0 6 -7
10 -15 10 -8 0 -12 -6 -9 -14 4 -10 -12 -23 -50 -40 -70 -32 -74 -32 -82 2 -3
15 -7 33 -10 40 -2 7 5 12 17 12 27 0 19 24 -9 28 -14 2 -22 11 -22 22 0 10
-5 22 -11 26 -7 4 -9 -2 -7 -17 2 -18 -2 -24 -14 -23 -24 2 -24 -41 2 -143 23
-95 45 -149 63 -160 11 -7 59 -93 52 -93 -1 0 -16 5 -34 11 -25 9 -31 16 -31
40 0 17 -9 42 -19 57 -11 15 -33 80 -50 145 l-31 119 25 32 c14 18 25 36 25
40 0 4 -16 14 -35 22 -26 11 -35 20 -35 39 0 34 21 43 38 17 17 -26 34 -29 25
-5 -5 12 -2 15 10 10 14 -5 17 -1 16 21 -1 15 -5 41 -9 57 l-8 30 -1 -33 c-2
-58 -76 -72 -83 -15 -2 15 0 37 5 49 11 25 -5 111 -18 104 -6 -3 -9 -44 -7
-95 l4 -90 -82 -18 c-44 -10 -104 -25 -131 -33 -49 -15 -51 -17 -47 -47 3 -18
8 -39 11 -47 6 -12 -9 -20 -66 -37 -70 -22 -73 -22 -97 -4 -14 10 -26 26 -28
35 -3 14 4 17 42 15 66 -4 65 5 -4 24 -47 13 -60 21 -60 36 0 21 -17 37 -28
27 -3 -4 0 -35 7 -69 8 -44 19 -69 37 -85 21 -19 31 -46 54 -160 16 -75 26
-140 21 -144 -4 -5 -20 -9 -35 -10 -16 -2 -31 -8 -33 -15 -6 -16 16 -73 28
-73 5 0 6 -6 3 -14 -3 -7 -11 -13 -17 -13 -31 1 -47 -4 -47 -14 0 -8 14 -9 44
-5 43 7 43 6 50 -25 7 -38 6 -39 -35 -48 -18 -4 -35 -13 -37 -20 -4 -11 5 -12
42 -7 32 5 52 3 62 -5 11 -9 14 -8 14 5 0 9 7 19 15 22 8 4 15 12 15 20 0 8 4
14 9 14 5 0 0 27 -10 61 -10 33 -19 66 -19 73 0 12 105 44 114 35 2 -2 6 -13
8 -23 2 -16 -6 -22 -42 -31 -28 -7 -46 -17 -48 -28 -2 -9 3 -17 10 -17 28 0
163 41 173 53 12 14 72 47 86 47 5 0 9 -9 9 -19 0 -11 12 -33 26 -48 l26 -28
-7 25 c-23 83 -10 130 13 51 15 -49 15 -81 1 -81 -8 0 -10 -12 -6 -35 8 -47
-18 -63 -50 -33 -19 18 -25 19 -38 8 -13 -11 -18 -11 -24 -1 -9 14 -43 12 -41
-3 1 -5 -5 -13 -14 -18 -21 -12 -20 -28 1 -28 15 0 14 -2 -3 -16 -16 -13 -16
-15 -2 -10 15 5 16 3 5 -14 -14 -24 -26 -25 -34 -4 -4 12 -14 14 -40 9 -19 -3
-40 -9 -48 -11 -8 -4 -15 3 -17 18 -2 13 -7 21 -13 18 -5 -3 -9 -7 -8 -10 16
-48 14 -60 -6 -60 -12 0 -21 -5 -21 -11 0 -7 10 -9 26 -5 14 4 32 2 39 -4 10
-8 20 -8 37 1 22 12 22 12 3 19 -18 7 -17 9 9 19 34 13 31 15 39 -25 6 -30 5
-31 -64 -53 -71 -23 -83 -37 -49 -59 15 -9 31 -10 62 -2 24 5 61 10 83 10 39
0 68 11 66 24 -3 19 3 23 49 35 27 7 50 17 50 23 0 9 -11 8 -85 -8 -11 -2 -2
5 20 16 22 11 45 20 51 20 6 0 17 7 25 16 11 13 9 14 -17 8 -16 -4 -43 -13
-61 -21 -39 -16 -43 -16 -43 -3 0 5 26 22 57 38 31 15 58 33 61 41 3 10 0 11
-19 1 -22 -11 -22 -10 4 14 15 15 27 38 27 51 0 34 16 32 23 -2 3 -18 0 -31
-11 -40 -15 -11 -15 -13 5 -19 12 -3 25 -15 28 -25 7 -22 20 -25 31 -7 5 7 10
4 16 -11 8 -23 1 -34 -66 -103 -25 -25 -36 -29 -68 -26 -39 4 -54 -14 -22 -26
35 -13 69 -5 100 25 l32 31 12 -39 c7 -21 26 -57 41 -81 28 -41 30 -62 8 -62
-5 0 -9 6 -9 13 0 6 -9 30 -19 52 -24 48 -35 77 -33 88 1 4 -3 7 -9 7 -11 0
-7 -21 17 -79 8 -19 12 -36 10 -39 -5 -5 -46 58 -46 71 0 5 -4 6 -10 2 -11 -7
-4 -30 22 -67 18 -26 18 -27 -3 -42 -12 -8 -18 -19 -14 -26 5 -8 13 -6 26 6
19 17 20 17 37 0 16 -17 16 -19 -3 -29 -11 -7 -42 -36 -69 -65 -28 -30 -72
-69 -98 -89 -48 -35 -62 -63 -32 -63 21 0 122 87 139 121 8 15 33 42 56 60 36
28 44 31 61 20 18 -11 19 -10 13 8 -9 30 10 26 30 -6 10 -16 29 -40 42 -55 18
-18 23 -32 18 -47 -4 -15 -2 -21 8 -21 11 0 37 -38 37 -54 0 -2 -26 -22 -57
-46 l-57 -43 -107 7 c-106 7 -159 2 -159 -15 0 -5 26 -9 58 -9 118 0 191 -12
197 -31 7 -21 -30 -98 -51 -106 -8 -3 -28 -25 -45 -50 l-31 -44 41 -44 c23
-25 41 -48 41 -52 0 -5 -19 -17 -43 -27 -62 -28 -23 -32 66 -7 40 12 76 21 79
21 3 0 11 -21 17 -46 10 -40 9 -48 -9 -74 -26 -36 -25 -38 7 -72 33 -35 39
-35 37 -1 0 15 8 37 19 48 10 11 27 37 38 57 12 24 34 44 64 59 65 32 59 51
-7 24 -15 -6 -18 -2 -18 23 0 23 7 35 33 50 17 11 59 36 91 56 68 41 73 42 79
18 3 -11 5 -7 6 10 1 20 8 29 32 37 64 22 76 16 88 -41 6 -28 20 -71 31 -95
22 -49 22 -49 -53 -56 l-49 -5 4 29 c4 27 2 29 -30 29 -23 0 -32 -4 -29 -12 2
-7 14 -12 26 -11 19 3 21 -2 21 -47 l0 -50 -37 -2 c-21 -1 -58 -1 -83 0 -49 2
-77 -9 -66 -27 5 -7 42 -11 97 -11 78 0 89 -2 90 -17 0 -10 2 -32 3 -50 2 -20
-3 -34 -11 -38 -8 -2 -11 -10 -8 -15 5 -8 11 -8 19 -1 9 7 16 7 24 -1 17 -17
27 -3 46 65 15 53 19 57 46 57 19 0 30 -6 33 -17 3 -15 6 -13 14 7 12 28 -1
106 -35 212 -12 34 -24 86 -27 113 -4 28 -9 58 -12 68 -4 14 3 17 41 17 25 0
48 4 51 10 3 5 11 51 16 101 26 234 76 327 229 427 85 55 168 75 296 69 54 -3
110 -6 124 -8 25 -4 25 -3 30 86 l5 90 85 -3 c62 -2 87 -6 93 -17 5 -9 23 -15
45 -15 49 0 112 -11 112 -19 0 -9 -61 -31 -83 -31 -52 0 16 -79 69 -82 19 -1
42 -2 51 -2 9 -1 18 5 21 12 2 8 -11 12 -47 12 -39 0 -53 4 -61 19 -9 17 -5
20 42 31 29 6 63 13 75 16 20 6 23 2 24 -27 1 -26 3 -28 6 -10 5 25 20 25 91
3 17 -6 32 -7 32 -4 0 8 -74 42 -90 42 -6 0 -10 4 -10 9 0 4 30 17 68 28 91
27 96 49 12 59 -33 4 -63 10 -65 15 -3 4 -31 10 -63 14 -93 10 -99 13 -111 46
-15 44 -14 51 8 39 45 -24 161 -60 193 -60 19 0 38 -3 42 -7 9 -9 111 -31 146
-32 23 -1 23 0 7 16 -9 10 -34 19 -55 20 -55 3 -179 27 -188 36 -4 4 -15 7
-25 7 -10 0 -45 12 -78 26 -44 19 -63 33 -67 50 -9 35 2 43 59 43 29 0 65 3
81 7 27 6 28 5 23 -17 -4 -13 -9 -35 -12 -49 -5 -22 -4 -23 5 -5 5 11 14 32
20 48 6 17 17 27 30 27 19 0 27 19 14 32 -3 3 -26 0 -52 -7 -26 -6 -74 -11
-107 -9 l-60 3 -7 113 c-6 115 -4 134 12 108 6 -9 10 -10 10 -3 0 6 13 16 30
21 28 10 31 9 46 -24 9 -19 20 -34 24 -34 19 0 13 27 -22 98 -21 42 -38 79
-38 83 0 4 20 13 45 20 44 13 51 22 39 53 -7 19 -24 21 -24 3 0 -7 -31 -28
-70 -47 -38 -19 -70 -39 -70 -46 0 -7 -8 -10 -19 -7 -14 3 -28 31 -50 94 -18
50 -34 104 -38 122 -7 39 -23 71 -30 63 -4 -3 -12 -1 -19 5 -9 7 -24 7 -51 0
-70 -20 -80 -16 -89 32 -5 23 -7 57 -5 76 2 20 -1 31 -7 27 -10 -6 -28 51 -20
60 3 2 16 -5 29 -17 13 -12 34 -28 47 -36 12 -9 22 -24 22 -34 0 -19 56 -89
71 -89 5 0 2 11 -7 25 -9 14 -14 31 -11 39 4 9 1 13 -6 10 -10 -4 -47 42 -47
59 0 18 100 -12 217 -64 24 -11 47 -19 52 -19 5 0 31 -10 58 -22 26 -11 55
-20 63 -20 22 3 36 -10 47 -43 10 -31 28 -36 93 -24 24 4 25 2 28 -53 l3 -57
-44 -6 c-29 -5 -44 -12 -44 -22 0 -12 9 -14 47 -9 l46 6 13 -62 c11 -59 10
-273 -2 -323 -16 -64 -21 -75 -39 -81 -30 -9 -17 -15 68 -30 78 -13 194 -51
194 -63 0 -3 -9 -19 -19 -35 -11 -16 -17 -36 -13 -44 3 -9 1 -13 -5 -9 -6 4
-13 0 -17 -8 -3 -8 -1 -17 4 -20 10 -6 40 36 63 88 11 25 16 28 60 26 26 -2
52 2 58 8 15 15 0 22 -57 29 -26 3 -82 16 -123 30 -42 13 -86 24 -98 24 -22 0
-63 43 -63 66 0 16 12 18 26 5 15 -15 84 -41 84 -32 0 5 -22 24 -49 42 l-49
34 6 60 c2 33 6 62 8 64 2 2 15 -2 29 -9 17 -9 24 -19 19 -29 -14 -35 -21 -80
-14 -91 6 -9 10 -6 15 9 3 11 3 26 -1 32 -4 8 -3 9 4 5 7 -4 12 -2 12 5 0 8
16 10 51 7 42 -4 54 -2 70 15 31 34 22 50 -13 23 -10 -7 -14 -16 -10 -21 4 -4
-2 -5 -13 -2 -11 3 -31 9 -45 12 -23 5 -25 11 -22 40 3 24 10 35 25 39 41 11
47 7 48 -31 l1 -38 12 48 11 47 49 -35 c27 -19 57 -37 66 -40 13 -4 17 -16 15
-49 -1 -55 -23 -88 -80 -122 -45 -26 -54 -46 -22 -52 22 -4 97 66 114 106 8
19 11 43 7 54 -5 18 -3 19 25 13 37 -8 42 9 9 26 -13 6 -24 13 -26 14 -1 1 7
22 18 46 11 24 20 58 21 74 2 27 2 28 6 5 3 -14 20 -58 39 -99 20 -43 34 -90
34 -112 0 -46 11 -76 40 -109 33 -37 70 -98 70 -115 0 -9 -23 -26 -57 -40 -63
-28 -77 -27 -38 3 20 16 24 26 19 46 -9 37 -25 43 -18 8 5 -25 1 -33 -26 -52
-17 -12 -29 -25 -25 -28 10 -10 -48 -62 -69 -62 -18 0 -21 6 -21 48 0 27 6 56
14 66 21 25 6 31 -25 11 -30 -19 -75 -68 -68 -74 2 -2 15 4 28 13 33 21 33 21
31 -20 -2 -38 -17 -54 -47 -49 -10 2 -18 -1 -18 -7 0 -5 7 -8 15 -5 8 4 17 1
21 -5 4 -7 9 -6 14 2 5 8 12 0 21 -24 7 -20 17 -36 21 -36 11 0 10 7 -2 31 -9
16 -7 19 12 19 13 0 32 3 44 6 18 5 22 0 27 -28 3 -18 8 -41 12 -50 6 -15 2
-18 -25 -18 -32 0 -32 -1 -16 -18 15 -18 15 -20 -4 -37 -11 -10 -22 -26 -25
-36 -9 -28 -54 -24 -121 11 -36 19 -61 27 -67 21 -13 -13 -1 -28 41 -50 l37
-20 -73 6 c-57 5 -76 3 -83 -8 -5 -9 -9 -10 -9 -2 0 6 -14 14 -31 18 -24 5
-29 11 -27 28 2 16 10 22 30 22 14 0 30 3 34 8 4 4 -1 7 -12 7 -31 0 -67 24
-69 45 -3 37 -16 65 -31 65 -8 0 -14 -5 -14 -11 0 -5 5 -7 11 -3 8 4 9 -1 4
-17 -4 -16 -3 -20 3 -11 7 11 10 10 16 -3 8 -22 8 -27 -3 -21 -10 6 -8 -50 3
-102 9 -37 12 -38 146 -47 52 -3 105 -9 118 -12 16 -4 22 -1 22 11 0 11 9 16
26 16 19 0 25 -4 20 -15 -8 -22 12 -18 24 5 7 13 21 20 39 20 15 0 51 7 80 16
29 8 55 13 58 10 3 -2 -3 -39 -12 -81 -12 -54 -14 -80 -7 -87 8 -8 13 -4 16
13 21 92 28 133 32 196 4 71 -6 99 -24 67 -7 -13 -18 -16 -47 -11 -21 3 -40 9
-43 12 -3 3 -9 31 -12 61 l-6 56 36 18 37 19 11 -37 c6 -21 18 -46 27 -57 14
-19 14 -18 9 15 -3 19 -10 48 -14 63 -8 22 -6 29 8 34 9 3 29 14 43 24 22 15
35 17 90 9 35 -5 83 -10 107 -10 41 0 42 -1 42 -32 0 -35 8 -34 13 2 3 20 10
24 44 26 23 1 49 5 60 8 16 5 18 1 17 -46 l-2 -52 -47 3 c-36 2 -46 -1 -43
-11 3 -8 22 -13 56 -13 l52 0 0 -37 c0 -21 4 -38 9 -38 13 0 22 59 12 78 -5 9
-11 41 -13 70 -5 49 -4 52 18 52 13 0 24 -4 24 -10 0 -5 13 -10 29 -10 26 0
29 -4 36 -42 6 -36 8 -39 15 -23 16 39 11 83 -10 90 -11 3 -91 8 -177 11 -87
2 -187 10 -222 17 l-64 12 104 67 c108 69 182 108 282 149 48 19 61 21 78 11
18 -11 23 -4 72 95 l52 108 0 135 c-1 125 -3 142 -33 230 -18 52 -37 102 -42
110 -17 26 -12 -22 10 -92 11 -34 20 -66 20 -70 0 -4 -19 -8 -42 -10 -55 -4
-47 -23 10 -22 l42 0 0 -138 c0 -108 3 -138 13 -133 6 4 4 0 -7 -9 -10 -8 -24
-25 -30 -37 -6 -13 -26 -27 -43 -31 -18 -5 -33 -12 -33 -16 0 -5 -18 -16 -41
-26 -27 -12 -37 -22 -31 -28 7 -7 28 2 63 26 29 19 55 34 57 32 2 -2 -3 -19
-11 -38 -13 -30 -23 -37 -98 -62 -46 -15 -111 -41 -144 -58 -74 -37 -221 -132
-256 -165 -19 -18 -28 -21 -32 -11 -2 7 -28 44 -56 82 -58 78 -67 128 -31 161
23 21 26 56 8 88 -12 20 -13 19 -18 -23 -3 -25 -9 -44 -14 -44 -5 1 -24 27
-42 57 -22 37 -28 54 -17 50 8 -3 22 -20 30 -37 13 -29 14 -27 8 39 l-6 70 31
14 c18 7 51 28 75 47 53 40 92 61 163 85 l54 19 -6 -23 c-3 -12 -6 -25 -6 -29
0 -4 -10 -7 -21 -5 -29 3 -37 -23 -9 -30 15 -4 19 -11 15 -22 -8 -20 -25 -134
-21 -138 4 -4 32 72 44 117 8 34 9 34 53 31 24 -1 44 -4 44 -4 0 -1 -1 -35 -3
-74 l-4 -73 -58 0 c-65 0 -76 -8 -71 -56 2 -23 -2 -32 -16 -36 -33 -8 -52 3
-59 35 -4 18 -9 26 -11 20 -9 -25 18 -80 43 -92 33 -15 37 -14 30 4 -3 9 1 18
9 21 9 4 15 19 15 40 l0 34 64 0 64 0 -5 -59 c-4 -37 -2 -61 6 -65 15 -10 51
11 51 30 0 11 -4 12 -19 5 -15 -9 -20 -7 -24 10 -6 24 5 49 46 97 24 29 27 39
21 80 -5 45 -4 48 23 59 75 32 112 41 159 36 34 -4 46 -2 39 5 -5 6 -23 12
-40 14 -28 3 -30 6 -33 53 -2 28 -8 55 -14 60 -7 7 -9 -8 -5 -51 l5 -61 -70
-22 c-38 -11 -74 -19 -79 -16 -5 4 -9 19 -9 36 0 16 -4 29 -10 29 -5 0 -10
-14 -10 -31 0 -26 -3 -30 -17 -24 -10 4 -37 12 -60 18 -39 9 -41 12 -40 43 2
40 9 43 150 69 53 10 97 22 97 26 0 15 -41 20 -73 11 -17 -6 -56 -13 -84 -16
-44 -6 -53 -4 -53 9 0 8 -5 15 -11 15 -6 0 -9 -9 -6 -20 3 -13 0 -20 -8 -20
-8 0 -20 -6 -27 -12 -7 -7 -32 -14 -55 -15 -38 -2 -43 1 -43 20 0 18 2 19 10
7 8 -12 10 -9 10 12 0 15 -4 30 -10 33 -5 3 -10 -1 -10 -9 0 -10 -6 -13 -17
-9 -14 5 -15 1 -10 -30 5 -31 2 -39 -16 -48 -12 -7 -51 -33 -87 -59 -60 -44
-115 -70 -145 -70 -7 0 -18 23 -25 53 -18 79 -21 87 -31 87 -12 0 -12 -62 1
-96 6 -15 9 -28 8 -30 -2 -1 -30 7 -63 18 -71 23 -108 61 -80 82 13 10 10 11
-24 8 -35 -4 -40 -1 -43 20 -2 12 -9 22 -15 21 -12 -3 -10 158 3 178 9 16 -3
22 -22 11 -14 -8 -17 -23 -15 -96 2 -83 1 -87 -17 -77 -14 8 -19 7 -19 -5 0
-9 18 -22 39 -31 26 -10 40 -23 44 -40 4 -16 9 -21 14 -13 5 8 15 0 29 -23 20
-32 20 -37 6 -68 -14 -33 -19 -32 -16 4 1 9 -3 17 -8 17 -7 0 -11 -24 -11 -59
0 -52 -2 -59 -22 -65 -43 -11 -47 -8 -32 23 17 34 16 210 -1 201 -9 -5 -11
-14 -14 -62 -1 -11 -6 -15 -16 -12 -11 5 -13 2 -9 -10 3 -8 11 -14 17 -13 13
2 14 -55 2 -109 -5 -25 -15 -35 -46 -47 l-39 -15 0 74 c0 72 1 74 25 74 14 0
25 5 25 11 0 6 -12 9 -27 7 -23 -3 -28 2 -36 32 -6 23 -5 36 2 38 6 2 16 13
22 24 10 19 9 20 -10 15 -20 -5 -21 -1 -21 58 0 50 4 66 17 73 15 9 15 11 1
26 -22 22 -25 21 -33 -14 -8 -36 -9 -36 -46 -9 -16 11 -34 17 -40 14 -5 -4
-18 0 -27 8 -22 18 -72 31 -72 18 0 -6 -7 -8 -15 -5 -8 4 -15 13 -15 21 0 12
-7 14 -30 10 -20 -4 -32 -2 -37 8 -4 7 -29 23 -55 34 -33 14 -48 26 -48 39 0
10 -7 27 -16 38 -14 18 -15 17 -9 -18 l6 -36 -51 19 c-28 11 -56 17 -61 13
-11 -6 -79 14 -79 25 0 3 6 15 14 26 16 24 27 98 16 115 -5 9 -9 9 -14 1 -4
-6 -5 -15 -2 -19 2 -4 2 -13 -2 -19 -5 -8 -14 -5 -30 7 l-23 19 46 51 c24 28
54 67 65 88 11 20 36 59 55 86 19 26 32 52 29 58 -9 14 -72 -49 -105 -107 -16
-27 -38 -61 -49 -75 l-21 -25 7 40 c4 22 17 74 30 115 29 91 29 106 7 243 -17
103 -24 120 -38 96z m-444 -161 l-4 -53 -13 30 c-17 38 -17 72 -1 78 20 7 22
1 18 -55z m140 -431 c-8 -8 -11 -4 -11 14 0 33 14 47 18 19 2 -12 -1 -27 -7
-33z m312 -67 c-8 -33 -7 -32 -37 -19 -21 10 -25 17 -19 38 9 40 13 42 38 24
18 -14 22 -24 18 -43z m-873 -127 c0 -10 7 -30 15 -46 13 -25 12 -28 -10 -43
-13 -9 -28 -13 -33 -10 -11 6 -46 76 -40 80 23 18 54 36 60 36 5 0 8 -8 8 -17z
m-172 -25 c5 -7 12 -28 14 -47 l5 -35 -24 30 c-41 50 -46 64 -25 64 11 0 24
-6 30 -12z m110 -47 l32 -40 -36 -21 c-19 -12 -36 -21 -38 -19 -1 2 -10 23
-19 46 -16 41 -16 43 5 58 13 8 23 15 24 15 0 0 15 -18 32 -39z m886 -97 c10
-47 16 -88 13 -90 -2 -2 -29 7 -60 22 -53 24 -56 27 -46 47 22 43 64 107 70
107 4 0 14 -39 23 -86z m576 51 l25 -14 -37 -1 c-27 0 -38 4 -38 15 0 19 17
19 50 0z m-419 -55 c8 -39 4 -50 -18 -50 -11 0 -14 8 -11 30 3 17 1 30 -4 30
-4 0 -8 7 -8 16 0 31 34 10 41 -26z m-61 17 c0 -8 -11 -19 -25 -25 -34 -16
-35 -15 -35 7 0 18 6 21 53 30 4 0 7 -5 7 -12z m10 -57 c0 -17 -32 -40 -56
-40 -12 0 -1 40 14 49 27 16 42 13 42 -9z m-80 -80 c6 9 151 42 158 36 1 -2
13 -40 26 -85 13 -44 28 -87 34 -94 30 -36 46 -134 47 -283 l0 -152 -35 5
c-50 8 -90 31 -90 51 0 13 -2 14 -9 4 -6 -10 -18 -7 -53 17 -25 17 -55 31 -67
31 -18 0 -21 6 -21 48 0 34 3 43 10 32 8 -13 10 -12 10 3 0 20 -11 22 -28 5
-9 -9 -12 -7 -12 13 0 41 -12 70 -26 65 -8 -3 -14 5 -17 20 -4 21 -4 21 -3 -3
1 -17 6 -27 14 -26 6 2 12 -2 12 -7 0 -5 -4 -10 -9 -10 -5 0 -6 -10 -3 -22 6
-23 6 -23 12 2 4 14 7 -12 8 -58 1 -72 -1 -83 -15 -78 -29 11 -97 26 -138 29
-35 3 -41 6 -45 32 -3 19 -12 31 -24 33 -14 3 -17 0 -12 -12 3 -9 9 -23 12
-31 5 -12 -2 -15 -28 -15 -19 0 -71 -2 -114 -5 l-79 -5 60 16 c33 8 68 16 78
17 21 2 22 28 1 86 -16 48 -13 74 10 65 23 -9 28 -35 10 -55 -16 -18 -16 -19
5 -19 12 0 29 -7 37 -15 9 -8 19 -15 24 -15 16 0 4 55 -17 77 -31 31 -29 40
15 53 20 7 43 19 50 28 7 9 12 11 12 4 0 -7 9 -12 20 -12 11 0 20 -7 20 -15 0
-8 5 -15 10 -15 12 0 13 30 1 49 -6 10 -22 12 -55 9 -25 -3 -46 -3 -46 1 0 32
39 141 51 141 5 0 6 -7 3 -15 -4 -8 -1 -15 4 -15 19 0 22 17 6 31 -18 15 -12
50 17 90 l20 28 71 -34 c44 -21 74 -31 78 -25z m-1052 6 c8 -19 8 -25 -3 -30
-16 -6 -48 32 -39 46 10 16 31 8 42 -16z m-484 -92 c4 -15 5 -28 2 -31 -9 -10
-117 -33 -126 -28 -6 3 -10 2 -10 -3 0 -5 -18 -17 -40 -27 -44 -20 -58 -15
-62 23 -3 22 5 25 91 48 52 14 101 29 110 34 24 14 28 12 35 -16z m2505 15
c39 -14 49 -46 32 -108 -7 -25 -14 -47 -16 -49 -2 -3 -20 6 -40 18 -33 20 -36
26 -31 53 3 16 6 45 6 63 0 38 3 39 49 23z m616 -16 c4 -16 8 -36 10 -45 3
-19 -20 -56 -30 -47 -3 4 -9 32 -12 63 -5 47 -3 56 10 56 10 0 19 -11 22 -27z
m-1914 -43 c-6 -22 -16 -40 -21 -40 -16 0 -11 56 5 70 8 7 12 17 8 24 -4 7 -1
6 7 -1 11 -10 11 -20 1 -53z m1224 5 c0 -25 -4 -45 -8 -45 -5 0 -5 -5 -1 -12
4 -7 3 -8 -5 -4 -6 4 -9 12 -6 17 4 5 -3 9 -14 9 -28 0 -27 27 1 57 12 13 24
23 27 23 3 0 6 -20 6 -45z m-542 0 c24 -50 22 -55 -18 -55 -28 0 -35 4 -35 19
0 11 -4 23 -10 26 -6 4 -10 -7 -10 -27 l-1 -33 -14 25 c-8 14 -14 28 -15 32 0
7 67 47 81 48 3 0 13 -16 22 -35z m753 0 c9 -36 -2 -42 -25 -14 -26 30 -26 39
-1 39 13 0 22 -9 26 -25z m-2606 -40 c0 -3 -7 -17 -16 -30 -15 -23 -14 -33 11
-142 15 -65 33 -130 40 -145 13 -27 13 -28 -16 -28 -19 0 -29 5 -29 15 0 8 5
15 10 15 6 0 10 5 10 10 0 6 -11 10 -25 10 -25 0 -33 -14 -15 -25 12 -8 13
-25 1 -25 -5 0 -13 12 -19 28 -24 63 -24 67 10 85 l33 16 -27 0 c-34 1 -37 24
-5 39 21 10 20 11 -9 11 -26 1 -33 6 -38 28 -5 17 -3 29 6 34 15 10 10 16 -17
21 -25 4 -35 17 -35 45 0 18 8 24 43 31 49 11 87 14 87 7z m-156 -51 c10 -26
7 -32 -23 -42 -25 -9 -30 -7 -39 14 -9 19 -8 25 6 33 25 15 49 13 56 -5z m-82
-44 c12 -21 25 -30 43 -30 22 0 25 -4 25 -39 0 -36 3 -39 30 -43 17 -3 33 -1
36 3 6 10 34 0 34 -12 0 -5 -11 -9 -25 -9 -14 0 -25 -5 -25 -11 0 -5 -4 -8 -9
-4 -6 3 -31 0 -56 -6 -51 -13 -56 -35 -6 -31 27 2 31 -1 31 -22 0 -13 -6 -27
-12 -29 -10 -4 -10 -8 1 -15 13 -9 20 -66 10 -76 -2 -2 -19 -7 -36 -11 -30 -6
-33 -4 -34 17 -1 13 -1 29 0 36 2 15 -29 16 -66 0 -15 -6 -32 -10 -36 -9 -4 0
-16 -3 -27 -9 -20 -11 -24 -3 -48 107 -8 36 -7 42 9 46 26 7 24 29 -3 25 -22
-3 -23 -1 -41 74 -7 26 -4 28 48 44 30 10 57 15 61 12 3 -3 6 -20 6 -38 1 -34
20 -49 41 -32 6 6 23 12 37 15 17 3 11 5 -16 6 -28 1 -44 6 -48 17 -14 37 -6
45 49 53 6 0 18 -13 27 -29z m136 -52 c9 -32 7 -47 -3 -36 -11 11 -23 68 -15
68 5 0 13 -15 18 -32z m179 10 c-3 -8 -6 -5 -6 6 -1 11 2 17 5 13 3 -3 4 -12
1 -19z m1058 -52 c9 -26 15 -49 13 -51 -7 -8 -137 -11 -132 -3 3 4 -1 8 -8 8
-8 0 -19 14 -25 30 -11 30 -11 31 38 56 27 13 54 22 59 19 5 -3 12 0 16 6 8
14 17 0 39 -65z m-1274 52 c0 -7 2 -21 4 -30 2 -10 -3 -18 -11 -18 -9 0 -14
11 -14 30 0 28 19 44 21 18z m250 -93 c12 -25 27 -45 35 -45 19 0 18 -10 -3
-26 -29 -22 -39 -16 -50 29 -6 23 -14 52 -18 65 -13 40 14 24 36 -23z m-198
-54 c6 -25 0 -31 -30 -31 -18 0 -23 5 -23 25 0 20 5 25 24 25 15 0 26 -7 29
-19z m1183 -56 c8 -20 24 -19 24 1 0 14 11 16 85 11 78 -6 119 -12 154 -23 10
-3 11 -7 2 -18 -10 -12 -9 -14 6 -11 10 1 17 8 15 15 -2 7 3 10 11 7 8 -3 19
-1 23 3 5 5 19 7 31 4 27 -7 43 -90 43 -225 l0 -94 -150 0 c-138 0 -150 1
-158 19 -6 14 -11 16 -16 8 -4 -7 -3 -12 2 -12 23 0 -2 -39 -28 -45 -38 -8
-155 -92 -207 -148 -23 -25 -52 -66 -65 -91 -16 -34 -26 -45 -38 -40 -8 3 -41
15 -72 26 -32 11 -58 23 -58 26 1 4 31 29 67 55 72 53 71 53 103 -3 17 -29 21
-2 5 35 -8 21 -14 39 -13 40 2 1 39 23 83 49 44 26 106 68 139 93 47 37 60 43
68 32 7 -10 8 -9 3 6 -4 11 -9 27 -12 37 -5 17 -32 28 -73 28 -22 0 -30 12
-67 93 -23 50 -45 100 -48 109 -6 15 2 17 52 21 32 2 64 4 71 5 7 1 15 -5 18
-13z m-1163 -9 c5 -14 -31 -36 -58 -36 -23 0 -17 30 8 40 32 13 44 12 50 -4z
m1034 -104 c45 -94 50 -108 36 -117 -9 -5 -33 -25 -54 -43 l-38 -33 20 43 c50
108 49 103 35 106 -14 3 -46 64 -46 88 0 9 -7 22 -15 30 -18 19 -19 34 -2 34
6 0 35 -49 64 -108z m597 86 l45 -21 -20 -29 c-26 -35 -16 -37 15 -2 22 26 23
26 54 10 17 -9 35 -17 39 -17 22 -3 83 -41 100 -63 16 -20 32 -26 91 -32 40
-3 72 -11 72 -16 0 -5 8 -8 18 -7 29 3 56 -1 50 -7 -3 -3 -17 -6 -30 -8 -31
-3 -50 -15 -43 -27 10 -15 -4 -10 -34 12 -22 16 -51 23 -122 29 -114 9 -149
21 -150 52 0 23 0 23 -9 2 -7 -19 -14 -21 -57 -17 -26 3 -50 8 -53 10 -9 8
-26 153 -18 153 4 0 28 -10 52 -22z m-1534 2 c0 -5 8 -10 19 -10 15 0 19 -8
19 -41 1 -22 5 -46 11 -53 8 -10 4 -13 -17 -13 -26 0 -29 5 -40 51 -15 63 -15
76 -2 76 6 0 10 -4 10 -10z m707 -26 c-3 -3 -12 -4 -19 -1 -8 3 -5 6 6 6 11 1
17 -2 13 -5z m-1134 -41 c5 -29 -7 -45 -33 -40 -19 3 -25 34 -10 52 19 23 37
18 43 -12z m1057 15 c0 -7 -9 -31 -19 -53 -10 -22 -21 -53 -25 -68 -8 -33 -26
-27 -26 9 0 14 -4 33 -9 42 -5 9 -11 28 -12 42 -3 20 1 26 26 31 49 11 65 10
65 -3z m-140 -50 c0 -4 -7 -8 -15 -8 -10 0 -15 10 -15 28 1 26 1 26 15 8 8
-11 15 -23 15 -28z m20 33 c0 -5 3 -18 6 -28 5 -16 4 -16 -10 1 -18 23 -20 36
-6 36 6 0 10 -4 10 -9z m-904 -91 c10 -33 9 -40 -4 -45 -18 -7 -51 30 -52 57
0 17 30 41 40 32 2 -3 10 -23 16 -44z m490 -57 c13 -32 10 -63 -6 -63 -9 0
-30 89 -29 123 0 21 1 21 11 -3 5 -14 16 -40 24 -57z m684 5 c0 -4 -9 -8 -20
-8 -11 0 -23 -1 -27 -2 -10 -4 -24 55 -17 72 4 11 13 7 35 -20 16 -19 29 -38
29 -42z m-740 37 c0 -28 -15 -34 -24 -9 -10 25 -7 34 9 34 9 0 15 -9 15 -25z
m-146 -31 c25 -9 19 -21 -15 -33 -41 -14 -49 -14 -49 2 0 11 18 25 47 36 1 1
8 -2 17 -5z m1186 -28 c0 -5 -146 -105 -165 -112 -16 -6 -16 -5 -2 22 19 36
54 70 87 83 24 10 80 15 80 7z m-1200 -36 c-8 -5 -19 -10 -25 -10 -5 0 -3 5 5
10 8 5 20 10 25 10 6 0 3 -5 -5 -10z m305 -81 l48 -72 66 6 66 6 -55 -31 c-30
-17 -79 -46 -107 -64 -29 -19 -55 -34 -58 -34 -7 0 -46 79 -66 135 -15 43 -16
53 -3 77 13 24 39 47 55 48 4 0 28 -32 54 -71z m-347 -14 c-3 -39 -4 -40 -43
-43 l-40 -2 33 15 c33 14 44 45 17 45 -18 0 -21 46 -2 53 20 8 38 -25 35 -68z
m2760 20 c11 -23 9 -27 -14 -35 -14 -6 -37 -10 -50 -10 -23 0 -24 2 -10 15 8
8 18 24 21 35 9 28 40 25 53 -5z m70 3 c-3 -7 -13 -13 -23 -13 -10 0 -20 6
-22 13 -3 7 5 12 22 12 17 0 25 -5 23 -12z m-2271 -176 l32 -58 -82 -55 c-98
-64 -97 -64 -97 -49 0 7 -18 33 -39 59 l-40 47 36 29 c40 32 132 85 148 85 6
0 25 -26 42 -58z m117 -61 c7 -11 -22 -23 -36 -15 -6 4 -5 10 3 15 18 11 26
11 33 0z m26 -31 c-35 -30 -50 -36 -50 -22 0 9 62 52 75 52 5 0 -6 -14 -25
-30z m90 10 c-8 -15 -6 -32 12 -72 15 -36 23 -73 23 -113 l0 -60 -30 1 c-16 1
-33 2 -36 3 -3 1 -11 41 -18 91 -7 49 -17 93 -22 96 -7 4 -8 -7 -5 -28 17 -96
22 -147 18 -184 l-4 -40 -166 -34 c-92 -18 -172 -35 -178 -37 -6 -2 -17 10
-24 27 -18 43 -14 46 219 212 41 29 106 76 145 105 39 29 72 52 74 53 1 0 -2
-9 -8 -20z m-180 -21 c0 -5 -7 -9 -15 -9 -15 0 -20 12 -9 23 8 8 24 -1 24 -14z
m247 10 l28 -11 -29 -15 c-24 -12 -30 -13 -37 -1 -12 17 -11 38 0 38 5 0 22
-5 38 -11z m-290 -39 c-3 -13 0 -20 9 -20 20 0 17 -18 -5 -29 -10 -6 -37 -26
-60 -46 -24 -19 -46 -35 -50 -35 -4 0 -12 14 -18 31 -11 29 -10 33 14 53 36
28 96 65 107 66 4 0 6 -9 3 -20z m55 -12 c-6 -6 -15 -8 -19 -4 -4 4 -1 11 7
16 8 5 17 7 19 4 3 -2 -1 -10 -7 -16z m285 -34 c-3 -3 -17 -6 -33 -7 -23 -2
-30 3 -32 20 -3 18 3 24 30 31 30 8 33 6 36 -16 2 -13 1 -26 -1 -28z m58 14
c-7 -44 -19 -66 -27 -51 -3 4 -3 27 0 51 3 28 9 42 19 42 12 0 13 -9 8 -42z
m-17 -83 c3 -2 1 -39 -3 -81 l-7 -76 -31 6 c-18 4 -58 9 -89 13 -68 7 -77 23
-14 23 51 0 56 8 56 82 l0 51 42 -7 c23 -4 44 -9 46 -11z m-111 -201 c15 -33
9 -44 -24 -44 -28 0 -167 -62 -177 -79 -10 -16 -26 -3 -26 20 0 15 5 19 19 14
21 -6 51 3 51 16 0 5 -15 9 -34 9 -25 0 -35 5 -39 20 -6 23 -27 27 -27 5 0 -9
-10 -19 -22 -24 -22 -8 -22 -8 5 -26 32 -21 37 -61 8 -70 -11 -3 -18 -12 -15
-20 3 -7 1 -16 -5 -20 -6 -3 -11 -1 -11 5 0 7 -7 9 -16 6 -10 -4 -27 5 -46 24
-34 34 -54 40 -39 12 5 -10 17 -24 25 -32 23 -18 20 -27 -15 -39 -49 -17 -57
-14 -79 29 -11 21 -29 44 -39 50 -25 13 -68 13 -76 0 -3 -6 5 -10 19 -10 31 0
86 -45 86 -71 0 -28 -51 -38 -64 -13 -6 10 -25 32 -43 48 l-31 30 26 37 c42
59 54 62 106 33 26 -15 46 -21 46 -14 0 6 -13 19 -30 28 -34 19 -40 37 -10 27
11 -3 25 -3 32 1 14 9 21 10 88 18 65 8 194 37 203 45 4 5 38 9 75 10 64 2 68
0 79 -25z m-497 -18 c0 -3 -4 -8 -10 -11 -5 -3 -10 -1 -10 4 0 6 5 11 10 11 6
0 10 -2 10 -4z m160 -247 c0 -21 -21 -49 -38 -49 -5 0 -14 11 -20 24 -8 19 -8
25 3 30 8 3 19 -3 25 -12 10 -15 11 -15 6 0 -5 17 1 28 16 28 4 0 8 -9 8 -21z
m-66 -31 c12 -17 13 -24 3 -30 -13 -8 -37 17 -37 39 0 20 17 16 34 -9z m476
-7 c0 -5 3 -16 6 -25 5 -14 -4 -16 -59 -16 -56 0 -65 3 -70 20 -4 17 1 19 52
23 31 2 59 4 64 5 4 1 7 -2 7 -7z m-450 -56 c0 -19 -56 -82 -66 -73 -9 9 16
69 26 63 4 -3 13 2 20 10 16 19 20 19 20 0z m380 -41 c0 -34 -24 -94 -37 -94
-9 0 -13 16 -13 55 0 52 1 55 25 55 16 0 25 -6 25 -16z"/>
<path d="M2290 3516 c0 -2 8 -10 18 -17 15 -13 16 -12 3 4 -13 16 -21 21 -21
13z"/>
<path d="M2065 3481 c-4 -7 1 -8 12 -4 15 6 16 4 6 -8 -15 -19 -2 -41 27 -46
18 -3 19 0 10 17 -6 11 -13 20 -16 20 -3 0 -3 -4 1 -9 3 -5 0 -13 -6 -16 -7
-5 -10 2 -7 21 3 27 -15 44 -27 25z"/>
<path d="M2292 3448 c-60 -9 -116 -34 -107 -48 4 -6 1 -10 -5 -10 -6 0 -8 -4
-5 -10 4 -6 18 -4 37 6 17 9 52 22 79 30 42 13 68 30 58 38 -2 1 -28 -1 -57
-6z"/>
<path d="M2413 3440 c-3 -11 -9 -20 -14 -20 -5 0 -9 -5 -9 -11 0 -8 5 -8 15 1
8 7 15 20 15 29 0 14 2 14 10 1 8 -13 10 -12 10 3 0 24 -21 22 -27 -3z"/>
<path d="M2360 3420 c0 -5 5 -10 11 -10 5 0 7 5 4 10 -3 6 -8 10 -11 10 -2 0
-4 -4 -4 -10z"/>
<path d="M2340 3411 c0 -5 4 -12 9 -15 5 -3 7 -25 5 -49 l-3 -42 9 44 c7 34 6
46 -5 58 -8 8 -15 10 -15 4z"/>
<path d="M2150 3345 c-9 -11 -8 -14 9 -12 22 1 28 12 12 21 -5 3 -14 -1 -21
-9z"/>
<path d="M2370 3320 c0 -11 -5 -20 -10 -20 -7 0 -7 -6 0 -20 13 -25 30 -26 30
-2 0 15 -2 15 -11 2 -7 -11 -8 -5 -3 23 3 20 3 37 0 37 -3 0 -6 -9 -6 -20z"/>
<path d="M2089 3283 c-1 -16 -3 -38 -4 -50 -1 -12 1 -20 5 -18 12 8 26 -17 28
-50 1 -16 6 -33 11 -38 14 -14 7 107 -6 121 -7 7 -13 24 -13 38 0 33 -20 30
-21 -3z"/>
<path d="M2424 3255 c-4 -8 -10 -15 -16 -15 -5 0 -6 4 -3 10 3 6 -1 7 -10 3
-12 -4 -13 -8 -5 -13 8 -5 6 -9 -6 -14 -15 -6 -16 -9 -4 -16 16 -10 33 -3 25
10 -3 5 4 11 15 15 11 3 20 13 20 21 0 18 -9 18 -16 -1z"/>
<path d="M2280 3220 c0 -5 7 -10 16 -10 8 0 12 5 9 10 -3 6 -10 10 -16 10 -5
0 -9 -4 -9 -10z"/>
<path d="M2356 3183 c-6 -14 -5 -15 5 -6 7 7 10 15 7 18 -3 3 -9 -2 -12 -12z"/>
<path d="M2386 3168 c-12 -37 -16 -72 -8 -59 8 11 10 11 14 0 3 -8 5 5 4 29
-1 43 -4 52 -10 30z"/>
<path d="M2268 3138 c-7 -17 15 -19 29 -3 4 4 3 5 -4 2 -6 -4 -13 -2 -15 5 -3
8 -6 6 -10 -4z"/>
<path d="M350 3122 c0 -14 11 -21 26 -15 21 8 17 23 -6 23 -11 0 -20 -4 -20
-8z"/>
<path d="M398 3118 c-4 -10 -5 -25 -2 -33 4 -10 0 -15 -15 -15 -12 0 -21 -6
-21 -15 0 -18 18 -19 56 -5 24 9 25 12 11 23 -8 7 -17 23 -19 37 -3 21 -4 22
-10 8z"/>
<path d="M1819 3244 c7 -26 24 -33 29 -12 2 9 0 8 -8 -2 -9 -12 -11 -10 -7 11
2 16 -1 26 -8 26 -8 0 -10 -9 -6 -23z"/>
<path d="M1785 3190 c-3 -5 -1 -10 4 -10 6 0 11 5 11 10 0 6 -2 10 -4 10 -3 0
-8 -4 -11 -10z"/>
<path d="M1734 3045 c-3 -8 1 -24 9 -36 9 -12 13 -28 10 -35 -10 -25 32 -15
67 17 21 18 27 28 17 25 -60 -19 -64 -18 -75 13 -12 34 -20 39 -28 16z"/>
<path d="M1980 2880 c0 -5 5 -10 10 -10 6 0 10 5 10 10 0 6 -4 10 -10 10 -5 0
-10 -4 -10 -10z"/>
<path d="M2140 2879 c0 -5 5 -7 10 -4 6 3 10 8 10 11 0 2 -4 4 -10 4 -5 0 -10
-5 -10 -11z"/>
<path d="M2197 2870 c3 -11 7 -20 9 -20 2 0 4 9 4 20 0 11 -4 20 -9 20 -5 0
-7 -9 -4 -20z"/>
<path d="M1923 2868 c-26 -12 -31 -38 -8 -38 8 0 15 7 15 16 0 11 6 14 20 9
14 -5 20 -2 20 9 0 18 -15 19 -47 4z"/>
<path d="M2190 2828 c0 -7 5 -20 10 -28 8 -12 10 -11 10 7 0 12 -4 25 -10 28
-5 3 -10 0 -10 -7z"/>
<path d="M890 2651 c0 -14 38 -81 46 -81 9 0 3 17 -21 55 -13 22 -25 34 -25
26z"/>
<path d="M1125 2000 c3 -5 11 -10 16 -10 6 0 7 5 4 10 -3 6 -11 10 -16 10 -6
0 -7 -4 -4 -10z"/>
<path d="M1790 4612 c-93 -50 -96 -71 -3 -23 65 33 100 57 93 64 -3 2 -43 -16
-90 -41z"/>
<path d="M2680 4610 c0 -5 10 -10 21 -10 17 0 19 -3 10 -13 -6 -8 -7 -18 -3
-22 4 -5 1 -5 -6 -1 -7 4 -20 2 -29 -6 -15 -11 -16 -11 -10 5 9 23 3 22 -62
-15 -67 -37 -101 -66 -101 -86 0 -11 8 -9 36 7 37 22 59 20 50 -5 -3 -8 -1
-14 5 -14 19 0 64 -41 64 -58 0 -14 14 -17 90 -19 50 -1 84 0 77 3 -8 4 -23
27 -34 53 l-19 46 23 15 c13 8 34 27 48 42 13 16 33 28 44 28 37 0 2 18 -74
39 -81 23 -130 27 -130 11z m69 -42 c-9 -16 -14 -19 -17 -9 -2 7 2 17 9 22 20
13 21 11 8 -13z m81 2 c9 0 -1 -14 -24 -35 -21 -20 -41 -33 -44 -30 -3 3 0 11
6 17 7 7 12 19 12 27 0 11 -4 10 -15 -5 -17 -22 -20 -12 -4 18 8 14 17 18 32
14 12 -3 29 -6 37 -6z m-145 -70 c-35 -36 -25 -53 11 -19 23 20 25 21 16 4 -6
-11 -17 -29 -25 -40 -15 -19 -15 -19 -36 -1 l-22 20 38 38 c20 21 39 35 42 33
2 -3 -8 -19 -24 -35z m-45 8 c-11 -12 -23 -19 -26 -15 -9 9 15 37 33 37 10 0
8 -6 -7 -22z m123 -86 c22 -24 16 -29 -28 -24 -35 4 -35 5 -19 23 21 24 27 24
47 1z"/>
<path d="M610 4365 c0 -16 7 -57 14 -90 14 -57 14 -61 -10 -100 -31 -53 -27
-121 11 -220 15 -38 30 -92 35 -120 16 -101 41 -118 37 -26 -2 50 0 61 15 64
21 6 37 -32 18 -43 -20 -13 0 -32 26 -26 17 5 24 2 24 -8 0 -8 2 -23 5 -33 3
-11 1 -9 -6 5 -7 12 -16 22 -21 22 -9 0 -11 -103 -2 -137 9 -32 24 -29 24 5 0
15 7 35 14 45 13 17 15 17 24 1 8 -14 14 -7 36 39 l26 55 -24 81 c-23 80 -31
99 -40 90 -6 -6 12 -87 26 -115 13 -27 7 -86 -10 -92 -7 -2 -12 0 -11 5 3 19
-3 67 -8 56 -7 -18 -21 -16 -42 5 -25 24 -32 47 -18 62 9 10 8 12 -5 7 -12 -4
-18 -1 -18 9 0 8 -13 43 -29 79 -16 35 -26 67 -23 71 4 4 2 4 -5 0 -9 -5 -9
-14 -3 -31 6 -15 6 -27 0 -30 -16 -10 -32 6 -27 26 3 11 2 19 -3 19 -20 0 -16
31 8 57 26 28 26 28 4 31 -27 4 -27 10 -3 42 37 47 147 19 167 -42 3 -12 12
-17 22 -14 13 3 24 -10 45 -53 15 -32 27 -66 27 -75 0 -23 18 -56 30 -56 6 0
10 25 10 56 0 49 2 55 18 49 14 -5 15 -4 5 6 -20 20 -16 35 13 54 22 14 28 15
35 4 19 -30 8 10 -17 60 -14 29 -24 54 -22 55 43 27 58 34 83 40 17 3 35 3 41
-2 12 -8 54 -73 54 -84 0 -3 -16 -12 -35 -18 -47 -16 -46 -34 3 -25 44 7 70
-9 74 -44 5 -37 -16 -35 -35 4 -9 19 -21 35 -26 35 -16 0 23 -94 52 -125 l29
-30 -16 31 c-13 27 -13 34 -1 44 11 9 17 6 30 -17 15 -26 15 -26 9 -3 -4 14
-8 33 -8 43 0 9 -5 17 -10 17 -5 0 -7 3 -3 6 3 4 27 -6 52 -21 83 -48 74 -4
-10 50 -44 28 -61 48 -85 95 -17 33 -41 67 -55 76 -24 15 -29 15 -85 -6 -34
-13 -60 -29 -62 -39 -3 -12 -8 -9 -23 14 -30 47 -87 116 -92 111 -3 -2 16 -33
41 -67 50 -68 56 -89 28 -89 -11 0 -33 26 -62 75 -45 76 -60 90 -60 57 0 -19
51 -105 69 -116 6 -4 11 -16 11 -27 0 -11 -4 -18 -9 -14 -5 3 -12 1 -16 -5 -3
-5 0 -10 7 -11 18 -1 -23 -17 -45 -18 -24 -1 -44 43 -28 63 10 12 9 14 -7 9
-14 -3 -22 3 -32 26 -7 17 -17 31 -22 31 -6 0 -7 -8 -3 -17 20 -49 19 -53 -19
-53 -32 0 -39 4 -50 33 -8 17 -17 51 -21 74 -3 22 -13 49 -20 60 -13 17 -14
16 -15 -12z m363 -185 c4 -15 -2 -24 -25 -36 -28 -14 -31 -14 -43 3 -9 12 -10
21 -4 28 7 7 15 4 25 -9 16 -22 19 -14 5 13 -8 13 -5 17 14 19 15 1 24 -5 28
-18z m-47 -106 c5 -48 -8 -47 -36 2 -19 36 -24 53 -16 63 9 11 14 9 30 -12 11
-14 21 -38 22 -53z m64 62 c0 -2 -7 -7 -16 -10 -8 -3 -12 -2 -9 4 6 10 25 14
25 6z m-299 -198 c22 -27 24 -48 5 -48 -11 0 -36 46 -36 66 0 10 14 2 31 -18z
m117 -174 c-3 -14 -5 -12 -10 9 -3 19 -2 25 4 19 6 -6 8 -18 6 -28z"/>
<path d="M2617 4352 c2 -11 -6 -25 -26 -40 -28 -21 -29 -23 -15 -51 15 -30 44
-60 44 -45 0 5 11 14 25 21 31 14 33 0 3 -22 -16 -12 -19 -19 -10 -22 6 -3 12
-11 12 -19 0 -9 -4 -13 -8 -10 -4 2 -19 -4 -32 -15 -21 -15 -22 -19 -7 -19 10
0 29 8 43 17 22 14 27 14 36 2 8 -11 9 -11 4 3 -3 10 -1 20 4 23 18 11 10 26
-10 20 -11 -3 -20 -2 -20 4 0 20 22 23 41 5 10 -9 22 -14 26 -11 3 4 2 7 -2 7
-5 0 0 7 11 16 18 15 18 15 -3 9 -33 -9 -29 10 10 46 l32 31 -32 -21 c-40 -27
-56 -27 -48 -1 5 15 3 18 -9 14 -19 -7 -21 7 -3 25 10 11 8 12 -12 6 -21 -6
-23 -4 -19 13 4 15 2 19 -8 15 -8 -3 -14 0 -14 6 0 6 -4 11 -9 11 -5 0 -7 -8
-4 -18z m23 -41 c0 -5 -7 -17 -16 -25 -30 -31 -46 -16 -17 16 17 19 33 24 33
9z m-1 -57 c-13 -14 -25 -20 -27 -14 -2 6 4 18 14 25 31 24 39 17 13 -11z"/>
<path d="M2075 4250 c-8 -13 4 -70 15 -70 5 0 6 17 3 38 -7 43 -9 47 -18 32z"/>
<path d="M1810 4235 c0 -17 2 -18 24 -9 23 9 20 24 -4 24 -11 0 -20 -7 -20
-15z"/>
<path d="M2426 4219 c-25 -29 -26 -33 -11 -55 14 -21 13 -26 -6 -59 -23 -39
-23 -39 -50 -25 -15 8 -19 7 -19 -4 0 -9 11 -18 25 -22 14 -3 25 -11 25 -16 0
-20 27 11 45 52 10 22 22 40 27 40 4 0 8 -20 8 -45 0 -34 -4 -45 -16 -45 -9 0
-14 -6 -11 -12 2 -7 15 -13 28 -13 22 0 24 5 27 56 3 51 0 59 -23 77 -14 11
-31 22 -38 25 -7 2 -3 13 11 32 41 51 20 64 -22 14z"/>
<path d="M1825 4190 c-4 -6 5 -10 19 -10 14 0 26 5 26 10 0 6 -9 10 -19 10
-11 0 -23 -4 -26 -10z"/>
<path d="M3135 4187 c-4 -10 -5 -35 -1 -56 6 -37 4 -40 -30 -56 -45 -21 -64
-14 -64 25 0 17 -4 29 -9 26 -4 -3 -8 -25 -7 -48 1 -24 3 -78 4 -120 1 -43 5
-78 10 -78 4 0 9 30 10 67 4 76 6 83 31 83 10 0 26 9 36 20 28 31 33 24 23
-31 -11 -61 -8 -82 10 -70 9 6 13 35 13 102 0 102 -13 168 -26 136z"/>
<path d="M2828 4155 c11 -22 39 -71 61 -110 42 -72 52 -115 26 -115 -15 0 -24
-23 -28 -72 -4 -50 15 -34 40 33 l25 67 -63 108 c-65 113 -96 158 -61 89z"/>
<path d="M2689 4111 c-44 -39 -52 -64 -11 -36 20 15 68 75 59 75 -2 0 -24 -18
-48 -39z"/>
<path d="M1616 4113 c-7 -7 13 -33 25 -33 5 0 9 6 9 14 0 15 -24 28 -34 19z"/>
<path d="M822 4053 c2 -26 7 -37 17 -35 7 2 24 -7 37 -19 34 -32 30 -9 -6 36
-16 21 -30 42 -30 46 0 5 -5 9 -11 9 -6 0 -9 -16 -7 -37z"/>
<path d="M3273 4021 c4 -33 -3 -67 -28 -145 -21 -62 -31 -111 -28 -128 5 -26
3 -28 -31 -28 -25 0 -36 -4 -36 -15 0 -11 11 -15 38 -15 52 0 59 8 61 68 0 29
12 85 26 126 21 61 24 80 16 120 -11 61 -25 74 -18 17z"/>
<path d="M1740 4030 c0 -11 2 -20 4 -20 2 0 6 9 9 20 3 11 1 20 -4 20 -5 0 -9
-9 -9 -20z"/>
<path d="M2037 4023 c-29 -7 -13 -28 19 -25 49 4 74 12 74 22 0 10 -59 12 -93
3z"/>
<path d="M2320 3999 c0 -11 5 -17 10 -14 6 3 10 13 10 21 0 8 -4 14 -10 14 -5
0 -10 -9 -10 -21z"/>
<path d="M990 4001 c0 -12 87 -91 100 -91 18 0 11 14 -32 57 -39 40 -68 55
-68 34z"/>
<path d="M1702 3990 c0 -14 2 -19 5 -12 2 6 2 18 0 25 -3 6 -5 1 -5 -13z"/>
<path d="M3820 3960 c0 -5 9 -10 20 -10 10 0 25 -10 31 -22 12 -23 41 -49 47
-43 2 2 -6 21 -18 44 -17 34 -25 41 -50 41 -17 0 -30 -4 -30 -10z"/>
<path d="M3463 3949 c-62 -12 -119 -44 -131 -76 -26 -65 -43 -125 -37 -131 11
-11 44 36 57 80 11 38 18 44 88 75 41 19 77 37 79 39 13 12 -19 20 -56 13z"/>
<path d="M2031 3926 c-1 -12 -6 -16 -16 -12 -8 3 -15 3 -15 0 0 -8 28 -35 37
-35 9 -1 25 42 18 49 -3 3 -5 -1 -6 -9 0 -8 -4 -6 -9 6 -8 18 -9 19 -9 1z"/>
<path d="M1981 3914 c0 -11 3 -14 6 -6 3 7 2 16 -1 19 -3 4 -6 -2 -5 -13z"/>
<path d="M3640 3924 c0 -6 7 -31 15 -54 8 -23 15 -46 15 -50 0 -14 -44 -20
-52 -7 -5 8 -8 7 -8 -5 0 -21 12 -29 29 -19 18 12 51 2 51 -15 0 -8 5 -14 10
-14 6 0 10 9 10 20 0 11 6 20 13 20 7 0 22 7 33 15 18 15 16 15 -22 10 -41 -6
-42 -6 -48 29 -6 33 -45 93 -46 70z"/>
<path d="M2079 3872 c-7 -23 -15 -42 -20 -42 -10 0 -20 -28 -25 -70 -2 -19 -6
-45 -8 -58 -9 -42 11 -13 34 50 12 35 28 66 34 70 14 9 18 56 7 77 -7 11 -12
5 -22 -27z"/>
<path d="M3135 3878 c13 -59 24 -66 25 -15 0 36 -4 47 -16 47 -12 0 -14 -7 -9
-32z"/>
<path d="M2012 3839 c1 -17 6 -32 9 -35 4 -2 6 9 4 26 -3 21 -1 28 7 24 7 -4
8 -3 4 4 -14 22 -26 12 -24 -19z"/>
<path d="M1958 3843 c6 -2 10 -9 7 -13 -3 -5 -12 -7 -20 -3 -10 3 -15 -1 -14
-13 0 -11 3 -14 6 -6 2 6 9 9 15 6 6 -4 14 0 19 7 13 21 11 29 -8 28 -11 0
-13 -3 -5 -6z"/>
<path d="M1986 3835 c-3 -8 -1 -15 4 -15 6 0 10 7 10 15 0 8 -2 15 -4 15 -2 0
-6 -7 -10 -15z"/>
<path d="M2715 3840 c3 -5 8 -10 11 -10 2 0 4 5 4 10 0 6 -5 10 -11 10 -5 0
-7 -4 -4 -10z"/>
<path d="M2915 3829 c-11 -17 -2 -18 19 -3 17 12 17 14 4 14 -9 0 -20 -5 -23
-11z"/>
<path d="M1880 3818 c0 -10 -5 -18 -12 -18 -6 0 -9 -3 -5 -6 3 -3 12 -2 21 3
10 6 12 13 6 23 -8 13 -10 12 -10 -2z"/>
<path d="M2511 3788 c0 -7 4 -22 9 -33 8 -18 9 -17 9 7 1 15 -3 30 -9 33 -5 3
-10 0 -9 -7z"/>
<path d="M1778 3776 c-12 -11 -18 -12 -27 -3 -9 9 -11 8 -6 -5 8 -21 35 -32
35 -14 0 8 6 16 13 19 6 2 9 7 6 11 -4 4 -13 0 -21 -8z"/>
<path d="M1946 3754 c-9 -24 -8 -25 13 -12 11 7 17 16 15 20 -8 13 -21 9 -28
-8z"/>
<path d="M1962 3728 c-16 -16 -15 -27 1 -24 18 3 37 16 37 27 0 13 -24 11 -38
-3z"/>
<path d="M2580 3720 c-14 -3 -26 -13 -28 -22 -4 -20 31 -14 49 8 15 19 10 22
-21 14z"/>
<path d="M3955 3720 c4 -6 11 -8 16 -5 14 9 11 15 -7 15 -8 0 -12 -5 -9 -10z"/>
<path d="M1601 3693 l-22 -18 27 -2 c19 -1 23 1 13 8 -11 7 -11 9 4 9 9 0 17
5 17 10 0 15 -15 12 -39 -7z"/>
<path d="M1931 3684 c0 -11 3 -14 6 -6 3 7 2 16 -1 19 -3 4 -6 -2 -5 -13z"/>
<path d="M3078 3693 c-10 -3 -18 -10 -18 -17 0 -10 8 -11 35 -2 19 6 35 13 35
16 0 7 -29 8 -52 3z"/>
<path d="M1920 3656 c0 -2 6 -9 14 -15 11 -9 16 -9 22 0 4 8 3 9 -4 5 -7 -4
-12 -2 -12 3 0 6 -4 11 -10 11 -5 0 -10 -2 -10 -4z"/>
<path d="M3150 3640 c0 -5 5 -10 11 -10 5 0 7 5 4 10 -3 6 -8 10 -11 10 -2 0
-4 -4 -4 -10z"/>
<path d="M1294 3620 c1 -8 8 -15 16 -15 8 0 14 -8 14 -17 -1 -10 4 -14 13 -11
12 5 11 9 -3 24 -9 10 -20 16 -25 14 -4 -3 -9 0 -12 7 -2 8 -3 7 -3 -2z"/>
<path d="M2547 3588 c6 -35 19 -55 28 -46 7 6 -21 78 -29 78 -3 0 -3 -15 1
-32z"/>
<path d="M3145 3590 c3 -5 11 -10 16 -10 6 0 7 5 4 10 -3 6 -11 10 -16 10 -6
0 -7 -4 -4 -10z"/>
<path d="M1521 3574 c0 -11 3 -14 6 -6 3 7 2 16 -1 19 -3 4 -6 -2 -5 -13z"/>
<path d="M1861 3574 c0 -11 3 -14 6 -6 3 7 2 16 -1 19 -3 4 -6 -2 -5 -13z"/>
<path d="M2708 3582 c-11 -4 -14 -12 -9 -20 9 -16 41 -5 41 14 0 15 -6 16 -32
6z"/>
<path d="M1350 3551 c0 -6 4 -13 10 -16 6 -3 7 1 4 9 -7 18 -14 21 -14 7z"/>
<path d="M1300 3540 c0 -5 5 -10 11 -10 5 0 7 5 4 10 -3 6 -8 10 -11 10 -2 0
-4 -4 -4 -10z"/>
<path d="M1376 3522 c-3 -5 1 -9 9 -9 8 0 12 4 9 9 -3 4 -7 8 -9 8 -2 0 -6 -4
-9 -8z"/>
<path d="M1730 3510 c0 -4 -13 -13 -30 -20 -16 -7 -27 -16 -24 -21 3 -5 -6
-13 -20 -19 -14 -5 -26 -12 -26 -15 0 -9 34 -1 42 9 4 6 12 -2 19 -16 12 -28
17 -29 89 -4 38 14 40 15 10 10 -67 -12 -73 -10 -75 15 -1 16 7 33 23 46 19
17 21 22 9 22 -10 0 -17 -4 -17 -7z"/>
<path d="M1292 3477 c-24 -16 -41 -31 -39 -34 7 -7 97 36 97 47 0 19 -17 16
-58 -13z"/>
<path d="M1410 3482 c0 -7 4 -12 8 -12 5 0 13 -10 19 -22 5 -12 12 -17 16 -11
3 5 -5 21 -18 33 -14 13 -25 18 -25 12z"/>
<path d="M3607 3474 c-4 -4 -7 -17 -7 -28 1 -19 1 -20 11 -3 11 19 8 43 -4 31z"/>
<path d="M1564 3424 c-18 -14 -18 -15 4 -4 12 6 22 13 22 15 0 8 -5 6 -26 -11z"/>
<path d="M2810 3397 c0 -24 -6 -65 -14 -90 -8 -26 -11 -60 -7 -77 6 -32 6 -31
25 24 13 38 22 52 28 44 5 -9 8 -10 8 -1 0 6 -4 15 -10 18 -6 3 -7 30 -3 65 5
52 4 60 -11 60 -12 0 -16 -10 -16 -43z"/>
<path d="M1557 3383 c-13 -12 -7 -23 11 -22 10 0 12 3 4 6 -6 2 -10 9 -6 14 6
10 0 12 -9 2z"/>
<path d="M1710 3379 c0 -5 5 -7 10 -4 6 3 10 8 10 11 0 2 -4 4 -10 4 -5 0 -10
-5 -10 -11z"/>
<path d="M1720 3353 c0 -5 5 -15 10 -23 8 -12 10 -11 10 8 0 12 -4 22 -10 22
-5 0 -10 -3 -10 -7z"/>
<path d="M1580 3331 c0 -6 4 -13 10 -16 6 -3 7 1 4 9 -7 18 -14 21 -14 7z"/>
<path d="M3670 3308 c0 -7 5 -20 10 -28 8 -12 10 -11 10 7 0 12 -4 25 -10 28
-5 3 -10 0 -10 -7z"/>
<path d="M3857 3303 c-4 -3 -7 -12 -7 -19 0 -11 5 -11 25 -2 13 6 22 15 19 19
-6 11 -28 12 -37 2z"/>
<path d="M1490 3284 c0 -17 27 -37 34 -25 4 5 2 12 -4 16 -5 3 -10 3 -10 -2 0
-4 -5 -1 -10 7 -5 8 -10 10 -10 4z"/>
<path d="M1527 3243 c-4 -3 -7 -11 -7 -17 0 -6 5 -5 12 2 6 6 9 14 7 17 -3 3
-9 2 -12 -2z"/>
<path d="M3640 3236 c0 -9 5 -16 10 -16 6 0 10 4 10 9 0 6 -4 13 -10 16 -5 3
-10 -1 -10 -9z"/>
<path d="M2810 3218 c0 -6 6 -8 14 -5 8 3 17 2 20 -4 2 -5 3 -4 2 2 -3 15 -36
21 -36 7z"/>
<path d="M1541 3208 c-1 -20 14 -24 25 -6 4 6 3 8 -4 4 -5 -3 -13 0 -15 6 -3
8 -6 6 -6 -4z"/>
<path d="M3652 3194 c-7 -14 -26 -24 -49 -28 -21 -4 -50 -9 -65 -12 -23 -5
-28 -2 -28 13 0 11 -8 19 -19 20 -17 1 -18 -2 -8 -33 9 -31 14 -34 47 -34 46
0 130 28 137 46 2 7 3 21 1 31 -4 16 -5 16 -16 -3z"/>
<path d="M2753 3186 c-22 -10 -31 -26 -15 -26 12 0 48 28 42 32 -3 2 -15 -1
-27 -6z"/>
<path d="M3070 3188 c0 -7 -3 -24 -6 -38 l-5 -25 15 25 c18 29 20 50 6 50 -5
0 -10 -6 -10 -12z"/>
<path d="M3300 3156 c0 -9 5 -16 10 -16 6 0 10 4 10 9 0 6 -4 13 -10 16 -5 3
-10 -1 -10 -9z"/>
<path d="M3240 3146 c0 -15 37 -32 47 -22 9 8 -17 36 -33 36 -8 0 -14 -6 -14
-14z"/>
<path d="M2808 3133 c7 -3 16 -2 19 1 4 3 -2 6 -13 5 -11 0 -14 -3 -6 -6z"/>
<path d="M2636 3068 c-7 -29 -8 -53 -1 -46 11 10 23 68 15 68 -4 0 -10 -10
-14 -22z"/>
<path d="M3266 3001 c-4 -7 -5 -15 -2 -18 9 -9 19 4 14 18 -4 11 -6 11 -12 0z"/>
<path d="M630 2957 c0 -7 6 -21 13 -30 11 -16 14 -16 32 -3 20 15 20 15 -2 16
-14 0 -23 6 -23 15 0 8 -4 15 -10 15 -5 0 -10 -6 -10 -13z"/>
<path d="M1008 2914 c-28 -15 -37 -34 -17 -34 6 0 24 8 40 17 51 30 29 46 -23
17z"/>
<path d="M3544 2905 c10 -45 27 -85 37 -85 11 0 -17 90 -32 104 -9 8 -10 4 -5
-19z"/>
<path d="M570 2900 c0 -5 4 -10 9 -10 6 0 13 5 16 10 3 6 -1 10 -9 10 -9 0
-16 -4 -16 -10z"/>
<path d="M3651 2894 c0 -11 3 -14 6 -6 3 7 2 16 -1 19 -3 4 -6 -2 -5 -13z"/>
<path d="M916 2874 c-21 -12 -25 -19 -17 -27 13 -13 61 8 69 31 5 16 -17 15
-52 -4z"/>
<path d="M3005 2880 c-11 -5 -15 -9 -9 -9 16 -1 5 -51 -11 -51 -7 0 -18 7 -25
15 -12 14 -7 20 14 16 5 -1 4 4 -2 11 -6 8 -28 13 -49 13 -29 -1 -39 -6 -42
-20 -3 -16 -1 -17 11 -7 8 6 18 9 21 5 4 -3 7 -1 7 6 0 7 5 9 10 6 6 -4 8 -10
5 -14 -2 -5 7 -21 21 -36 19 -21 24 -34 20 -54 -6 -25 -6 -25 9 -6 9 11 23 19
31 17 16 -3 19 14 5 23 -12 7 6 65 20 65 4 0 6 7 3 15 -7 17 -10 17 -39 5z"/>
<path d="M3695 2837 c-3 -9 -7 -23 -9 -30 -2 -8 -1 -19 4 -26 5 -9 11 -2 19
20 7 21 8 36 1 43 -6 6 -11 4 -15 -7z"/>
<path d="M2347 2795 c-11 -8 -26 -11 -35 -8 -10 4 -14 3 -10 -2 10 -10 59 -15
53 -5 -3 5 1 10 7 13 7 2 11 7 8 10 -3 3 -13 -1 -23 -8z"/>
<path d="M1390 2785 c0 -16 27 -32 37 -21 7 7 -16 36 -28 36 -5 0 -9 -7 -9
-15z"/>
<path d="M2405 2790 c-4 -6 -10 -8 -15 -5 -15 9 -18 -10 -4 -23 12 -11 14 -10
14 3 0 9 10 20 23 25 16 6 17 9 5 9 -9 1 -20 -4 -23 -9z"/>
<path d="M2708 2747 c-3 -19 -2 -25 4 -19 6 6 8 18 6 28 -3 14 -5 12 -10 -9z"/>
<path d="M3050 2761 c0 -17 14 -19 55 -6 l40 13 -47 1 c-27 1 -48 -3 -48 -8z"/>
<path d="M3603 2720 c3 -19 7 -45 10 -58 3 -12 2 -20 -3 -17 -12 7 -79 -37
-80 -53 0 -18 37 -6 73 24 24 20 49 27 136 36 14 2 27 9 29 17 4 12 -7 13 -62
7 -50 -5 -66 -4 -66 6 0 7 -9 27 -21 43 l-20 30 4 -35z"/>
<path d="M2371 2724 c0 -11 3 -14 6 -6 3 7 2 16 -1 19 -3 4 -6 -2 -5 -13z"/>
<path d="M3220 2710 c8 -5 22 -10 30 -10 13 0 13 1 0 10 -8 5 -22 10 -30 10
-13 0 -13 -1 0 -10z"/>
<path d="M2826 2678 c3 -5 10 -6 15 -3 13 9 11 12 -6 12 -8 0 -12 -4 -9 -9z"/>
<path d="M315 2640 c-4 -6 6 -10 24 -10 16 0 33 5 36 10 4 6 -6 10 -24 10 -16
0 -33 -4 -36 -10z"/>
<path d="M2257 2543 c-4 -3 -7 -15 -7 -25 0 -14 -8 -18 -39 -18 -22 0 -42 4
-45 9 -15 23 -57 21 -96 -5 -47 -32 -40 -55 8 -30 43 22 55 21 42 -5 -17 -30
-4 -36 24 -10 22 20 29 22 68 14 59 -13 68 -8 68 38 0 37 -8 48 -23 32z"/>
<path d="M2335 2500 c-10 -16 5 -90 18 -91 7 -1 17 -2 22 -4 6 -1 15 -3 22 -3
6 -1 13 -14 15 -29 3 -24 8 -28 41 -31 21 -2 41 -10 44 -18 3 -7 9 -11 15 -8
5 3 8 -2 6 -12 -2 -12 4 -19 17 -21 14 -1 15 0 3 3 -10 3 -15 11 -11 20 3 7
-2 16 -10 20 -9 3 -14 11 -11 17 3 9 54 12 173 12 l169 0 -15 -30 c-22 -42
-26 -44 -18 -10 6 28 5 27 -14 -8 -11 -21 -17 -45 -14 -54 4 -10 2 -14 -5 -9
-14 9 -23 -7 -13 -23 8 -13 56 61 92 141 6 15 15 25 20 23 4 -3 5 4 2 15 -4
14 0 20 12 20 25 0 13 22 -25 48 -24 16 -37 19 -44 11 -8 -7 -4 -16 13 -30 22
-18 23 -20 7 -44 -16 -24 -21 -25 -112 -25 -89 0 -95 1 -104 23 -8 21 -9 21
-9 1 -1 -19 -5 -20 -55 -13 -30 4 -60 10 -66 14 -7 4 -14 -2 -17 -15 -4 -16
-12 -20 -32 -18 -15 2 -26 9 -26 18 0 9 7 14 17 12 44 -7 81 45 50 70 -13 11
-14 10 -8 -14 l6 -28 -65 0 -65 0 0 34 c0 36 -13 55 -25 36z m467 -232 c-7 -7
-12 -8 -12 -2 0 14 12 26 19 19 2 -3 -1 -11 -7 -17z"/>
<path d="M2551 2503 c3 -20 -2 -25 -16 -13 -11 9 -15 9 -15 1 0 -7 -5 -9 -12
-5 -7 4 -10 3 -5 -1 4 -5 16 -9 27 -10 24 -2 46 20 30 30 -6 4 -10 3 -9 -2z"/>
<path d="M2620 2440 c0 -13 11 -13 30 0 12 8 11 10 -7 10 -13 0 -23 -4 -23
-10z"/>
<path d="M2920 2425 c-13 -16 -6 -47 16 -66 20 -17 28 -5 13 22 -9 17 -9 24 0
27 16 5 14 32 -3 32 -7 0 -19 -7 -26 -15z"/>
<path d="M1987 2398 l-47 -30 -19 24 c-16 18 -22 20 -32 11 -10 -10 -9 -16 4
-31 16 -17 16 -20 -8 -42 -14 -13 -25 -28 -25 -33 0 -17 -32 -77 -42 -77 -5 0
-7 13 -3 30 8 36 -7 39 -28 6 -14 -20 -14 -27 -1 -50 14 -29 15 -76 1 -76 -4
0 -5 -5 -2 -10 4 -6 3 -10 -2 -9 -51 9 -75 -25 -25 -37 66 -16 71 -63 13 -127
-62 -68 -99 -154 -133 -310 -38 -178 -43 -207 -31 -207 12 0 49 124 59 193 3
27 12 53 18 58 6 5 25 21 41 35 23 19 37 23 61 19 36 -6 94 4 94 16 0 5 -30 9
-68 9 -58 0 -71 -3 -95 -25 -23 -22 -27 -23 -27 -8 0 26 53 133 83 169 15 18
27 37 27 43 0 6 7 11 15 11 21 0 40 77 26 107 -6 13 -18 26 -26 29 -8 4 -15
13 -15 22 0 11 11 6 35 -18 42 -41 55 -34 26 14 -12 19 -17 37 -12 40 5 3 14
20 20 37 9 27 9 30 -4 19 -10 -8 -5 11 13 51 15 34 33 64 38 66 6 2 39 -26 74
-63 l64 -66 -32 -13 c-21 -9 -30 -20 -29 -34 0 -11 5 -18 9 -15 4 3 4 12 1 21
-5 13 -2 15 11 10 10 -4 15 -3 11 3 -3 6 1 10 10 10 18 0 17 -6 -17 -97 -26
-70 -39 -79 -77 -57 -17 10 -33 15 -37 12 -11 -11 5 -25 35 -31 23 -5 30 -13
35 -42 4 -19 12 -35 19 -35 8 0 8 -3 -1 -9 -17 -10 -15 -21 6 -45 16 -18 16
-19 0 -13 -20 7 -24 -3 -7 -20 7 -7 -8 -12 -50 -17 -81 -9 -81 -30 -1 -24 l60
4 11 -39 c9 -36 28 -186 29 -229 0 -10 7 -18 16 -18 15 0 16 17 11 158 l-5
158 72 27 c40 15 75 27 78 27 3 0 19 -14 37 -30 35 -34 32 -54 -14 -84 -15
-10 -25 -20 -22 -22 5 -6 67 16 68 24 0 4 2 17 5 29 5 30 -12 73 -30 73 -25 0
-25 27 -1 50 31 29 47 19 33 -21 -6 -16 -8 -32 -5 -36 10 -9 27 8 27 28 0 16
3 17 19 7 11 -7 18 -15 15 -19 -6 -11 24 -31 36 -24 5 3 10 -2 10 -12 0 -19
18 -43 32 -43 19 0 4 30 -48 95 l-55 70 28 6 c38 8 86 -1 97 -19 6 -11 10 -9
20 9 14 29 53 38 53 13 0 -10 -9 -26 -19 -36 -11 -11 -17 -26 -14 -34 3 -8 1
-14 -3 -14 -14 0 -32 -58 -20 -65 5 -4 24 27 42 67 27 57 44 80 78 104 60 42
76 47 88 26 10 -16 10 -16 11 0 0 9 -6 18 -12 21 -10 3 -10 7 1 20 12 15 11
17 -8 17 -12 0 -24 -7 -27 -15 -4 -8 -12 -15 -19 -15 -7 0 -18 -7 -25 -15 -8
-9 -29 -15 -55 -15 -26 0 -45 -5 -48 -12 -3 -7 -10 -1 -16 15 -11 28 -31 29
-31 2 0 -15 -25 -21 -123 -29 -44 -3 -56 -2 -49 7 12 16 0 119 -15 124 -18 6
-26 -38 -13 -71 6 -16 9 -31 7 -33 -7 -7 -28 25 -30 45 0 11 -6 18 -13 15 -14
-5 -56 46 -51 61 2 6 -5 15 -16 21 -31 16 -31 34 0 46 61 23 93 42 93 55 0 18
3 19 -74 -16 -37 -17 -72 -28 -78 -24 -5 4 -14 1 -18 -7 -6 -10 -12 -6 -21 14
-7 15 -16 27 -20 27 -9 0 -59 70 -59 82 0 5 25 24 55 43 30 20 55 38 55 40 0
13 -40 0 -83 -27z m110 -257 c7 -11 42 -55 78 -100 36 -44 65 -85 65 -90 0
-13 -160 -91 -187 -91 -18 0 -21 9 -30 72 -9 67 -8 76 13 116 13 24 26 59 30
78 7 39 14 42 31 15z"/>
<path d="M2066 2053 c-6 -14 -5 -15 5 -6 7 7 10 15 7 18 -3 3 -9 -2 -12 -12z"/>
<path d="M2720 2400 c0 -5 5 -10 11 -10 5 0 7 5 4 10 -3 6 -8 10 -11 10 -2 0
-4 -4 -4 -10z"/>
<path d="M3010 2393 c1 -25 131 -106 212 -132 47 -15 61 -32 52 -66 -6 -25 -7
-25 -25 -9 -16 14 -22 15 -32 5 -9 -10 -8 -11 7 -5 15 6 18 4 13 -9 -4 -12 -2
-14 10 -10 11 4 14 2 9 -5 -5 -8 -2 -10 8 -6 10 4 16 1 16 -9 0 -8 7 -20 15
-27 8 -7 12 -16 9 -21 -3 -5 0 -9 6 -9 6 0 8 -5 4 -12 -4 -7 -3 -8 4 -4 9 5 9
12 0 28 -32 52 -38 64 -38 83 0 11 4 16 8 10 14 -19 51 -35 57 -24 13 21 -63
109 -94 109 -26 0 -142 58 -178 90 -32 28 -63 39 -63 23z"/>
<path d="M2251 2374 c0 -11 3 -14 6 -6 3 7 2 16 -1 19 -3 4 -6 -2 -5 -13z"/>
<path d="M2890 2360 c-12 -7 -10 -9 7 -7 12 0 19 5 17 9 -6 10 -6 10 -24 -2z"/>
<path d="M2033 2333 c-13 -2 -23 -9 -23 -14 0 -14 34 -11 56 6 20 15 13 17
-33 8z"/>
<path d="M2250 2261 c0 -86 14 -115 24 -52 7 46 -3 131 -15 131 -5 0 -9 -36
-9 -79z"/>
<path d="M2062 2284 c-24 -17 -29 -34 -9 -34 12 0 42 39 35 46 -2 2 -14 -3
-26 -12z"/>
<path d="M2621 2292 c-1 -7 -7 -10 -13 -7 -7 4 -5 0 5 -8 12 -10 14 -17 8 -22
-6 -3 -11 -13 -11 -21 0 -8 4 -13 9 -10 13 9 19 39 10 61 -4 11 -8 14 -8 7z"/>
<path d="M3310 2286 c0 -8 4 -17 9 -20 5 -4 7 3 4 14 -6 23 -13 26 -13 6z"/>
<path d="M2531 2215 c-7 -16 -19 -43 -27 -58 -13 -26 -12 -28 4 -25 10 2 22
20 30 43 16 49 11 82 -7 40z"/>
<path d="M2746 2205 c-9 -26 -7 -32 5 -12 6 10 9 21 6 23 -2 3 -7 -2 -11 -11z"/>
<path d="M2610 2182 c0 -11 16 -28 40 -41 33 -18 39 -25 29 -37 -9 -11 -8 -14
8 -14 10 0 24 5 31 12 9 9 13 7 18 -5 8 -22 26 -22 22 1 -7 41 29 12 65 -53
40 -73 57 -98 53 -74 -4 24 -33 84 -60 127 -22 35 -30 41 -50 36 -18 -4 -25
-1 -29 13 -4 17 -5 17 -6 0 -1 -15 -9 -12 -53 18 -60 40 -68 42 -68 17z"/>
<path d="M2300 2160 c20 -13 33 -13 25 0 -3 6 -14 10 -23 10 -15 0 -15 -2 -2
-10z"/>
<path d="M3264 2111 c2 -17 6 -34 9 -38 4 -3 5 9 2 27 -2 18 -6 35 -9 38 -3 3
-4 -9 -2 -27z"/>
<path d="M1943 2095 c-32 -33 -42 -55 -25 -55 15 0 56 50 57 70 1 11 1 20 1
19 -1 0 -16 -16 -33 -34z"/>
<path d="M3466 2103 c-12 -12 -6 -20 33 -46 28 -19 41 -23 50 -14 8 8 11 5 11
-11 0 -24 19 -29 39 -9 10 10 11 9 6 -5 -5 -13 2 -19 37 -29 93 -25 107 -27
118 -14 12 14 5 17 -115 50 -33 9 -76 27 -95 39 -55 35 -77 46 -84 39z"/>
<path d="M2378 2070 c-5 -32 6 -41 16 -14 9 23 7 44 -3 44 -5 0 -11 -13 -13
-30z"/>
<path d="M2998 2058 c-8 -13 -20 -38 -28 -56 l-13 -33 -37 36 c-24 24 -40 33
-45 26 -3 -6 -1 -10 5 -9 7 2 14 -6 16 -17 1 -11 22 -37 45 -58 45 -40 44 -51
-7 -61 -30 -7 -33 -4 -74 59 -46 71 -112 135 -118 116 -2 -6 4 -23 13 -37 16
-24 15 -27 -2 -47 -10 -11 -12 -17 -5 -13 17 10 15 -9 -3 -24 -8 -7 -15 -9
-15 -4 0 4 -5 3 -12 -4 -9 -9 -9 -15 1 -24 10 -11 11 -9 5 6 -5 12 -4 17 3 13
13 -8 47 29 38 42 -3 6 -2 11 2 11 18 0 42 -27 92 -101 27 -42 62 -84 76 -93
29 -19 32 -31 8 -33 -126 -7 -286 -3 -298 7 -17 14 -21 35 -5 25 6 -3 10 -2
10 4 0 5 -9 9 -19 8 -12 -1 -17 -6 -13 -16 4 -10 1 -12 -7 -6 -7 4 -37 9 -67
12 -48 3 -54 2 -54 -16 0 -16 13 -22 75 -36 40 -9 78 -14 83 -11 16 9 40 -30
35 -58 -5 -22 -15 -29 -71 -45 -78 -24 -92 -17 -92 40 0 22 -4 39 -10 39 -5 0
-10 -11 -10 -25 0 -23 -2 -24 -20 -15 -15 8 -20 21 -20 49 0 22 -6 44 -15 51
-13 11 -15 3 -15 -59 0 -67 -2 -73 -35 -110 -34 -38 -44 -61 -26 -61 5 0 28
23 52 51 l42 50 38 -37 c27 -27 49 -65 76 -131 36 -92 73 -149 61 -93 -4 14
-21 63 -38 109 -37 96 -36 98 46 122 24 7 44 16 44 20 0 14 121 2 137 -13 14
-14 13 -17 -6 -23 -12 -4 -20 -12 -18 -18 5 -15 47 -16 48 -2 0 6 10 14 22 18
17 7 27 2 44 -20 23 -29 30 -26 14 5 -5 9 -12 25 -15 34 -4 15 -10 16 -32 8
-22 -9 -30 -7 -48 13 -16 17 -34 24 -71 26 -27 1 -53 8 -57 14 -13 20 -9 37 8
37 10 0 14 6 11 14 -5 12 0 12 26 5 18 -5 83 -9 146 -8 127 2 126 3 172 -86
28 -53 66 -93 111 -116 75 -38 81 -12 8 33 l-50 31 22 24 c12 12 17 23 11 23
-6 0 -13 -7 -17 -15 -10 -26 -23 -16 -55 39 -29 51 -30 56 -16 83 22 41 18 48
-9 16 -31 -36 -46 -22 -18 17 12 16 22 32 22 35 0 11 -24 4 -41 -11 -17 -15
-21 -14 -64 21 -25 21 -44 39 -42 41 1 1 20 14 40 29 34 22 41 24 58 12 10 -8
16 -17 11 -22 -4 -4 -1 -6 7 -3 20 6 26 28 7 28 -28 0 -29 22 0 45 30 24 16
28 -23 7 -18 -10 -27 -10 -43 0 -22 14 -20 28 12 91 22 43 19 60 -4 25z"/>
<path d="M3390 2051 c0 -10 90 -54 97 -47 6 6 -48 42 -74 50 -14 4 -23 3 -23
-3z"/>
<path d="M2689 2013 c0 -10 -2 -26 -4 -36 -3 -18 -3 -18 16 -1 13 12 16 21 9
29 -5 6 -7 15 -3 18 3 4 1 7 -5 7 -7 0 -12 -8 -13 -17z"/>
<path d="M2610 1974 c0 -7 6 -16 13 -20 6 -4 9 -4 5 1 -4 4 -3 13 2 20 7 8 5
12 -5 12 -8 0 -15 -6 -15 -13z"/>
<path d="M3151 1955 c-7 -22 -22 -55 -33 -73 -23 -38 -19 -47 14 -36 13 4 28
9 33 9 6 1 15 3 20 4 6 1 4 5 -3 9 -9 6 -2 20 24 51 29 33 34 45 25 54 -10 9
-20 3 -47 -28 -18 -22 -34 -35 -34 -29 0 5 5 15 11 21 6 6 9 21 7 34 -3 21 -6
18 -17 -16z"/>
<path d="M2995 1969 c-4 -6 -5 -13 -2 -16 7 -7 27 6 27 18 0 12 -17 12 -25 -2z"/>
<path d="M2644 1949 c1 -7 10 -13 19 -15 9 -1 15 2 11 7 -3 5 -9 7 -14 4 -4
-3 -11 0 -13 5 -3 6 -4 5 -3 -1z"/>
<path d="M1880 1930 c0 -5 5 -10 11 -10 5 0 7 5 4 10 -3 6 -8 10 -11 10 -2 0
-4 -4 -4 -10z"/>
<path d="M2676 1911 c-4 -5 -2 -12 3 -15 5 -4 12 -2 15 3 4 5 2 12 -3 15 -5 4
-12 2 -15 -3z"/>
<path d="M1870 1891 c0 -5 3 -17 6 -26 5 -13 8 -14 15 -3 13 20 11 38 -6 38
-8 0 -15 -4 -15 -9z"/>
<path d="M3345 1880 c3 -5 15 -10 26 -10 10 0 19 5 19 10 0 6 -12 10 -26 10
-14 0 -23 -4 -19 -10z"/>
<path d="M2680 1880 c-1 -3 -3 -16 -6 -30 -3 -21 -2 -22 7 -7 6 10 8 23 5 30
-2 7 -5 10 -6 7z"/>
<path d="M3195 1840 c-3 -5 -3 -10 2 -10 4 0 19 -3 33 -6 24 -6 25 -6 5 9 -24
19 -32 21 -40 7z"/>
<path d="M3353 1833 c-7 -2 -13 -8 -13 -12 0 -10 79 -1 86 10 5 9 -52 11 -73
2z"/>
<path d="M2542 1822 c-9 -6 -6 -11 11 -19 18 -9 24 -8 24 2 0 8 -7 11 -15 7
-10 -3 -13 -1 -8 6 8 14 6 15 -12 4z"/>
<path d="M2650 1820 c0 -5 5 -10 11 -10 5 0 7 5 4 10 -3 6 -8 10 -11 10 -2 0
-4 -4 -4 -10z"/>
<path d="M3378 1793 c7 -3 16 -2 19 1 4 3 -2 6 -13 5 -11 0 -14 -3 -6 -6z"/>
<path d="M3162 1778 c-7 -7 -12 -18 -12 -26 0 -11 3 -12 14 -3 11 9 20 9 33 2
48 -28 48 -27 20 -65 -15 -19 -23 -37 -18 -41 5 -3 19 8 31 25 12 16 28 30 37
30 8 0 13 6 10 13 -3 7 4 24 14 38 29 37 22 46 -11 14 -27 -26 -31 -27 -47
-13 -33 29 -59 38 -71 26z"/>
<path d="M1856 1721 c-4 -7 -5 -15 -2 -18 9 -9 19 4 14 18 -4 11 -6 11 -12 0z"/>
<path d="M1916 1718 c-10 -6 -27 -19 -37 -29 -11 -11 -25 -19 -33 -19 -18 0
-56 -52 -56 -75 0 -9 -7 -23 -15 -31 -24 -24 -18 -30 31 -29 43 0 47 2 66 38
11 22 17 41 14 44 -10 10 -36 -19 -36 -38 0 -19 -24 -26 -34 -11 -7 12 40 98
52 95 12 -3 79 53 72 60 -3 3 -14 1 -24 -5z"/>
<path d="M1530 1646 c0 -7 -3 -29 -6 -47 -5 -23 -3 -31 3 -24 15 15 26 85 13
85 -5 0 -10 -6 -10 -14z"/>
<path d="M2103 1653 c-7 -3 -13 -12 -13 -21 0 -15 2 -15 17 1 18 18 16 27 -4
20z"/>
<path d="M2315 1542 c2 -50 -1 -90 -5 -87 -13 8 -49 -49 -56 -87 l-5 -33 30
35 c17 19 38 53 47 75 14 37 14 49 1 116 l-15 74 3 -93z"/>
<path d="M2220 1611 c0 -17 12 -41 20 -41 10 0 1 38 -11 46 -5 3 -9 1 -9 -5z"/>
<path d="M2141 1586 c-14 -15 -18 -26 -12 -30 10 -7 48 41 39 49 -2 3 -15 -6
-27 -19z"/>
<path d="M1960 1560 c0 -5 5 -10 11 -10 5 0 7 5 4 10 -3 6 -8 10 -11 10 -2 0
-4 -4 -4 -10z"/>
<path d="M1080 1536 c0 -26 -24 -51 -40 -41 -5 3 -10 0 -10 -8 0 -12 94 -89
156 -127 18 -11 22 -24 23 -78 1 -35 4 -68 6 -73 3 -4 1 -10 -5 -14 -6 -4 -13
7 -16 25 -10 48 -28 50 -21 2 3 -23 1 -42 -4 -42 -5 0 -9 -4 -9 -9 0 -9 41 -7
118 5 23 4 39 14 52 37 31 50 26 72 -25 108 -48 35 -51 39 -34 56 9 9 26 5 67
-15 38 -19 56 -23 59 -15 2 6 17 30 34 52 16 23 29 46 29 53 -1 12 -31 -18
-58 -58 -14 -20 -65 -27 -58 -8 4 10 -27 27 -114 62 -14 5 -50 33 -82 61 -31
28 -59 51 -62 51 -3 0 -6 -11 -6 -24z m62 -61 c21 -20 54 -43 73 -52 38 -18
42 -25 21 -42 -20 -17 -172 95 -155 115 16 19 16 19 61 -21z m135 -170 c61
-36 54 -84 -15 -99 -27 -7 -32 -5 -32 12 0 10 -3 40 -6 66 -4 25 -3 46 1 46 5
0 28 -11 52 -25z"/>
<path d="M2857 1547 c-7 -19 42 -42 57 -27 12 12 1 25 -30 34 -14 4 -24 2 -27
-7z"/>
<path d="M1481 1505 c-22 -38 -12 -59 11 -22 27 41 28 46 19 51 -5 3 -18 -10
-30 -29z"/>
<path d="M2946 1515 c-3 -8 -1 -15 4 -15 6 0 10 7 10 15 0 8 -2 15 -4 15 -2 0
-6 -7 -10 -15z"/>
<path d="M1910 1507 c0 -7 5 -18 12 -25 18 -18 -16 -26 -54 -13 l-33 11 28
-25 c51 -46 100 -20 71 37 -16 30 -24 35 -24 15z"/>
<path d="M1656 1478 c-8 -33 -7 -48 4 -48 6 0 10 9 10 20 0 19 4 20 38 14 l37
-7 -24 22 c-31 27 -57 27 -65 -1z"/>
<path d="M2037 1473 c-9 -55 -7 -97 5 -105 10 -6 8 -8 -4 -8 -11 0 -18 -8 -18
-20 0 -27 26 -25 34 3 3 12 18 28 33 35 15 7 39 21 53 33 l25 20 -30 -4 c-16
-3 -40 -8 -53 -12 -23 -8 -23 -7 -17 39 6 38 5 46 -8 46 -9 0 -17 -12 -20 -27z"/>
<path d="M1751 1404 c-31 -73 -20 -81 13 -8 29 63 29 64 18 64 -5 0 -19 -25
-31 -56z"/>
<path d="M2983 1444 c-18 -8 -33 -18 -33 -22 0 -4 14 -27 31 -50 l31 -42 -27
-36 -27 -35 19 -44 c11 -24 34 -60 51 -80 32 -35 33 -35 63 -20 36 19 69 46
69 57 0 13 -24 9 -63 -12 -20 -11 -37 -16 -37 -10 0 5 -6 10 -14 10 -23 0 -24
23 -2 42 21 17 21 18 -10 12 -26 -5 -32 -2 -42 22 -11 24 -10 30 9 50 15 16
29 22 43 18 14 -3 28 2 41 15 22 26 14 37 -14 20 -11 -7 -22 -11 -24 -9 -2 3
-18 24 -35 46 -18 23 -32 45 -32 48 0 18 48 2 76 -25 42 -41 51 -23 13 24 -33
41 -39 42 -86 21z"/>
<path d="M3285 1430 c-10 -16 27 -57 76 -84 89 -49 96 -25 9 34 -33 22 -60 45
-60 50 0 13 -17 13 -25 0z"/>
<path d="M1927 1398 c-7 -4 5 -8 26 -8 20 0 37 4 37 9 0 10 -46 9 -63 -1z"/>
<path d="M1597 1367 c-3 -8 -8 -44 -12 -81 l-7 -67 -24 22 -24 22 0 -24 c0
-14 6 -31 13 -38 10 -10 1 -23 -45 -66 -32 -29 -58 -59 -58 -67 0 -7 -3 -23
-6 -35 -10 -37 11 -26 30 15 9 20 46 62 81 92 62 53 64 57 65 101 0 25 3 67 6
93 4 29 3 46 -4 46 -5 0 -12 -6 -15 -13z"/>
<path d="M1640 1282 c0 -66 -3 -82 -20 -97 -22 -20 -40 -74 -40 -122 0 -41 18
-52 25 -16 18 79 31 107 60 122 17 9 37 21 45 26 8 6 33 10 55 11 51 1 189 38
220 58 34 22 35 21 35 -28 0 -38 4 -47 35 -70 l35 -27 -20 -39 c-22 -44 -26
-84 -8 -78 6 2 18 23 27 46 8 23 21 42 28 42 22 0 14 19 -27 64 -35 37 -40 49
-40 90 0 40 -3 46 -20 46 -12 0 -34 -7 -51 -15 -46 -24 -119 -36 -119 -19 0
20 -18 17 -22 -2 -2 -11 -21 -21 -53 -29 -43 -11 -51 -11 -61 2 -9 14 -12 13
-16 -4 -3 -11 -15 -22 -27 -26 -20 -5 -21 -2 -21 69 0 43 -4 74 -10 74 -6 0
-10 -33 -10 -78z"/>
<path d="M2630 1327 c0 -19 30 -90 35 -85 9 9 -11 92 -23 96 -6 2 -12 -3 -12
-11z"/>
<path d="M3125 1274 c-10 -15 -14 -32 -9 -42 4 -9 8 -21 8 -26 1 -5 6 -11 13
-13 7 -3 11 9 10 34 -1 21 3 46 7 56 13 27 -9 20 -29 -9z"/>
<path d="M2186 1244 c-3 -9 -6 -25 -6 -37 1 -21 1 -21 15 3 8 14 14 31 15 38
0 17 -17 15 -24 -4z"/>
<path d="M3080 1230 c-9 -6 -10 -10 -3 -10 6 0 15 5 18 10 8 12 4 12 -15 0z"/>
<path d="M2902 1213 c-18 -4 -23 -10 -20 -31 3 -29 28 -43 28 -16 0 10 7 26
17 36 9 10 12 17 7 17 -5 -1 -19 -4 -32 -6z"/>
<path d="M2677 1163 c-4 -27 -9 -69 -13 -94 -6 -46 9 -103 19 -69 23 79 34
156 25 181 -14 42 -25 36 -31 -18z"/>
<path d="M1385 1128 c-26 -14 -95 -80 -95 -90 0 -18 32 -6 67 26 21 18 48 38
61 45 12 7 20 16 17 22 -8 12 -25 11 -50 -3z"/>
<path d="M1567 983 c-4 -3 -7 -15 -7 -26 0 -16 3 -17 15 -7 8 7 15 19 15 26 0
15 -12 19 -23 7z"/>
<path d="M1205 904 c-69 -11 -182 -57 -236 -97 -12 -9 -18 -36 -23 -90 -3 -42
-10 -87 -15 -100 -12 -31 -1 -486 12 -494 9 -5 123 -22 177 -26 24 -2 25 1 28
60 l3 61 80 -49 c45 -28 102 -65 127 -83 61 -44 110 -68 122 -61 11 7 52 96
75 165 15 44 20 51 29 38 6 -9 25 -36 42 -60 64 -91 147 -127 291 -128 116 0
162 16 218 75 107 113 155 233 155 390 0 129 -27 180 -130 252 -90 62 -145 83
-219 83 -111 0 -212 -41 -277 -112 -82 -89 -120 -208 -112 -353 5 -75 4 -78
-11 -55 -9 13 -28 35 -43 48 l-27 24 34 52 c43 65 59 131 52 207 -9 76 -29
125 -74 171 -62 64 -176 97 -278 82z m211 -67 c65 -34 114 -127 114 -217 0
-84 -48 -182 -104 -212 -19 -10 -20 -10 -7 5 10 13 11 20 2 31 -9 11 -7 26 9
65 12 31 15 51 9 51 -7 0 -9 10 -5 25 4 14 2 25 -4 25 -5 0 -10 -4 -10 -10 0
-21 -19 -9 -28 18 l-10 27 -9 -25 -10 -24 -14 29 c-8 17 -30 38 -49 47 -19 10
-32 18 -27 18 4 0 -2 9 -13 20 -11 11 -20 24 -20 29 0 17 31 34 61 34 23 0 31
6 36 26 3 14 10 29 16 32 5 4 0 10 -12 14 -11 3 -21 10 -21 15 0 11 57 -3 96
-23z m599 -38 c22 -6 75 -34 118 -63 65 -43 82 -60 105 -106 71 -143 -3 -409
-143 -516 -28 -21 -53 -28 -121 -36 -66 -8 -88 -8 -94 2 -4 6 -10 11 -14 11
-34 -5 -106 1 -106 8 0 5 26 8 58 6 31 -2 47 -2 35 1 -12 3 -27 12 -33 20 -7
8 -18 14 -25 14 -31 0 -120 150 -100 168 4 4 10 1 12 -5 3 -7 10 -13 17 -13 7
0 19 -12 27 -26 12 -23 70 -57 133 -78 10 -4 16 -12 13 -20 -3 -8 2 -17 11
-21 16 -6 16 -7 0 -19 -17 -12 -17 -14 1 -30 17 -15 24 -16 60 -5 23 7 37 15
32 18 -21 13 6 34 35 27 21 -5 25 -4 14 4 -13 8 -13 10 3 10 9 0 17 4 17 9 0
5 10 11 22 13 12 2 22 11 24 22 1 11 10 23 18 28 8 5 18 25 21 46 3 20 13 66
22 101 13 49 14 67 5 82 -7 10 -12 25 -12 33 0 15 -57 39 -71 30 -5 -3 -9 5
-9 17 0 12 -3 19 -7 16 -3 -4 -12 2 -20 12 -7 11 -21 20 -31 19 -9 0 -37 8
-62 17 -59 22 -102 13 -145 -30 -37 -38 -54 -85 -56 -155 l-1 -45 -8 35 c-5
19 -7 44 -5 55 3 11 7 39 9 62 5 50 49 101 93 108 15 2 38 7 51 11 12 3 22 2
22 -4 0 -5 11 -9 25 -9 19 0 25 4 23 16 -2 11 -16 17 -46 19 -50 4 -53 12 -9
32 23 11 27 15 15 18 -11 2 -18 13 -18 28 0 18 -7 25 -27 30 -16 4 -37 12 -48
18 -18 10 -15 12 25 17 74 10 103 9 145 -2z m-1005 -23 c-25 -23 -37 -19 -26
9 3 8 16 15 28 15 l23 0 -25 -24z m692 -58 c-5 -7 -21 -31 -36 -52 -14 -21
-26 -32 -26 -23 0 15 56 87 67 87 3 0 1 -6 -5 -12z m-400 -88 c10 -13 17 -28
15 -33 -7 -23 -54 -47 -103 -53 l-52 -6 -3 52 c-5 63 6 72 75 67 37 -3 55 -10
68 -27z m-181 -17 c-10 -17 -10 -16 -11 3 0 23 13 41 18 25 2 -6 -1 -18 -7
-28z m266 -35 c-3 -8 -6 -5 -6 6 -1 11 2 17 5 13 3 -3 4 -12 1 -19z m604 -19
c115 -58 62 -249 -69 -249 -32 0 -48 7 -75 33 -47 44 -57 100 -28 160 36 75
97 95 172 56z m-691 -53 c-21 -19 -144 -32 -138 -14 4 11 42 19 133 26 17 2
17 0 5 -12z m120 -77 c0 -14 -17 -10 -23 5 -4 10 -1 13 9 9 7 -3 14 -9 14 -14z
m667 -56 c1 -10 3 -27 5 -38 2 -14 -3 -21 -19 -23 -13 -2 -23 -8 -23 -14 0 -5
-7 -7 -16 -4 -12 5 -15 2 -10 -9 3 -9 2 -14 -3 -11 -4 3 -17 -4 -29 -14 -12
-11 -26 -20 -32 -20 -5 0 -10 -4 -10 -10 0 -16 -47 -12 -64 6 -9 8 -16 12 -16
8 0 -11 -75 68 -89 95 -11 19 -11 22 1 15 7 -4 19 -16 26 -26 19 -26 86 -58
123 -58 42 0 91 31 123 80 30 46 31 46 33 23z m-581 -60 c17 -21 33 -43 37
-49 9 -15 -62 -194 -79 -201 -7 -3 -28 6 -46 18 l-33 24 28 9 c34 12 43 43 27
91 -7 20 -9 39 -6 42 13 13 51 9 59 -6 4 -9 4 -2 1 14 -4 17 -7 37 -8 45 0 8
-10 23 -20 33 -15 13 -16 17 -4 17 8 0 28 -17 44 -37z m-341 -33 c16 -16 27
-32 24 -34 -2 -2 -19 11 -37 30 -19 19 -30 34 -25 34 5 0 22 -13 38 -30z m-51
-34 c3 -11 6 -43 6 -70 l0 -48 -32 6 c-18 4 -54 10 -80 13 -45 5 -66 21 -33
24 8 1 20 3 25 4 6 1 17 3 25 4 9 0 20 19 27 45 9 35 16 44 34 44 14 0 24 -8
28 -22z m670 -115 c3 -5 -8 -11 -24 -13 -17 -3 -30 -3 -30 -1 0 3 28 16 47 22
1 1 4 -3 7 -8z"/>
<path d="M1998 633 c10 -4 10 -8 1 -19 -10 -12 -9 -13 6 -8 12 5 16 4 11 -4
-3 -6 -1 -14 5 -18 8 -4 9 -3 5 4 -4 7 0 12 11 13 16 0 16 1 -2 9 -11 5 -15 9
-10 9 13 2 -17 21 -30 20 -5 0 -4 -3 3 -6z"/>
<path d="M2192 551 c0 -17 1 -31 3 -31 7 0 12 39 5 49 -4 7 -7 -1 -8 -18z"/>
<path d="M2076 337 c3 -10 9 -15 12 -12 3 3 0 11 -7 18 -10 9 -11 8 -5 -6z"/>
<path d="M2540 879 c0 -17 -78 -168 -106 -204 -15 -19 -23 -39 -18 -46 4 -7 3
-9 -3 -6 -5 4 -22 -29 -38 -76 -16 -45 -43 -117 -62 -160 -37 -88 -83 -239
-83 -274 0 -29 42 -37 152 -31 90 5 93 8 103 80 l7 48 41 1 c23 0 88 6 144 12
l102 12 52 -77 c28 -42 57 -79 63 -81 7 -3 54 8 105 25 86 27 94 28 111 13 14
-13 43 -16 141 -18 127 -2 218 10 279 35 105 44 177 214 168 396 -8 162 -67
256 -204 323 -66 33 -73 34 -184 34 -120 -1 -184 -13 -218 -43 -19 -16 -21
-32 -25 -259 -2 -133 -1 -264 4 -290 4 -26 10 -64 14 -83 4 -24 -10 -4 -43 65
-27 55 -60 118 -74 140 -39 62 -98 174 -98 186 0 15 -63 114 -132 210 l-58 79
-70 0 c-42 0 -70 -4 -70 -11z m159 -57 c57 -86 101 -162 101 -174 0 -7 -12 7
-27 32 -24 41 -44 42 -28 2 3 -9 6 -17 5 -17 -1 0 15 -27 34 -59 20 -33 36
-71 36 -85 0 -40 11 -71 25 -71 13 0 48 -45 51 -67 1 -6 11 -22 23 -34 l21
-22 -10 33 c-5 19 -8 36 -5 38 2 3 0 14 -6 26 -9 17 -7 17 11 -4 22 -26 130
-240 130 -259 0 -10 -70 -35 -134 -46 -29 -6 -33 -3 -56 37 -13 24 -34 58 -48
76 -23 30 -19 45 6 20 8 -8 14 -4 22 18 7 16 12 36 12 44 2 25 -22 100 -31
100 -5 0 -21 29 -36 64 -15 36 -37 75 -48 87 -19 21 -21 21 -27 4 -5 -16 -11
-11 -33 26 -23 37 -27 40 -27 20 0 -37 -11 -18 -25 43 -9 39 -10 57 -2 65 8 8
8 14 -1 23 -7 7 -12 19 -12 28 0 9 -10 26 -23 38 -22 21 -23 21 -35 2 -19 -32
-31 -23 -20 14 11 34 11 34 72 35 60 0 62 0 85 -37z m798 -11 c58 -31 113 -85
113 -110 0 -6 4 -11 8 -11 5 0 14 -17 20 -39 9 -30 9 -46 -1 -76 -13 -36 -14
-37 -31 -20 -15 15 -19 16 -27 4 -7 -11 -9 -9 -9 8 0 20 -15 37 -32 38 -3 0
-22 15 -42 33 -20 18 -36 30 -36 26 0 -3 -11 1 -24 9 -12 9 -41 19 -62 23 -54
9 -71 20 -86 51 -7 16 -26 34 -42 42 -26 12 -31 12 -43 -5 -11 -15 -15 -16
-22 -5 -11 18 -20 3 -36 -63 -12 -49 -13 -49 -15 -16 l-2 35 -11 -35 -11 -35
-9 63 c-11 75 -9 77 65 104 43 15 74 18 163 15 102 -3 114 -5 172 -36z m-134
-150 c60 -14 112 -56 126 -100 32 -110 0 -164 -111 -183 -36 -6 -71 -9 -80 -6
-12 5 -16 33 -20 145 -3 76 -4 141 -1 146 6 9 39 9 86 -2z m-779 -112 c-14
-24 -23 -35 -19 -24 4 11 11 32 15 47 13 41 24 56 28 37 1 -8 -9 -35 -24 -60z
m68 -41 c10 -23 16 -43 13 -46 -5 -5 -75 7 -75 13 0 10 34 75 39 75 3 0 14
-19 23 -42z m997 -129 c-11 -65 -53 -153 -80 -173 -27 -18 -39 -20 -39 -6 0 6
5 10 11 10 15 0 49 39 49 57 0 7 5 13 11 13 6 0 9 6 6 13 -2 6 0 21 5 31 6 10
12 52 14 93 2 41 7 80 11 86 12 19 21 -74 12 -124z m-929 111 c0 -5 -7 -10
-15 -10 -8 0 -15 5 -15 10 0 6 7 10 15 10 8 0 15 -4 15 -10z m-149 -50 c10 0
19 -4 19 -10 0 -5 -6 -10 -13 -10 -16 0 -37 20 -36 35 0 5 3 4 6 -2 2 -7 13
-13 24 -13z m139 -35 c0 -17 -2 -18 -24 -9 -23 9 -20 24 4 24 11 0 20 -7 20
-15z m51 -84 c22 -50 16 -61 -35 -61 -19 0 -37 9 -52 28 -28 32 -28 32 -9 59
10 14 24 20 45 19 27 -1 34 -8 51 -45z m-301 -110 c0 -16 -3 -43 -6 -60 l-6
-31 -93 0 c-83 0 -93 2 -91 17 2 11 16 20 36 24 41 9 78 28 110 57 34 30 50
28 50 -7z m691 -45 c14 -15 11 -26 -6 -26 -11 0 -15 10 -14 38 1 21 3 28 6 17
3 -11 9 -24 14 -29z"/>
<path d="M3200 810 c-8 -5 -10 -10 -5 -10 6 0 17 5 25 10 8 5 11 10 5 10 -5 0
-17 -5 -25 -10z"/>
</g>
</svg>
